<mxfile host="app.diagrams.net" agent="Mozilla/5.0 (Macintosh; Intel Mac OS X 10_15_7) AppleWebKit/605.1.15 (KHTML, like Gecko) Version/26.0 Safari/605.1.15" version="28.0.7">
  <diagram name="Page-1" id="1GCj1yEKka10lm6zdBfc">
    <mxGraphModel dx="976" dy="665" grid="1" gridSize="10" guides="1" tooltips="1" connect="1" arrows="1" fold="1" page="1" pageScale="1" pageWidth="1100" pageHeight="850" background="none" math="0" shadow="0">
      <root>
        <mxCell id="0" />
        <mxCell id="1" parent="0" />
        <mxCell id="M0A9UQwUjTfV-8Phl40K-40" style="edgeStyle=orthogonalEdgeStyle;rounded=0;orthogonalLoop=1;jettySize=auto;html=1;entryX=0.778;entryY=1;entryDx=0;entryDy=0;entryPerimeter=0;" parent="1" edge="1">
          <mxGeometry relative="1" as="geometry">
            <mxPoint x="290.78999999999996" y="250" as="targetPoint" />
          </mxGeometry>
        </mxCell>
        <mxCell id="M0A9UQwUjTfV-8Phl40K-41" style="edgeStyle=orthogonalEdgeStyle;rounded=0;orthogonalLoop=1;jettySize=auto;html=1;exitX=0.25;exitY=1;exitDx=0;exitDy=0;entryX=0.573;entryY=0;entryDx=0;entryDy=0;entryPerimeter=0;" parent="1" edge="1">
          <mxGeometry relative="1" as="geometry">
            <mxPoint x="195.83999999999992" y="280" as="targetPoint" />
          </mxGeometry>
        </mxCell>
        <mxCell id="M0A9UQwUjTfV-8Phl40K-47" value="" style="rounded=0;whiteSpace=wrap;html=1;" parent="1" vertex="1">
          <mxGeometry x="80" y="121" width="280" height="280" as="geometry" />
        </mxCell>
        <mxCell id="M0A9UQwUjTfV-8Phl40K-48" value="" style="shape=image;verticalLabelPosition=bottom;labelBackgroundColor=default;verticalAlign=top;aspect=fixed;imageAspect=0;image=data:image/png,iVBORw0KGgoAAAANSUhEUgAAAk8AAAJQCAYAAACXR4AgAAAAAXNSR0IArs4c6QAAAERlWElmTU0AKgAAAAgAAYdpAAQAAAABAAAAGgAAAAAAA6ABAAMAAAABAAEAAKACAAQAAAABAAACT6ADAAQAAAABAAACUAAAAACoLyxvAABAAElEQVR4Aey9C3gdV3nvvWzLlmVLlizf77KdOImxYzlxSEwuFoSkgcDBgY8m9GuJgEJJT/nikFNOofBFeZoCB56AaVpuKUXJ+U4J7VPitEATaMg2Scg9lmMTO3Zib/luxbIkW7Iulqzv/ct721vS3rNnZq81s2bPfz3PSHvPrHnX+/7W7Jl33nVTiokESIAESIAESIAESIAESIAESIAESIAESIAESIAESIAESIAESIAESIAESIAESIAESIAESIAESIAESIAESIAESIAESIAESIAESIAESIAESIAESIAESIAESIAESIAESIAESIAESIAESIAESIAESIAESIAESIAESIAESIAESIAESIAESIAESIAESIAESIAESIAESIAESIAESIAESIAESIAESIAESIAESIAESIAESIAESIAESIAESIAESIAESIAESIAESIAESIAESIAESIAESIAESIAESIAESIAESIAESIAESIAESIAESIAESIAESIAESIAESIAESIAESIAESIAESIAESIAESIAESIAESIAESIAESIAESIAESIAESIAESIAESIAESIAESIAESIAESIAESIAESIAESIAESIAESIAESIAESIAESIAESIAESIAESIAESIAESIAESIAESIAESIAESIAESIAESIAESIAESIAESIAESIAESIAESIAESIAESIAESIAESIAESIAESIAESIAESIAESIAESIAESIAESIAESIAESIAESIAESIAESIAESIAESIAESIAESIAESIAESIAESIAESIAESIAESIAESIAESIAESIAESIAESIAESIAESIAESIAESIAESIAESIAESIAESIAESIAESIAESIAESIAESIAESIAESIAESIAESIAESIAESIAESIAESIAESIAESIAESIAESIAESIAESIAESIAESIAESIAESIAESIAESIAESIAESIAESIAESIAESIAESIAESIAESIAESIAESIAESIAESIAESIAESIAESIAESIAESIAESIAESIAESIAESIAESIAESIAESIAESIAESIAESIAESIAESIAESIAESIAESIAESIAESIAESIAESIAESIAESIAESIAESIAESIAESIAESIAESIAESIAESIAESIAESIAESIAESIAESIAESIAESIAESIAESIAESIAESIAESIAESIAESIAESIAESIAESIAESIAESIAESIAESIAESIAESIAESIAESIAESIAESIAESIAESIAESIAESIAESIAESIAESIAESIAESIAESIAESIAESIAESIAESIAESIAESIAESIAESIAESIAESIAESIAESIAESIAESIAESIAESIAESIAESIAESIAESIAESIAESIAESIAESIAESIAESIAESIAESIAESIAESIAESIAESIAESIAESIAESIAESIAESIAESIAESIAESIAESIAESIAESIAESIAESIAESIAESIAESIAESIAESIAESIAESIAESIAESIAESIAESIAESIAESIAESIAESIAESIAESIAESIAESIAESIAESIAESIAESIAESIAESIAESIAESIAESIAESIAESIAESIAESIAESIAESIAESIAESIAESIAESIAESIAESIAESIAESIAESIAESIAESIAESIAESIAESIAESIAESIAESIAESIAESIAESIAESIAESIAESIAESIAESIAESIAESIAESIAESIAESIAESIAESIAESIAESIAESIAESIAESIAESIAESIAESIAESIAESIAESIAESIAESIAESIAESIAESIAESIAESIAESIAESIAESIAESIAESIAESIAESIAESIAESIAESIAESIAESIAESIAESIAESIAESIAESIAESIAESIAESIAESIAESIAESIAESIAESIAESIAESIAESIAESIAESIAESIAESIAESIAESIAESIAESIAESIAESIAESIAESIAESIAESIAESIAESIAESIAESIAESIAESIAESIAESIAESIAESIAESIAESIAESIAESIAESIAESIAESIAESIAESIAESIAESIAESIAESIAESIAESIAESIAESIAESIAESIAESIAESIAESIAESMAEgTEmhFImCZCAPwLjxpXUyJl1suF/rWxVsuVKSTmQ3poGBvqbcmXk/vAJSN2iLlGn2NKf8T+d8HlV+kvq/2b53y5bAhvrWCgwkYAFBOg8WVAJVCEaBOThVyua1smG/zWp/5Xy3yl1yMGmVAb8T6a+w9lpTz1Q18s+bHWy5ZMnWRwTHrYJbCIf/5lCIpCq2zopHnVbK9tIx0h2eU7NcsYm2TZK/SaljBr5jK1OtirZUA7SurP/HP+mr82k5GqSjc6ZIy4eJIHzBMac/8hPJEACIwnIw2m97EtvhTo2I8Xj4aVbZmYZkL9JtkY6UplYzH0e4Qx/yFxJQ5JNXD/pa2aTXDO4dphIgASyEKDzlAUKd8WbQOptvl4obJDNpHMTJGhELDbKBkeqPciC41BW6pppEFvXy1Ys1wwcKVwziHLxmhEQTCSQJkDnKU2C/2NPIBU1wMPi9iKGwQeixsqVa6ZWxDXIZjrKpFFrz6J4zXhGxhOKnQCdp2KvYdrnioA8BDdIxgbZiiVqkM9uPhDzEXI4nhFpKmZHeyQBXDP1bM4biYXf40iAzlMca502nyOQegg2yg43HWzPnVfkH9DEl5StSbYEtjg126SuiTqxG1Gl9BYXp1pMzpsekxxwotrz5mQGEihSAnSeirRiaVZ+AvKQXC+5GmXjgzE/rq0pVuhInMyfPVo5Ug7TBtEa18SiaGkfirZwsNfLtdAUSukslARCJkDnKeQKYPHmCMgDsU6k16S2KvlfKxtSjWx8QIKEv4TIAzoRJ/ydbs9Zco3UizbYGHkUCD4THOv21LlwpvA5mdqaGKESEkxFR4DOU9FVaTwNSjlKdWI9HCRsdI4EguGEhyacqEbD5WgXn3KaGkQwrxPtdEcJ7JA9cKoS6f90qIQEU6QJ0HmKdPXFV3l5+NWI9etTG6MG4V4KcKI2RCESRacp3Aslo3RcMwnZMHUGHCsmEogUATpPkaqueCub4TDVC4lV8aZhpfWbRSt0JE7app1cO3WiU4NsdLQFgmUJkalGbHSkLKsZqpOTAJ2nnGh4wBYCqQffBtHnQ7boRD1yEsCDEE15DTlzBHhArp0qKQ663BlgsSzKPwFEpCLZFOzfZJ4ZRQJ0nqJYazHRWR58aJaD08RoQfTqHA9BRKGawlI95XQ3Svns1xRWJfgvd8gJl9PhSLX7F8MzScAMgXFmxFIqCfgngIfe2LFjG0XC/5StRjam6BGYLSp/VupxzODgmUSQ6iPaJOV+Xcr8nmxVQZbNsrQRmCiS6mT7mNRlu1xDoTnh2iyioKIiwMhTUVVntI3BQ08s2Cjb7dG2hNqPILBZvq8PIoIg11CtlNUoG/vECYQiSriGNoQZySwiljRFAwE6TxogUkThBOSht16kNMpWWbg0SrCQAJph6kw+/OQaqpcy4HzzGhIIRZrukmsIdcxEAqESYLNdqPhZOAjIQw83w2/LhlA9U3ESQN2iCeaIiSaY1DX0NSmD11BxXj9pq26Sa2ixbAm5jnrSO/mfBIImwMhT0MRZ3jkC8sCrki+Nsn3o3E5+iAOBT0j0oFGXoXIdQRabenUBjYYcDEhAJLM9GupSy2IjQOep2Go0IvakHKeEqLsqIipTTb0ECnageA3prZAISqMDFcFKKxaV6TwVS01GyA4+9NxXVml1lZp79YWjTug91q16jp1Ux3c3jzoWoR2+HahiuYaqLzw7i0LlxTOHVduBX29Xp3u6h+3jl6wE6EBlxcKdpgnQeTJNmPJHEZAH3ybZGfmmuvL5s9W0i+ao0hkTVfmSSaPs7Dnap7pbelTHzhZ1cn+Lr4fhZV+6Xk1dXTJKduaOrl0D6ujzHerQs7tV7/HItWJ4dqCi7Djhmpl7zWJVvXKymrwsd5fTti396tWvPplZza4+w9muXDBTTV5YqcpmTlQTZ00YdV7nnlOqs/mkan3jQBSvl1H2yI7N0nxXl+0A95GAKQJ0nkyRpdysBOTBt1EO3Jn1YER2zly1TC35w4WOD79spvQeHlQtvzup2ne0qpatu7JlGbWv7sd/oMaVj9qdcwceukeeOqoOPbc9Zx4LD7h2oKLoOI2fWKbm37BCzbthqiqd4/6W+8JdW1XngSN5qwvX4/Q1s1T1qjJP8iEY10vyX9+MegQTptwrDlQDPjCRQBAE3P+Sg9CGZRQ1AXnw1YmBT0XZyEXXr1YXfHZ4E4sfewY6lTr0xAnV/Ksdjm//1/zdjZ4fiNAngg/FvA5U1ByntNO06MPVnhzgdP05RZ7Q3Df7uoVq5jWTPMvOdr0++dEnsu2O2r7V4kA1RU1p6htNArnjxtG0h1pbTADDi0W9KotVzKta9YoFaqq84ReaxkprSuXyUrXwg/PV1AtrVO+RM6r7OKZCGp56Do1Ts66bOnyni29lc8aqOddPV+PHzVQn3mxVZ/r7XZwVapb1cn1sluHnyVxayPHvy7E/yHXcpv2IBl1+X62adkWZQl17Ta80vKQGukePxJ+7doV6xx2XqoV/OFNVXDDel+xsunQ09We9/rLltXjfWrl+cI0wkYBxAs6dKYwXzwLiQkCiBg1i69nesXEx2qWd6NM0dfXFEi26YFQTCpr3eg/X+Io+ofgFH5ki/WuuVtu/t91VE5BLlU1l24ToZLbogexHc28kpiNY/qlr1ZybRveBcwsNUcORfdfgjC37lP/rwKlsREH7unudskTl2Cq5TrCeYmNUFKae0SXAyFN06y4ymssNDdGmR2SL/ASGXfva1IRJM4be+nVXQDpaVD53gerY3X4u8rDwfUtVSYX/FvYJ0yQKdc1sdeyVLtV3Qp6UWRIiGu/89mo1q3axOtM9aWgkXwjRKlwfmEjz+5kTIOKBKPsxAWbgCU1vC9atVCvvulT6uV2g+lrK1MkDLVn1QN533lunqq8szXrc7c4zJwfVgd/sGcqODuYr/uJKtejWaQVdA7nKhuP08lfc9a3KJcOy/avl2oGjzUQCRgn4vyMbVYvCi4lA6uH342KxCQ/Jy79ytecO417sT/eJKp1VKv1aCnsYp8vN9aDECK219185rO9Muvx8fbLSsjX/3yrRg1rIlGsH/xOyVcoWWAKTpbeszBpBevP7Lar5yS3DdNF9TWAEZV/XYN6RlsOU8PFly5d2FkNn8ZGWv1uun8TInfxOAjoJ0HnSSZOyshKQB2CTHFiV9WDAO9Pz6pRMKh0azp2t+K59Har/VO9QU0au0U5oRln55cXZTrd6XzYHCkxWf/XirHojf/PPjqsQ5h16SBTaIFtCtsCuHThBi9fXDjV3SrlZ056Hj6u9//HSuWO6Hadzgg1/gIP2/F//V9ZScE1MnF6hSqef7d9XvmSyGj/5fEPF6a4B1bmna+jcM6f61cl9x1VXa8eo5sasws3vfEicp3rzxbCEOBNgn6c4134AtovjVCPFBPbwS5uEB9rUixYMOUhTV05Rk2aP89BvqDotZkh1PGRO7OlV7a+3qbe3vDU0X1PZ9MkZeaLzEdMerPmbVerZOzpczTuF/Es+Xq0Wffg69frGva6nWNBABP2bamQL7NqBQ7x8w+JhETg3dqz8/LuMRiHd6FBoHthedcm0vPNPnS+nZERE9OwIVDjbJ3b3q7ZtJxReQtxOyXFerpZP67VIoRAScCDAyJMDHB4qnIA4T7iRPVq4pPwS0D9kxuoFatZVlUYfZpivyct8Pfk1Dz5HZtRh8QevGHKQ3GjR8kyv2vmDF1w5Xm7k2ZAHjvbFf3blCGcgt2bo0J2eRmDZbWsdo1S5pdhxBNfBxLnjPDuMXrTHNdP64rFzLx5ezi0gL6ctKAAeT81PgM5TfkbMUQABcZ4a5PR7ChDheCoefDNWL1ULPzDbqMPkqERED8IJwGzTGJHnJcF5bPrGa1EYvZfXLDjctV+41LMzDIdgoHMga5+ovIXGOMPhx0+pfU/sDuLayTtvWIyrgaZrIEDnSQNEishNQJynTXL0Q7lz+DsCpwmzNvuZgNBfiTxrJIEd3zoYtZnMh5mAEYaXfH7esH38EgwBOO67Hv69SSfqXun31BCMNSwljgTO9wCMo/W02TgBGXb+WSmkRmdBQx2cv3yZmiGzK/uZgFCnLnGWNWPtlKFJOFu3H4gcBjRVLvvsrMjpXSwKY1qO+TfNNnn9bJUpCx4vFl60wz4CdJ7sq5Oi0kicp3oxqEaXUWhmWfPNFUbmvNGlY5zkYJb0silzpT/LvsiYjUksF3psqoyMcRFTFNeP6qlW7bsO6da8V5ynRt1CKY8E0gTGpj/wPwlEgcCEMj1zHkXB1qjoiNm04ZBEIRU6+3cUbKSOJEAC5gnQeTLPmCVoJFAky0hoJGKHqCg4UHSc7LhWRmqBeaIMpKQBmRRJAucI0Hk6h4IfokAAk1a+cNdWGekUBW3jpaPNDtSi61dzZJyFlyMmHB05W7smNZOa5FAMCWQlQOcpKxbu1EigSaOsIVFwoLAeFx0o3WQLlwcHCqPYbErQ54LPnp3E0Sa94q4LRmtmztSumUe7ZnkURwLDCNB5GoaDXwwQSBqQOTTEmQ6UCbKFy8Tw//QyOIVLK0wCBhgs+wynIyiMov6zA5jmQvtLm34KlBhlAnSeolx70dA9YUrNMCNQmCiSKTeBS790scLiumEmzAWGCTCxxAxTdgJhXMcBOE6KCwNnr2/u1UeAk2TqY0lJOQjIRJkIoVfmOFzw7qAX6c1cGBaRjSkLpg8toIo19Kau5nKR6QrNXAImvS/I/yvvrHO95EqQeoVVFurj+LYu1ft2z9BCvsd3Nw+pEuTvJ/O3Y5DDY+I8rTcon6JJQPFOz4sgCAKbpBAs9GokYfHRPQ9Xul6frVAl5t0wVR16tmpoBXlEv7Ah7f2Ps5LTDlXV8qmqelWZ56U/zkqJ/t/Jy8YpTEZpsF9LTkjo5zTzmvhOa4H+gK1NverE9o5hjlI2YJMXGnuvGVYcZhUP6FrA/YaJBIwSYOTJKF4KBwGJPNXKvy2maVz2pesDjfzgYXDkqaN5lyhB89Xs1YvVlBWVsXygY3Rk2sE0fQ1APprrrv7edbFrrkNk6ejzHTJh6X5XvNEvbfZ1CwMZhQhn7tk7fhvEgtIdcgnUSOSpPYhrjWXElwCdp/jWfaCWiwOVkALXmSwUTsra+68M/KGJB8OhJ06o5l/tGIpG5bMRzSTT18wSR2pS4Lrm083E8aCb7+LUXIcFiltfPCYO01uuHRNE5YJeSHvbfXsVIsQBJK5pFwBkFqEUnSdeBYEQEOepTgp6ynRhaCZa8vFq08XklI9V44/8dp9K9yfJmTF1IC6O1JvfbzE1n88wxEPrHn714mH7iu2LH4cpzIW0EaF99atPBlENjDoFQZllDBGg88QLITAC4kBtlMLuNF3gNX93Y+j9jPDASP7rm66dKDBBRGDaO6cXZdNeUM02NtS9iesb0bvDv2mVvnY7XUeYoAeisUtvWRlI01wuuwNstr1Lmutwj2EiAeME6DwZR8wC0gTEeaqSz02yLUrvM/EfTgjmGrIhYSj4np8cytsvKlNXPPDmXn2hWvTh6qJq1jM90sqmes+sz0I+I5K574ndrvowZZZjg9MEfaD/6z96OlM1U583i+NUZ0o45ZLASAJ0nkYS4XejBMSBqpUCErIZHeJjWwTCjxOFigijfwrKNZWe+bMXXPUL81O+bXXuxwacg2vl4K/b1IFfb/cUZcK5tjhN0AVpy5d2eoq+nj3L899mOaOWncQ9c+MJBRAYV8C5PJUEPBMYHDxzZOzYsTvlxNs8n+zhhHEl1WqqTBNgSyqpGKNmrJ2iZtUuVqf2D6ju4+iekT+dPNCiDvxmj+po6lcTJSJVNifa89qO6ZuiWrcfyG+4xxxwMmffOMXjWXZlh9O0+8FD6vcPPqfadx1SZ/rdL5gLp+miP7pCveOuxarigvFWGIamxt3/anyQLX5IN4njlLTCaCoRGwJ0nmJT1fYYKg7UTnGgFotGiEIZSd3HTqmFH5xvRHYhQidMG6vmXD9dTb2wRvUeOePaiYKzdfjpvZF3osoXlqqDT3hzDNzwfscdlyqwjWLKdJrgLHtJ6Ah+wf91hVr5haXWOE1p/ff96zHVsffsHGjpfQb+f1Ecp00G5FIkCTgSoPPkiIcHTRBI9X36vsieaEI+ZA5096jyuQvU5IV2zgOLCBKcqLIpc9WJ5hND+rphEXUnauwEpU63lGl9qGKE3cI/jN7Cv4U4TbhWMLJ05V9erKpq7ZwM9PUHt7u+rt1c+znyzJGXMdxLmEggUAJ0ngLFzcJAQKJOaLK71TSNsnKZ4XvNZNPFFCQfTSzz3j1fjTlTPdRU41ZYlJ2o0ikTh5oi3dqaL9/iWy61LuripHOhThOmt1j915erGTJPGJxRGxOa7Jp/8XoQqs2W+8lD4kC1B1EYyyCBNAE6T2kS/B8YAbnZNUhhxifjGTit1PybZgdml9+C8ABE/6x51y5VnW/2u27KQ3lpJ6r3QJmaUlOh0LfK9oTmtbef61J9J2R2UQ3pHf/PJdY6EZnmYbqG5CPH1Y4fvKw6kocyD7n6jH5Nq+66Wi26dZr19Xw00Wmkb1sOUM3iPD2f4xh3k4ARAnSejGClUCcC4jwZbbJLl42H86L3XxCJByt0huODpjw0N3bsbvfU5IG+MoefOqQGOius6iifrouR/we7Jml5uCIKM/u9U0eKt+47Jrbc+s1X1LGtezx1BIch6Ne06H2r1aovXxiZAQP7fnZIdR1tDaoeysR5agyqMJZDAiBgZ4cQ1k3REkhNVWB0moJMeCd29we63l1m2X4/Y0HbabVXqr3/n7dZuU/3dA8tvPr2ltlq2cffYbXd1SulOfURv4TOn4dlbmxOaKLb9aOk76VJ0J9r+ecuCn3SV6+MT7We8HpKIfmNLvtUiGI8t3gJMPJUvHVrpWUSdbpKFEOfp0BSxbzZqnK5nR1qnQCgKQ/9tTAq7/jv2zxFoRBxw8i8M8enqMqLJ1sZeUPT3aEnWz3ZlY3XRZ+42NomrP3/dkJtf+BFdfLg0WyqO+5DtOkd//0adcEnZltrn5MBb/xoq9Nh7cfkvvKYRJ+OaBdMgSSQg0A0x/bmMIa7I0HA2PQE2awvmRzt4OrU1SVDix0vun51NvMc9zU/uUU9d/cLCkvF2JimXVTYVBLoA1Q6x74+Xog2YXLIXY8853mSS9QTmiKv/t51kV6mB85fwKkq4PJYXMwJMPIU8wsgaPPlDbFOysSmLZXPn63mrbtETSgrV6VTylX/qT5VtXiemn31MrXwI9GeOBGQMqNQx1464qnPDKZssDUK1SN9pguZMHPasoVq1nV29XdKR5u6Wo55vr7T0aYlfzzdymihF4Omr5ivznRPUuPLylTZNJncVTb8HvEbNdQXarNEnpq86Mi8JFAIgWi/lhdiOc8tCgJwnNb8zarUGnDVKZuMD+QLhR2iUIhIvL5xr+c+NIhCtb4xW624Y4WavMyOd6byJZMK4jh5YWBd5/LqiZF0fuolLRh9my790sVFs5YhrrHs60tWqz0PVw71zUvbrul/jSY5FEMCrgiw2c4VJmaylcB5x8lWDfXqNa5cqZVfXqyW3bZ2aBSWF+mdB46oV/7m2aHFWr2cZyrvpNmFOXHlS+yYwwtzGqF5tGXrLl+oUJerv1o8jlM+CFNXGokGJ/OVy+MkoJMAI086aVJW4AT6Tw7K27p9/V5Mg1ggzZHVK69W27+3XcEpcpswIg+r3Le/vkIt+8y8UCMdhfZXGj+5MOfLLTOnfGimQ98mPwl9tlbfvcaaSKAfGyw6J2mRLlQlBgQYeYpBJVtmYlKnPqeODOgUFylZaBpB5A0djL2mQ89tVy9/ZatC52Ym7wTQTLfjWwd9O06os7X3XxlLx+l0V3x/s96vNJ5hKwE6T7bWTPHqldRpWueeUzrFRU5WZjOeV+URsXrhC08rNDsxuScAxwmOJxxQPwnNdGh6Rd3FMZ3Y3mHCbHYWN0GVMnMSoPOUEw0PGCKg9SZ37BXvy1wYsitUsWjGu+xL13vuB4VmvOf/+r+s6QcVKkQXhcPRfPaO33pqKk2LxWi6q/72vQp1Fed0ZMte3eZ3DAz0t+sWSnkk4ESAzpMTHR7TTiB1k9P26nl8dzObnlK1hNF4V37jWoURiF4T+kGh/w5TbgKYLwsd7uFwek2oE4yUtGWko1f9deWH89l7XLufo/WFTJetlFPcBOg8FXf92mqd1pvdnp8w+pSuaHTC9tsPCh2f0Y+HaTSBw4+fUq9+9UlfjtPctSvUld9OT6cxWnac9uz7ufvBDR64JDzkZVYS0EKAzpMWjBTikUDCY37H7Oh7wn475xGl+0Hhoe01gWVQDlShndV7jvZ5Nc9XfjhOiMz5SejflH2+Iz/Son0OfqN++4nlsVzry1iesniYBIYI0HnihRAGgYTuQjFkn2k4ATy08fD2moJyoAodKdnd0uPVNM/5/TpO6N+0/FPXxr5/UybwXY27M7/q/JzQKYyySMANATpPbigxj1YC0u8pIQK19XuCchg5tufh4/jIlEEAnZPxEPeagnCg2rYV1seqY2eLV7M85S/Ecbr8K1erOTcVNoO6J2Utz4z+dOifaCBtZmdxA1QpMi8BOk95ETGDIQKbdMvd+x8vqZZnenWLjbw8PMT9jMQz7UC9vWV/QWzxMMa0ASZSoY5T3DuGZ9YJmuv8TiSaKSfHZ+33kRzlcDcJDCMQ/hS9w9Thl7gQkAWCYeptuu1t23pUYVHSCdP4XpDJtmzO2CEuR3932NPCwicPtKjeA2Vqxlq9w+vR3+nNn27NVNHX50nT56qKC8b7OjfXSX4dJ4you0omviwV1kxnCaCeX/rKM56uOY/sPiYLAptvv/WoFLMXPwH+you/jq20UELteGPU2nQHQzGMHMPJ2YF8dLUjGoLmJPTH8ZJMRKAO/rrNiwo58x757b6cx/wcKMRxits6i/n4IirY9I3XfI1QzCc7dfwxNtm5JMVs2gkw8qQdKQW6JSDRp4mSt85tfrf5zvT3K0RYGIEaTQwROXAJMwKFh+rv/+4lLdGI7uMdauqFNQqRtUITHadCCZ4/Pz0Lu5d1F8+f7frTHRJ1SrrOzYwkoJEAnSeNMCnKGwFxnpJyxgZvZ7nLTQcqN6dCHKiyKYU3kyUfOa5aX9fXebj3yBk15/rpuQ12cQSRyu1//4Jnhw5NdYw4DQcckOPULFEnI/eO4dbwGwlkJ0DnKTsX7g2AgLw1tosDtViKqjVRXNqBKps5W01eWGKiiMjK9OtAvb1lnyrEgUIfmB0/eNmzk+IEGtGn8rkLfNcxHCc/M4fTcRpdK2D5UsNLqvvosdEH9e65S+4fTXpFUhoJuCdA58k9K+Y0QECcJ9wAPyEbmvC0JzhQLS8k1fhxM1Xl8lLt8qMs0K8D1b7jbd9Noq/8v6+pHv3LcygMFJi9dqEqqRjjqUrO9svZ5lknOk6jMWOk67ZvPaf6ThoaAnm+SESd6s9/5ScSCJ4AnafgmbPEDAKp6JORvk8ZxajW7QekE/k4Nf2yqWrshMwj8f7sx4FKR/Tm37jIE0vMXN76+h4jwKHT8W1das41sz3ptLVhp+pIeluSho7T6Cp88/statdPntcaURxdyrk9t7Cv0zkW/BASATpPIYFnsecJpKJPH5M9Vef36v/UdbRVHX66VU27aA6nMsjA69eBOvZKl5p/k7tFiOE4YdSeydR3olNBJ7cOFB74R17e6UklOk7DcaEZFtHEt7e+OfyAuW8YYfd1c+IpmQTcEaDz5I4TcxkkIG+RPSkHqt5gMUOiB7p71IHfSPSjp1pNXeVtyL5p3cKUDwcKfcPQxOk2wVk5c3yKql4zOecpaBZ74+/NO05pBdIO1IxVsxyb8NDEhEiJl0THaTgtzBq+/YEXPTd5Dpfi6RumNqnD/cLTWcxMAgYI0HkyAJUivRNAGF4cqKly5lXez/Z+RvuuQ3kf/N6lRvsMdKpHZ3B0CnebOvYeydlZG52Hm76xzVhTXS4d4UAdfurQkDOYbaAAoiVbv/47T01MmBtrTcM71fhp3vpU5dIx6vsRtdsjM/qjuTTA9DGJOrGTeIDAWVRuAnSecrPhkYAJiAP1uDhQt0ix7tqCCtSvp6NHLfzg/AKlFNfpmK0bnevRR8xtGtlZG9EmTEew/XvPKDgyYaT0QIFs/dy8dlqH44TJRctqCp9LKgwWJsp8/cHtClHcANNDbK4LkDaLykuAr1F5ETFDkATGjStBv6ekbJUmyi2trpI+T/NV6fQytejD1WpcuYlSoi/TTx+l6gsXqYqF1erIlr2q18CIOr9U4fzMvfpi1X2sS3Xsl+VmPOp21d++V3GtuuH0Eb3DLPFYnNnQgr+ZBW4Vx6k2c0eUP8s9DrbgPpcrtTPClguNPfvpPNlTF9QkRSB1c0nIV+0O1OIPXqGWfLyarF0Q2PKlnUE8GF1oEl6W5Z+6VmFhZabcBPw42rmljTqyVfbUiTPRPupIBHbIvawO+qe2Gvm/SDa3qVkyNsmWwEaHSihYlOg8WVQZVOU8AVMO1GVful5NXc0JM8+Tzv0poJmicysQ8hE62u4r4IW7tioDS7Ggg3hN1BwnuXetF73Tm84XQDhTCdkahQn+M4VIgI34IcJn0bkJpN6y6iQHbqDaUtu2E9pkFbsgNGmuuGOF54WEi4HL3LUrGKH0UJGnT2nv/4SIU21UHCdxmKpka5AtKXo/Ktvtsul0nETcUNQKcp9CObJtkK0KB5iCJ0DnKXjmLNElgZQDVe8yu6tse2WEEPprMLkjgL4+Kz//LneZiyQXpiRY9pl5RWKNeTMwZYHXfmQutKqX33/SRb5Qs8B5ka1BlEjKdo9si2QLIqGcb8sGJ2qjbDVBFMoyzhPgaLvzLPjJQgIy+g6zj39Wp2qdb/YXvJCsTn1sl1U2Z6znEXi225RLP05JkItM9v14EcFcT7qnLBDH6Y7sJdqzVxyWDaLNJtn+QDbcp8JIKBfTu3wC90rZmjgPVjDVwMhTMJxZik8CqeiT1qY7jA7a8/BxnxrF87QFH5miZq5aVvTGI8pWOoddQd1W9OsPvKFO93S7ze4232a3GcPIhyiPbAkpG5Ef3U1zfk2CHoh8IRJV71cIz3NPgJEn96yYMyQC8jZ1sRRdq7N4TJI59cIahagKkzsCWBcQy9sEPL+PO+U05EIH8bk35Z4tXUMRRSUCzXUHfmtkyZ2HJHqSsBFWKtr0iOh2UQH6wTlE5+/HZHtCNnxPb2PkM47hv5/+TIhErZd75rtlSwjHdvnOZIAAKoiJBKwmkHqT+rFuJdOTH3IOH/dkMWv483/9X+5PiEhOzFG1+qvw0ZncEGjb0q9e/eqTbrL6ybM6FXH2c66Rc+QeBEdmo2y3eywAjlAivXntxyXl1sm5tbLhPzYvkS5E7NF3bJP8Z9JMgM6TZqAUZ4aA3ETaRbKXG4crRehAucI0LJOhYenDygj6CyfCdE8cDvQrf/OsieY6KGHdhJhy76kRveCArJLNbXpIMmqfUkB0WS9y62X7kGxu073iQDW4zcx87giwzcIdJ+YKn0CjCRXQXwMPArxJM8WXAKOP7uresOMEJTa60ySYXOKs1EpJTbK5dZzulbyLxVlBxCchn7UmRJFkgwO1WDY4aG7SPWJHo5uMzOOeAPs8uWfFnCESkPb7nVL8BhMqYKTQ4af3KtVTraauKjNRRNHIxOiqN3+KKXiKK82qXawmTOO7pFOt4gWj6X/9zlTECUV3iGNwm5MOQR5LOU4JKdNNxBuOzC1wboLoZ4QyZNsk90X0m7pEthrZnFKt5F2Mc5wy8Zh7AnSe3LNizhAJ4GaBH7+oUGtKDXQi72jqV9XLp6mSijGmiom03MO/Oulp0eCoGDtuTKWqXsPO4rnqC6NTd/zoGe1TEowo73/J7zwxYl8oXz04TuhX9D5xmjbiHhW0slLmEdka5d6IG1ZdnvLpQOUB5OUwnxBeaDFvqATkhlYjCkiIyHzCyCsuHDya8zN/9oKJCRFHFxTwHiwYfc0Prgy4VPuLQzPd9u9tN7H0ykjjm2WHFTOKy32mSnRJypYv4oSoD5rnAneapNxRyYPD9wnRuXGUAO7wRICRJ0+4mDlMAnizc/mGVbCaiEIdfOKQGuisUFOWlqmxEwoWGXkBaLY58KsdkbcjmwGYfoFTV5wng+bZ3Q8eUjseel71neg8f8Dcp7vkgf68OfHuJcs9BnosynMGOmF/Vu5JPXnyBXYYUSjR/XEpcK1ssx0KXi/5Nkv+pEMeHspDgJGnPIB42C4CqbfCJtEq381Nm+IYkTdj9VK18AOzVZw7FhfjKLvMi4TTFaihpYv2/OSQenvLWyb7NmVix+fN4ojUjdwZxne5v2yUcu/MU7bVkZvUPTIhNjh1ckdzY41wtyJqloe3lYfpPFlZLVTKiYDcHOrk+FNOeUwdw7pnc69ZrGa+qyJWM1FjQsRdjzxnCqs1clfeWadmXlNqjT5BKdLyTK86mjikWrbuCqrIdDl4iKO5LpneEdZ/ua+sl7IfzVO+1Y5TWveUA5XvJfMx4Q6bmXwQoPPkAxpPCZ+A3Bw2ihb53hCNKgpHatpFc9S0K2WU3uoSo2WFKTyA4elhmjesbPR9Wnv/lWpc+bDdRfkFDlPri8eCjjKNZGmFM5JyNpKiXOVIBTO+O+oqMgYz8hb6casIaJctgU2cHPz3lESfWjkhIZuTTUMjBD0JZuYhAnSeeCFEloDcHJpE+VW2GIBmn2X1FxZV096AdHd5+Stbg+gwbEs1qrlrV6hLPj/PGn10KYK6PPTECdW+o1W1vbE/yGa5XCY8JE5Bfa6DQe6Xe0m+l7HviK4bnHTS7DyNLAoROui4UfRoH3kw13fRab0cezTXcdnfLJsVHfUddLTyEDuMW1ktVMoNgVTnyE9IXqznFHrqPt6hznRPUjPWTgldF10K/P4be1WbLKQcp3TyQIsqmzJXVVwwvqjM3tqwc2gtuq6jraanHHDDDZGV22zocC0ORo3o8hMHpbeKwwInxDHJ/ajBMUNhB3GPq5PtDimnR7i56lwv+XZKfgRJcG62VCU7eyVfIttB7stNgLPC5WbDI5YTkBtaUlSss0lNdCovlrTjWwfD6ANjBb7Xf/S0Ovz4KSt00aEERkoet8cJRhRlvZcIig4GDjIaHY7hUH2e40EeRhPct8Xha3RbqHBukLxwVnOlDSIPThSTBwJ0njzAYlb7CMiNoUm0QvQp9LT8U9cWRZMdmnfgOB16bnvoTMNUoJgcKPTJQ7OyBQmOU13qxSd0dcRpqBMl1jkogqZF3GNsS7d7caBE+XoHA+CQbXA4zkNZCNB5ygKFu6JFQG5ujaJx6A7UxFkTogUui7aY3wd9nOLuOKXRwIHCSMNiSDUfvcAGM+A42eSM1OeB0pDneJiH4UCtd6NAivm9DnkZfXKAk+0QnadsVLgvcgRscKBaXzgeOW6ZCmP01QtfeDpWncMz7c/1GVM0IBKHiFyU05QLQx8RitFq1jhO4njUSH3e7lCniDolHY7bcKhR7KhyqchGyYfIX7aE6FN9tgPcl50AO4xn58K9ESQgnR6bpHNks6ju6m1Mt4kde4+o8eNmqsrl0ZonCE4BOobvfewVGzoS664WLfLQifzw062qQqanKJsTzXfON/7+oIIdISQ8sNeKI/J4CGXnLFLuFRvkYF3ODErdJfeUpMPxYYdEXsOwHcF8QUfyo6Jn3g7kkqdHdEx3PM+m3SWSBw4WkwsCY1zkYRYSiBQBeROrF4VxE8DbVOBp5qplavmGxdbPFQSnqflnx9WBX2+3Ydh64PXkt0BMZbDsM/Osr9+0fQGuT5cuMvN/uo9TU+ZOGz7LfSIpeuTqCIYRdrVe9BR5gw75N4u8OofjQ4dEBvJUyYb/62XLpZ8cOpdc6yryIbvt3JmjP6wWPZtG7+aekQToPI0kwu9FQUBuErViSEK2UBwoLOmyeH2tWvAR+6YtoNNU+CWO+p1/wwqrF49O1/Pe/3ipcIP9Sdgqp2FUXdLf6ebOSt0ftjiUgCbGRofjow6JzIKdp5FCRSZ0uH3k/izfp4q+7Vn2j9qVR+Z3RM6GUSdxxygCdJ5GIeGOYiEgN4kqsWWTbOvCsgkzVi+9ZaUs+TEp9EgFIhD7fn4k7Bmlw6oKI+XCiZp79cVqwYdmWLVcD6ZZeOvRbar3uKvnqQk2D4nQDW4f6CYUcJIp94aNcvzOHHkQLfO87pvI1O48QT+Ri3vYh/DZIb1bWCccjp87JPLq5MtT53YM/9AscmqG7+K3bAToPGWjwn1FRUBuFg1i0D1hGhXW4sJwmI5v61KHntnLjuCGLwBMBTD7uoWhOcoYKbn/sbfVoWd3htkMC8cDTlOjYdwFiZd7QpMIWJVDyEOif32OYzl3i0xTzlONFLo3Z8FnD3iKlImuSTltUQ6Zi8V+HGdyIEDnyQEODxUPAblZ1Io1jbLlumEGZmzakapaPlVVryrTGrFIO0udzSdV6xsHwow8BMbTxoLgSE2/fK6qXjnZ6NxfqO+jz3dINHG/Dc7xZqmLetsfvHIvqBI92xyuG0+OSFqOKecJ8vM4O8hyr3BvwAc3SeQ1Sr7bc+T1ZX8OWUW7O/Sxq0VLloZZRUBuLHjTrJWbRoP83yBbpWyhpNM93UPzKB167nzxeNhOnF6hSqeXqbKZE5WbOaPatp2df6hrX4c61XrChofneYNi/gmzeQ/N6P3IWRCo34qF1ap0xkRVvmSSmjR7nGenGbOEn+4aUJ17ulTHzhZ1cn9LmBGmzBqORLQpQ2G8SDmlTU4HQzqWlHJzRYr8qAQbczlP+fj4Ka/ozqHzVHRVSoOcCODtLPXW1SD5ct08nEQYOTb0oN1tRDSFWkDgnDOVRRc4VrlSV2uHzdFDOE0bscnvqj2XDRbur3PQCSPXomRL2hSvOifSJ2b5X5tlH3eNIEDnaQQQfi1+AnJzTIqV9akoVIN8tsaJEl2YYkZgyHGOls1RdZrSlGvSH7L8T2TZZ8OumjxKNOU5PuwwHES5/22Vndm6MawblplfshKI5mxvWU3hThLwRgBOlGz1cta93s5kbhKINQFMP9CAB3BEKdQ46O3JCXGQo+2QODl1Iix3eFJmDZe6SPgoMKetUmaVD3mxOoXOU6yqm8ZmI4AHgexHZ1cmEiABZwIP+XxQO0sN9miNQ3FJh2OBH0o5MY15Ct6Y53iuw8lcB2R/rcMxHhICdJ54GZDAWQL18g/NEUwkQALZCaCZZ0P2Q5HamzOKY5NjmIo4JYRsTn3lWLNsfp0nyGbySYB9nnyC42nFRUBumsmMm1VoI/GKiyqtKSICeLFAc117EdlkhSly36kRRbAhVclWJ9t62ZycJjk8lEzVCfRgciBA58kBDg/Fi4A8GJroQMWrzmmtKwJwnOrwguEqd3QzIYpjKq2Te8ugZuGYj6mpAJlJh3Nr5dgmh+OxP8Rmu9hfAgSQSSB1M1qfuY+fSSDGBNKOUyEP6ajgS0ZEUdTJarlXNRaibwyc4ULw5D2XzlNeRMwQJwLydlgl9m6Mk820lQQcCKAJG3Oj4XfBZAcBzOIeB2fWDto5tGCzXQ4w3B0/AqkHREIszzb3SfyAGLJ42uRKtbhyurpgYqW6eHyFmqJK1KV9k1Vlb/7b0dMVeOlW6sXTberI6VPqaG+X2tGy35CmFJsi8CH5n5DfB5ru2kkldAKPSl18R+piQ+iaxFiB/HerGMOh6fEhIDejWrE2IRs7i2uudjhLa2csVGtKq9U1fZXnnaQeKQibh3TtybPVc226mnAHm3uFglMFh+p3bQfUvrYWDxKZ1SUBvFDQgXIJK4Bsd+JlTxyo+gDKYhFZCIzJso+7SCBWBOQmVCMGIwxuleNUWjpRLamcoZZOqlLlY8ereSVlat6YiaPq5uBgjzrY363e7OlQ21oPqt5ejx7JKImF74DD9OE5F6mbBqerhd2jdS68hNwSOkr71X+Ob1W/bN9nXVTqkpkLzimOej3Sd0p19fed27en420r6u+cQqM/bJVdkY5Aye89V8ftZnFGakab7G6Pg1x3Avzl8r2Ir+hbJ0U+laPYe4VFQ45j3C0E6DzxMog1AbmBVAmAhGx4sw41wVlaO7NGXV42Tb3v9LTzERqPWv2iolX9tG1PKI5D3YKL1Z+ULVSXdpZ71NpM9n1lPerHA/vVrw/vDsUpgRN5w6yl6oaS6Z6YIJJ2QvWrnadPqq2db4dSlw41EmkHysnJEYfB9zPRSa6wzOuMpO5FdZJ3vWy3y+YmYS0+RM09JymvTk7K5TzdInI3eRYaoxN8XygxYkRTi5RA6maVEPNCdZzWzF2qPlAxX918cppW0j+cdEA9+OaLWmVmEwan75Z5y9WfDs737fBlk6tzXzoa1Xhwu2rtOttvSqf8bLJuW3KZurunJtshz/ug/zMTOlTi1FH1XEsyFEdwhNKRdaDkd98ktmT9zRt0njaL7LoRDHN+FR1r5CCcl6x6jjhxschOjtiX96uUsUEyfTtHxneLzESOY9wtBOg88TKILQG5eeDm9KEwAKQdjo+OmW20Wev+iUn1yJ5XjZiYtsFmpymb4XAqH97/mlEH5O5lV6vbOmdlK17LvkfKj9rQLPmYPGDXazEoQCHyu09IcetyFOnbaRC5gzlkYrcn5wkniLwq+ZeQLZ8DdZfUw0bJ5ymJfJxzZ46TfHPIIa/odtN5KroqpUFuCOS5cbgR4SsPmnHq560w+mDNVAwRi5sP/Uq7o4Dmuc9NWGLU8cu0Q/dncNk4uFf9PLlNt2iFfk0Pl1yhXW42gWiWfKBvj0rs35ntcBD7HpIHd30QBekqI89v/xNiT6OfskSuVucJOohMOFBJ2Sply5V8ObEiOyECszqRwoC+QS7aqf2c5ykPIB4uPgJy06gXq3K9cRkxGFEaNOM8Xnl9YI4TDMHw/5XT5mmzCc7fty66Xn1zYHlkHac0l3v6LlQ/WnajWjh1pjY+EPT+qoVa5TkJQ2d81MW/LX2/gkMbQro99XsKoWjfRTY5nFnrcCzwQ+LEtEuhjXkKrslzPNfhrI5TrszcP5wAnafhPPityAnIjR43x41BmomH2i/m3qit/4tX3TGfko70gZqV6qcz16n0dAE6ZIYtAx3b/63sGgXbdKVsIyJ1yc4lJ+1EwbHV7QzmKjNj/8bU7ypjl9Ufmxy0q3M4FtahTXkKXpXn+KjDUl91o3ae37H5/Ed+ykWAzlMuMtxfrAQaxTA93kQeQplRGjcTQOYR5/tw55nTvs/FiYiaNVy0TiFSE6YdBRmR52TYBscDtkY5wbGFM/jpC94ZpC34PTXKA7kqCuwkmuPkPK2Kih0Fsl7vcL4TH4fT4nWIzlO86jvW1spNcaMA8PyW5geaTVGat061+zFh6BxEMf55/nu0jwT0rZDBE+F4wNZCIzeYdyvs9JlT89V3F11XsC0e7MDvqsFD/rCzPuagQJ3DsTAO+f8B59Z2fe5DQ3PeORzmIRCg88TrIBYEUmHqO00ba1uUBh2j/S5fAifin6quinTfJq/1jeavIZsL6Af1Sner12KN5E83SQbYFwqzXtcZMUa/0ISDSCfHwuE0M4fyRMo8Fyp1VCsnLXI4MeFwjIdSBOg88VKIC4FG04aimQ5v+7rnaypEb8y07SelHadibaZzYgKb0fTl1+nAPEw2JXQox9QJAaXGgMoptJhNDgLWi4NR5XA86oc2OBjQLM5a0uE4D6UI0HnipVD0BORG2CBGOr1pFcwAzgY6U9sys3baIEwK6TXF2XHKZDU0otBHBArL42AeJpsS5pwKqE/XotTvzSbzR+mSchCaRx04uwN9uNbnOBbp3Smn0Mm2TZE2MEDl6TwFCJtFBU9AbhY1UqrTm1bBSmFeHzT12BalwQPc62zaiJ7ZaEvBleRTgN8mPD9Oq08VXZ+GPl2IjAbQKX5D6nfnWreQMjo5CkbvGSHZi2JhF5zDXKkx1wHuH06AztNwHvxWfAQaxCSnm0VBFqNpBxMi2uY4oa/T3ze/4tm2b8y70jpbPBuh8QTU67er13h2OOC0YnZ32xIiowE4UPi9NdhmexZ9NmbZl96FUXd16S/F8D8VdXJyCtFk11QMtgZhA52nICizjFAIpN5+bzdVOJq30LRjY7qvf5fnWcUxiadtzY42sEUn8o8vuNSzKlgW57XyTs/nmT4hIAcKk2fWmLalEPmppjus0ZcrOTlXuc6xef96Uc7pRbLY7DVaF3SejOKl8JAJNJgqP90vyJT8QuSiuc7rch1ortO1iG0hutt6Lob+o3nWa7r37SaFKKBtKe1AGdarwbB8HeKdHAZEn6Jgg1sOTrZgtexGt4KYj1MV8BooUgImo07oM2JrvyBEOvw012G9PSZnAp+eusw5Q5aj+9paFKKANiY4UIZH4VkffZJ62SQbHIdc6R65l9TmOmjLftGxzkkXOb5BjjsNmtkokbh2Jxk8NpwAI0/DefBb8RBoMGUK+ozY1scJtiLC8YWDL3huroMz+L7T00zhKhq56HCNCJ3XhCjgDycd8HpaIPkxCk/n0jRZlG7Iss+aXSmHAQ6UU2p0OmjJsZwOXupFssFBT4w63OhwnIeyEKDzlAUKd0WbQOpmYaSvE5a9sLFfEBynT7Y/73l0HWoaCwfb6AzaeBWuneFv0d8H33xR/aLC35xbpjlgaRo0QxtKiD5VGZKtS2yDCHKKPqH5LmznwqlvFjg4MW6U405efwOjTkDoLZV4y87cJBAJAvUmtFwzd6lC3xcbE5qG0ETkJw0tHBz+iiJ+VA/8nPeUzlQ/91nq15IvqAUStbTR+caIwj869RvPUUuXKOolX9jOR05V0XE85RzdkzOTUpg9vUnyNjrkebfDsXaHY3kPSbm1eTNlySA6N8judVkOpXdtzWNTOh//jyAwZsR3fiWByBOQG0ZSjHBq3/dsI5q2fjH3RisjNH857nXPHcQzAWDRX5tmRc/UzbbPT1d0qM+/8aRvtXAdodnXRgcKkbGGNzb7ts3hRAyBr3E4bsUhF/cNRKfqxJYmKxTOo4TYUy9Zfpwn2+qo2JPHjsAPs9kucOQs0CQBuWGsF/laHSfo+xeLLrfScUJfGq8j60byn6IYgB7JxNR3zD5u6wg8ONCIrhpIi+R36StyYkAXJ5H1TgflGJq+EmJLTZ58oR926TjdS8fJf1XRefLPjmfaSQDOk9aEIeroWGtbwpQE6EtTaHrxdFuhIni+BwJoXkX/NBunMPhi2UWeJwR1aXq9y3yhZRNHIiGF35tHAThQm8Q5qcqTL7TDLh0nNNc1hKZkERRM56kIKpEmDCOg3XnyM0R9mEYGvsBxun/Xs1okHzl9SoucOAjZMXBSi5m2OlCYEPSWeUYmftX+u9RSESOEpByKfG2Xq+Q0RKBqR5we+lfRaYMoka+pDs2PkaiP0IE6KEDnyQEOD0WLgNw4cEPAm6G2hOVXMETdpqTTcYJdz7UkbTLPal2eaNXHylYHCpOl+pmSIU/FRaXpDmbgPtKcxx6rHCi591XJ1ig6fzuP3ul+W8k8+Xg4DwE6T3kA8XCkCGh/m/rchCVWAdDtOME49MOBXCZnAugs7ndEYy7JtjpQhiZN1f77zMW1kP0SfWqX86ErHA2nhLeqLeK0NDhlMn1Myq+TMppku91FWRvEPuRlKpAAnacCAfJ0qwjU6dQGUSc0Y9iSTDhOadswK7mNfXDS+tnwf2PLNiNq2OhAoY+fgehTnRGABoSmHAzom8+BQumYhbwp5cTgeyBJyquRrVEKe0o2N4NkPiF2IT+TBgJ0Len/JAAAQABJREFUnjRApIjwCeBGIlq4uYG4Vva/TZrnOq/pjCYdJ+iO6NNf9f7etBmRlX/vhN3ao06ZMGx0oD4856JMFXV8XqdDSFAyPDpQaMZ7Cs6MbLUmdcS9DuVIGXtlu91FWXAA303HyQUpD1noPHmAxaxWE6jTqR3eum3p62TacUpze/nQWwpzRjENJwD+P0+aiTpllmSbA3XrwOxM9bR8lod+nRZBAQlJOVBwhra6LBLODJry0KG8XrYql+c5ZoOclLxNktGt0wSZ6LuFuakS+MKkj8A4faIoiQTCIzB27NgNUjpuclrS9fOWyR0n/PXe4Mz8ZO8WLTa5EZI8cUztrhpUNw7OcJO96PPcPzGpZToIt6A6errUT7ub1ZqZc9SsvgluTzOSb+LAWLWlok8dOtmmU37z4OCZhE6BpmWJvu1yf3lEypkjm9t7TI3kXS/bX8m575atRrYq2XogT/Y7JjhLkvcq2epla5DM35MN8i6WzW3aLBnhOCXdnsB87gmMcZ+VOUnAXgJys2kS7RA615J+tOzGUGeBRv8jLLlS6ASYfmFgrTMs2WFTny+/tvg5D/zRjIloXBgJM5F/rebq0KOfmIRVx1xiGQwfk4c5nIBIJrnPQPdG2SoLNAARoWQWGVWyT8d9DBNgNmSRz12aCNB50gSSYsIlIDe1QV0a4MH1zLT36xLnWQ4e3JhEEc04YSZw+PiCS61dz88UGyxTgnXo0A8s7HT3sqtDnaB1X1mP+shbv9SJoVke6jU6BQYtC1EhKXOjbG76GwWtHpoX64VxU9AFx608Ok9xq/EitFduZnVi1lO6TMMSFd/T8vLnXaPXyjvVFw6+oFq73Azy8S7fzxmIQm2YuTL0KIgf3b2cg6kIHmzbpXa07PdymvG8GPX5zQEjE1e60v2mjie1Xo/yYC+K547cd2oFIJyoda5Ams2ESFaDsG00Wwylpwmwz1OaBP9HloD0CcBN7DZdBtw860J1+ekpusS5loOOyfc0P69Odne5PieIjOiH80TrXvVMWafqnVKiVvSVB1FsYGUg0nTfqd+r/7OvSR3rOhFYuW4LQj80sH9P2SyFfkhBp62TexR00JXk97pZ+v0kdckLS47YcES2RtgjOiyWrSYEXeA03SVOU73owmhTgBXAFUEDhM2ijBGA86QtXTKuQpsst4IwFP7nu8yP6HKrT7Z8iMhga5SRiDfMWqo+OmZ2ZPtEoTnq8THH1M8Ov6FaD9kT5cvGHfvA/ebSt9V3F10XeF+8C0unqEQuxbhfieMCPHUSiaqR/xtkq5et0D5RIsIxPSZHG6XsTY65eNAYgTHGJFMwCQREQG5aG6WoO3UV99LcD+sSlVcOHuJ3HX859P5NeRXNkQFNeu+aOl/dUDI98Id6DpVy7kaT6PMy0AlLrITdnyynki4OfPqCdwbaDw3NmZ9/40kXmrnOUvSdmeWetF5opDddjtRmkQlnaZM4TUn5zxQiATpPIcJn0YUTSN2kHi1c0lkJQXYWt6ljsg5+YLdy2jy1etI0ddXYqtCdqbSztLv3hNp2/LDWfjs6eBUi45KZC9QDk1eryl7zjQcGOo0j1FcjDkB7IQyicq7co2pF1zrZ8L9GNjd9pJolX1K2RGprigsvsTcSic5TJKqJSmYjIDelGtnfJJuuNzuFh9LDJVdkK07bvrCHwWszxIUg8JxVOlnNHj9JvXP81KEzdE8+isgI0oun29SR06fU0d4u6zp9Dymo+Q+c1S/WXKluPml+PrIrDv1Ms/Yq0lMW6ICRcqqqMmWJg5TI/M7P9hKg82Rv3VCzPATk5gPHaVWebJ4Om3aeii3a5AnuiMyYxX3m5PMd85dOqlLlY8ePyHX+69bOt8996TrdG+mmt3OGaPjwgZqVasOYxUajUAacJ1h+izgLmzQgoAgSCJyA+Zhv4CaxwDgQEMepQezU6jiZ5HYu2vRGOJMumrTNr2xMx5A5JcMOZdcUAX7tCvo8LB3z3OR96nPzawOJQmm0rxHRYzZHaSRKUYERCH7ca2CmsaBiJZAKd98TFfswS/PNh34V2mzVUeFEPf0TgBPa8MZmdYcswQZHPSIJze0bI6Ir1SSBYQToPA3DwS8RIWDshqtzgkT0xcEEg1jewobZqiNSt1SzAAJYTgaOOhx2XQkd7w2m2+VlqM6gfIomASME6DwZwUqhpgjIjbZeZLsZreJbhUIfFnCaPt7/0tDw7sxmKd8K8UQS8EAAjjoc9o90P6PSnek9nD4qK6Z3MJwaDMuneBLQToAzjGtHSoEmCchsvuhgWmWyjDMVk2Qpcu8jmDCk+77BXeoHe16ycqZqk8wo2z4CmTPDXz55mqrs99fF9Tvdb5i+nmvkd93MGbLtu4aoUW4CHG2Xmw2PWEYgFXX6cRBq/WjZja7nKYLT9EDfHpXYvzMI1VgGCfgigDXyPjdhiadZ4TE6FH2pAkiRXzA4AEYswiICdJ4sqgyq4kxAnKek5FjknEvPUcyh87Waqx0Xw8WD5ecnD7AjuB7klBIQASx8/YGK+XlH5qHJ74vJZ4Psr/cJGXnXGBAGFkMCBRGg81QQPp4cFIEgo06ZNqWXH8nch/mGdHYsz5St4zPmT1pcOV1dMLFSVYwtUbnW6js42KMO9nerN3s6VEv3Sc6blAd+el6qVeUzXHHFhJ17Oo9byxUvCGtn1iisXZd5jeC6+GX7vjCucUaf8lyDPGwPATpP9tQFNXEgIM5TkxyOzLxODqZoP4SH+toZC9Wa0mp1TV+l78kSMcT9mQkdKnHqqHquJRlkxEE7E10CEaVZVz5bvWug0lNz18jyEcXBDOi/aztgrTM1UueQvnPizJDAs1hvBOg8eePF3CEQEMepVordEkLR1haJqMENcy5Ut0yY47pvlldj0Cz507Y9YUQgvKqqNT+c0Q/PuUjdOjDbtyPqpBD6yD0+5pj62eE3hk0S6nROjI5tlqa7uhjZS1MjSoDOU0QrLk5qi/PUKPbeHiebc9mKB3v9vBXqts5ZubJo3x+XDvFhsEVE6sG2XbFzUPNcpIvFgUrmycPDJBAqATpPoeJn4W4IiPPULvkwG3FsUxgP9pGw8aDf2LKt6JqdEMW7Zd5ydXdPzUiTA/tOJ2oY6u+I87Rh2B5+IQHLCNB5sqxCqM5wAuI4rZc9jw7fG59veLB/fMGl6jOn5ltj9P0Tk+qRPa9ao08himBAwLer1xTUn6mQ8keeCyfqbw+8HPfmvA5xnqpGsuF3ErCJACfJtKk2qMsoAjJ53mdl51WjDsRgBzorb5x2hXpPd7VV1r5LnmtXzVmgnu05prpP91qlmxdlPlCzUn137Grfk0d6Kctt3kV9E9UfT1yiTs4oU9vbDrs9rdjyTZTf/VaZNJMTpxVbzRaRPXSeiqgyi9EUuYl+X+yK1Vsook0bll6p/qpvqVUP9szra1bfBPXByoUqMaZNYSbrqKW7l12t/qJ7obVqpx3UpjMnI8lXA9hecZ42aZBDESRghACb7YxgpVAdBKTJrkbk7NUhKyoy0Ix0z4xaYyPoTHD4y3GvR2Z2dTimX6y5Mu8EkSY4+ZGJ6SPu698VGb5+bMxxDpvucoDhbjsIMPJkRz1QixEExHGqlV2PyDZ7xKGi/YpmugfKL1OLuidGysYbB2eo3VWDKnnimPV6f/OCdeq9J6dar2dawYkDYxX4TplTrZ5r3Z/eHYf/aLq7RbbHJQLVHgeDaWO0CDDyFK36ioW2qU7ijWJsbEbYYd2xbw4sj3T9fqT7GatH4qGpLsgpHnRXJjqTB7xcim4T/MjrkJPqpAN5k5+TeQ4JmCIw1pRgyiUBPwTEcaqX8zC6LjaO021LLou844S6/qeqqxSmVLAxgXGUHScwvfZkpfruousUmh5jlHBBbUndF2JkNk21nQCb7WyvoRjpl7pB/jhGJitEQ2yahqAQ9mhiunT6TPXvrW8VIkb7uZfMXKC+eeYd2uWGIRAd9dfMnKOe6DyoJBoThgphlblemvCapQmPEaiwaoDlDiNA52kYDn4Ji0AcHScMlbd5xJefawEPdzWrQr16/KCf07WfgyjNP8y4ytpRi34MpgNFB8rPdcNz9BJgs51enpTmg0AcHSf0cbqn70IftOw/BZE0jBq0IWGC0YUR64DvhtulneVDTXhu8hZZnh+zCa/IajSi5jDyFNGKKxa15UaIUXX/WSz2uLEDjsU/jrvcTdbI5rlkanXozXdorrtv4JLIMsynOCJQMRyFByxowtssTXjJfIx4nARMEWDkyRRZys1LQBynKsmUyJuxiDKgQzU6Vhd7QmQE0bUw06enLguz+EDKRid4NP/GMG1KvXjF0HSabAMBOk821EJ8dUiI6XYOzzJUJ9+Yd6Wq7C0xJN0usZ+bsCQ0hRB1wui0OCQ0/9rSTBogb1RuY+oFLMBiWRQJnCVA54lXQigE5Ka3UQpeFUrhIRWK4fKIyMQloa9RWNGnOESdMq8jLG4csykMYD7uH7iPMJFA4AToPAWOnAWK41QnFO6MEwlEBu7uqYmTyUO2/rdJ8wK3GU2jcYk6peHCUUXn+Bim2+V+sj6GdtPkkAnQeQq5AuJWfCrM3hg3u7FeXRwTnJigJ8788JyL4oh6aL4wNFfGMLH5LoaVHrbJdJ7CroH4ld8gJi+Kk9lxa64bWbdBOzO3DsRmOcSRqNV9FbHsPD7U/2kUDO4gAYMEOFWBQbgUPZyARJ0QfjE+gzgiHVfOXqyumr5QTS+vVCcHTqvu073DlQnoG/qh3F+xWmH27bimGSUT1L+07Q7EfERePjYYy+jLEN/K/hJ1ckaZ2t52OBDeIwvJ/O1NLJukes+cCeq3d7FMX7BVpi/YOVInficBEwTiMezHBDnK9EPAaOdO3Ljr5604u4bZgKiHDalyufrhnAPq4f2vqd7enrP7Avr7F4suV5Wd8f6ZoT8O6qa1C2u8mk3XTJmj1CmzZdgu/U8H56tHS18P9FrHSwL6XA0tNTTst6fUI/OOqsaD24Oof9xfNtleP9SvOAgw8lQc9Wi9FalOnf/TlKIY1fVAxeVqTfeUrEVcfnpK4GuCwWH4+thYNqOMqoOtk3tU8sSxUft17/jv09+hhpaI0S04QvIQ5WyrHh9Y9AmOExYsfn/X9KyUVvSVqw9WLlT7KsaYvgaqJPo0RqJPiayKcCcJaCQQ37YEjRApyhUBY1EnLK77zYHleedPwjQBiAQFlRAFYzpL4PKyacZR4CEep6kgnIAi+gQeQST8pvJxx9xm+I3it2o4bUgNSjFcDMXHnQCdp7hfAQHYLzezeinGSCdx3Iwxy7LbhLxBjEjCg8uLXm71j2q+5WqycdWXVM4wXkZUCoCzcsMc82sn4rfk5TpHXsMOFDqPb4hKPVHP6BKg8xTduouS5g0mlMWyFF5u3GkdgphA8ZZ5y9PF8b8QyBeZ0AFpVTmdp0yOnxhnvuO8n98SfrOGl5Rh9CnzQuBnIwToPBnBSqFpAqm+TtqjTnjjxbIUfhLmHjK9nMVHx8R3uHyuOjHNvGJsvDvmj+SOjvpr5i4duVvbd9Sn38lI8ds1GAFm9ElbLVNQLgJ0nnKR4X5dBLSH0NEk9sDk1QXp9wfTago63+lkPBTw4GIaTmDy+NLhOzR/u2RchWaJ0Re3rtycE1/obwi/YYP9suqjX3u0wGYCdJ5srp2I6yZRp1oxYZ1uM75YU/jiuleNrdKt1jl5769aeO4zP5wnMKvUfL+n86XxEwigicyUg1Lobwj9svBbNpQWpfpaGhJPsXEnQOcp7leAWfu1R53QDHHzycJHbqEPDqYSMJHed7pw/UzoFbbM2eMnGVXBbxOSUaUsEL5ymv71BeGQ6ejHht+ywabFegvwU4UiJUDnqUgrNmyz5K0PoZ31OvXADfvrpe/QJnJltUyoqDmhyQ5v1EwkYAsBE013Oh0y/KYNRcfWyX2oxpZ6oB7FRYDOU3HVp03WwHHSGtrBCDadjsmFpdkn1CwEIkd8FUKP55og8K4BrT/DIRUvmKhPJn7TmJ3cUNL6AmdIR4qNIAE6TxGstIiorPWmhTdTTPynMxXaZyObLu8cPzXbbu4jgdAIpJfH0amA7uscy7oYakav12k3ZZFAmgCdpzQJ/tdGINVk9yFtAkWQ7qgTdNPRZ2Okjex3M5IIv9tAQHcT9aJ+/SMnDc3Iv4pNdzZcgcWnA52n4qtTGyyyPuqUhqRzrhnT8xildeZ/EvBKQHdnfRNTcWBkoKHok9b7kVf2zF+cBOg8FWe9hm2V1puViahTGpDO4fNLyqvTYvk/C4Ejp09l2atv176yHn3CikySzmY2nS8cIzEbij5pvR+N1Jnf40mAzlM869201Vqb7EzO1q3zjVynLNMVFIb8o71dRottLuk1Kj/KwnU2s+l84RjJ1FD0CaPuqkaWxe8kUAgBOk+F0OO5owjITapu1M4CdmAOGBNNBGmVLh6vb1ZqnbLS+hXT/67TZp2bE6q/mHBptUXnb8j0S8INs4wsKVOnFSiFxZ4AnafYXwLaAdTplGhijppM/aYofXMy6ZSVqWOxfN7X1mLUlJ2nTxqVT+FnCZheQ9BQpLmO9UcCOgnQedJJk7JAoE4nBtOzdV/axyVDdNZXLlmvlXfmOqRtv+k+VdoUDUmQrr5KptcQRJTMwKzjdSFhZ7FFSoDOU5FWbIhmaVvLDjdQnZNiZmOiUz4dsWyEz+7bP8Zskx1K2dN5PLcCPBIpAgYizqsiBYDKWk+AzpP1VRQdBXX3dzJwAzUKU6cjZlTREIS/3GvesTHdLBgCNiuL1Nn5PJeBJiLOuu9PuXTn/ngQoPMUj3oOyspanQWZWFYim36G5pbJVlRs973WcTQQ25+u6AiknDgXorPzeS6OeBExMG+a1vtTLt25Px4E6DzFo56DslLbzQkOTRA3aYCZOVn/GndBAY9COR2l/SqoqNCLp9uigIQ6uiBwaeUsF7k8ZanxlJuZScCBAJ0nBzg85JmANudpceV0z4WHfQKcBKbRBP5zfOvonYb2/K7tgCHJFBs0gTWl2ied1XZ/CpoFy7OPAJ0n++okyhpp65Spc9X2oIC+NsHsJJBB2aG7nM2dR3SLzCkPES7ONJ4dz56Ot7MfsHTvNX2VujWr0S2Q8uJLgM5TfOteq+XSGbNGp0Cdy0no1IuyvBFANO7lQ295O6nA3I+POVaghOI8vbc3WsvXoN9TaelEnZWxSKcwyoo3ATpP8a5/ndbX6BQWxIgenfpC1sHBaD2cdNufTV6QTXbp8p9oTaY/8n+KQFSblJdUztBah/KSx6Y7rUTjK4zOU3zrXrflWm9KQXUW1wnhYH+3TnFFIeuX7fsCtwNNd0FMyhm4YQUUGNUm5aWTqgqwOuup2gVmLYU7i54Anaeir+LADNR2UzIwRDkQCG/2cJh8Jmg4MDta9mfuCuzz/+4O3mkLzDgfBe0YiObSNeVjx/uwlqeQgHkCdJ7MM2YJHglMHl/q8YzCsuvqSLu3g31tMmsiTAcmsX+nimpTVSZDXZ93957QJSpQOfNKynSXV6dbIOXFkwCdp3jWuwmr60wIDUKmro60rV0dfGCnKgwj3uDAhJn+cQynLUjz17l0TZBO6bwxWjuMp3HwPwkUTIDOU8EIKUA3gcklE3SLDEzeMxPYdAfYD/TtCYx5roIePfg6nVmBA2dH5ySlUe0/les64X4S8EOAzpMfajzHKIEg53jSPSdQ4lQwy5AYrYAChdsQdYIJiChuHNxboDXRPz2MEY/Rp0YLSMCZAJ0nZz48WuQEmkt6tVr4XEtSq7woCvvyyW3WqP3z5LbYT5qpe5JSTslhzeVNRUIkQOcpRPgsOnwCJ5TeJVUQ7fhFRXDLkYRPcLgGsD2sEXbDNTn/zSZn7rxWwXxCk53uSUojPiVHTTDkWUqxE6DzVOw1HEH7ghzyv/O0/iHccW26w4P6gQNN1l1xcOYeKY9nc6qJJrvOM6etq2MPCtV4yMusJJCTAJ2nnGh4ICwCXf19gRVtwlGL6zD5+/p3KYw4tDH9ffMrsew83nhwu/bqeOtUu3aZAQpMBFgWiypiAnSeirhyaVp+Ai3d+iNPKDVuw+TRXBf21AROtY3m1M91bXHKUnTHnq7oMOLM6poXzQ1w3c3qbspkHhJwQ4DOkxtKzBMoga7TejtxOymvcwh3ZjlxGiaP0XVfS76Qab6Vn9F8d//EpJW6mVDqwbZdJsQOjWIMaq4nE83qRqBQaOwI0HmKXZUbMzipS7Iph2akfibXP0OkIw7RJzxE7zr+8tADdSRfG78/sudVhYhMsSfTHfc511OxX0G0Lx8BOk/5CPG4WwJJtxnd5Avizfb5M2b7buBBrXseKTfsgsyDfk5BObu67Ppi8tmiXzjYdMf9F0+36aoORzlbO992PM6DJBAWATpPYZFnuY4EgnizDWK9r2IeJv+X4163up9TrgsMUcEvHHyhaDuQo2nSdMd9EwMtstWXgSZ8+4aDZjOc+6wnQOfJ+iqKjIJab0pBrAK/7fhh43DRz+aHk4pvjTXYZHMH8XwVC+fik+3PF50DhaZoRDxNp22tB00XMSTfQFTTbLg5ECosxAYCdJ5sqIXi0EHrTcl0VAjNaabfztPV+uCbLxZVMxHmTIJNUU94MBeTA4WmbkTUgkiI3pnsMwgbDPVN03qfCoI1y7CTAJ0nO+slilppjTyZjgr9blywnYb/vPm3RRHlQFPd/buejeL1mVXnYnKgMBVDUC8EgGm6z6CJ6PPAQL/W+1TWi4o7Y0GAzlMsqtm8kXJT0vpGh4eAyc7Wutf7ykcYb+pRj3JEtY9TvrqBA3XzoV8Zj6Tk06OQ46iboJfF2XLK7DJEBuQ3F8KY55JAJgE6T5k0+LlQApsLFZB5vsnokO71vjL1zvU5qlEONAd9pPuZSPdxylUn6f1wbhEdjOIyLmE5tfgNmRwVa6BfVTJd3/xPAoUSoPNUKEGen0lAa0jcVHQozIV7o+ZAod8JojLQu9gTHCg0Sd47YXdkTA3LcUoDMrF2HmTjN4r60JwSmuVRXIwJ0HmKceUbMF2r82TgzXPI5LAX7o1CMxEiCnAiPv/GkyYeYgYuPX0if57cNhRpM90huhCNUT8f738p9GigqRecl3uPF4In17nJXAe4nwS8EqDz5JUY8zsR0Oo84c1TdzMKHjo2DLGHbZ/a9SsrpzFAtOnWls0KTkRcExxc1A/mTDLZNOWHL5w61E/QfZyy6Wqq6e65t/dlK67QfVrvT4Uqw/OjTYDOU7TrzyrtUyNZtA5j+2W73puoqWYGvxWBIf+IIJjsHO9WN+gAXRBtCnLUllv9wsiHOZPgqOh24v3YAicOzhycOpvqR/dvCk12Buzr4Eg7P1cdz8lFYFyuA9xPAn4IjB079io572I/52Y751jXCXXVnAVqVt+EbIc97/vGqR0KMm1K0Odf2narw9NK1OqSSjVxINh3GjhN9w3uUt9IPmcdGxvqqVsWqn6udb/62ZlDqmT6ZLWirzxwteC8ffnIS+qllmTgZecr8OCZXnXr+IX5srk+ft+p35u4Dp8YHDzziGslmJEE8hCg85QHEA97IyDO00Q5Y723s5xzn5g0Xt04OMM5k4ujcBL+4cArLnKGk2VXe4v6aXez2l+l1JIJk1Vlf4lRRfCGjwcVmCRPHDNaVjEIz3SijlaNVfPHTzReR3Ca/sfbL6gnj+xWKN/G1NHTpW6auVgLCzQZ/599RlrXfiDO0/M28qNO0SQwJppqU2tbCYwbV1Ijuu3Vrd+3LrpeXXuysiCxYY9M8qr8JTMXqPdXLVTvOz1NVfbqcaTgMKHD/HMSwTAwmsmriZHPv2buUrWufLZ610ClWtiN94bCExyIfz91MFJ1VLfgYvXNgeUFG49mY0N9uVaz2a7g6qGADAJ0njJg8KMeAuJA4dVxlR5pZ6XAkXi45ArfItFfBEPuo+owLJw6U11aOUutKa1WCwZL1aWd+ZuO0LF4/5hetfP0SYXV6Q09lHzXSbGdOG1ypVpZPUddWDpFXTKuQl3aJ9HDPE4voqHNJb3qxdNtCovtYoRpFK/R0tKJ6hdzb8xrr1Odw2lEfzsDqVkcpxoDcikyxgToPMW48k2ZLs7TBpH9bd3y7152tbqtc5YvsehoG8SCqb6UK+AkOFWTx5eek4BV6KMwJxMetksqZ6hV5TNUxdiSIWcDRizqL80awYEj2DFmYMhOOBqdZ06rt061qz0db1vvbMCpmjl5yrk6woco6D1MYRdfbltymbq7p8ZFzuxZbuowNlDhO+I84Z7ERALaCNB50oaSgtIETDXd+X27jXrUKc01yv9Rd2tn1qjLy6ZpbeICEzhWr6suhTmHohq5iXLdpnVHHf/z/PdkdX7TeXL9N/xywya7XOC53zcBOk++0fFEJwLiQCXk+DqnPH6O+Wm+i1pfJz9cbDwn7TD9SdlCV82MumxI9+uyYT4vXTZFRY6f3yecX0y/YCixyc4Q2LiL5Wi7uF8BhuyXUXeQvF63eAzr31016Hr0HR6kjXvsHWGnm48N8tCU+KcLa9W3SlYP1ZOuaSbc2rasb9JQubdOv1CVTq9Uzb2d1o5Uc2tTVPINTQMyq0Jdfnp4M2Uu/REV/r8P/EZJs1quLIXu/46MsksUKoTnk8BIAow8jSTC79oISPSpXYQVNkQuhzZuRvfgjRaLvUaxA24Os63ejajDp6cuK3hUpAkjMeS/8eB2E5MvmlA38jIbLlqnbj45zdEOOE6fbH/edB+9xeKYJR0V4UES8EGAkScf0HiKOwKpOZ/q3OX2lgvzEm2p6FPXlk7POqnk0Mid5mfoOHnD6is3OkT/7ZJr1Ib+JWpRn57h+r4UcTgJE1v+8cQlasqcavWqjDw0GOlw0CI+hxKtzUOsc00oit/nJ/cn1PFOrQsSjAT8kNRz48id/E4COggw8qSDImVkJSCRpyo5kJTNSPQJhaJfzQ1zLlTvKZ2Jr+qEkrXrZB4j9ncZwmH8T6EjrIwrmKUARDw2Du6N9dp9WbAY2YVo5K1Tl6hr+s7eAp6Z0BHk7/Pd4jwljBhGobEnQOcp9peAWQDiQDVKCbebLYXSgyaAfk33zKgNtCO4bhsR/fhi8llGJ3WDtUPeZnGc6uxQhVoUIwE6T8VYqxbZFET0ySJzY6EK+pt9uWRZQRMi2gIKUajPdW3hBKK2VIg+PRh10seSkrIQYJ+nLFC4Sx8BGenSY7Lvkz5NKckNAUxU+vnexVn7mbk537Y8WIT5lrHzhkZwcn0/22rHtz6PSdTp677P5okk4IIAI08uIDFLYQRS0acmkbKoMEk8OywC6Fv2F4su9z3De1h6eykXI/Lu3/Wsl1OY104Ci8V5StqpGrUqFgKMPBVLTVpsRyr6lBQVb7NYTaqWgwAcp+8uuk5d31mdI0dx7MbIMIzGe651f3EYFE8r7hXHaVM8TafVQRKg8xQk7RiXJQ7UTmm+Wy0ILo4xhkia/s0L1ql3drqb9DCSBmYoTQcqA0b0PjaLyvV4WYue6tQ4agSGpoGOmtLUN7IE6kVzoxO7RJaMpYqjj9O1J43NNGGl1Vh8+gM1K63UjUo5EqiXqBMm5mUiAeME6DwZR8wC0gRSN7b16e/8bzcBOBBwJOKY7um7UK2ZuzSOpkfVZjTXJaKqPPWOHgE220WvziKtsYTUk9J8h4EKdZE2pMiVxzxO3x1qZS1yQx3Mw+z1vzh9hOviOTCy5NBmcZzqLdGFasSEAJ2nmFS0TWaKA5UQB2qx6FRrk17U5SwBdBB/cNbVqrK/JNZIMI3BohnT1BOte2PNwXLjt4p+N7Gfk+W1VITq0XkqwkqNgkniPCVEz/fJNjsK+sZJx08uvky9p7u4R9a5rU+s1Xd4Wona1d7i9hTmC44A+k+ul6hTMrgiWRIJnCXAeZ54JYRGQOZ/2iCFfzs0BRwKTq+Zt6a0Wq3sn6wWdp9d8HZfWY9qLulVOwZOqi2nWtW21oNFtbwHFvl9vPJ6BzLxO4RZyG8+9Kuiqmf051o9aZq6ZFxF1gEBr5V3qufPtKufHX5DtXZZO8YDk2GyD2X8fpJWWEznyYpqiKcS4jyh2W6LTdbDabpl3nJ1d0+Na7V+UdGqfn7ygHr50Fuuz7E147cuuj7rw9RWfYPS6/6JSfXInleDKs5IOXCMPzznInXrwGxPS+v8cNIB9fD+12x0Hu8S52mjEVgUSgJ5CNB5ygOIh80SEAeqXUqwYiw8Hi7fmHel78VuEZV6oG+PSuzfaRaaIemXzFygHi65wpD0aIuNcvQJ13X9vBUFjZxEJOrPm39rmwO1WpynpmhfWdQ+qgTY5ymqNVckekvfp6vElNAnzkTE6dHZ16tFqeY5P3jRwfrGwRnqppmL1Z6yM+rQyTY/YkI75/Z5KxUmiWQaTQCdx9uqx6vtbYdHH7R0D67pDUuvVF8fW3i9zuqboNbMnKOe6DyoxGGxweIO0WODDYpQh3gS4DxP8ax3m6xO2KAMlh+p7NUzugz9o76nVik0geGtPwoJD9q4zunktn4+OiY6YxswR9cv5t6otU4v7SxXX6u52i0u0/kSpgugfBJwIkDnyYkOjwVBYFMQhTiVcduSy3w31TnJxczcP525LhKzVd8w50InU3hMCMAptn3iTDjrcNoxyaeul4HMysc1Xbcg9EAxVAr9vpHJhZ/jR4DOU/zq3CqLJfSeFIUwV0soCRGXPx2cb6xsPMDwIMMDDWXZmm6ZMMdW1azSa125vdEnOHZw1k0vp/O5CUtsqBM6TzbUQox1oPMU48q3yPREWLpgZJ2JN/SR9uCBhmYUdMq2LcGpQ5MMU34C7xqwsxn20xe8c6ipOIhrGRG4kKNPW+Wlqz1/bTEHCZgjQOfJHFtKdk9go/usenOajDqN1BQPNoxms23R2ZXT5o1Uld9zEIDjYFM/Nji+P1p2o/rMKXPR02wo/qRsYbbdQe0L7X4RlIEsx34CdJ7sr6Oi1zCspjs0cwTxpj6yAtGMd/cyazreqgsm2hlNGcnNlu+LK6dboQrWH/zn+e8JJWqISGWITiSb7Ky4AuOtBJ2neNe/TdYH/jYZZv8VjGxDxMCGflDvHD/VpuvAel1scDbhOP1T1VXnZr4PA9raGaFEnx5ik10Ytc0yRxKg8zSSCL+HRQBvk4GuAxF2/xW8vWOKhLAdqMpBTvfm5aK/eHyFl+za86K/0b+VXRNK1DTTmPeUzsz8GtTnxqAKYjkk4ESAzpMTHR4LjEDqbbIxqALR5ID+K2GntAOFSEJYiZ3FvZGfovTMB+at1LO54Th9c2C5n1O1n2N6VF8WhdFRPJFlP3eRQOAE6DwFjpwFOhAIrOnOln4rYAHnZagJJkQHyqFOeMgSAjY5TmkkATv9gd0f0vbxPwnkIkDnKRcZ7g+cQKrj+ENBFGxDv5VMO9FxnQ5UJhF+ziRgo+ME/WaWBdaE2Sz3h8ZMJvxMAmESoPMUJn2WnY1AQ7aduveF3W8lmz1pByrsPlDZdOO+8AjY6jiBSIAvIQ3h1QBLJoHRBOg8jWbCPSESCCr6FGa/FSe8cKBs6ETupCOPBUcAk6ra0scpm9XzSsqy7da9j1En3UQpr2ACdJ4KRkgBBgg0iEyjI+8u7ZtsQG09ItOdyBmB0sMzqlLQn+iByautVn/emEAGXWywGgKViyUBOk+xrHa7jU5Fn4x2Dg1jckwv1OFAfbHmSi+n+M77Wnmn73N5ohkCGA2KPnC2X6dmrB8mdbPcDzYN28MvJGABATpPFlQCVchKAM5Tc9YjMdl588lpgcxE3jFmICZE9Zj54uk2PYJySEHE8RvzroyE4xRABJdRpxzXCXeHS4DOU7j8WXoOAvK22S6HYn/jxEzk6DBsMpl2BkzqHobsI6dPGS0WEceozL1lODL2HbkPNBmFTeEk4JMAnSef4HiaeQKpcP1j5kuyuwR0GEbHYVPpzR6j3ctMqR2a3D2dx42VfduSyxQijkxDUecGciABWwnQebK1ZqhXmkC9fIj90x0dh011IN/bcSzNmv/zEOgo7Vf72lry5PJ3GAtV391T4+/kkM56usLYT7M+FX0OyTIWSwLOBOg8OfPh0ZAJpG6g9brV2FfWo1ukUXnpKQxMFNLa1aHYadwd2f8c3+ouo8dc6CD+9dJ3eDyraLOjuS5RtNbRsKIgQOepKKqxuI1INd9t1Wllc0mvTnGByEI/GDTrmEiP9h02IbboZG7uPGLEpqh0EB9pvKH+cg0jy+F3ErCNAJ0n22qE+uQikMh1wM9+Qzd9P6p4OgfNOib6Pz339j5PesQxM5rsXj70lnbT4RBHpYP4SOMNdJ7H4r8YLMJEAlYToPNkdfVQuQwCWm+oBm76Gaqa/XhfxUrt/Z/QdGew/4pZIAFJ/+k4/VEnOMJR6+eUiftob1fmVx2ftf7OdShEGSSQjQCdp2xUuM9GAlqHLJscMWUa3sLuiUYm0HywbZdp1SMt/2eH39CqPwYAwBGOctrRsl+3+lp/57qVozwSSBOg85Qmwf+2E9D6RooRU2iGiWrCcHaMztKZ8CBk9Ck70UfKjypE53Smjy+4VMERjmoydK1o/Z1HlS31tp8AnSf764gaCgETo2+emaD3YRh0RX2x7CLtzXeMPo2uRTjZjQe3jz5QwB40133m1PwCJIR/qqF+g4nwLaMGJJCfAJ2n/IyYwx4CWpdrSZw6ao9lPjRB1ALRC50J0adfVJgZjq9TzyBl/eOYA9qjTv+j6pIgTTBS1tbOt03ITZoQSpkkoJsAnSfdRCnPJAGt/SG2HY/+8HxELxZOnamV+deSL0S6SVMnDMx/9cieV3WKVB+oWRnZ0XVpEIjGGejv1CER5mS6DP4nAZsJ0HmyuXao20gCWp2nYpkccsNMvZ2Oe3t71F/1/n4k+1h+v/dtrZfcUDPrhjGLI8/S0GShemFHnjINsJkAnSeba4e6jSSQGLmj0O/FMDnktScrtXcex3xGP5x0oFC8kT7/L8e9rn0pFjSzGl5MNxDmhiYLTQSiPAshAQ0E6DxpgEgRwRAw0Wn814d3B6O84VLQeVx3evDNF2O7bAtG1yX279SKFEuwRL2TOIBgaSMTk4WK6ATkM5FAFAjQeYpCLVHHTAKbM78U+hlNVHhQRj2h83jdgou1m/Hnzb+NnQOFDvP373pWO8v6eSu0ywxD4L8O6p8sFHaYeDkKgw/LjAcBOk/xqOdisnKTbmN+2b5Pt8hQ5H1uwhLt5cK5jJMDhQ7i6DCvOyHqdFvnLN1iQ5H366P6l6gRQx4LxRgWSgI+CdB58gmOp4VGIKG75GKZHNJU9CkuDhQiTnAUYa/uVCxRJxOThaZYa38p0l2HlEcCmQToPGXS4GfrCUhoHyNytM73BKOLZXJIE9En8Ek7UIZmlUYRoSY4BQ1vbDbiOGEZlmKJOumeLDSj0hMZn/mRBKwnQOfJ+iqiglkIaH9LLaboE2avNpHgQH3+jSeLbhTevRN2G+njlK6DW+YtT3+M9H+DUaetnN8p0pdGLJWn8xTLao+80Y0mLCiW6NOtU5eYwHNOJkbh3aG2Rn4iTYwa+0j3M+rnyW3nbDPx4aNjZpsQG7hMg1GnjYEbwwJJoEACdJ4KBMjTgydgqumuWJYmwaLBaCoymTBU/eZDv4rsUi6Yw+qPDvxG+zxOI5lj8eYoL/6btuf+iUntS9SkZct/7ZHkDNn8SAJGCNB5MoKVQgMgYORt9YEDTZGPqID9DXMuNF4FaMZDP6GP9780NPeP8QI1FIA+W4g2IXpmomP4SBXXlUc/6oQI3aMHXx9pmq7vD8nLULsuYZRDAkERoPMUFGmWo5uAkbdVLNmycXCvbl0Dl/eeUr3r3TkZgIjdR976pRqakVsetDYmOABoakSfrX1tLYGp+L7T0wIry1RBX+t+w6Sj2WhKb8olAZMExpkUTtkkYIrA4OCZ9rFjx2KRsFrdZexqb1GXzJ2rFvWZbfrSrXemPOj+cN9eTDyYudvo5+SJY+pf2nar3VWDavbkMjWrb4LR8twIR6TpK6e2qX848Io6dLLNzSna8qDj/scGzXTe16ZkHkGYvuGfk1vy5PJ9GB3F/8r32TyRBEIkQOcpRPgsujAC4jwh3F9fmJTsZyc6D6uPTF2sJg5ENzj70qRTgTsMoAkn6t9b31JPlLSqwamlasGYiYFyRJTppxOOqL8+9pLadHiHOtZ1InslG9773lkXqHf1VxkuxZx4cLxr3zMmHfAvyktQkzkLKJkEzBEYY040JZOAeQLjxpUkpJR1JkpC5ODhkitMiA5EJjpFo2+PDQksr5kyR101tkpd2lmuXSVEmF483aZ+13Yg0GY5J0O+ddH1Cos2RzWhb5jBJs5miTrVRJUN9SaBEiIggYgTaBD9nzJhA/ry3FtTpe7pM9/52oT+l4yrMCHWl0ywxPZg6mw4U6vKZ6h5JWVqnkSmFvWXuhqVhuVTOsYMqB0DJ9Xh/m711qn2Ibm+lDJ8UpQdp6H+a2b7hjUYxk/xJGCUACNPRvFSeBAETEafoP/dy66O7AzRVxz6WRBVwDJGEMBado9XXj9ibzS+YjJMEwsjZ1jPqFMGDH6MJoHoduiIJm9qbYZAgxmxZ6XiQYIHChMJuCUwc/IUt1mtyheA4wR7G6wymsqQgA8CdJ58QOMpdhGQvhMJ0WizSa2i6kCheYyJBNwQCMhxwgi7Rjf6MA8J2EyAzpPNtUPdvBCo95LZT96oOlB+bOU58SIQkOMEqBviRZbWFisBOk/FWrMxs0veZpNi8r2mzaYDZZow5QdNIEDHCbOJJ4K2j+WRgAkCdJ5MUKXMsAhslIKbTRcOBwprfUUhtYQ0x1EU2FBHpTCdBa7nAFKHlMGoUwCgWUQwBOg8BcOZpQRAQN5q26WY+gCKUo/seXVouY+O0uBm8PZjF5abYQqeQNfp3uAL9VAirltMRxDgPGD1qd+nBy2ZlQTsJUDnyd66oWY+CKSaBb7j41TPp7x86C11a8tmhbmHbEyYOJIpHAKYXNJWxxrX6yfbn1eJ/TuDgvOY/C43BVUYyyGBIAhweZYgKLOMQAnIsi3PS4Hvk834kvbdEmHAUiQnZ5RZtxRHo9qvsE4fUzgEZsycrlb06Z9NvRBr0Ez31X0vquOdgTnWKKhOlmGxc8XoQmDy3FgToPMU6+ovTuNxo045UB8TCwNZ3Xd72+GhtdzmVldas6Dw1483KTh3TOEQaJe76y1j54VT+IhSsU7d53q2qCf27zC5Vt2IUoe+vk+iToGFuLIpwH0kYIIAnScTVCkzdALiQB0RB+qIKLI+KGU6errUE/9/e/cSG9d1HgD4mNSDftCkrEq2lFiiFSO1g8ohisCNWhumN0bSLCqv4p1ZIMmiQGAJQRcFCkQGnIWBFpDhTYAGzagrb4rSi6QIuqGa1jGCBJAcww4i2KYsq/EjjKhIsiSLMvsfZmiTEikOHzNz7sx3gYMZ3rmP/3znyvP7nDP3Tr6VTgzOpPv6+tPAdPuefpR7GP7nvTdbVXXnWUQgP5D4/p0725pM56HDZ3vfSM+89b/teEDy05E41RahsYpA5QU8nqXyTagCNxKIR7ccjs+futE2zfrsiT1/nr4x89k0cLm1SVSe0/J3J/87Xb5spKRZbdvocTdv7ks/2vlYy6+BnDT94KZ30n+cfq1d10Ge59Sy/3FptD1sR2C9BCRP6yXpOMUKRAJVi+CebFeAI3ffl769aU9DD75da4wSp7UKrv/+u7ZsT/86+OWWJFB5eO6HV0+l//rtiXYlTRnweJSRSJ6m1l/TEQmUISB5KqMdRNFEgUieBuPw41G+2MTTLHvo/KiUvx7clb56ZWtTvkjzUN2/nXqlnV+ayxp06wa5B+ofhv4ife3c1qYQ5BtdHj3/bsq/AG3zkieID0fiNNHmOJyeQFMFJE9N5XXwUgRKSaDmPL6083PpkdvuWnMilYdn/nPjZKqdfjW5p9OcbrmvOYH++pY9a06icg/TS71nZxOmX02eLiVhnv1lXSROx8ptAZERWB8BydP6ODpKBQQigRqKMPN/2AdKCjcP62y/uT/d2zeQ+ns2pPt7+2fDG5jpTQ+c//Sn7nlI7uxNV9Mf0nT69ZVz6fj5D9Lr758qqSpiaVAg90Tt3fqZ2TZ/cOOW2b12T29eMLQ71975w9evnkvnPp6ebfN81/gCE2WJU4Ntb7POEJA8dUY7qkWDApFADcem41GKSqAaDN9mBEoV+NvocaqVGpy4CKy3gORpvUUdr3gBCVR7mmh+D1uOYK7HJb9/+FxjuWwepnxl04W8yyc9cPl97oXLj0TJd/a2tFxA4tRycidst4Dkqd0t4PxtEZBANZc9J0oPDNyZ/nTT7ekL6dYFw4/NPXOafVzOa+lC+uXFyfTm+d9LqJoHbqiuebaOXLiA5KnwBhJe8wQkUOtnm+fw7Ns+lEZuuTM99NFAU35NuNpoC51cvdrqlLKfxKmUlhBHWwQkT21hd9JSBCKBGopYxqK09TYGpXisNI58D6ucMDXrJ/grjaeR7Qv6WX8j4Za4zfEIatSv6kpsGjG1SkDy1Cpp5ylWIBKowQguJ1CPFBtkQYHlXqbHP/OFttw9fT0Zco/U8x+9mcZPefTaClyPxrb7I3GaWsE+NiXQcQKSp45rUhVarUAkUYdj36dWu3837NeuR84001YS1bDuc5E0HWh4axsS6GAByVMHN66qrVwgEqjR2CsnUY39/Gvlp6jkHvnmjs/0711wH6JKVuQGQf+0/2z63ju/KPEeSjeIuiUf5flNeZhurCVncxICFRCQPFWgkYTYWoFIoIbjjLUo5kEFQu5t+s6loXjX+Uu+FcIz078xlPdpU+f5TXmYbuLTVd4RINCLgACBhQIzMx+/G+X7PT09+X8uRhZ+2l1/fefzf5W+9eFnu6bSfVd70mMz29KJwZk08YffdU29l6jo05E0PRH/FqaW+NxqAl0rIHnq2qZX8eUE4ktjPBKoF2O7fVHuWm77Tvv8m/c+mJ68sLPTqtVQfbo8gToaSI9H4vRCQ1g2ItCFAj1dWGdVJtCwQHyBHIuSh/EORslzP7piyQ8u7qYep8Ua9R83fD5tvbWrpr7l6zvfLXwkX/eLmVhHgMAfBfQ8uRIINCAQvVAvRy/U92PTm6N8uYFdKr3J89v3pYHpDZWuw1qDz0N4u7dtTT+ZfGuthyp9/5w0PRvliUiaXi49WPERKEFAz1MJrSCGSgjEF8tUlAMR7D1RjlQi6FUEmXuddl3sW8WenbdLfuZeh/c+5et4OK7rQ/n67rwWVCMCzRGQPDXH1VE7WCC+ZCaijEYV55KojhrOu7evq4aqlr1S996xY9ltKrZBvl6fi3JPvo7z9Vyx+IVLoO0Ckqe2N4EAqiowL4kaijocjHKyqnWZH/eDG7fM/7Pr39+18ZZOMcjXZ75Oh+LaPSBp6pRmVY92CEie2qHunB0lEF9CeTjvcJShqNijUY5EORvFQqDdAvk6zNfjo/n6rF+nhufa3SrOX3mB7p4RWvnmU4HSBOLLaTxiyiXFzTb3x8tcqcxY2M+vnEkPu8F6bsLZ5d0rH869rcprTpjGoozn17gmJUsBYSGwngI3refBHIsAgcUF6nctH4lP50qxydSuLdvTv9/80OIV6cK1D03+OF2+fKn0mh+NAMdzqSfwpccrPgKVFtDzVOnmE3xVBOIL7VjEmsvhHHM9mRqPt8UlUW+feT+9su18euD8bTnUrl5euO29dPn/ik6cDsa1NXtNdXVDqTyBFguY89RicKcjkAXqydRIvC1ybtQ/Tb2ew+zqJT/nrnb61ZIN8g0tJU4lt5DYOlZA8tSxTatipQvUE6ihiPN4abG+/v6p9M99E6WF1dJ48gOCJy8UmdvmoPLjU2otBXEyAgQ+EXCH8U8ovCHQeoG4c/mluHN5foZYvpnQcOsjWPqMr575bbp9xx3pzz7qvuG7v+99LY2f+vXSOO375GSc+iuROI23LwRnJkBA8uQaINBmgZxARRmLJCr3KHylzeEsOP3PJk91XQJVcOKUJ4WPROI0saCR/EGAQMsFJE8tJ3dCAosL1J+fl78gH49SzPNRcgJ1YnAmPTazbfHAO2RtnuN08Oqv0kunT5RYo6cjaRrNiXaJwYmJQLcJ3NRtFVZfAqULxC/xBiPGsSiPlBRrvoXBd7cNd+Sv8H7afzZ9751flDjHKQ/TjRqmK+lfglgIxC+mIRAgUJZAfRivVtow3tlLF9JPzp9OZ+7YmP5yOud31V9yb9OzvW+k5994OV28crm0Cr0YAeX5TUVOvioNSzwEWimg56mV2s5FYIUC9ftB1WK3L65w16ZunnuhDmzfmx4+V9xtqhqu94/6J9Pz7xwrsbcpz33LvU2599FCgECBApKnAhtFSASuFYgk6lCs++6169v998jd96Vvb9qTdl0sZorWsiR5iO5fzvwm5dsxFLg8FzEdisRpqsDYhESAQF1A8uRSIFARgUighiLUWpSi5kJFPKkKSVThSdPxYDxgblO+miwEyheQPJXfRiIksEAgkqj9seJwlN0LPijgj/u3352+vmVP+tq5rQVE88cQ8iNWfjz1dqk9TXmILidNtWLABEKAwLICkqdliWxAoDyBSKAGI6oD9VLcxKOttw6kfdt2pcc37WjLr/PyfKbxD99LP3t/otSH+uakKSfAhw3RhYKFQMUEJE8VazDhEpgvUE+i8pfwk/PXl/Q+J1J779iRRm65M+2dvrUp86PevvlSeqn3bPrlxcmSE6a5Znk63kia5jS8EqiggOSpgo0mZALXCtTnQx2K9cUmUXMx52TqnoE/Sff2DaT7Nvan29OGtHt6c0NJVU6STm64nE7PXEqnpy+m4+c/SG+e/aDU3qW5KufXuZ6mWvQ0Tcz/wHsCBKonIHmqXpuJmMCSAqUP5y0Z+CIfbN7cV4WkaJHIF6yaS5r0NC1g8QeBagtInqrdfqInsKRAJFKj8WGeF1XUPaKWDLizPjge1ckJU62zqqU2BAhkAcmT64BAhwtEEjUcVRyN8lSHV7WE6r0YQeSkabyEYMRAgEBzBCRPzXF1VALFCdR7on5YXGCdE9CRSJpGO6c6akKAwFICkqelZKwn0IEC9V6o8ahacbc3qDj3wUic8q8eLQQIdIGA5KkLGlkVCcwXiARqKP4ei2Iu1HyY1b3PE8I9h251dvYiUFmB3spGLnACBFYlMDPz8VRPT88LsfOOKHk+lGV1AnlS+H7zm1aHZy8CVRaQPFW59cROYJUCkUBdijIWSdTJOMSjUarzZN9V1nmddzsSx3siEqeJdT6uwxEgUAEBw3YVaCQhEmimQH0YrxbneKSZ5+mQYxum65CGVA0CaxHQ87QWPfsS6ACBPIwXpRa9UDkx2BdFL9Ti7fpirB6J3qZji39sLQEC3SKg56lbWlo9CTQgUO+Fyr8a+5sGNu+WTU5GRQ9E0pQn2VsIECDgJpmuAQIErheIJGok1tai7I7SrUvuicuJZL7p5VS3Iqg3AQLXC+h5ut7EGgIE6gKRRI3G20NRui2JOpLrbUJ4KFgIELhOQPJ0HYkVBAhcK9BFSZSk6drG9zcBAtcJSJ6uI7GCAIGlBOpJ1Gh83km/zJsbnqvpaVqq5a0nQGC+gORpvob3BAg0JBBJ1HBseCDK/ihVfdTL8Yj9cJQxc5pCwUKAQMMCkqeGqWxIgMBiAvXeqJxEVeEXeicjzrEoeRL4RLxaCBAgsGIBydOKyexAgMBSApFI5SQql5EopUwyPxqx5IQp9zBNxKuFAAECaxKQPK2Jz84ECCwlEInUUHw2Ui/D8dqKBxHn+UvHooznEslSfrUQIEBgXQUkT+vK6WAECNxIoD5Xaii2yclUfs0lLyuZgD6XIOX9xqNMRckJ04SepVCwECBAgAABAi97kAoAAAQ0SURBVAQIECBAgAABAgQIECBAgAABAgQIECBAgAABAgQIECBAgAABAgQIECBAgAABAgQIECBAgAABAgQIECBAgAABAgQIECBAgAABAgQIECBAgAABAgQIECBAgAABAgQIECBAgAABAgQIECBAgAABAgQIECBAgAABAgQIECBAgAABAgQIECBAgAABAgQIECBAgAABAgQIECBAgAABAgQIECBAgAABAgQIECBAgAABAgQIECBAgAABAgQIECBAgAABAgQIECBAgAABAgQIECBAgAABAgQIECBAgAABAgQIECBAgAABAgQIECBAgAABAgQIECBAgAABAgQIECBAgAABAgQIECBAgAABAgQIECBAgAABAgQIECBAgAABAgQIECBAgAABAgQIECBAgAABAgQIECBAgAABAgQIECBAgAABAgQIECBAgAABAgQIECBAgAABAgQIECBAgAABAgQIECBAgAABAgQIECBAgAABAgQIECBAgAABAgQIECBAgAABAgQIECBAgAABAgQIECBAgAABAgQIECBAgAABAgQIECBAgAABAgQIECBAgAABAgQIECBAgAABAgQIECBAgAABAgQIECBAgAABAgQIECBAgAABAgQIECBAgAABAgQIECBAgAABAgQIECBAgAABAgQIECBAgAABAgQIECBAgAABAgQIECBAgAABAgQIECBAgAABAgQIECBAgAABAgQIECBAgAABAgQIECBAgAABAgQIECBAgAABAgQIECBAgAABAgQIECBAgAABAgQIECBAgAABAgQIECBAgAABAgQIECBAgAABAgQIECBAgAABAgQIECBAgAABAgQIECBAgAABAgQIECBAgAABAgQIECBAgAABAgQIECBAgAABAgQIECBAgAABAgQIECBAgAABAgQIECBAgAABAgQIECBAgAABAgQIECBAgAABAgQIECBAgAABAgQIECBAgAABAgQIECBAgAABAgQIECBAgAABAgQIECBAgAABAgQIECBAgAABAgQIECBAgAABAgQIECBAgAABAgQIECBAgAABAgQIECBAgAABAgQIECBAgAABAgQIECBAgAABAgQIECBAgAABAgQIECBAgAABAgQIECBAgAABAgQIECBAgAABAgQIECBAgAABAgQIECBAgAABAgQIECBAgAABAgQIECBAgAABAgQIECBAgAABAgQIECBAgAABAgQIECBAgAABAgQIECBAgAABAgQIECBAgAABAgQIECBAgAABAgQIECBAgAABAgQIECBAgAABAgQIECBAgAABAgQIECBAgAABAgQIECBAgAABAgQIECBAgAABAgQIECBAgAABAgQIECBAgAABAgQIECBAgAABAgQIECBAgAABAgQIECBAgAABAgQIECBAgAABAgQIECBAgAABAgQIECBAgAABAgQIECBAoKIC/w+6yTTxXC0peQAAAABJRU5ErkJggg==;" parent="1" vertex="1">
          <mxGeometry x="329" y="121" width="31" height="31.05" as="geometry" />
        </mxCell>
        <mxCell id="M0A9UQwUjTfV-8Phl40K-49" value="" style="group" parent="1" vertex="1" connectable="0">
          <mxGeometry x="99" y="156.05" width="242.00416666666666" height="70" as="geometry" />
        </mxCell>
        <mxCell id="M0A9UQwUjTfV-8Phl40K-50" value="" style="group;glass=0;" parent="M0A9UQwUjTfV-8Phl40K-49" vertex="1" connectable="0">
          <mxGeometry x="1.0041666666666664" width="241" height="70" as="geometry" />
        </mxCell>
        <mxCell id="M0A9UQwUjTfV-8Phl40K-51" value="&lt;div&gt;&lt;br&gt;&lt;/div&gt;&lt;div&gt;&lt;br&gt;&lt;/div&gt;" style="rounded=0;whiteSpace=wrap;html=1;" parent="M0A9UQwUjTfV-8Phl40K-50" vertex="1">
          <mxGeometry x="-1" width="241" height="68.95" as="geometry" />
        </mxCell>
        <mxCell id="M0A9UQwUjTfV-8Phl40K-52" value="" style="shape=image;verticalLabelPosition=bottom;labelBackgroundColor=default;verticalAlign=top;aspect=fixed;imageAspect=0;image=data:image/png,iVBORw0KGgoAAAANSUhEUgAABBoAAAGgCAYAAAAEtQTrAAAAAXNSR0IArs4c6QAAAERlWElmTU0AKgAAAAgAAYdpAAQAAAABAAAAGgAAAAAAA6ABAAMAAAABAAEAAKACAAQAAAABAAAEGqADAAQAAAABAAABoAAAAADWSqIcAABAAElEQVR4Ae3dT4wsWXnn/WwLwab7vTWCBeDFTSQwrKhqCxY2Gt9sVvxZVDGvXrMZubLFyJJhUckKSwbdKNmWzKrzSkNbstTqqJE3eDQvVQswKzoLv+0NyF3FCmykzloYvHBr6g69cW/6/T3VEbezsjKrIjMjnjjnxDekuJkZGXHOcz4nK2/EkxEnnnr77bd7TAjELvDUX//+jtpgc7943NJjOU31xOYzm9/+k3+050wIIIAAAggggAACCCCAAAINCDxFoqEBVYp0EVByYaCKhpr3NN/TXHW60IrHmsckHaqSsR4CCCCAAAIIIIAAAgggUE2AREM1J9YKSEAJhqHCyTTf17zpdKICMiUc7GwHJgQQQAABBBBAAAEEEEAAgQ0FSDRsCMjmfgLFGQyZanzQQK1HKnOkhMNlA2VTJAIIIIAAAggggAACCCDQGQESDZ3p6ngbqgTDlqIfa95vuBWPrR4lG7KG66F4BBBAAAEEEEAAAQQQQCBZARINyXZtGg1TkiFTS0aaVxmDYdPG2xgOQyUcJpsWxPYIIIAAAggggAACCCCAQNcESDR0rccjaa8SDHsK1c5iqGMchnVbfaoNLeEwXbcAtkMAAQQQQAABBBBAAAEEuiZAoqFrPR54e5Vg6CvEXHMT4zCo2LWmR9rKBoy8XGtrNkIAAQQQQAABBBBAAAEEOiRAoqFDnR1yU4txGDLFeBBonDZ+gyUb7CwLJgQQQAABBBBAAAEEEEAAgSUCJBqWwLDYT0BJhpFqyzR7jsOwbgPPtaHdnWKybgFshwACCCCAAAIIIIAAAgikLECiIeXeDbxtSjAMFGKuuc1xGFT9WtOJtrKEw3StrdkIAQQQQAABBBBAAAEEEEhUgERDoh0bcrOKcRjsEoTdkOOsGNuh1rNbYjJ+Q0UwVkMAAQQQQAABBBBAAIG0BUg0pN2/QbWuGIfBLpN4GFRgmwdzoSJs/IZ886IoAQEEEEAAAQQQQAABBBCIW4BEQ9z9F030SjIMFaydxRDDOAzrup5qQ0s4TNYtgO0QQAABBBBAAAEEEEAAgdgFSDTE3oOBx1+Mw2AJhu3AQ60zvCMVZgmHaZ2FUhYCCCCAAAIIIIAAAgggEIMAiYYYeinCGItxGDKFvh9h+HWEbLfDtLEbsjoKowwEEEAAAQQQQAABBBBAIBYBEg2x9FQkcc6Mw2BjMaR8mUTVHrHxG+zuFMdVN2A9BBBAAAEEEEAAAQQQQCBmARINMfdeYLEX4zBkCivG21U2rWnjN1jC4azpiigfAQQQQAABBBBAAAEEEGhTgERDm/qJ1K0Ew46aMtb8IJEmNdkMG7/BEg6XTVZC2QgggAACCCCAAAIIIIBAWwIkGtqST6De4jIJSzB0dRyGdXvRxm+wwSLNjgkBBBBAAAEEEEAAAQQQSEqARENS3enXGCUZMtU20sw4DOuz2/gNQyUcJusXwZYIIIAAAggggAACCCCAQFgCJBrC6o/go1GCYaAgc82MwyCEmiYbv8ESDtOayqMYBBBAAAEEEEAAAQQQQKA1ARINrdHHVbESDH1FnGtmHAYhNDQ9Url2SQXjNzQETLEIIIAAAggggAACCCDQvACJhuaNo66hGIchUyMOom5IPMHb+A02WGQeT8hEigACCCCAAAIIIIAAAgi8K0Ci4V0Lns0JKMlgYzBkmhmHYc7G4eW56rCEw8ShLqpAAAEEEEAAAQQQQAABBGoTINFQG2U6BRXjMNgdEbbTaVW0LTlR5JZwmEbbAgJHAAEEEEAAAQQQQACBTgmQaOhUd9/e2GIcBksw7N6+Ju86C9jlFNYvY8ZvcJanOgQQQAABBBBAAAEEEFhZgETDymTpbVCMw2CXSTxMr3VJtchuh2mDReZJtYrGIIAAAggggAACCCCAQFICJBqS6s7VG6Mkw1Bb2a/ljMOwOl9bW9jtMC3hMGkrAOpFAAEEEEAAAQQQQAABBJYJkGhYJpP48mIchkzN5HaV8fb1kUK38Rsu420CkSOAAAIIIIAAAggggEBqAiQaUuvRO9pTjMOQabX9O1bl7TgErsZvULIhiyNcokQAAQQQQAABBBBAAIHUBUg0pN7DRftmxmGwsRi4TCK9frfxG+zshuP0mkaLEEAAAQQQQAABBBBAICYBEg0x9daasSrJsKdNx5rvr1kEm8UjYOM3WMLhLJ6QiRQBBBBAAAEEEEAAAQRSEiDRkFJvzrVFCYYdLbIEA+MwzNl04OUjtdEGjLzsQFtpIgIIIIAAAggggAACCAQkQKIhoM6oK5TiMglLMDAOQ12ocZZj4zdYssE+C0wIIIAAAggggAACCCCAgIsAiQYXZr9KlGQYqbZMM+Mw+LGHXpON3zBUwmESeqDEhwACCCCAAAIIIIAAAvELkGiIvw+vWqAEw0BPcs2MwyAEpoUCNn6DJRymC99lIQIIIIAAAggggAACCCBQgwCJhhoQ2yxCCYa+6s81Mw6DEJgqCRxqrTHjN1SyYiUEEEAAAQQQQAABBBBYUYBEw4pgoaxejMOQKZ6DUGIijqgEbPwGuztFHlXUBIsAAggggAACCCCAAALBC5BoCL6LbgaoJMNQS22AP8ZhuMnDktUEzrW6JRwmq23G2ggggAACCCCAAAIIIIDAYgESDYtdglxajMNgCYbtIAMkqJgFjhS83aFiGnMjiB0BBBBAAAEEEEAAAQTaFyDR0H4f3BlBMQ6DJRh271yZFRBYX8Aup7DPGeM3rG/IlggggAACCCCAAAIIdF6AREPAH4FiHIaRQnwYcJiElp7AhZpkZzfk6TWNFiGAAAIIIIAAAggggEDTAiQamhZes/xiHIZMm3O7yjUN2WxjgVOVYOM3nG1cEgUggAACCCCAAAIIIIBAZwRINATW1cU4DJnC4naVgfVNh8Ox8Rss4XDZYQOajgACCCCAAAIIIIAAAhUFSDRUhGp6tWIchkz17DddF+UjsIbA1fgNSjZka2zLJggggAACCCCAAAIIINAhARINAXS2kgyZwrCxGLhdZQD9QQi3Ctj4DXZ2w/Gta/EmAggggAACCCCAAAIIdFaAREOLXa8Ew56qH2tmHIYW+4Gq1xKw8RuGSjhM19qajRBAAAEEEEAAAQQQQCBZARINLXStEgw7qtYSDIzD0II/VdYq8Eil2R0qLmstlcIQQAABBBBAAAEEEEAgWgESDY5dpwTDlqrLNB84VktVCDQtYOM3WLLBkmdMCCCAAAIIIIAAAggg0HEBEg1OHwAlGUaqKtPMOAxO5lTjLmDjN9jlFBP3mqkQAQQQQAABBBBAAAEEghEg0dBwVyjBMFAVuWbGYRACUycETtRKGzBy2onW0kgEEEAAAQQQQAABBBC4JkCi4RpHfS+UYOirtFwz4zAIgamTAodq9ZjxGzrZ9zQaAQQQQAABBBBAoMMCJBpq7vxiHAa7TOJhzUVTHAIxCtj4DXZ2Qx5j8MSMAAIIIIAAAggggAACqwuQaFjdbOkWSjIM9aYNiMc4DEuVeKOjAqdqtw0YOelo+2k2AggggAACCCCAAAKdESDRUENXF+MwWIJhu4biKAKBlAWO1DhLOExTbiRtQwABBBBAAAEEEECgywIkGjbo/WIcBksw7G5QDJsi0DUBu5zC/m4Yv6FrPU97EUAAAQQQQAABBDohQKJhjW6eGYdhpM25TGINQzZBQAIXmm38hmM0EEAAAQQQQAABBBBAIB0BEg0r9mUxDkOmzbhd5Yp2rI7AEgEbv8ESDmdL3mcxAggggAACCCCAAAIIRCRAoqFiZynBsKNVx5q5XWVFM1ZDYEUBG7/BEg6XK27H6ggggAACCCCAAAIIIBCQAImGOzqjuEzCEgz7d6zK2wggsLnA1fgNSjZkmxdFCQgggAACCCCAAAIIINCGAImGW9SVZMj09kgz4zDc4sRbCDQgYOM3DJVwmDRQNkUigAACCCCAAAIIIIBAgwIkGhbgKsGwp8V2FgPjMCzwYRECjgI2foMlHKaOdVIVAggggAACCCCAAAIIbCBAomEGTwmGvl7mmhmHQQhMCAQk8EixZIzfEFCPEAoCCCCAAAIIIIAAAksESDQIphiHIdPTgyVOLEYAgfYFbPwGSzbY2UZMCCCAAAIIIIAAAgggEKhA5xMNSjLYGAyZZsZhCPRDSlgIzAmc67XdnWIyt5yXCCCAAAIIIIAAAgggEIBAZxMNSjAM5J9rZhwGITAhEKHAiWK2hMM0wtgJGQEEEEAAAQQQQACBZAU6l2goxmGwU693k+1VGoZAtwQO1dwx4zd0q9NpLQIIIIAAAggggEC4Ap1JNBTjMNhlEg/D7Q4iQwCBNQUutJ2N35CvuT2bIYAAAggggAACCCCAQE0CnUg0KMkwlJedxcA4DDV9cCgGgUAFThWXJRwmgcZHWAgggAACCCCAAAIIJC+QdKKhGIfBEgzbyfckDUQAgVmBI72whMN0diHPEUAAAQQQQAABBBBAoHmBJBMNxTgMmfj2myekBgQQCFTAbodpYzdkgcZHWAgggAACCCCAAAIIJCmQVKJhZhwGG4uByySS/MjSKARWFrDxG+zuFMcrb8kGCCCAAAIIIIAAAgggsLJAMokGJRn21Hq7TILbVa78MWADBDohYOM3WMLhrBOtpZEIIIAAAggggAACCLQkEH2iQQmGHdlZguFBS4ZUiwACcQnY+A2WcLiMK2yiRQABBBBAAAEEEEAgDoFoEw3FZRKWYGAchjg+a0SJQEgCNn6DDRZp3yFMCCCAAAIIIIAAAgggUKNAlIkGJRkyGYw0Mw5DjR8GikKggwI2fsNQCYdJB9tOkxFAAAEEEEAAAQQQaEQgqkSDEgwDKeSaGYdBCEwIIFCbgI3fYAmHaW0lUhACCCCAAAIIIIAAAh0ViCLRoARDX/2Ta2YcBiEwIYBAYwKPVLJdUsH4DY0RUzACCCCAAAIIIIBA6gJBJxqKcRgydcJB6h1B+xBAIBgBG7/BBovMg4mIQBBAAAEEEEAAAQQQiEgg2ESDkgw2BkOmmXEYIvpAESoCCQmcqy2WcJgk1CaaggACCCCAAAIIIIBA4wLBJRqKcRhsJPjtxltPBQgggMDdAidaxRIO07tXZQ0EEEAAAQQQQAABBBAIJtFQjMNgCYZdugUBBBAITMAup7DvpzHjNwTWM4SDAAIIIIAAAgggEJxA64mGYhwGu0ziYXA6BIQAAghcF7DbYdpgkfn1xbxCAAEEEEAAAQQQQACBUqDVRIOSDEMFYr8SMg5D2SM8IoBADAJ2O0xLOExiCJYYEUAAAQQQQAABBBDwFGgl0VCMw5Cpodyu0rO3qQsBBOoWOFKBNn7DZd0FUx4CCCCAAAIIIIAAArEKuCYainEYMmHtxwpG3AgggMCcwNX4DUo2ZHPLeYkAAggggAACCCCAQCcF3BINSjJkEraxGLhMopMfNRqNQPICNn6Dnd1wnHxLaSACCCCAAAIIIIAAArcINJ5oUIJhT/WPNd+/JQ7eQgABBFIRsPEbLOFwlkqDaAcCCCCAAAIIIIAAAqsINJZoUIJhR4FYgoFxGFbpEdZFAIFUBB6pITZg5GUqDaIdCCCAAAIIIIAAAghUEag90aAEw5YqtgQD4zBU6QHWQQCBlAVs/AZLNth3IhMCCCCAAAIIIIAAAp0QqDXRoCTDSGqZZsZh6MTHh0YigEBFARu/YaiEw6Ti+qyGAAIIIIAAAggggEC0ArUkGpRgGEgg18w4DEJgQgABBJYI2PgNlnCYLnmfxQgggAACCCCAAAIIRC+wUaJBCYa+BHLNjMMgBCYEEECgosCh1hszfkNFLVZDAAEEEEAAAQQQiEpgrURDMQ5DppYeRNVagkUAAQTCEbDxG+zuFHk4IREJAggggAACCCCAAAKbC6ycaFCSYahqbWAzxmHY3J8SEEAAgXMRWMJhAgUCCCCAAAIIIIAAAikIVE40FOMwWIJhO4WG0wYEEEAgMIEjxWMJh8vA4iIcBBBAAAEEEEAAAQRWEqiUaFCSwRIMXCaxEi0rI4AAAisL2OUUNljk8cpbsgECCCCAAAIIIIAAAoEI3JpoKMZimChWzmIIpMMIAwEEOiHwSMmGUSdaSiMRQAABBBBAAAEEkhNYmmggyZBcX9MgBBCIS+BIyYZhXCETLQIIIIAAAggggAACvd5vLUIgybBIhWUIIICAq8C+votz1xqpDAEEEEAAAQQQQACBGgQWJhpUrl0fzOUSNQBTBAIIILCBgCUbuIRiA0A2RQABBBBAAAEEEPAXuJFo0E5tpjAe+IdCjQgggAACCwRe0PfyzoLlLEIAAQQQQAABBBBAIEiBa4mGYmf2YZCREhQCCCDQXYG8u02n5QgggAACCCCAAAKxCVxLNCj4cWwNIF4EEECgAwLbXELRgV6miQgggAACCCCAQCICTxIN2okdqE1cMpFIx9IMBBBITiBLrkU0CAEEEEAAAQQQQCBJgSeJBrWOAceS7GIahQACiQjcU0J4mEhbaAYCCCCAAAIIIIBAwgJXiQbtvG6pjbsJt5OmIYAAAikIkBBOoRdpAwIIIIAAAgggkLhAeUbDXuLtpHkIIIBACgI2VkM/hYbQBgQQQAABBBBAAIF0BUg0pNu3tAwBBNIUGKTZLFqFAAIIIIAAAgggkIpAmWgYpNIg2oEAAggkLjBIvH00DwEEEEAAAQQQQCBygd8qxme4F3k7CB8BBBDoikC/Kw2lnQgggAACCCCAAAJxCtgZDTtxhk7UCCCAQCcF+M7uZLfTaAQQQAABBBBAIB6B8tKJeCImUgQQQKDbApyB1u3+p/UIIIAAAggggEDwAiQagu8iAkQAAQQQQAABBBBAAAEEEEAgHgESDfH0FZEigAACCCCAAAIIIIAAAgggELzAe4KPkACfCGy97+nezvt/pzf47Wevlg0+/LtP3pt9MvnVP129PPv3f+lNf/Prnj0ydVug/8yH9Ln53V7/mQ9efYbsszQ72Wfm8j/evPqslJ+f2fd5jgACCCCAAAIIIIAAAghUFSDRUFWqpfV2PvCx3vDjX7w6SNx+/0crRfHgw+8kImZXPn/jl73Jv/5Tzw4ij1//8exbPE9UwJILo09+ubf3kT/o3VeC4bZp9jPz+K03rz4j+c9/cPV5uW073kMAAQQQQAABBBBAAAEE5gWe6r34ewMtfGX+DV63J2C/NltywQ4S7zpAXDfKk9f/oXc8/XEv//n31y2C7QIVsARD9umv9PY//oWNI7z4zb/1sp++xOdkY8l6C3j7T/7xqXpLpDQEEEAAAQQQQAABBOoTINFQn2UtJVlywQ4S7733+qnttRS+oBD79dp+uR7/7LtXl1ksWIVFkQhYgir71H/rHXzyD2uP+PRXr/VGr465DKd22fUKJNGwnhtbIYAAAggggAACCPgIkGjwcb6zFrtEIv/st3pVL4+4s8A1Vjj6xQ962U9eIuGwhl3bm9jn5/hz327sDBhrnyWlRq8+4uyGtjtb9ZNoCKATCAEBBBBAAAEEEEBgqQB3nVhK4/fG8BNf7E12v9NqksFaa6fav/5f/9fVGRXzgwX6aVDTqgI2BoN9fpq6zKaMx86yefm5P1NC7JvlIh4RQAABBBBAAAEEEEAAgRsCJBpukPguGH9mdHXw5nWpRJXWPfzUV3pn/8//6C27q0WVMljHR8CSVN/73F+5XWpjrbKEFMkGn/6lFgQQQAABBBBAAAEEYhQg0dBir9nBWhPX09fRJPt1/JXd/96zRAhTmAJ2uYSdYdDGZMkGPhttyFMnAggggAACCCCAAALhC5BoaKmP7JfoOu4K0HT4lgg5+8P/0eNSiqalVyvf+sMul2hzss+GXbbBhAACCCCAAAIIIIAAAgjMCpBomNVwet7mL9HrNNEGqLRLKSxupjAEbODHEC63sbNy7HaaTAgggAACCCCAAAIIIIBAKUCioZRwfLSDxNgmu5TCfkEn2dB+z9nZMA8+/Gz7gSgCS3ZwCUUQXUEQCCCAAAIIIIAAAggEI0Ciwbkrsk9/pfG7AzTVJDuoJNnQlG71cjMN1hnStPuR/8zAoSF1CLEggAACCCCAAAIIINCyAIkGxw6w6+pHn/yyY431V2XJhvyz32LMhvppK5VoZzM0fRvLSoHMrRT753quObxEAAEEEEAAAQQQQACBDQRINGyAt+qmw49/MYjr6leNe359G7Mhxss/5tsR4+tQD+jtrAbGaojxE0XMCCCAAAIIIIAAAgjUL0CioX7TpSXar9GpTDZGgA0EyOQnYAfyluQJdeIOFKH2DHEhgAACCCCAAAIIIOArQKLByTv0g8R1GOz2nCklT9Yx8Nwm9AN5PguenwbqQgABBBBAAAEEEEAgXAESDU59M/jt33Wqybeal5/7MwYCdCIffDjsz1DIZ1s4dRHVIIAAAggggAACCCCAgARINDh9DPq6PWSq0/Hn/4rbXjp07uC3w7il5W1NDT0ZclvsvIcAAggggAACCCCAAAL1CJBoqMfxzlJSPgDjThR3dn8tK5hz6JPdWYUJAQQQQAABBBBAAAEEui3wnm43n9bXJWCnzU92X+zt/N0f1VUk5cwI7HzgYzOvwn1qcR6//uNwAyQyBBBAAIFrAk899VRfC2ze0bxVPLfXNvU137cnK0znWveyWP+seD7V49X89ttv2yMTAggggEDiAiQaEu9gz+ZZssHuRDH80V94VtuJurbe+0wn2kkjEUAAAQSaE1BSwZIJA8322Nf8QHPd0/ZMgTfKVwz29qlmS0JczUo+2CMTAggggEBCAiQaEurMEJpid6I4+/d/6Y1/9t0QwiEGBBBAIGiB4sBvq6Egp6n+etyw25ncLhvqE9diZxILe6r4xkG/azDXK7NYnsSjOB/r9aScU0k8qF19tcnmJqdaPq8Nx3qZSp/Od2TDbit9hysW+79kZz7Ghl/X8vlrOMZaipev2Zqxy6S/mYlLRQ1WQqKhQdyuFv3CZw5609/8mlPou/oBoN0IILCKwFgrPzngWmXDCuvaKezeO50VwqpllSbdnlOEk1qibKGQYmd4qKr3NN9vIYR1qrynjXaLuac2XOj5seY88gPUodrwUHOTU12f16GCbCrWx/a5VF9Om4Roqeyh6m3K7VBlZ5pXmezvxv6evKZTVTTwqqytevT57avu1xzrf6S6Jo71NVIVg0E2wkqhdglFLOMK0FsIIIBAogLb2jkaJdo2mjUjYDvBmjPNUy22neEDzbEkGRTqjclitza8Zm3SPNLc12umOAXuKexxnKHHE7USOZeK1vs7/4H+NvfiUVo70nztLVff0M7wylbfLLwtSDSE1ydJRGR3SDj+3Ld73IUgie6kEQggEK+AHXxuxRs+kd8moL4daD7WOq9rtl9VY04uLGuqtekFza+rrbm1edmKLA9aYJe+a75/lGzIVYudZeA52d9lsv/PqG0jYT5wBB0VSSPHKpupikRDM66UKoH7z3zw6k4UYCCAAAIItCZgvyRmrdVOxY0I2AGb5okKf0XzbiOVhFnovrXZ2m4GYYZIVLcIjG95j7fqExjWV1SlkpL9f0bfM5ZAySop1LPSaZEsqqe0lksh0dByB6RefXknitTbSfsQQACBgAUOtLPUDzg+QqsooH7c0TzR6pZg8PyFrWKEbqtZ28uEQ9+tViraVMAu5xpuWgjb3y6gA9Wp1ji8fa3a37X/Z3ZqL7X9AnOFYIkUr2noVZFHPSQaPJQ7XofdiWL0yS93XIHmI4AAAq0K5K3WTuUbCWgHfkuz/Rr8muYuJxjmHc3CLqkYm9H8m7wOUoC+8ukW+7648KnqSS35k2cJPNF3ykDN8Dxj7LBIEiWg904TSDQk05VhN8TuRLH3kT8IO0iiQwABBNIVeFDsNKXbwkRbVvTbmZp3kGgT62iW2ZzxGa+DsvEy7qmGUeO1dLyC4hp/b2c7Y8W7zkZ6Wu3YUsF5I4UvLtSSQuPFb8W7lERDvH0XXeTciSK6LiNgBBBISyBPqznpt0Y7u7bj+Yrm++m3duMWmpFdTpHczvrGMuEV8FD91A8vrLQiUrLhWC06cW5VVhykO1dbe3Ujlej5vTsskkO1N6TNAkk0tKnfsbq5E0XHOpzmIoBAaAL3tQNoO09MgQvYQZjmM4XJWQyr95VdK25nN/RX35QtHAXGjnV1uSr7zrfbJXpNdsZK1H2r744dteGhF5jqOVGSYeJYn1tVJBrcqKnIBLgTBZ8DBBBAoFWBVH5tahWxycqLndwz1bHdZD2Jl212lmywAwamMAV21T+DMENLJyodwE7VGu8D//3I+zZ3/ARYEmjkWJ9rVSQaXLmpzAS4EwWfAwQQQKA1geh/bWpNzqFi7ZzvqZqJZusnps0EzNBug2mmTGEK5GGGlVZUSjZkapGNAeA55Z6V1VWXvi/soN8SlV5TViSDvOpzrYdEgys3lZUC3ImilOARAQQQcBewX5t23GulwlsF1CdDrfA9zSQZbpVa6U2z/F5hu9KGrOwiwOVcLsxXlQz9qrqqyfo2c65zo+oUb18FZJq9pnMlGcZelbVRD4mGNtSp80qAO1HwQUAAAQRaE0h656Y11TUr1g7unjZ9ec3N2exugZcL47vXZA1vAS7nchDXAe1E1Rw5VDVbxag4eJ9dFvJz+3/RM9E7ChmjjthINNShSBlrC3AnirXp2BABBBDYROABB16b8NW3rfphR6Xl9ZVISUsE8sJ6ydssbknADuyyluruWrV2YOs9MGQeA3Lx/+GuY6yPiuSPY5X+VZFo8DenxhkB7kQxg8FTBBBAwFfAfr1halFAO7dbqn6i2fNXtBZb3GrVZmxjNvRbjYLKFwnYnUL6i95gWX0COrC9VGlZfSVWKin4pHbxPZxXak09K1myJ6unqLBLIdEQdv90IrryThRb73u6E+2lkQgggEAgAtFdQxuIW51hTFQYSYY6RW8vy6yPb1+Fd1sSyFuqt1PVFmMCnDo3elwczDtXW7m6TGt6fg+PiqRP5QBjXZFEQ6w9l1jcdieK8WdGibWK5iCAAALBC8R2DW3woFUD1I73WOtuV12f9WoT2C7sayuQgmoRCP6X71paGUYh3jvc99XsLIymX49C3wUDLTm4vrTRV6dKMuSN1hBQ4SQaAuqMrodid6LIPv2VrjPQfgQQQMBTwH7FyTwrpK5er4WdW9ivC9ip+oPri3gVgIAl35gaFtCB7pmqeNRwNfPF29/czvzCAF57f+aGAbTZLQQSDW7UVFRF4OGnvtIbfuKLVVZlHQQQQACBegT2OeiqB3KFUvIV1mXVZgTog2ZcNymVy7k20Vtt20yrew4MadF5H9RbnUsn/b+X6U3Ps8oOleSZLg0owTdINCTYqbE3afyZg97OBz4WezOIHwEEEIhJIIsp2JhjLXZu7VTi2KZzBWzXdi+bY2sPB7Vh9phdzrUVZmjpRFWMETB0bpFdHjNyrnNhdYqjrzceLnyzmYUXKjaoREszzbxe6nuuv+QVAu0L2J0oJrvf6fX/9r/0Lv/jzfYDIgIEEEAgfQHbARx26drRNrq0OIAKYkd7SfstmTDRPNV8Zo+r/gJX7MD3te2O5vLxgZ6HONlB7bg46Aoxvi7GZJdz2QHZsIuN92yzPvfH+vxb4tDz7zNTnXkAf3O5p7Xqsv9fL53rbL06zmhovQsIYJHAO8mGF3vciWKRDssQQACBRgRsB3CrkZIptBQY6YkdSIUy2a9sdq32l7QT/JTmHc02IrodfE80T1cN1LYptrUyrKyB5qdUznOarS6rM5SpPKgNJR7ieEdgX99FO2C4CAxdanm3ktb/5vTZsjZ7JldO7DvxXYLuPCPR0J2+jq6l3Ikiui4jYAQQiFvgvsK3A2GmBgSKJE4ovkdq4nPa+e1rtmTAcQNNvlak7WgXdfX1xrOaLYbHmtue7KB2q+0gqP+GwPjGEhbULqC/yakKPay94NsLtL+5we2rNPNu8bfu+dmy77hhM60Jv1QSDeH3Uacj5E4Une5+Go8AAv4CD7Uj1vevthM1jtTKNs9msB1eO6D4Tzq4GNqBv563MqnuM4tBlfc1W0xtJxysb5jCEnig76JhWCElG40deF84ty53rq+sztrq+T2c6bvusqy8a48kGrrW4xG2lztRRNhphIwAAjEL2I4YU/0Cw/qLrFziidbc0Q5vUDu9tgNuMSm2vuYjzW1Nw7Yqpt5bBbic61aeet4sDoSH9ZRWuZT7SiRlldeuYUXVN1Ax+zUUVbWIc9l2+v9TEg1VPyqs16oAd6JolZ/KEUCgWwK7xQ5Zt1rdYGvluafi7dIU78nOFLDxF/Y0T70rr1qfHehoHmr9L2lu4+wGO+ixPmIKS4DLuZz6Q39/E1VlCUnPyQZj7XtUqHq2VE/uUddMHcOZ5518SqKhk90eX6PLO1EwOGR8fUfECCAQpUCnf4VpoMfaOIg9VzvsLIbjBtrTSJFFrDsq3GL3nobeFVJfJQG3g9FK0aS90kjN80z0eQ4MaW3zTPY+0vfZWdofl7tbR6LhbiPWCESAO1EE0hGEgQACXRDY1i9Awy401KmNe071lNXYgfpAO7rTckEsj0XMA8XrnWzYjcWoY3HawWjWsTa30tzib2/sXLmdQdfo96PK31GbHjq2y5I1mWN9wVZFoiHYriGwRQLciWKRCssQQACBRgTGxemmjRTelUKLnWjPwcfKJMNlrMY64LHYB5pdkw1NH/DE2h8BxL2vvrHPA1PDAvrby1SF69+d6mv6/5pxw2zzxdtgu9F+/843ZpPXJBo20WPbVgS4E0Ur7FSKAALdE+CXxHr6fFBPMZVKsV/S7EyG6HdyZ5IN1iavaeBVEfWsLOB9sLhygAltMHJuS2NjcShBZW154NieU313HTvWF3RVJBqC7h6CWybAnSiWybAcAQQQqFXgQDtq/VpL7F5hA8cm26CPl471NVpV0Za9Riu5Xvjg+kteBSTA5VxOnaG/u4mq8r4LzEP9X7NTZxOL/7uyOsusUNawwjqdWYVEQ2e6Or2GcieK9PqUFiGAQJACeZBRxRPUtlOoR8UBglN1PtU4H/R49ZUPXnq1NH2KfXpi67dopE09zyaySMfrh7twSyvP87K1Q31fTRdG0tGFJBo62vEpNJs7UaTQi7QBAQQiEHigX4YGEcQZXIiObnZAkAUHUF9Abgc9jn1Wn053SrKDRvssMDUsoAPmS1XhbW3/1wzraJrK2VM5u3WUVbGMC5llFdftzGokGjrT1Wk2lDtRpNmvtAoBBIITyIOLKI6AdpzCzFP+Ja046Bk7WXr1mVNzkqvGTrHvJ9eqABukv7tcYZ06h7bxWSv6fGwpZq/vi5JnWD7h8V0BEg3vWvAsUgG7E0X+3LcijZ6wEUAAgSgE7mvnbRRFpGEFaTu8HpP3TrVHm+bryOcXNPTaq88aCr8TxXbh8x5KR46cA7GzVjbt30xl2ACTXtOJkjITr8piqodEQ0y9RaxLBXY/8p974894fxcuDYc3EEAAgRQFsuKXohTb1lSbBk0VPFPuecpnM5TtLNro8euqR5+VzeJxPYFdfRfRT+vZrbSV/u7OtMGjlTbafOX9dftX2+2o+oPNQ6hcgl22Nqy8dsdWJNHQsQ5PubkHn/zD3vATX0y5ibQNAQQQaFOgjl+a2ow/1brzVBu2oF3HC5axqJsCeTeb3UqrM9V64VzzeM368jW3W3ezTMmYy3U3Tn07Eg2p93DH2vfyc3/W2/nAxzrWapqLAAIIuAnYL032ixFTNYF+tdU2Wmuy0dZxbezRVj7fcXwmuJzLqZ+KA+mRU3VlNXY706x8UeWxWH+7yro1rWNnk41rKivJYkg0JNmt6zfq/I1frr9xIFtOdr/T6z/zoUCiIQwEEEAgOQF2rKp3aePXCRenNlePKOI1ndpqZ+4wxSHA5VxO/aS/vWNV5XHp0myLRkoe9GcXLHterOedDBkui4fl7wiQaOCTcE1gcPLV3uO33ry2LLYXdieK489/u7f1vqdjC514EUAAgRgEHminbi+GQDsQo/eOfwikXWxzCO4hxmBJoSzEwBKNaejcrlUu18sVm2eS8JFT4tOZvN7qSDTU6xl9aZf/8WZvcPK16JMN3Iki+o8iDUAAgbAFOKsh7P4hOgS6InBQ9VfvroA01U4dWE9V9mFT5S8p986BP4vE94Ml2zex2AaAzJooOLUySTSk1qM1tOfs3/+lN3rVe4DZGgKfK4I7UcyB8BIBBBCoT8Cuj87qK46S1hQ4W3O7mDebxBw8sTcikDdSKoXeEFCyIdPCixtvNLsg1/83W4uqKJbni95rcNlQDpcNlp9M0SQakunKehuS//z7vcOfvlRvoS2Uxp0oWkCnSgQQ6IpA5etnuwLSQjvZ2W0BnSqDE+ByLt8uGfpW17OxbkZL6hxrueclE6dKMhwviYXFcwIkGuZAePmuQPaTl3pHv/jBuwsifcadKCLtOMJGAIHQBbg+OvQeIj4EuiNgB5xMDgI60J6omhOHqmareKizF/qzC/R6oNf7s8safm6XTAwbriOp4kk0JNWd9Tdm9Oq4x50o6nelRAQQQCARgf1iZy+R5tAMBBCIVIDLuXw7bqjq7MDbc8rnKpt/Pfd27S/HSrJMay814QJJNCTcuXU07Z3BIbkTRR2WlIEAAgg4C3jtBGbO7aI6BBCIS8Dru8gu59qKiybOaIsxCjLn6O0SmaHVqcdMD43fPtjqKqYLtTkrX/BYTYBEQzWnTq/FnSg63f00HgEE4hXInEJ/svPnVB/VIIBAXAK5wvUYQHCV2yHGJRhgtDrwtstVzp1DGxdn0T10rnfoXF8S1ZFoSKIbm28Ed6Jo3pgaEEAAgZoFzlTeo5rLXFZcxi+Jy2hYjkDnBS4lMHJSsMu5dpzqohq/fi2tLZl0XL5wejxSUmXiVFdS1ZBoSKo7m20Md6Jo1pfSEUAAgQYEMpXpcdrybaOCN9AsikQAgZgEdKBmB4enTjGPnerpfDXFAbhXQrv09rzLhP3/OSor5nE1gfestjprd13A7kTRf+ZDvf2PfyFqCrsTxdm//7Pmf4m6HQSPAAII3CagncDL4lrWF25br6b3HqquXHVOayqPYhBYJDDVQq8D1kX1s2x9ATtge239zStveXU5l76L8spbsOImApk2Hmr2TACoOpcps/9HXWpKsBISDQl2atNNGv7oL3o7H/id3vb7P9p0VY2WP9n9Tm/n7/Z709/8utF6KBwBBBBoU0A7SXZNq+3gewycNVY9e222l7rTFigOHvO0W5lm69R3Z/ouOlLr9h1aaJdzHXOQ2Ly0GRf/x7zcfG2uNZyqbfZ/GtOaAlw6sSZc1zcbnHy1d/Gbf4ua4d57n+4df/7bva33PR11OwgeAQQQqCAwrLBOHavsaodzUEdBlIEAAkkKWNKTy7kS61odkOdqUmpnGtlnlWkDARING+B1eVO7E8XeD7/Re/zWm1Ez2FkZx5/7dtRtIHgEEEDgLgHtBE60zsld69X0Pr8A1QRJMQikJmC/fqtNmVO7Rkp89p3qopq0xjJ4pM/qGZ26mQCJhs38Or21jW9gl1HEPj348LO9/LPfjL0ZxI8AAgjcJeD168y2du6HdwXD+wgg0E0BHcBZMvLCofU2ZkDmUA9VSKA4MD9MAMM+m1kC7Wi9CSQaWu+CuAM4fv3Hva+/6j3YbP1mNrjl8BNfrL9gSkQAAQQCEdBO4FSheO0E2rgQW4E0nTAQQCA8gaFTSHa7y4FTXVTT63klkZq0Hun/y8smK+hK2SQautLTDbZz/LPv9o5+8YMGa/Ap2u5EMfjw7/pURi0IIIBAOwJeO4H8kthO/1IrAlEI6EBuokC5nCuK3qoeZHGAPqq+RXBr2gCQx8FFFWlAJBoi7bjQwrZLKM7f+GVoYa0cz/Hn/0p31PjYytuxAQIIIBCDQLETmDnFesD10U7SVINAnAJeB6RczuX4+SgO1E8dq6yrKhukdFhXYZTT65Fo4FNQm0Aqd6LIP/st7kRR26eCghBAIDQB7QTmislrJ9DqYkIAAQRuCOi7aKqFXM51QyaJBUO1wg7cY5rGxWcyppiDjpVEQ9DdE1dw3Ikirv4iWgQQ6LRA5tT6B1wf7SRNNQjEKWCXc3kckNrlXF5nUMTZEzVGXRywW9/GMl0o5iyWYGOJk0RDLD0VSZzciSKSjiJMBBDotIB2qCYCOHJCyJ3qoRoEEIhMQN9FlwrZKwHwkMu5/D4gxYH7hV+NG9U03GhrNl4oQKJhIQsLNxHgThSb6LEtAggg4CZgO/cevyTe186914GEGx4VIYBAPQI6IM1VktflXON6oqaUigLDiuu1udpRkXxvM4Yk6ybRkGS3tt8o7kTRfh8QAQIIIHCbQPFLotdOd6Zkw9Zt8fAeAgh0WiBzav0ul3M5Saua4gDe6+y5dRpmyXYS4evIVdiGREMFJFZZT4A7UaznxlYIIICAl4B2AjPV5XFqq10f7ZXU8OKjHgQQqEnA+YA0rylsiqkmYAfyHmfPVYvm+lpZkXS/vpRXtQiQaKiFkUKWCXAnimUyLEcAAQSCEfD6NWdfvyTuBNNqAkEAgdAEMgXkcUDK5VyOPV8cyFvfhjadKjYS4A32ComGBnEputfjThR8ChBAAIGwBbSjdawIuT467G4iOgSSF9B30VSN9Drw43Iux09UcUB/7lhllapGVVZinfUFSDSsb8eWFQW4E0VFKFZDAAEE2hMYOlX9QGc17DnVRTUNCagP3055boiNYisI6IA002pel3NZXUx+AkO/qu6s6VCftbM712KFjQRINGzEx8ZVBbgTRVUp1kMAAQT8BYpfEh851ez1i6VTc6gGAQRqFvD6pflACbN+zbFT3BKB4sDe6/+ZJVFcLbZEFv8P3SZU03skGmqCpJi7BbgTxd1GrIEAAgi0KJCpbq/ro60uJgQQQOCGgA5Ij7XQ63Ku/EYALGhSIFPhHv/P3NaGkT5jl7etwHv1CJBoqMeRUioK2J0oTn/1WsW1w13t+PN/1dv5wMfCDZDIEEAAgRUFih0vr18SR/olcWvFEFkdAQS6IzB0aqpdzjVwqqvz1Tj/P7PI+6RIZC16j2U1C5BoqBmU4u4W2PvhN3rnb/zy7hUDXuPee5/u5Z/9Vm/rfU8HHCWhIYAAAqsJaAcs1xbnq2211trc7nItNjZCoBsC+i6aqqVep9nn3VANppV7LUViZ1J4JdNbamJY1ZJoCKs/OhGN3Yli+KM/7z1+682o27v9/o/2JrsvRt0GgkcAAQQWCHjtiO3zS+ICfRYhgEApkOmJx2n29/VdZHUxNSxQfOfvNlzNsuKPiwTWsvdZXrMAiYaaQSmumoDdiWLv7/+02soBr2XJhvyz3ww4QkJDAAEEVhPQjthEW5ysttXaa2drb8mGCCCQtIC+iy7VwMypkVzO5QOd+1SzsJY9JTr6C99hYSMCJBoaYaXQKgKTX/1T7/lX/rLKqkGvs//xL/RGn/xy0DESHAIIILCigJ3V4PFLol0fPVwxNlZHAIGOCCjZMFZTzx2ay+VcDSMXZ43cb7ia24qnj2/TaeA9Eg0NoFJkdYH859/vHf3iB9U3CHTNFz5z0Nv7yB8EGh1hIYAAAqsJFKeX2g6+x5RpB3TLoyLqQACBKAUs8ekx2eVcOx4Vda0OufbVZq9+vI13V7Hs3bYC79UnQKKhPktKWlMglTtR2CUU3IlizQ8BmyGAQIgCYwVl9xtverJfuELYAW26nZSPAAJrCDhfzmXfe0z1C5irnVEQwjQmue3TDSQafJyp5Q6BVO5Ecfy5b3Mnijv6mrcRQCAOgeL6aK8EgF0f3Y9DhigRQKAFAfsu8rqca6+F9iVbpb7bB2pcWwNALnIlub1IpYFlJBoaQKXI1QVSuRPF/Wc+yJ0oVu9+tkAAgUAFlGw4VminDuFx7awDMlUgEKuA8+Vc/OJd7wclr7e4Wkp7qATITi0lUchSARINS2l4w1uAO1F4i1MfAgggUEnAfkn0mOza2YFHRdSBAAJRCowVNZdzRdR1+k7PFG6bA0DepmWfJ6YGBUg0NIhL0asLcCeK1c3YAgEEEGhSQL8knqn8oybrmCmbHb8ZDJ4igMC7AsXlXNm7Sxp9xuVcG/IqydBXEaMNi2lyc+561KSuyibR0DAwxa8uwJ0oVjdjCwQQQKBhAdtZ9Lg+els7p8OG20LxCCAQqYCSDblC97qcK4uUKZSwLXEcygCQy0y4TGaZTA3LSTTUgEgR9QtwJ4r6TSkRAQQQWFfA+ZdEdvzW7Si2Q6AbAl6/ktvtLgfdIK23lYVbSANALmugJUKyZW+yfDMBEg2b+bF1gwLciaJBXIpGAAEEVhRQssF+nfK4Ptp2/LwOJFZUYHUEEGhbQN9FZ4rB63KurO32Rlp/HlHcBySUmuktEg3NuFJqDQLciaIGRIpAAAEE6hUY1lvc0tJsRPD+0nd5AwEEui5gyUiPy7m4jn/FT5q+uzNtEuoAkMtaY4l0ppoFSDTUDEpx9QpwJ4p6PSkNAQQQ2ERAvyROtP3JJmWssG2+wrqsigACHRLgcq4wO7tIEMd4RpqNDxRj3GF+EIqoSDQE3T0EZwLciYLPAQIIIBCUgNfOmP2SOAiq5QSDAALBCHA5VzBdMRuInRkQ+gCQs/HOPs+KRMnsMp5vIECiYQM8NvUT4E4UftbUhAACCNwmoJ37qd4/vG2dGt/LayyLohBAID2BoVOTuJzrDugiMRzDAJDLWmIJEkuUMNUkQKKhJkiKaV7A7kRx8vo/NF9RwzXkn/1mb+cDH2u4FopHAAEEGhWwnTGP66Pvczpro/1I4QhELVBcznXq1AgOQm+Hzm9/O4p3dzmTrr5+ek99RVESAs0LDF/5897k/3qxt/3+jzZfWUM13Hvv073jz327t/M//6hnA14yIYAAArEJ2PXRRQLgZYfY7XTW3Op0qIsqqgl4HdgtiqavhbENNLeoHSyrT2Cool6vr7ilJV0dhBbJjaUrdfGN4v+DVP4uc/Vhv4v9WHebSTTULUp5jQrYgfne33+jd/aHRz07YI91uv/MB3uT3Rd7g5OvkmyItROJG4GOC2hnO9fO5VAMDxqmsNNZM82jhuuh+IoC6vtBxVVrX02fuUyFPqy9YAqMVkCfx6k+F3Y5l8fnws5q2IkWq4HAZb+lYrMGim6rSDuTLtPnKqU2tWLJpROtsFPpJgLT3/xaB+hf26SIILa1szLGn2G/OYjOIAgEEFhXIFt3wxW3s/ucs3O/IhqrI9AhgbHa6nE5F3cnuPmhMvtYB4C82Zp3ljAmxzKZFZaTaFgBi1XDEbDbXj7/yl+GE9Cakex//Au97NNfWXNrNkMAAQTaFdAvPhNFcOQUhe3MMiGAAAI3BPRddKmFoxtvNLPALufaaqbouEqVw0AR78cVdeVo88prsuJCARINC1lYGIOA3Yni0c/+LoZQb43x4ae+0ht+4ou3rsObCCCAQMACtnPv8UviA+3U7gXsQGgIINCigJINuar3GD+kvJyrxdYGU/U4mEjqD4T/czY0JdGwISCbtyswenWcxJ0oxp854E4U7X6UqB0BBNYUKH5J9NrZ9KpnTQ02QwCBlgUyp/rtcq6+U11BVqP2jxTYtmNwltD2OoOubNZY7dwqX/C4mgCJhtW8WDtAAbsTxfkbvwwwsuoh2cCWk93v9LbeF+8Al9Vby5oIIJCagJINmdp04dCuq0G6HOqhCgQQiFBA30UThe11MJpHSFRLyMXBd1ZLYdULsfosueFxBl0Z1X09ycoXPK4mQKJhNS/WDlCgvBPF47fivlXkO8mGF0k2BPgZIyQEEKgkYDuAHpPVwy9MHtLUgUCcApnC9jgYfaB6Bpq7OI3VaM8BIE+VRBoXZ9B5/V9T9iuDEZcSKz6SaFgRjNXDFOBOFGH2C1EhgEB3BLQDeKzWnjq02HZuPU/XdWgSVSCAQF0C+i6aqiw7EPaYLNnQqUlnMwzUYO8BIJ8kF9S/uer3+L9G1TyZvD5PTypM4QmJhhR6kTZcCXAnCj4ICCCAQOsCw9YjIAAEEOi8gA5GMyF4XM7VRWvvg+5H6s+zOegniYe55U29tIEhvetsqi1u5ZJocKOmIg8B7kThoUwdCCCAwGKB4pfER4vfZSkCCCDgKsCBYc3cxcG25xlllizK5ptRJB4O55c3/Jrbmq4ITKJhRTBWD1+AO1GE30dEiAACSQtkap3H9dFJI1ZsXL/ieimttpVSY2hLcwI6GD1W6d6n2DfXoJZLbmkAyJH68XJJ08da7nnWil22Z3UyVRQg0VARitXiEuBOFHH1F9EigEA6AsVOYZZOi4JuST/o6JoJbqeZYik1UYFRou1qo1l2kG0H217TSZEsWlhf8X+Nd//uF2NULIyJhdcFSDRc9+BVIgLciSKRjqQZCCAQpYB2AG2H9DzK4OMKeiuucGuJtottrgWui4Xou+hM7eZyrg07vzi49hwA0s6KG90VdpGI8D5rZXxXXLz/jgCJBj4JyQqkdCeK7NP/Ldl+omEIIJCswJ07icm23K9hntdK+7Xq9pq62ObbRXj3LoFMK3A5111Kt7/vfXCdKYkwvT2kJ+8OnzzzebKtxEvmU1XctZBoiLv/iP4OgVTuRLH9/o/e0VLeRgABBMIS0E7iRBGdhBWVezTnTdfYpdN4ndrqec130x8PypeAvosu9ZCBsZ6A/u4saeyZ4DtXn1VObBQJicP1Wrf2ViO59NfeuiMbkmjoSEd3uZmp3Imiy31I2xFAIFoB20Ht8i+JdoDT9LTXdAUBlT9wiGXqUAdVOAsUB66NJ/6cm9V4dTqY3lIlWeMVXa9geP3l3a/Uv5nW8kwS2lgV47sj6/YaJBq63f+dab3dieLoFz/oTHtpKAIIIBCCQPFLU5d3xi4d+mHPoY5QquhSW0MxTymOUUqNcWrLWPXYQbXX9Ej/b5ytWdlwze3W3WxXiRi+k27RI9FwCw5vpSVgyYbzN36ZVqNoDQIIIBC+gO2oev7SFJLIujvMq7ThvnZ2d1bZIMZ1izZ6nL49idGHmO8W0AGs9W3XL+e6G6pYo/ib8x4AMqsc4NyKLfXvWE5bc6HwshAg0cBHoTMCdieKwclXe4/ferMzbaahCCCAQNsC2vm7VAxZ23G0VP/Uqd6RUz1tVuPVRq8+a9Oyy3V7fY5SMB47N2JY/H+xSbXWv56X691XfXymlvQYiYYlMCxOU+CdZMPXSDak2b20CgEEAhXQzmOu0E4DDa/JsM6aLHymbLu3e3/mdVJPi7Z5/bI6TQqPxlwT0HeR9e/htYW8uCGgv7mhFj648UZzC07VN8ebFl/073jTclbc/mHK378rWlxbnUTDNQ5edEHA7kQxevVRF5pKGxFAAIGQBDr3q492er0SDdbPeUidXXMsbm1Tn01qjp3iwhOwA9GuXs51Z2/ooHlLK5mR12RnIAzrqkx/w5nKOq+rvIrl5BXX69RqJBo61d00thSwO1Ec/vSl8iWPCCCAAAINCxQH3UcNVxNi8adOQT3QAcLIqS63aoo2ef2y6tVXbn5UdFNA30WXWprdfIclhYDZeA4AOVafTIu663rw/i60799hXcGnUg6JhlR6knasLJD95CXuRLGyGhsggAACGwnYzp/n9bMbBVvTxpOayqlSzAva2d2psmIM6xRtyRxjnTjWRVUtCujANlf1JJbm+qD4mzuYW9zky3P1RVZ3BSpzojK9E9sMDDnXkSQa5kB42S0B7kTRrf6mtQgg0K6Adv66+EvisbP6JIVkQ9GGiew8f1m1+pi6I2CJT6brAuPrLxt/1WQfWNmeiW37rsoaF4uogvdEFCuhIlC7QHkniul//X979977dO3lUyACCCCAwHUBJRvsVx/bAbTRupOf1N4ztfdCDfVqr+3sWrJhYHXHCNxSkuGxvCYxehHzegLF36b96r2/XglpbaW/u6Fa5u47gQAAJzNJREFU5HWZkuEdNfk3p7Iv1aZM9bxglTlNB6ozt8+WU321V/M3f/M3fRW6U8yz5U/0YvrHf/zH09mFtz0n0XCbDu91QqC8E8Vk9zskGzrR4zQSAQQCEBgqhlcCiMMrhGNVdOBVmeopkw17Te7IN9Ee7aQPVK55WRs8J6uTqXsCIzV5T7P35y0oaf3dbSmgsWNQdqaB2Tc66fvPEttDVbLdaEXXC8/1cuf6orBfKblg/W/9MdS8LCn+UO/1tK4NtJnbrKTDpR6XTlw6sZSGN7okwJ0outTbtBUBBNoWKA5+T9uOw7H+3LGusio7cHpFO9lZuSD0xyJWS0C1cdCXh+5DfPUL6LvIDpTG9ZccXYmZIvb8uxsV9h5QQ49KZurY1neZHbRHMSlxYLFONVsioUwyWDLB/o8+LGZ7fqHZJkvavKB5qm33bMGyiTMalsmwvHMCdieK/jMf7D381Fc613YajAACCLQgMFSdr7dQr3uV2qG2yydsx8120Lwnu8e77Qzajv3Eu/Iq9Sm+gdbLNZc7uXrqOl2EauOq0NHK1PeZPoNDNb+tz1+r8mr7jgI4cAziVOa5V32qy75/Hzm30T5TdgnFpVc7V62nOIvhWNs9KLa1RMJY8/GyyyO0TV/vDzWPNN/T/D0tO9L6tuzGxBkNN0hY0GUB7kTR5d6n7Qgg4CmgHbCp6rNfS7oy2Q5cW5MlOOzshquxG9oKYr5exTOwmCw2zW0e5GWqn6nbAsMON9/7u6kN60z9+9ixj+0gPHesb6WqiiTDRBuVSQZLxOwoYTBelmSwCuw9zZme9jWfaLZpX+WdFWW+s6T4l0TDNQ5eIKAU3avj3vkbv4QCAQQQQKB5AdvB9dz5a75FS2oofsErTz1dslbji22n0hIO9gvfUPNW4zXOVWB1ah5pPrNYNJc7unNrur20z9+xW21UFKSA/j4nCuw0yOAaDEp/h0MV7/k3eFgkmRts1c2iVeello5uvtPokl35DhqtYf3CJ9rUEtA2Pa/kwUizGVWabF3Ne1q5/LHAyhrPb8ylE/MivO68AHei6PxHAAAEEHASsJ0/O+hUdS87Vdl2NVkgbbWdQjN/Wf52cHWseaL+ONNj7VOxs72jgvc0ex7UVGnLuDgIqbIu66QtMFTzXk+7ie+2Tn+XW3o1fndJ48/sEqWs8VqWVKC6c7V5qLc9v4Ny1dfXHMykMw+sz2eTDLkFp+VDPfQ1L5qmWmjz2WxCQs8zbXep5S9ovjqzQcuefKY4o0EqTAjMC5R3onj81pvzb/EaAQQQQKBGAdv5U3F2sJv8VLT1IrCG2k637SS+pp3wtzXb5RVjzZnmQTH374pZ6/WLdff0aNvmmiea39a2r2i2Ojx38O8K2d63vniyU1xlA9ZJV0B/n1O17jDdFt5oWaYl924sbW7BsLmiK5c8qrxmPSvet+/DeoravBQlBXZUykFR0qGSAvlMqUM9f7hkflnL7Xv8fxeJCj19ZyoSC0fFS0s89IvnPRINpQSPCMwJcCeKORBeIoAAAs0JZM0VHVzJ3ju6qwJYMsB2RG2H03YsbX7dEga3zbZOse739Gjb7mt+oDnkKdPB5WXIARKbu8BYNSZ/OZf+lmcPOD2Qj/S3NvGo6LY6FMOZ3vdOJtmlYv3b4nJ8b1TUdW5nI9xSryUOzMnmU80XmsvpYD7ZoDesXPu7scRVpvlqItFQSvCIwAIBuxPF4U9fWvAOixBAAAEE6hIodkCP6iov5HLU1mPFdxJyjB2JzXXk+46YRt9M/X1eqhHlwVj07bmlAeNb3qv7LTsADcnU2j574Fx3e+fLs4PvfH6h92slB7ZUpyWAbcqu/l3+T26JiGIe6LGvVZ+bWd2S0U8mvX+pF+Zq0947Dz3OaCgheERgmQB3olgmw3IEEECgVoFMpSX/S2IhNupQW4smB/Vgn7NhUBERTDACSjbkCuY8mIBqDkS/rg9VpOfZRkGdOdRSMumB3J8cgNfcpVWLK+u/UGLguOpG5XraZqLnp+VrJS4G5fPicVw83tN7V3VxRsOcEC8RWCQw/NFfcCeKRTAsQwABBGoS0M7fVEWVOyo1lRpmMUVbh2FG14mo7MBn2omW0sh1BUbrbhjydjrY3VJ8mWOMduZQcN/riulYBk8Omp08bOwb829rGhQVT5oIoDiroUzQ7VgdJBqakKbMJAUGJ1/tXfzm35JsG41CAAEEQhDQzl+mODxPaW2t2cWO7lFrAXS34pMQD3y62x1htlyfkYkiS/Hvc6R23XdUt/pCnYYKzPMsOnPPNLc19YuKz9YJoLj04iqBoO0fF2c4zBc1KRZcrfee+Xd5jQACiwXsThR7P/xGb7L7nd699z69eCWWIoAAAghsKmA7pjagYPKTDmaG+oXLdsi2k29sGA20X9uGYYRCFBEIZIpxT7NdYx/9pO+avhrx0LEhh/qOO3Osb6WqFNtUJmNnkwPVmbfsUqVPdpRYmPXc0YuR5vJvwZ4vmi6LhVv2yBkNi4hYhsASAbsThV1GwYQAAggg0IyAdsCOVfJpM6UHWepAUZWnmwYZYCJB2S+Xe/p8lTvCiTSLZjQlYAeiKnvcVPktlJs71nmhuoK3Ux9nitNi9ZyCdxHGC5pfmZnttZ2RcaL5WZ3NkOvxzolEw51ErIDAdYHj13/c+/qrj64v5BUCCCCAQJ0CozoLC7ms4sB3oBjtQJipGQGzHRQHjs3UQKmpCthBofeBaO2W+hV9T4U+qL3g5QUOi++25WuE887QORQbGNK7ztkmbs2+WPH5rtav/P8ziYYVdVkdARMY/+y7vaNf/AAMBBBAAIEGBLSDeqZiO5PRnUk2RH9A08DHYdMiyySDfaaYEFhJoPjbrHxgtVLhTivroHZLVY2dqrNqbByUiWN9G1VVxHqyUSGrb9zmwJA7FcJ9TmctPFXOWv9ZzefFdvvlXSUWlFOWfWbvkWhYIMQiBKoIcCeKKkqsgwACCKwtkGlLO0jsxKSdXdsxs520cmeuE+1uuJH2+bEzGa52ehuui+ITFdDn51hNO424eSPFbqe9e0z2Nzf0qKjmOszI8/8bG+tgXHMb7ipuUqwwuGvF+feVcDjTsr2Z5cOZ57NPd4oXU3sk0VBo8IDAOgLciWIdNbZBAAEE7hbQzv2l1sruXjOdNYo2D9SimA9qQukQS9j0STKE0h3RxzGKsQU6m6GvuB86xp4V32OOVW5elWKeqpRs85JWKmFf/TNYaYvNVp4Umz/QGQn9VYtSsmGqbcr/m+wSimuTyhxoQZnQOrY3STSYAhMCawqUd6J4/Naba5bAZggggAACywS08zfWe3bA2JnJdtI1D9TgR51pdP0NPVKRdiaDJauYENhYQJ+lMxUS499kvnHjqxdwLif7zo5yKmL3/v/GzUuJgok65qLonGHxWOdDVhR2XiQlSDTUqUtZ3RTgThTd7HdajQACbgIjt5oCqkg7vdbuL2l+HFBYoYdiVs/Lbqj5MvRgiS86gUwRR/P3qF/L9xSv6wCQ0fXozYC9/7/ZVj9lN8NobElelDxa56yGZVEVZzOUn7VxuR5nNJQSPCKwgQB3otgAj00RQACBWwR0wDjR2ye3rJLsW2r7sRrX19zJ9q/YsXZK747M8hW3Y3UEKgkUyaus0sotr6SD1y2F8OSAzyGcR/I5c6in0SrUhokqsDOiPKeR+qvvVKF9Ji402xgRx0oQ2OeknKz/7HvU5sty4dzjcfH+aZmoKMqw5Tad6myG/OqZ/nlP+YRHBBDYTMDuRLHzgY/19j/+hc0KYmsEEEAAgXmBkRbcuCZ0fqUUXxcHN3vaER2ofbnm8hpYPWWSgP3CPJJTjgYCTQvoc2Z3C7Dvo9D/Dj1jtAPXrGl7x/LNbk+zHYx7TFbPWLPV2eikJMClEgNDVfKK5m3NVu9Qc0/vjezxtknr2Po2X01FkmGiF9YG+y4ean4ycUbDEwqeILC5AHei2NyQEhBAAIF5Ae3cT7XscH55l17LYKK5XzjYDl3XJzOwz0RfLnnXMWi/q8DQtbYVKyt+HX+44mabrG6JvstNCghp26ItmXNMu0UyufFqlSyYqJLni4rsVpWTImFQLKr2oG12tOZEsyUsbBqq7OnVs+IfEg2zGjxHoAYB7kRRAyJFIIAAAjcF7FeUi5uLu7VEO8GZWtzXfKi5iwkHa/MjzXaZRJbSAY7axBSBgD5zE4V5EnCouWNsJ/I4dqzPpSq1yf6/OXWp7N1KciUbtt592dwzJQRylf58UcMDPU6VOBgWr299sKSE5kwrTTSXSYbnVeaNzwGXTkiICYE6Bco7UUx2v9O7996n6yyashBAAIHOCtgBpXbCMgG83FmEouFmoaeZPGxneM+ea76vOeXpQo3LNY+L9qfcVtoWvsBIIe6GFqa+E+z7wA4cPSZL+plDqpO17TXHxtl3uNWZedRpyQYlDC5VV675nuaXiwTCsZ7bPC3PUNDyHb3ua94rZlvfJvte3tN6Z1ev5v7hjIY5EF4iUIcAd6KoQ5EyEEAAgesCOsDMteT0+tLuvrIDbjPR3JfCc5qPNNvOf0qT/XL8JWujZs5gSKlnI26LPotThX8YUhOKX8PHjjHZ36M5JDmpbXbw/Mi5cQ/Vj32vOouzEKw++7/DJkt2HGh+RfPrSjC8bbOeW8Lle5r3NVuSwf6fsc//zrIkg97j9paGwIRAEwLciaIJVcpEAAEEkv4Fbe3u1U7xRPNQ85YK+ZJm23G0ncHYJov5RPPzmv+T2rOn+Ti2RhBvJwTsoP4ioJaOFIsdKHpM5/q7tPanPmVqoPf3aO6JqkTBpeah6vyI5q9rPtW8qM32WS+/m/vaJrNttWzp9FTvxd8b6F3LWjA1KGCn0T/48LMN1lBP0U/99e/XUxClPBHIP/vNztyJ4vCnL/Wyn7z0pO08aUbg7T/5x6eaKZlSEUAgNQH9OrajNu1pHmi25/ZrVGiT7dhObNbBiz0yIYAAAghELsAYDZF3YJ3hP37rzTqLo6xCwO5E0X/mQ1Ekmug0BBBAAIG0BHTgfqYW2Xw1FYkHSzjMzl7JB/uVrIxnas9JLEiBCQEEEEhQgERDgp26bpNsXAGmZgT2fviN3mT3xd72+z/aTAWUigACCCCAQAWB+cRDuUmRgNjSa0tA2KNNg6t/V/9nMrPJ1XMSCjMiPEUAAQQ6IECiwamTp7/5tYaADf/SCSeOzlVjd6IY/ujPlWxI+04U09/8W+f6lgYjgAACKQgUCQhryiSF9tAGBBBAAIF2BbjrhJO/JRpCnzijodkeMt+9v//TZitpufTp/wn/c94yEdUjgAACCCCAAAIIIJC8AIkGpy6e/OtrTjWtX83ZG1w6sb5etS0nv/qn3vOv/GW1lSNcy9rHhAACCCCAAAIIIIAAAt0WINHg1P9nb/yzU03rVzP5Vw4S19ervmX+8+/3jn7xg+obRLLm6a/CT6ZFQkmYCCCAAAIIIIAAAghELUCiwan77Br9k9f/wam21as5f+OXvRgu71i9ZWFuYXeiSO3A/Pj1H4eJTVQIIIAAAggggAACCCDgKkCiwZH7eBrugZj9ys7kK2B3orAETypT/gs+Q6n0Je1AAAEEEEAAAQQQQGATARINm+ituK0dzF8EOCr/47fe7HGQuGJn1rB6eScK8499sktBrD1MCCCAAAIIIIAAAggggACJBufPwPhn33Wu8e7qLCYOEu92amINuxPF4ORrvZiTDRZ79pOXmuChTAQQQAABBBBAAAEEEIhQgESDc6fZQX1IZzXYQWKIyQ/nbmm1utiTDfb5YXyPVj9CVI4AAggggAACCCCAQFACJBpa6A4bCDCUyWLhbIb2eyPWZIONMcHZDO1/fogAAQQQQAABBBBAAIGQBEg0tNAbk1/9U+/wp+2fam7X1XOngBY+AEuqLJMNsQwQaWfDDE6+uqQ1LEYAAQQQQAABBBBAAIGuCpBoaKnn7VdgO9Bva7KD2ZDOrGjLIbR630k2fLXVz0YVk3eSDF/jbJgqWKyDAAIIIIAAAggggEDHBEg0tNjhdqB/+qvX3COwJAO/RLuzV67wnbtR/EXvSz/80yAHibQxRmwAS0uKMCGAAAIIIIAAAggggAAC8wIkGuZFnF/bAZvnmQ2W2LAkA+MyOHf0GtXZZS39v/0vQVxmU4Zvn5+d//lHJBlKEB4RQAABBBBAAAEEEEDghgCJhhsk/gvszIavv/qo8YptXAhLbJBkaJy6tgqsr+wym4/87f/tmpCab4BdKsHnZ16F1wgggAACCCCAAAIIILBI4Knei7830BuvLHqTZb4COx/4WG/8mVHvwYefrbViu1Ri9P+NezYIJVPcAv1nPtQbfuILveHHv9i7/8wHXRpjZ9xYsoNbWLpwV6rk7T/5x6cqrchKCCCAAAIIIIAAAgi0IECioQX0u6ocfuKLvdEnv9zbfv9H71r11vftWvpMZzHkP//+revxZpwCex/5g14533vv07U2ws5gsEs3SDDUylpbYSQaaqOkIAQQQAABBBBAAIEGBEg0NIBaV5F2hoP9cm0Hk1V/vbbkgp25kP/8B5zBUFdHRFCOfVbsc7Lz/t/pDX772d46iYfys2MJBm57Gnank2gIu3+IDgEEEEAAAQQQ6LoAiYZIPgF2yrzNdhC5aLI7ANjM6e2LdLq3bOt9T18lHa4elYRYNk2VmJr+n1/3zt74Z8buWIYU4HISDQF2CiEhgAACCCCAAAIIPBEg0fCEgicIIIBAHAIkGuLoJ6JEAAEEEEAAAQS6KsBdJ7ra87QbAQQQQAABBBBAAAEEEEAAgQYESDQ0gEqRCCCAAAIIIIAAAggggAACCHRVgERDV3uediOAQKwCj2MNnLgRQAABBBBAAAEEuiHwW7rWd9KNptJKBBBAIAmBsyRaQSMQQAABBBBAAAEEkhUoz2i4SLaFNAwBBBBIS4BEQ1r9SWsQQAABBBBAAIHkBMpEwyS5ltEgBBBAIE0BEg1p9iutQgABBBBAAAEEkhEg0ZBMV9IQBBDoiMBxR9pJMxFAAAEEEEAAAQQiFSgTDey4RtqBhI0AAp0SONG4OpedajGNRQABBBBAAAEEEIhO4CrRUOy4HkUXPQEjgAAC3RIgKdyt/qa1CCCAAAIIIIBAlALlGQ0WfBZlCwgaAQQQ6IbAhZLCeTeaSisRQAABBBBAAAEEYhZ4kmjQDuxUDeGshph7k9gRQCBlgSzlxtE2BBBAAAEEEEAAgXQEniQaiiZlenycTvNoCQIIIJCEwClnMyTRjzQCAQQQQAABBBDohMC1RENxVsOoEy2nkQgggEAcApb8HcYRKlEigAACCCCAAAIIINDrXUs0GEjxqxmXUPDpQAABBMIQGBVJ4DCiIQoEEEAAAQQQQAABBO4QeOrtt99euMpTf/37Z3pje+GbLEQAAQQQ8BD4upIMY4+KqAMBBBBAAAEEEEAAgboEbpzRMFPwQM/PZ17zFAEEEEDAT+CQJIMfNjUhgAACCCCAAAII1Cew9IyGsgqd2ZDr+X75mkcEEEAAgcYFni8uY2u8IipAAAEEEEAAAQQQQKBugdvOaLiqSzu7Qz35umbuRnElwj8IIIBAYwIXKvlZkgyN+VIwAggggAACCCCAgIPAnYkGi6E4fXdHT08cYqIKBBBAoGsClsg91Lyj71sbH4cJAQQQQAABBBBAAIFoBe68dGK+ZbqUYqBlNjgZA0XO4/AaAQQQWF3AErjcWWJ1N7ZAAAEEEEAAAQQQCFRg5URD2Q4lHEZ6nmm+Vy7jEQEEEECgssC51rQEw6TyFqyIAAIIIIAAAggggEAEAmsnGqxtSjZs6SHTfKCZCQEEEEDgbgG7TMISDPndq7IGAggggAACCCCAAALxCWyUaCibq4RDX89zzQ80MyGAAAIILBawcRjGSjJcLn6bpQgggAACCCCAAAIIxC9QS6KhZCjGb8j1+n65jEcEEEAAgd6pDIZKMEyxQAABBBBAAAEEEEAgdYFaEw0llhIOmZ7bGA6M31Ci8IgAAl0UuFCjLcEw6WLjaTMCCCCAAAIIIIBANwUaSTQYZTF+w1hP97tJS6sRQKDDAjYOQ6YEg30HMiGAAAIIIIAAAggg0CmBxhINpaISDjt6bjvbjN9QovCIAAIpCzxS4yzJcJlyI2kbAggggAACCCCAAALLBBpPNJQVK+Gwp+eWcGD8hhKFRwQQSEnAxmGwu0mcpdQo2oIAAggggAACCCCAwKoCbokGC6y4nGKkpzYzfoOhMCGAQOwCNg6DJRiOY28I8SOAAAIIIIAAAgggUIeAa6KhDFgJh76eZ5oZv0EITAggEKWAjcNgt6rMooyeoBFAAAEEEEAAAQQQaEiglURD2RYlHAZ6Pta8XS7jEQEEEIhA4Egx2lkMlxHESogIIIAAAggggAACCLgKtJpoKFuqhMNQzy3hwOUUJQqPCCAQooCNw2ADPU5CDI6YEEAAAQQQQAABBBAIQSCIRINBzIzf8DAEGGJAAAEEZgRsHAZLMOQzy3iKAAIIIIAAAggggAACCwSCSTSUsRXjN9jZDbvlMh4RQACBFgUOVbeNxcBlEi12AlUjgAACCCCAAAIIxCMQXKKhpCvGb8j1mtthlig8IoCAp8CJKrNxGKaelVIXAggggAACCCCAAAKxCwSbaChhlXAY6XmmmfEbShQeEUCgSYFzFW4JhkmTlVA2AggggAACCCCAAAKpCgSfaDD4YvyGTE8P7DUTAggg0ICA3a7SEgx5A2VTJAIIIIAAAggggAACnRGIItFQ9kYxfkOu1w/KZTwigAACNQg8Uhk22CPjMNSASREIIIAAAggggAAC3RaIKtFQdpUSDnt6PtbM+A0lCo8IILCOgN2ucsg4DOvQsQ0CCCCAAAIIIIAAAosFokw0lE1RwiHTcxvDgfEbShQeEUCgioDdrtISDJMqK7MOAggggAACCCCAAAIIVBeIOtFgzSzGb7CzG/arN5s1EUCgowI2DoNdImHfGUwIIIAAAggggAACCCDQgED0iYbSRAmHHT23gwfGbyhReEQAgVmBI72wwR4vZxfyHAEEEEAAAQQQQAABBOoVSCbRULIo4TDU80wz4zcIgQkBBHo2DoMlGM6wQAABBBBAAAEEEEAAgeYFkks0GFlxOcVIT21m/AZDYUKgewI2DoMlGI6713RajAACCCCAAAIIIIBAewJJJhpKTiUc+no+1rxbLuMRAQSSF7BxGMZKMGTJt5QGIoAAAggggAACCCAQoEDSiYbSWwmHgZ5bwmG7XMYjAggkKWDjMNhgj9MkW0ejEEAAAQQQQAABBBCIQKATiYayH4rxGyzhwOUUJQqPCKQhYOMwWIJhkkZzaAUCCCCAAAIIIIAAAvEKdCrRYN00M37Dw3i7jcgRQKAQsMskbByGHBEEEEAAAQQQQAABBBAIQ6BziYaSvRi/IddrbodZovCIQFwChwrXxmK4jCtsokUAAQQQQAABBBBAIG2BziYaym4txm/I9ZrbYZYoPCIQtsCJwrOzGKZhh0l0CCCAAAIIIIAAAgh0U6DziYay25VwGOl5ppnxG0oUHhEIS+Bc4ViCYRJWWESDAAIIIIAAAggggAACswIkGmY0ivEbMi06mFnMUwQQaFfAxmGwgR5tIFcmBBBAAAEEEEAAAQQQCFyARMOCDlLCYUeL7aCG8RsW+LAIAUeBR6rLkgyXjnVSFQIIIIAAAggggAACCGwgQKLhFjwlHPb0tiUcGL/hFifeQqABAbtd5ZBxGBqQpUgEEEAAAQQQQAABBBoWINFQAVgJh0yrjTQzfkMFL1ZBYAOBC21rCYbJBmWwKQIIIIAAAggggAACCLQoQKKhIn4xfoOd3bBfcRNWQwCB6gI2DoPdqjKrvglrIoAAAggggAACCCCAQIgCJBpW7BUlHAbaJNPM+A1CYEKgBoEjlWF3k7isoSyKQAABBBBAAAEEEEAAgZYFSDSs2QFKOAy1aaaZ8RuEwITAGgI2DoMlGM7W2JZNEEAAAQQQQAABBBBAIFABEg0bdExxOYWN3fBwg2LYFIGuCdg4DHYnibxrDae9CCCAAAIIIIAAAgh0QYBEQw29rIRDX8XY+A27NRRHEQikKnA1DoMaZ2MxcJlEqr1MuxBAAAEEEEAAAQQ6L0CiocaPQDF+gyUctmsslqIQSEHAxmGwsximKTSGNiCAAAIIIIAAAggggMByARINy23WfqcYv8ESDtwOc21FNkxE4FztsHEYJom0h2YggAACCCCAAAIIIIDAHQIkGu4AWvftYvyGTNsfrFsG2yEQsYBdJmEJhjziNhA6AggggAACCCCAAAIIrCFAomENtFU2KcZvyLUNt8NcBY51YxY4VPCMwxBzDxI7AggggAACCCCAAAIbCJBo2ABvlU2L8RtybcPtMFeBY92YBE4UrJ3FMI0paGJFAAEEEEAAAQQQQACBegVINNTreWdpSjiMtFKmmfEb7tRihUgELhTnkHEYIuktwkQAAQQQQAABBBBAoGEBEg0NAy8qvhi/wQaL3F/0PssQiETAxmGwO0nYZ5kJAQQQQAABBBBAAAEEELgSINHQ4gdBCYcdVW8HaYzf0GI/UPVaAo+0lSUZLtfamo0QQAABBBBAAAEEEEAgWQESDQF0rRIOewrDEg6M3xBAfxDCrQKnetcuk5jeuhZvIoAAAggggAACCCCAQGcFSDQE0vXF5RQjhWMz4zcE0i+E8UTAxmGwgR6PnyzhCQIIIIAAAggggAACCCCwQIBEwwKUNhcp4dBX/Zlmxm8QAlPrAjYOg92qMms9EgJAAAEEEEAAAQQQQACBKARINATaTUo4DBRappnxG4TA1IrAkWq1sxguW6mdShFAAAEEEEAAAQQQQCBKARINgXebEg5DhTjWzOUUgfdVQuHZOAw20OMkoTbRFAQQQAABBBBAAAEEEHASINHgBL1JNTPjNzzcpBy2ReAOARuHwRIM+R3r8TYCCCCAAAIIIIAAAgggsFSARMNSmvDeKMZvsLMbdsOLjogiFrgah0Hx21gMXCYRcUcSOgIIIIAAAggggAACIQiQaAihF1aMoRi/wRIO2ytuyuoIzAucaIGNwzCdf4PXCCCAAAIIIIAAAggggMA6AiQa1lELZBslHEYKJdPM+A2B9ElEYZwrVkswTCKKmVARQAABBBBAAAEEEEAgAgESDRF00m0hFuM3ZFrn4Lb1eA+BQsAuk7AEQ44IAggggAACCCCAAAIIINCEAImGJlRbKLMYvyFX1dwOswX/SKo8VJyMwxBJZxEmAggggAACCCCAAAKxCpBoiLXnlsRdjN+Q6+37S1ZhcfcE7HaVQ8Zh6F7H02IEEEAAAQQQQAABBNoQINHQhrpDnUo4ZKrGxnBg/AYH70CrsNtVWoJhEmh8hIUAAggggAACCCCAAAIJCpBoSLBTyyYV4zfY3Sn2y2U8dkLAxmHIlGCwvmdCAAEEEEAAAQQQQAABBFwFSDS4crdTmRIOO6rZDjoZv6GdLvCs9ZEqsyTDpWel1IUAAggggAACCCCAAAIIlAIkGkqJDjwq4TBUMzPNjN8ghMQmG4fB7iZxlli7aA4CCCCAAAIIIIAAAghEJkCiIbIO2zTc4nKKkcqxmfEbNgVtf3sbh8ESDMfth0IECCCAAAIIIIAAAggggECvR6Kho58CJRz6anqmmfEbhBDhZOMw2K0qswhjJ2QEEEAAAQQQQAABBBBIWIBEQ8KdW6VpSjgMtN5Y83aV9VknCIEjRWHjMEyDiIYgEEAAAQQQQAABBBBAAIEZARINMxhdflqM32AJBy6nCPeDYOMwWIJhEm6IRIYAAggggAACCCCAAAJdFyDR0PVPwEz7Z8ZveDizmKftC9g4DJZgyNsPhQgQQAABBBBAAAEEEEAAgdsFSDTc7tPJd4vxG+zsht1OAoTV6EOFY2MxXIYVFtEggAACCCCAAAIIIIAAAosFSDQsdmGpBIrxG3I95XaY/p+IE1Vpd5OY+ldNjQgggAACCCCAAAIIIIDA+gIkGta368yWSjiM1NhMM+M3NN/r56rCEgyT5quiBgQQQAABBBBAAAEEEECgfgESDfWbJlliMX5DpsYdJNnA9htlt6u0BEPefihEgAACCCCAAAIIIIAAAgisL0CiYX27Tm5ZjN+Qq/EPOgnQTKMfqVgb7JFxGJrxpVQEEEAAAQQQQAABBBBwFCDR4IidUlVKOOypPWPNjN+wfsfa7SqHjMOwPiBbIoAAAggggAACCCCAQHgCJBrC65OoIlLCIVPANoYD4zdU7zm7XaUlGCbVN2FNBBBAAAEEEEAAAQQQQCAOARINcfRT0FEW4zfY2Q37QQfafnA2DoNdImFWTAgggAACCCCAAAIIIIBAkgIkGpLs1nYapYTDQDVnmhm/QQhz05Fe22CPl3PLeYkAAggggAACCCCAAAIIJCVAoiGp7gyjMUo4DBVJppnxG3o9G4fBEgxnemRCAAEEEEAAAQQQQAABBJIXINGQfBe308DicoqRare5i+M32DgMlmA4bqcHqBUBBBBAAAEEEEAAAQQQaEeAREM77p2pVQmHvho71rzbkUbbOAzW3jGXSXSkx2kmAggggAACCCCAAAIIXBMg0XCNgxdNCRTjN9gB+HZTdQRQro3DYIM9TgOIhRAQQAABBBBAAAEEEEAAgVYESDS0wt7dSovxGyzhkNLlFDYOgyUYJnpkQgABBBBAAAEEEEAAAQQ6LUCiodPd307jZ8ZveNhOBLXVapdJ2DgMeW0lUhACCCCAAAIIIIAAAgggELkAiYbIOzDm8IvxG3K1IcbbYR4qbsZhiPkDSOwIIIAAAggggAACCCDQiACJhkZYKXQVgWL8hlzbxHA7zBPFaWcxTPXIhAACCCCAAAIIIIAAAgggMCdAomEOhJftCSjhMFLtmeYQx284V1yWYJjokQkBBBBAAAEEEEAAAQQQQGCJAImGJTAsbkegGL8hU+0H7URwo1Ybh8EGerQBLJkQQAABBBBAAAEEEEAAAQTuECDRcAcQb7cjoITDjmq2g/s2x294pPotyXDZjgK1IoAAAggggAACCCCAAALxCZBoiK/POhWxEg57arAlHDzHb7DbVQ4Zh6FTHzUaiwACCCCAAAIIIIAAAjUJkGioCZJimhVQwiFTDSPNTY7fcKHyLcEw0SMTAggggAACCCCAAAIIIIDAGgIkGtZAY5N2BJRs6KvmTPO+5jonG4fBblWZ1VkoZSGAAAIIIIAAAggggAACXRQg0dDFXo+8zTUmHK4SDOKwJAPjMET+uSB8BBBAAAEEEEAAAQQQCEOAREMY/UAUawgUCQcbw8HmqoNGWnJhovlYyYVcj0wIIIAAAggggAACCCCAAAI1CpBoqBGTotoVUOJhoAj6xayHa9OZXk2VXLBHJgQQQAABBBBAAAEEEEAAgYYE/n8R4vQN+syHNQAAAABJRU5ErkJggg==;" parent="M0A9UQwUjTfV-8Phl40K-50" vertex="1">
          <mxGeometry x="88.25416666666666" y="-0.0016445352400392688" width="64.48196" height="25.546" as="geometry" />
        </mxCell>
        <mxCell id="M0A9UQwUjTfV-8Phl40K-64" value="&lt;font style=&quot;font-size: 10px;&quot;&gt;listen 80&lt;/font&gt;&lt;div&gt;&lt;font size=&quot;1&quot;&gt;server_name my-app.domain.name&lt;br&gt;&lt;/font&gt;&lt;div&gt;&lt;font style=&quot;font-size: 10px;&quot;&gt;proxy_pass 127.0.0.1:8080&lt;/font&gt;&lt;/div&gt;&lt;/div&gt;" style="text;html=1;align=center;verticalAlign=middle;whiteSpace=wrap;rounded=0;" parent="M0A9UQwUjTfV-8Phl40K-50" vertex="1">
          <mxGeometry x="39.75" y="25.539999999999992" width="159.5" height="41.05" as="geometry" />
        </mxCell>
        <mxCell id="M0A9UQwUjTfV-8Phl40K-67" style="edgeStyle=orthogonalEdgeStyle;rounded=0;orthogonalLoop=1;jettySize=auto;html=1;exitX=0.5;exitY=0;exitDx=0;exitDy=0;entryX=0.25;entryY=1;entryDx=0;entryDy=0;" parent="1" source="M0A9UQwUjTfV-8Phl40K-53" target="M0A9UQwUjTfV-8Phl40K-51" edge="1">
          <mxGeometry relative="1" as="geometry" />
        </mxCell>
        <mxCell id="M0A9UQwUjTfV-8Phl40K-53" value="&lt;div&gt;&lt;font style=&quot;font-size: 10px;&quot;&gt;&lt;br&gt;&lt;/font&gt;&lt;/div&gt;&lt;font style=&quot;font-size: 10px;&quot;&gt;port forward 8080:80&lt;/font&gt;&lt;div&gt;&lt;font style=&quot;font-size: 10px;&quot;&gt;&lt;br&gt;&lt;/font&gt;&lt;/div&gt;&lt;div&gt;&lt;font style=&quot;font-size: 10px;&quot;&gt;serve my-app on 80&amp;nbsp;&lt;/font&gt;&lt;/div&gt;" style="rounded=0;whiteSpace=wrap;html=1;" parent="1" vertex="1">
          <mxGeometry x="99" y="261" width="108.96" height="110" as="geometry" />
        </mxCell>
        <mxCell id="M0A9UQwUjTfV-8Phl40K-54" value="" style="image;sketch=0;aspect=fixed;html=1;points=[];align=center;fontSize=12;image=img/lib/mscae/Docker.svg;" parent="1" vertex="1">
          <mxGeometry x="141.29" y="271" width="24.39" height="20" as="geometry" />
        </mxCell>
        <mxCell id="M0A9UQwUjTfV-8Phl40K-61" style="edgeStyle=orthogonalEdgeStyle;rounded=0;orthogonalLoop=1;jettySize=auto;html=1;exitX=0.5;exitY=0;exitDx=0;exitDy=0;entryX=0.75;entryY=1;entryDx=0;entryDy=0;" parent="1" source="M0A9UQwUjTfV-8Phl40K-55" target="M0A9UQwUjTfV-8Phl40K-51" edge="1">
          <mxGeometry relative="1" as="geometry" />
        </mxCell>
        <mxCell id="M0A9UQwUjTfV-8Phl40K-55" value="&lt;div&gt;&lt;font style=&quot;font-size: 10px;&quot;&gt;&lt;br&gt;&lt;/font&gt;&lt;/div&gt;&lt;font style=&quot;font-size: 10px;&quot;&gt;cloudflared tunnel&lt;/font&gt;&lt;div&gt;&lt;font style=&quot;font-size: 10px;&quot;&gt;&lt;br&gt;&lt;/font&gt;&lt;/div&gt;&lt;div&gt;&lt;font style=&quot;font-size: 10px;&quot;&gt;forward traffic to host:80&lt;/font&gt;&lt;/div&gt;" style="rounded=0;whiteSpace=wrap;html=1;" parent="1" vertex="1">
          <mxGeometry x="220" y="261" width="120" height="110" as="geometry" />
        </mxCell>
        <mxCell id="M0A9UQwUjTfV-8Phl40K-56" value="" style="image;sketch=0;aspect=fixed;html=1;points=[];align=center;fontSize=12;image=img/lib/mscae/Docker.svg;" parent="1" vertex="1">
          <mxGeometry x="267.81" y="271" width="24.39" height="20" as="geometry" />
        </mxCell>
        <mxCell id="M0A9UQwUjTfV-8Phl40K-68" value="&lt;div&gt;&lt;br&gt;&lt;/div&gt;&lt;div&gt;&lt;br&gt;&lt;/div&gt;DNS for second-domain.name&lt;div&gt;&lt;br&gt;&lt;/div&gt;&lt;div&gt;&lt;br&gt;&lt;/div&gt;&lt;div&gt;type: CNAME&lt;/div&gt;&lt;div&gt;name: proxy&lt;/div&gt;&lt;div&gt;target: tunnel-id.cfargotunnel.com&lt;/div&gt;&lt;div&gt;proxied: true&lt;/div&gt;&lt;div&gt;&lt;br&gt;&lt;/div&gt;&lt;div&gt;resolves all proxy.second-domain.name traffic to our tunnel (The cfargotunnel domain is only resolvable within cloudflare, so the DNS record needs to be proxied)&lt;/div&gt;&lt;div&gt;&lt;br&gt;&lt;/div&gt;&lt;div&gt;SSL TERMINATED&lt;/div&gt;" style="rounded=0;whiteSpace=wrap;html=1;" parent="1" vertex="1">
          <mxGeometry x="400" y="121" width="240" height="280" as="geometry" />
        </mxCell>
        <mxCell id="M0A9UQwUjTfV-8Phl40K-69" value="" style="shape=image;verticalLabelPosition=bottom;labelBackgroundColor=default;verticalAlign=top;aspect=fixed;imageAspect=0;image=data:image/png,iVBORw0KGgoAAAANSUhEUgAABLAAAAGNCAYAAAAB/YgbAAAAAXNSR0IArs4c6QAAAERlWElmTU0AKgAAAAgAAYdpAAQAAAABAAAAGgAAAAAAA6ABAAMAAAABAAEAAKACAAQAAAABAAAEsKADAAQAAAABAAABjQAAAABJGG/iAABAAElEQVR4AezdCZgcVbnw8XOql5nJZN8IJGQmJMgSUJBNyE6ACwgqS1BRUVAR5SruXj5FO2FVL+pFXO8VRNSrERCUCxIhKxJAAQHZISSEsGWfmZ6tu+t8b81ChmQm00tVdS3/ep6e6ak6y3t+1d3T/fapKq1YEEAAAQQQQAABBBBAAAEEIi+wOTN6uGUNm5rWZqJtW3sroydpy0xQRo2TwQ9VxgxTWg/Rct8oVS/rhsjN6gPj3E/Jrb3vTcq2S502pfQWo8wWKbTFVmaT0uo1S1sv2abwwmsb08/v+8PnO/q0xV0EEECgJAF5nWFBAAEEEEAAAQQQQAABBBCIikDrosajbKXmGVsfZmmzl630eK3NOElUjajyGLdpJ7Gl9CZJeq2ztLrP2ObeIZl1j8gHU1nFggACCAwsQAJrYBu2IIAAAggggAACCCCAAAKBFXgiMz09RbecWtD6w5L+OVg+3I3UWo00RiUCG3R/gWlVkPi3SwZLElzqAa2s3zy1YdSSw3/+UK6/4qxDAIF4CpDAiud+Z9QIIIAAAggggAACCCAQMoHmzNTxli58XmZXfVo+yDmH9zmH80X1M52RgeWcwxON0j/sNInvjMk83xSyXUa4CCDgokBUX+xcJKIpBBBAAAEEEEAAAQQQQMBfgec+O61mwhgzQiv7HKXNV6V35zxVLHJ+LUlqXaON+tk6Vb9leuaJTlAQQCAeAiSw4rGfGSUCCCCAAAIIIIAAAggEXGB7ZtLolGUdYBt9sUysenfAww1KeMuMZS7TBf3k0Mza14ISFHEggID7AiSw3DelRQQQQAABBBBAAAEEEECgKIHWzMRJxkqeKCdc/6QcDHhkUZUoNJDAM3Lc4Q+StvpLXWbt2oEKsR4BBMIpQAIrnPuNqBFAAAEEEEAAAQQQQCCkAtuunDwq0Wl9QML/sHwgOyakwwh62I9KgNfXm/RvdOZZufIhCwIIhF2ABFbY9yDxI4AAAggggAACCCCAQOAF5LxNum1hw/sKSn9ePoTNlICtwAcdhQC1kosyqhUJo35a9821i+UqjfInCwIIhFGABFYY9xoxI4AAAggggAACCCCAQCgEmjJ7jU1Y6asli3KSBMyJ2Ku517TaKumrJVYi/6Uh33h5QzVDoW8EEChdgARW6WbUQAABBBBAAAEEEEAAAQR2K9C6aNrRtp2/Sc5rNUEKMttqt1r+bpQPwbZMw3pVev340G+tvcvf3ukNAQTKFSCBVa4c9RBAAAEEEEAAAQQQQACBPgLOYYLNCxvOs7T+mcz0SfTZxN3gChiZHbdIElkLObwwuDuJyBBwBEhg8ThAAAEEEEAAAQQQQAABBCoQMHJS9pYO6ypJgJxfQTNUrbKAlvNkFdK5bwz/fxs2VzkUukcAgX4ESGD1g8IqBBBAAAEEEEAAAQQQQGAwgdbLpu5dyBe+QeJqMKlwbZcZWYuNsi4ZnlnzbLgiJ1oEoi1AAiva+5fRIYAAAggggAACCCCAgMsCTZl93mbpwjflgJYPudw0zQVIQI4tvMlWhYtHZF5+PkBhEQoCsRUggRXbXc/AEUAAAQQQQAABBBBAoBQBk3nb2KzV+V2p8xHOcVWKXKjL2sqY32plf60+s/6VUI+E4BEIuQAJrJDvQMJHAAEEEEAAAQQQQAABbwXMNdNqWrbmvquV/rj0NMTb3mg9oALtRutfD7U7LtKZV1oDGiNhIRBpARJYkd69DA4BBBBAAAEEEEAAAQQqEWhZNOXLcijZ1+WD08hK2qFuNASMMi3a6EuGZtb+IBojYhQIhEeABFZ49hWRIoAAAggggAACCCCAgE8CW78+pSGZNv8kceUTeMi6MUq3GKMP40TvIdtxhBtqARJYod59BI8AAggggAACCCCAAAJuCqz/wqS60SOTdxuljnGzXdqKrMBjW7fl37X3919ui+wIGRgCAREggRWQHUEYCCCAAAIIIIAAAgggUD0Bk1HJrNX4YTk5+3USBZ+TqrcrwtiznB5LX/DUy6OvP/znD+XCOABiRiAMArwwh2EvESMCCCCAAAIIIIAAAgh4JtCembxPXls3SQeHetYJDcdB4Dll9JlDMy8+FofBMkYE/Baw/O6Q/hBAAAEEEEAAAQQQQACBoAhkFzV8Q5JXL0g8JK+CslPCG8e+SptHs5kpl4d3CESOQHAFmIEV3H1DZAgggAACCCCAAAIIIOCRwPZL99nXss0dWplpHnVBs/EWeC5prFNqM2uejTcDo0fAPQFmYLlnSUsIIIAAAggggAACCCAQAoHWRVO+nDD24ySvQrCzwhvivnldeKJ5YWMmvEMgcgSCJcAMrGDtD6JBAAEEEEAAAQQQQAABjwQ2fnu/YXXtncuUMod51AXNItCfwJM5o2aMyqzd1t9G1iGAQHECJLCKc6IUAggggAACCCCAAAIIhFig5fLGQ3RB/cMYlQjxMAg9rAJaFSxbHzMk8+KDYR0CcSNQbQEOIaz2HqB/BBBAAAEEEEAAAQQQ8EzAKKWzi6Z8Q+XVIySvPGOm4cEEJHFqa/NAc6bhUpNRfA4fzIvtCPQjwAysflBYhQACCCCAAAIIIIAAAuEXMFftMyLbYa+WkRwQ/tEwgqgIyIfwNbk2+/CRV720NSpjYhwI+CFAAssPZfpAAAEEEEAAAQQQQAABXwWyiyYfZtuJ5Vqbob52TGcIFCEgH8RblTYz67+57pEiilMEAQREgKmLPAwQQAABBBBAAAEEEEAgUgLbF075iDHWfSSvIrVbIzUYObR1iDH6gZaFjedGamAMBgEPBUhgeYhL0wgggAACCCCAAAIIIOCfgHO+q5aFDd9JKHOD9Jr2r2d6QqAsgZTS6hfZhY0/lvOzcXRUWYRUipMAT5I47W3GigACCCCAAAIIIIBARAWeyExPN+jsX2V4syM6RIYVbYEV9RPGHK8/9VAu2sNkdAiUL0ACq3w7aiKAAAIIIIAAAggggEAABJyrumV14wYJZUIAwiEEBMoSkENeN7yyMTV13x8+31FWA1RCIOICHEIY8R3M8BBAAAEEEEAAAQQQiLLAsoxKSvKqIGMkeRXlHR2Dsck5sSbuOTbfbhaoRAyGyxARKFmAGVglk1EBAQQQQAABBBBAAAEEgiDQdtU+kwsd9nMSC+e7CsIOIQa3BOxEWk2tu3jtWrcapB0EoiDADKwo7EXGgAACCCCAAAIIIIBAzARaFzUcTfIqZjs9PsO1Cp3qme2ZKUfGZ8iMFIHBBUhgDW5ECQQQQAABBBBAAAEEEAiQQMvCyfNto5dLSMy8CtB+IRRXBdIJbVa1XDrlBFdbpTEEQixAAivEO4/QEUAAAQQQQAABBBCIm0BLpvFEpa07Zdwkr+K28+M33rQy5vbWhQ2nxW/ojBiBXQU4B9auJqxBAAEEEEAAAQQQQACBAApkFzacZJT+s4TGSa4DuH8IySMBrQra1qfXZ178k0c90CwCoRAggRWK3USQCCCAAAIIIIAAAgjEW6Bt0ZRZBWOWiwJHkcT7oRDL0WtJYhVUYd7wb65fFUsABo2ACJDA4mGAAAIIIIAAAggggAACgRZou3S/KQW74wUJks8vgd5TBOexgEla1n61l6xxrrzJgkDsBPgHELtdzoARQAABBBBAAAEEEAiPQFumsbGg1RqJmM8u4dltROqhQN7YU0dmXnKeEywIxEqA6bex2t0MFgEEEEAAAQQQQACB8Ai0XzptasFST0vEJK/Cs9uI1GOBpNbPbJPnhsfd0DwCgRMggRW4XUJACCCAAAIIIIAAAggg0HrZXnvn7fw/lFE1aCCAQF8BnUzY+YdbL5s0se9a7iMQdQESWFHfw4wPAQQQQAABBBBAAIGQCZgrJ4+yC2nnZNUjQxY64SLgi4BMSRxuCsn7mi6eOMaXDukEgQAIkMAKwE4gBAQQQAABBBBAAAEEEOgWMNdMq8l2JJbIXw2YIIDAwAJGqcm6NnXP+i9Mqhu4FFsQiI4ACazo7EtGggACCCCAAAIIIIBAqAWMUTq7LX+L0ubwUA+E4BHwSUBmYr1j1MjkH53njk9d0g0CVRMggVU1ejpGAAEEEEAAAQQQQACBvgLZhVP+U855dXLfddxHAIFBBf6tZWFjZtBSFEAg5AJkaUO+AwkfAQQQQAABBBBAAIEoCLRmphxpa/NAFMbCGBCohkBCF2bXfXO9c+44FgQiKUACK5K7lUEhgAACCCCAAAIIIBAeAZOZNDqrk5vDEzGRIhBMATuVGzv8/23guRTM3UNUFQpwCGGFgFRHAAEEEEAAAQQQQACB8gXM9ybVtejEuvJboCYCCPQKWLnka+vlOdX7N78RiJIACawo7U3GggACCCCAAAIIIIBAyASyzckVWumhIQubcBEIqIBOjmpKrQxocISFQEUCJLAq4qMyAggggAACCCCAAAIIlCvQnGm4VOoeUW596iGAQD8CchXPbPdzq5+NrEIgvAKcAyu8+47IEUAAAQQQQAABBBAIrUDTZZNnWgW9TCmdDO0gCByB4AoUlGWfOPSSl+4ObohEhkBpAiSwSvOiNAIIIIAAAggggAACCFQosDXTODKl1QvSzOgKm6I6AggMLLCt3uSn6szLWwYuwhYEwiPAIYTh2VdEigACCCCAAAIIIIBAJAQkeXWrDITkVST2JoMIsMDIFp1aHOD4CA2BkgRIYJXERWEEEEAAAQQQQAABBBCoRKB14ZQFUn9OJW1QFwEEihPQysxvWdRwdnGlKYVAsAU4hDDY+4foEEAAAQQQQAABBBCIjIC5YuKYbC61KTIDYiAIhERAm8LE+sz6V0ISLmEi0K8AM7D6ZWElAggggAACCCCAAAIIuC3Qkks94HabtIcAAoML2DqxyhjFBJbBqSgRYAESWAHeOYSGAAIIIIAAAggggEBUBFoWNX5ePj1Pjcp4GAcCYRKQ594+2UUNXwxTzMSKwM4CZGB3FuFvBBBAAAEEEEAAAQQQcFWgKbPXWEunX5dG+QLdVVkaQ6A0gfpRyRH6c883lVaL0ggEQ4B/IMHYD0SBAAIIIIAAAggggEBkBSR5dY8Mjs8ekd3DDCwsAtlt+fvDEitxIrCzAP9EdhbhbwQQQAABBBBAAAEEEHBNQA4d/Jiceedg1xqkIQQQKF/AqAOaM1POL78BaiJQPQEOIayePT0jgAACCCCAAAIIIBBpAZOZm2zRa7fIh45hkR4og0MgXAKt9RPGjNSfeigXrrCJNu4CzMCK+yOA8SOAAAIIIIAAAggg4JFAVr94Hckrj3BpFoHyBYa0vr7lt+VXpyYC1RFgBlZ13OkVAQQQQAABBBBAAIFIC8gVzw41Rj8c6UEyOATCLGDUoUMza/8Z5iEQe7wEmIEVr/3NaBFAAAEEEEAAAQQQ8FzAZJQlyaufet4RHSCAQNkCWqufO8/VshugIgI+C/Bg9Rmc7hBAAAEEEEAAAQQQiLpAk2o4UcZ4ZNTHyfgQCLOAUeqIFjXlzDCPgdjjJcAhhPHa34wWAQQQQAABBBBAAAFPBV7MNNaO02a9Unqspx3ROAIIVC6g1dZ6u3OSzrzSWnljtICAtwLMwPLWl9YRQAABBBBAAAEEEIiVwFhLf4LkVax2OYMNs4BRo1p16twwD4HY4yPADKz47GtGigACCCCAAAIIIICApwJyPp1kq9XYboxKeNoRjSOAgJsChfph+WH6iy+3udkobSHgtgAzsNwWpT0EEEAAAQQQQAABBGIq0KIbMiSvYrrzGXaYBRKtzclLwjwAYo+HADOw4rGfGSUCCCCAAAIIIIAAAp4KLF6gEicf1Jj3tBMaRwABzwTqD1ib1Gepgmcd0DACFQowA6tCQKojgAACCCCAAAIIIICAUidNb/wxDgggEF6B7FNTbghv9EQeBwFmYMVhLzNGBBBAAAEEEEAAAQQ8FFj/vUl1o1uSW+XwwRoPu6FpBBDwUkCrQv0eY+r0px7KedkNbSNQrgAzsMqVox4CCCCAAAIIIIAAAgh0CYxsSn6P5BUPBgRCLiAXX2h9bfMPQz4Kwo+wAAmsCO9choYAAggggAACCCCAgNcCZrFccVCrs73uh/YRQMAHAa0+7FxN1Iee6AKBkgVIYJVMRgUEEEAAAQQQQAABBBDoFWh9quE/5Lwkw3v/5jcCCIRXQGZS1metxsvDOwIij7IAmdUo713GhgACCCCAAAIIIBBYgZZLJh1sUsl5yqhj5XaA1mqUBJtwAjZKWT0nq7W7/1S2/L3BVvo5pe3HlK3uGzo69Tf9uec7nPLVXIzWn3UCZkEAgYgIGPVxGcnXIjIahhEhAU7iHqGdyVAQQAABBBBAAAEEgiUgeR2tPjstnR3X/jZlkl+S6JxD7VJuRynJrzbbNr/RlnXtRts806jWduqMpLk8XloWTTlHGXODx93QPAII+C9w3tBvrb3e/27pEYGBBUhgDWzDFgQQQAABBBBAAAEEShYwn51Ws318x6SknbhQ5lJ9TnJYXbOqSm6okgpa0kq2+mPS0j/I2R1PDc+8sqmS5vqr6yTnsgsb/ynb3t7fdtYhgECoBR6r/9baQyRhwPzKUO/GaAVPAita+5PRIIAAAggggAACCFRBwCyQq3dNb3iHraxPW5b6qDHG9VlWFQ7rcfkc+m2dVEvrv77u1Qrb6qqezTS8Uw4ffMiNtmgDAQSCJ2Al1NFDvrH2/uBFRkRxFeAcWHHd84wbAQQQQAABBBBAoGKBrZnGkSltPt6i9Fflm+HxMvFJpj5V3KwXDRwsE6Z+bfJKtSxsXGaU/snQA168RZ+lCuV2Jm1cVG5d6iGAQPAFTEF/WaI8M/iREmFcBJiBFZc9zTgRQAABBBBAAAEEXBNou2xKQ6FgrpQGPyC3kL6nNpuV0b/It9tXjbzqpa2l4JjMpNFZndwodbiqeSlwlEUgXAKSkVd7Dc2sfS1cYRNtVAX4hxPVPcu4EEAAAQQQQAABBFwXaL9y8j4yg2lpwTYvSOMflFtIk1cOjR4j0X81NcTaIIcD/mHblZOdqyAWtbTq1GlSkM8SRWlRCIHQCmij1XtDGz2BR04gxP9wI7cvGBACCCCAAAIIIIBAQAXMd/eob22t/YscNne0hOj/Sdn9cNEqp41aOsSsPXl3VzA0GWW16MZt8kFimB9h0QcCCFRRQJvN/2mvG5/x4aqmVRwlXYdEgG9NQrKjCBMBBBBAAAEEEECgOgLNCxt/mm2ta5Lk1UyJIJrJK4fWqJScvuvfsrox17yw4dqBtJvVXqNJXg2kw3oEIiZg9JivqcbJERsVwwmpACdxD+mOI2wEEEAAAQQQQAAB7wQkkaNbL9vnMFOw75NegnZFQe8G3t2ypZW+MLuo8XylzfuGFNb9pe+MLK1TV3gdAO0jgEBwBAraLJJozglOREQSVwEOIYzrnmfcCCCAAAIIIIAAAv0KbM5MG16r87+SJBbnfhEhcbjfqi2cUf+19a84YHIOMFnFggACcRKoP2BtspKrlsbJirF6J0ACyztbWkYAAQQQQAABBBAImUDzosY5krG5Vd4kjwxZ6F6H61yN7DxbWfdZ2n7G685oHwEEgiWQNNZ+tZk1zwYrKqKJmwCHEMZtjzNeBBBAAAEEEEAAgV0Euk9M3rBITmL+9V02ssIRkKMK1fVa2dvhQACB+Anktf1rGfWR8Rs5Iw6SAAmsIO0NYkEAAQQQQAABBBDwXcBJXrXqxntl1pVzhUGW3QiI0YjdbGYTAghEV+CI6A6NkYVFgKsQhmVPEScCCCCAAAIIIICA6wJvZBonyFX3XpWTOpG8cl2XBhFAIEoCrZnGd0VpPIwlfAIksMK3z4gYAQQQQAABBBBAwAWB7KKGQ4dotVaaGu9CczSBAAIIRFrA1ua/Iz1ABhd4ARJYgd9FBIgAAggggAACCCDgtsD2TMPJxuiHpd0at9umPQQQQCCaAnpKNMfFqMIiQAIrLHuKOBFAAAEEEEAAAQRcEWjONJye0Pr/XGmMRhBAAIH4CNRvv3SffeMzXEYaNAESWEHbI8SDAAIIIIAAAggg4JlA08KG07TWN3vWAQ0jgAACERZImMJ/RHh4DC3gAlyFMOA7iPAQQAABBBBAAAEE3BHILmw4ySh9izut0QoCCCAQPwFt9Nz4jZoRB0VAroTLggACCCCAAAIIIIBAtAVaFk06WJnkY9EeJaNDAAEEPBbQqlBvq7E6s3abxz3RPAK7CHAI4S4krEAAAQQQQAABBBCIkkDzFRPGKZNyTtjOggACCCBQiYBRiVZLn1lJE9RFoFwBEljlylEPAQQQQAABBBBAIPACRo4Z1Lnap5RMvwp8sASIAAIIhEHAmJPDECYxRk+ABFb09ikjQgABBBBAAAEEEOgRyC5s/IfcHQMIAggggIA7Akapd7rTEq0gUJoACazSvCiNAAIIIIAAAgggEBKBlkzDd5Xmg1ZIdhdhIoBAeAQaspc37BmecIk0KgIksKKyJxkHAggggAACCCCAwJsCTYumzJKDB7/85gruIIAAAgi4JmAVrPmuNUZDCBQpQAKrSCiKIYAAAggggAACCIRDwGSmDbeMfUs4oiVKBBBAIHwC9tDxFxrTcbAxRocveiIOqwAJrLDuOeJGAAEEEEAAAQQQ6Fcga+V/opQe2+9GViKAAAIIVCxgml9/l2nZ/pg09Kgksc6VW6riRmkAgUEESGANAsRmBBBAAAEEEEAAgfAItC6aOkMZdXZ4IiZSBBBAIHwCOlWndN1IJ/CD5Xad3JoliXWD3KY7K1kQ8EKABJYXqrSJAAIIIIAAAggg4LuAyUxP26Zwu+8d0yECCCAQM4HEPjOVSrxl0lWNEJwjt8clifWE3C6QWyJmLAzXY4Gkx+3TPAIIIIAAAggggAACvghkdTYjHXVNCfClQzpBAAEEYiqQmDZ3oJE758Q6UG5yKLf6riSxVsrvD+T/OPcuY9TBsrHfc2bJNiNbnBNqFYzcpE5efufl707Z1mlp9ZL8/peyzL+UrR5J2Xs8ps/6g1OOJUYC/T54YjR+hooAAggggAACCCAQEYGWhY3yeYcFAQQQQMBTASul6i9+YucZWP13aedU7k8nKWXn+99e2Vpbqju3glb6EWPs36VSqd/p997zemXNUjuoAiSwgrpniAsBBBBAAAEEEECgaIHswsYHJHt1ZNEVKIgAAgggUJZAcr/jVc37f15U3dyfT1Eq11JUWQ8KrTe2+Xm6Nnm9arO3qwXLs1pmeXnQD036JEACyydoukEAAQQQQAABBBDwRmB7ZtLohE5uktZ5b+sNMa0igAACbwrUnnezSkx655t/D3THbH1G5Zd9aqDN1Vi/VWn9W21Zv012pp7WZ921pRpB0Gf5ApwDq3w7aiKAAAIIIIAAAggEQCCpU3+S06eQvArAviAEBBCItoAePqGo5JWjYK+5NWgYo5QxF5pC4cJcoqA6b5nzuG2r6y1bL0stWP4os7OCtrt2jYd/9LuasAYBBBBAAAEEEEAgJALZyxv2NHnrJaUMX8yGZJ8RJgIIhFcgdcz5Kn3cxUUNIH/Xh5TJbiiqbNULGbVRafN7rRK/S56+7D6SWVXfI/0GQAKrXxZWIoAAAggggAACCIRBILtoyh/kKldnhiFWYkQAAQRCLWAl1ZCvPaZ0qm7wYbRvVrk75aVZLh0YtkUifk0b9Wdj6WtqTl/+r7DFH+V4SWBFee8yNgQQQAABBBBAIMICJrPXkKxOb5Yh1kZ4mAwNAQQQCISANXJvVfe5lUXFYj9/kyo8dm1RZQNbyDnhu1EvSjLrhuQYfYWet9yTSykGdvwBDMwKYEyEhAACCCCAAAIIIIDAoAKSvLpICpG8GlSKAggggEDlAjWn/6DoRuxX7yu6bGALmq4Lg+wjZ1hcmNtiZztvnn1/6//O3juw8cYgMBJYMdjJDBEBBBBAAAEEEIiowPkRHRfDQgABBAInYBVx5cGuoO28MpseDVz8lQWk03Kh26OSaf1S581zCrnFM2fK0ZEc0VYZasm1SWCVTEYFBBBAAAEEEEAAgWoLtGamHCkxNFY7DvpHAAEE4iCQPOSMoodpNj4i574qFF0+hAUtk0isyt0yp0OSWZ8xi+cODeEYQhkyCaxQ7jaCRgABBBBAAAEE4i0gh3ScE28BRo8AAgj4J1Bz8mVFd2a/9reiy4a8YEri/1EuYbZ13DznEnP7zFEhH0/gwyeBFfhdRIAIIIAAAggggAACfQXMzw5LyZl1SWD1ReE+Aggg4JGArh+rVLKmuNaNreyXlxdXNjqlEnIs4aJcR+J1SWRdbO44qUis6AD4NRISWH5J0w8CCCCAAAIIIICAKwKtr286SBoa5kpjNIIAAgggsFuBmndfLtuLO92TyW5QqmPbbtuL8MaUKF2Ra2vdmnMSWRlFvsXlnQ2oy6A0hwACCCCAAAIIIOCxgK3f53EPNI8AAggg0CNgTTmmaAuzMWonby966H0L1hlJZOUPnrOh45Y5C/pu4H5lAiSwKvOjNgIIIIAAAggggIDfAlpx9UG/zekPAQRiKZCcforSNcWfo9x+4ZZYOvU3aEliTdBGLZYTvT9ubj6mob8yrCtNgARWaV6URgABBBBAAAEEEKiiQNMVE8c4HwqqGAJdI4AAArERSB39ieLHmmtRpmlN8eXjU/KgnEq9mFv5hU2m0PmZ+Azb/ZGSwHLflBYRQAABBBBAAAEEPBKw8novj5qmWQQQQACBPgK6bpSy9np7nzW7v2uyr+6+QLy3arPx4TG5W4//Ucvi2QfHm6L80ZPAKt+OmggggAACCCCAAAK+CyQ/7HuXdIgAAgjEUCB19Cdl1MWdvN3hsZ+5MYZKpQ85ndCP5W6Ze7e5Zf6Y0mvHuwYJrHjvf0aPAAIIIIAAAgiES8Coj4UrYKJFAAEEQiigLZV8+2nFB25sZW9YWXz5mJc0xszPm/z6/E3zzoo5RUnDJ4FVEheFEUAAAQQQQAABBKolYBaohPQ9vlr90y8CCCAQF4FEw1FKDy/hdIOFjrjQuDZOOZ9jna3t3+dunvOHjbfNGOZawxFuiARWhHcuQ0MAAQQQQAABBCIlMH26k8BiQQABBBDwWCB5+IdK6qHw3OKSylN4h4Akss4cnk8+27l41pE71nKvPwESWP2psA4BBBBAAAEEEEAgcALNauvwwAVFQAgggEDEBHTdSJXc/8SSRmU/+5uSylP4rQJyprEJKmHd33nznGveuoW/+gqQwOqrwX0EEEAAAQQQQACBwApoq+bYwAZHYAgggEBEBBJTZytllTjhtdAZkdFXdRjOGfM/K0msf1U1igB3TgIrwDuH0BBAAAEEEEAAAQT6CtjH9/2L+wgggAAC7gukT/h/JTVqv/q3kspTeFCB6Z03zWnJ/u+MvQYtGbMCJLBitsMZLgIIIIAAAgggEFYBbfTRYY2duBFAAIEwCOgRE5UeukdJodpP/HdJ5SlchIBW9al0ckP+ptlnyTmynJlZLCJAAouHAQIIIIAAAggggEA4BLTZPxyBEiUCCCAQToH0jE+XHLjJvlZyHSoUJ2Br/fvOm2ZfahYvKPGYzuLaD1spElhh22PEiwACCCCAAAIIxFXAaN7Ax3XfM24EEPBeQFuq1KsPmuZ1ShXavY8txj1orb+eS77xa7NsbjLGDF1DJ4EV90cA40cAAQQQQAABBBBAAAEEEIi9gLXnQSUb2M/+b8l1qFCGgFEfyG02f497EosEVhmPHaoggAACCCCAAAIIIIAAAgggECWB2vf/rOThmE2PllyHCmUKaHVIbot5ecvi40aU2ULoq5HACv0uZAAIIIAAAggggAACCCCAAAIIVCKglR42obQGcs3KtL5eWh1KVyqwx7BE5xqzeNa4ShsKY30SWGHca8SMAAIIIIAAAggggAACCCCAgEsCNe/9Tskt2S/cqpSxS65HhcoEjNKjcwlrjbl19t6VtRS+2iSwwrfPiBgBBBBAAAEEEEAAAQQQQAABlwS0Sh54Sslt2RuWlVyHCq4JDM0V9Brzx2OnutZiCBoigRWCnUSICCCAAAIIIIAAAggggAACCHghkJpxgVKp2tKazrUos/3F0upQ2m2BZM4uPNtx09z93W44qO2RwArqniEuBBBAAAEEEEAAAQQQQAABBLwU0JZKvevjJfdgv7Za6piS61HBdQFLa/OY+ePcRtdbDmCDJLACuFMICQEEEEAAAQQQQAABBBBAAAGvBVJHfkzp+jEld8PVB0sm87JCKmebp5pjcGJ3ElhePoxoGwEEEEAAAQQQQAABBBBAAIEgCiTSKjXzM2VFZjY/UVY9KnkmUFvjnNj9thnDPOshAA2TwArATiAEBBBAAAEEEEAAgaIEuNxVUUwUQgABBAYXSB39ibJmXylTUKb5pcE7oITfAkM788lnzbK5Sb879qs/Elh+SdMPAggggAACCCCAQKUCT1faAPURQAABBJTSQ0ap9OyLyqIwbZvk9FeFsupSyVsBrdSE3Fbzd297qV7rJLCqZ0/PCCCAAAIIIIAAAiUIyBvzVSUUpygCCCCAwAACqXlfViqZHmDrIKs7tg1SgM1VFTDqkI6b59xW1Rg86pwElkewNIsAAggggAACCCDgroBJGBJY7pLSGgIIxFDAGrevSh12dvkj72wqvy41fRGQL3ze03HT3Mt86czHTkhg+YhNVwgggAACCCCAAALlC5hsakn5tamJAAIIIKC0pWo/dENlEHZnZfWp7YuA1ubr+ZtmneFLZz51QgLLJ2i6QQABBBBAAAEEEKhMYGhNzfbKWqA2AgggEG+B1OEfUXr4nhUhGDtfUX0q+ydga2ux+eOxU/3r0dueSGB560vrCCCAAAIIIIAAAm4JHPgEZw12y5J2EEAgdgK6drhKn5SpeNxaZnGxhEbAytn5+8z1c2tDE/FuAuWRtxscNiGAAAIIIIAAAggER0CfpZwE1hvBiYhIEEAAgfAI1F1wlzvBWkl32qEVnwT0+Nxw81efOvO0GxJYnvLSOAIIIIAAAggggICbAsao37nZHm0hgAACcRCoefdlcujgBHeGmhrqTju04qfAzI6bZl/pZ4de9CUnp2dBAAEEEEAAAQQQQCAYApKg0i2XTj5QG32I0uoQZawDJDL51GXGyO+E3IbJbaTcWBBAAAEEihBINB6taj/ya+WcwN2NxTStVfm7P+ZGU7Thr4BJFQqN+qx7X/K3W/d6Y+6fe5a0hAACCCCAAAIIIFCkwIuZxtrxlnW2MeZsrew5krfqel+aXSSfsXrbMM6drh+9a/iNAAIIIFCCgE7VqtoPXuda8srpWteNLSECigZIQOcSiYclntDuwDffHwQIlVAQQAABBBBAAAEEIiJgMkq+8m8c3mbZ0wvG+pK8+TwtIkNjGAgggECwBeRcVXXn366s8fu5Hmf+9vco09nkers06L2A/B++NXXGilD+LyaB5f3jgx4QQAABBBBAAIFYCZjMXkPakum3F/LqXEurD8kcqvpYATBYBBBAoNoCcrhgzfuuVsmD3+dJJIW/fU3Zrz/gSds06r2AUfaCmjNW3eR9T+72QALLXU9aQwABBBBAAAEEYimw8av7Dautbz/BUvr9krA6UxB4nxnLRwKDRgCBIAikZ/27Ss37kmeh2E//ShWelEMTWUIpoLXamkwXpupT7t0apgFwDqww7S1iRQABBBBAAAEEAiTgHB6YTUw5TtnmPKU65Gt+XcMZqwK0gwgFAQRiKZA86D2eJq8cVD3+CKVIYIX28SUXTBnV2ZH8iQzgA2EaBN+MhWlvESsCCCCAAAIIIBAAAZOZnm7VLd+UE69L4krtGYCQCAEBBBBAQAS6rjh4zm+9tzC2yt3+XqVyzd73RQ+eCWhl5qTOWLnSsw5cbpgElsugNIcAAggggAACCERVoOkbU/bTSXOdZakj5NvbVFTHybgQQACBMApYex6k6j75Jwndn4/5hfu/qexXQpP7COMu9T5mo7an7M499Vmr27zvrPIeOISwckNaQAABBBBAAAEEIi3Qnpk6raALfzHK7CMD1ZK8YkEAAQQQCJCANeFAVfeJWyUif5JXztCtqe8jgRWgx0BZoWg1oiNZc6XU/XxZ9X2u5N+j2+eB0R0CCCCAAAIIIIBAZQJNmcb95SqCq6WVkZW1RG0EEEAAAa8ErImHqLrzbpbcleVVFwO2m7/jTGXaNw24nQ3hEEgVOoeEYRaW/4/wcOw/okQAAQQQQAABBGIr0HZpw5TmhVOek+TVU4JA8iq2jwQGjgACQRdI7Husqvv4LVVJXjk2uvGkoBMRXxECnYnUo0UUq3oRZmBVfRcQAAIIIIAAAgggEAyB1sy0SbbO/1yi4RNJMHYJUSCAAAIDCGiVOuxslX73ZQNs92917rZ/U6rQ4V+H9OSJQMqyDtenLXvIk8ZdapQZWC5B0gwCCCCAAAIIIBBWgec+O62mOTPlG5K8WiNjIHkV1h1J3AggEA8BOVQwPf+rgUheOeCJqWfEwz3io8zb9pKgD5EZWEHfQ8SHAAIIIIAAAgh4KNC8sGGeVvo66aLRw25oGgEEEEDAFQGtaj90vSSN5rjSmluN5P44Tymu8OEWZ/Xa0eqi9OkrrqleALvvmRlYu/dhKwIIIIAAAgggEEkB+ZyhWxY2/k6SV0tlgI2RHCSDQgABBCIkoOvHqiGfvy9wySuHODnrvyIkHd+haKMukQsNB3aiEwms+D42GTkCCCCAAAIIxFSgJdN4SMuixo0y/PfHlIBhI4AAAqESSB70nq7klR4+IZBx67FvV3r0gYGMjaCKF5Dk1dj8zXMuLr6GvyUDm1nzl4HeEEAAAQQQQACBeAhkFzb+VN6gfioeo2WUCCCAQPgFat//3yqx33HBH4idV/m/nKVM+5bgx0qEAwpIkmh78vEVo3VG2QMWqtIGElhVgqdbBBBAAAEEEEDATwFz1T4jsh3236XPff3sl74QQAABBMoTsMZNU3Wf+JNSqbryGqhGrXyryt11tlId26rRO326JCCJoq+nzlhxhUvNudYMCSzXKGkIAQQQQAABBBAIpoBcYXC2ZZm75bxXqWBGSFQIIIAAAr0COlWrUsd/XaUO/3DvqnD97mxS+Xs+qUzb6+GKm2h3CGjTlNpu7aHPXd6+Y2X173EOrOrvAyJAAAEEEEAAAQQ8Eeg5UftFWpsVJK88IaZRBBBAwFWBxL7HqiFfezy8yStHIz1cJY+/XukRU121oTEfBYwenhthn+Vjj0V1xQysopgohAACCCCAAAIIhE+gZeGUX8t1zT8UvsiJGAEEEIiXgDXhQFVz8mXKmnRodAZubFV44FvKfmVVdMYUo5ForV55dGNL4+GfeigXlGGTwArKniAOBBBAAAEEEEDAJQGzWCWyTzU657uK0Cchl3BoBgEEEAiQgK4fo9Lvvlwl9zteKR3NA6TsF/+kCo98L0DqhFKsgNZ6Vur05fcWW97rciSwvBamfQQQQAABBBBAwEcB8+39hrW2d/xLrjQ42cdu6QoBBBBAoBSBZI2qOeMalZw2T6lE9E9PaLKvqMKKz8oVCjeXokTZ6gu8kDp9xb4yG0veVlR/IYFV/X1ABAgggAACCCCAgCsCrZdNmmgXkk9IYyNcaZBGEEAAAQRcFdA1Q1XtR36trAkHKWUlXG078I2ZgrLXyGysR/8r8KES4A6BlE6O1affE4jMIwmsHfuFewgggAACCCCAQGgFWi9720RT6FwjX5GmQzsIAkcAAQQiKaCVNW6qqj3nt0rXj4vkCEsblFGF+y5W9msPSLVATOwpLfz4lb4xfcaKc4IwbBJYQdgLxIAAAggggAACCFQg0HZpwxTb1k+TvKoAkaoIIICAywJ66DiVfOcHVXrORZE9v1VFZDIjq/DgQklkPahUob2ipqjsrYAksAKROwpEEN5S0zoCCCCAAAIIIBBdASd5VbCtZ+Vb7GR0R8nIEEAAgTAIaKVH7a0SU2er9NwvKj1kVBiCDkSM9to7lP3Czco0rZV/Z4VAxEQQOwRsW51cu2DFnTvWVOceCazquNMrAggggAACCCBQscD2zKTRCZ3cIA3VVtwYDSCAAAIIlC6QrFWJSYdK0mqWSr7jDKWHji+9DWrsEMhnlb1+qczKul+pbc8o07ZpxzbuVVNgm8zCqnpGlgRWNR8C9I0AAggggAACCJQpYL43qS7bnHxVqnPC9jINqYYAAgiUKuAcFugkrKyGd6nE3ocpa085Gbu2Sm2G8sUKtG/pmpVlWl5SJiv/8to2KpVrUSaX7frdfb9FDkHsKLZFypUnYFLZmmH6nCUCX72FqebVs6dnBBBAAAEEEECgLAE515WW5NXTUpnkVVmCVEIAAQT6CFhJpRM9179IyYRWJyGVqlHW+P2VtccBKjFhutIjJyo9Qm5DRvepyF3PBWpHK+3cxr9zkK7kP6OTxMq3K2N3yu82+TsnN/kt97vWdTZL0iurTMc2pTq3K+P83S4X13MSYvK3ctYbe5B+YrtZdw5pz8jov1JNARJY1dSnbwQQQAABBBBAoAyBloVTVmllJpdRlSoIIBA1AUm26NSQ7lElUl2JF+cPnaxRypK/nSVd152Uke06IeudRRI0vdt1Wur3zCLS6aHd2y1p11nvLJLgUXKoXNfylu3SrrNIP139Ofedfp04ZNHpeudn131lJbp/Oz9773f1udN2+VPrnrLa+aNndpNzX/Xcl9i62n3LdlnXVcbZ1LO9624//Tox9bbbG4uUZQmzgOzThDxG5eY8UnZe+lu3c5muv53zbxUkAeb8tnPyS5JgJt91X9nyW04235UAk2SXcWaDOUkw+W2cRJiTFGt7o7t+v42He6Wl9QdlBFVNYBW9H8NNTfQIIIAAAggggEA0BJoXNf5MG3V+NEbDKGItIIkDnXISHLIkZfaLM/NFFp2SpEhP4kXXyHYnWSGzY3RvAsXZ3psgqZFkS08iQtcM76rvlNfOemdxyjn1nMRG73ZJjuiansTLzu0mexIvvWWdNnqTIn0/Fnet6/ko9eZ2KbpLGacBZ9m17I52B9jeW6drc+/Htt7fTpN97jtlWBBAICACMhvMmcllnN955ZygvvDYtd3rAhJhWWHIN2edieSeQ997z+tl1XehEq96LiDSBAIIIIAAAggg4IdAdmHjp+Tt8E/96Is+QiwgiaHUUeep1NwvdCeDQjwUQkcAAQSiIuDM2Mr/5f1hT2T9WE7mfmG19gmHEFZLnn4RQAABBBBAAIESBJozUw8yqkDyqgSzWBaV2UlDvrBazhnD6dFiuf8ZNAIIBFZA142Tq1TuXTDN6/oc1xrYcAcK7ISBNvix3jk4mAUBBBBAAAEEEEAgwAIbv73fMK0LSwMcIqEFRKDuI78heRWQfUEYCCCAwC4CxoT9KLip5pZjxu8yLp9WkMDyCZpuEEAAAQQQQACBcgRMRll1HR2Lpe64cupTJz4CiWlzlDXp0PgMmJEigAACIRIwW/6lTHZD2HMwOmenPlAt9rDjVcuNfhFAAAEEEEAAAV8EslbjOcqoE33pjE5CK6Brh6uaM38U2vgJHAEEEIi2gJwE4IGMnP9Krm4Y9kWrU6o1BBJY1ZKnXwQQQAABBBBAYBABk2msleTVdYMUYzMCytrr7Uqne67ohwcCCCCAQKAECo9eo0zbpkDFVEEws80dJ9VUUL/sqiSwyqajIgIIIIAAAggg4K1AVqt10kPYz5fhLRKtdwnYGx5VqpBDAwEEEEAgYAJO8sp+4daARVVRODX5ttZjKmqhzMpchbBMOKohgAACCCCAAAJeCjRnGhZJ+1U7UaqXY6Nt9wVMR7Nq/e47VfKY81V69r9LB+Q93VemRQQQQKBHwM7LjKrXlZJZVaZto/x+Q35vltsbSrXLuuxrSuWa5ZBBu/sWMTjbqFkypGV+D4v/bH6L0x8CCCCAAAIIIDCIwObMtOE1Oi/viFV6kKJsRqBfgeS+85XVcET3Ni1v+dNDu+7rREqpZF33/fQQpazuAzJ0zTBZJ+WcsrXdZVWiRulk34dgz/bu2t1le+87v526vYmzrvtdG2VVn4M+etfLOqd019Jvvb5tOaV6SvfbVp+y3S3yEwEE4ipgTM95piRxZDvnm5K/u347iST5WxJKpmO7JJkk2SQ31fq6Mp1N3Qmnzm09CagtXeXiSljMuOVV977UGStmFFPWzTI9/wncbJK2EEAAAQQQQAABBCoRyC6ccq9Rxvc3hpXETF0EAiGQlKSb1XOQiZOgcxJlTtIu0ZOIS9VK0i7RFapOOdt7kl+95w9zyqe7E3xK1unexFlNz/nFtNRN9SQAE9KPJPm6Fqdf529pWyelD2fpShb29tsdi7Na9/Tv3Fe9sTrt9ib3+tveVbYnbieJ15vI6y3r1HXacJau+z1Jw53a7frw17d+1/2ej4S9sXS3wk8Eqi+Qa5Hkksxikt+q0K5UvlWSTluVchJOzqynXFYSURu7E1IdW7t/253VjzsOEWhlUvnOen3W6jY/h8shhH5q0xcCCCCAAAIIIDCIQPPCxveTvBoEic0IDCSQ75D5Fh3dWzvlw60sMv+CpVgBSfS9mWBzkn29iTIn2ecskhzTqZ6knTNDrzeB5szq686O9UnwSeKwNynWlRTsSZT1JgCduj0JQC0JwN7ZgL0Jwq6+nRicbp12nISgszj3e+PqXeekGnvvO+32s723vnZmHfYm+3oTm9KsTva0L2PV9WOln56EYFen/PBawLRsUKblJWW2PKXM5seV2fqUJKwkacUSTAGjdC5Z+zYJTk7A6N9CAss/a3pCAAEEEEAAAQR2K2CumVaT3Zq/ereF2IgAAgh4JVDo7DrKqqv5XN+JFXKoVc8Sj4SgJMRGT1aJ8fsra9I7lTX5CJWY+I4dibFeDH6XLWBa1ivz2gPKvPGQMpseVUZmV7GETMCYwyViElgh222EiwACCCCAAAIIuCKQ3Vr4nDQ00ZXGaAQBBBBAoEwBmQe7ZZ3Ky009fVdXG7pmqLImHqqSbz9NJQ96DzO0SpYV09cfUva6O7sTVnKic5ZwC8gePUVG8As/R9Ezj9PPLukLAQQQQAABBBBAYGeB5ismjNO52pdkfc8JdHYuwd8IIIAAAoEQkMMgE5MOVTXvvVrp4RMCEVJQgzDbnlWFf/1Mme3PK+WcPJ0lSgLN6TNWDPdzQCSw/NSmLwQQQAABBBBAYAABOffVD+SN2UUDbGY1AggggEDgBLSyRu2tas7+pbLGTAlcdFULSK725ySt7LV3dJ+AvWqB0LHXAqm69hH65AeavO6nt30SWL0S/EYAAQQQQAABBKok0HTFxDFWLsXxFFXyp1sEEECgUgFr3L6q7tybZQ7tsEqbCm/9XLPKr/qCMttkthVLLAQKKtFYd8bSdX4Ntuf6qn51Rz8IIIAAAggggAACOwvozvSindfxNwIIIIBAeATsjc+p7HfernIrr1HKLoQn8IojlTMhNa1V+f87TeX+fCrJq4o9w9VA0spN8zNiZmD5qU1fCCCAAAIIIIDATgLms3LlwbFcK3wnFv5EAAEEQiug68eouvP+qLQcXhjdRRJXm59QhX9crkz21egOk5HtXsCYH6XPXPnvuy/k3lZmYLlnSUsIIIAAAggggEDJAtkx+e+UXIkKCCCAAAKBFTDZzar12jkq//htgY2xksDM9hdUfsXn5PbvJK8qgYxAXaP1fD+HkfSzM/pCAAEEEEAAAQQQ2ElAq8/ttIY/EUAAAQTCLmCM6vjjF5S94RGVPjET9tF0x59vU4VHv6/sdUuiMR5GUbGAHNK3vzzUtdbKVNxYEQ0wA6sIJIoggAACCCCAAAJeCDRnppzvRbu0iQACCCAQBAGjcg/eoDoWX6CUfMoP82KvvV3l5DxXJK/CvBc9in3h3IRHLe/SLAmsXUhYgQACCCCAAAII+COgtbnSn57oBQEEEECgWgL5p+9S7b85R7oPYRIrn1X5u89VhYf/U6lCe7UI6TfIAgdu9C2v5FtHQfYmNgQQQAABBBBAwG+B5kXTpkufo/3ul/4QQAABBPwXKKy5V7X/9jz/O66gR3vNrXJlwffIVQZfrKAVqkZeYNw43/JKvnUU+Z3GABFAAAEEEEAAgRIEtMpfW0JxiiKAAAIIhFyg8Pxy1fnXy4M/ikKnyq/8vCr88wcyaawQ/HiJsKoCua35/fwKgASWX9L0gwACCCCAAAII9Ag8kZmeliNJjgQEAQQQQCBeArnV/6PMpjWBHbRpWqtyt58iMf4zsDESWMAECol3+hURCSy/pOkHAQQQQAABBBDoEZhitTonbx8CCAIIIIBA/ARaf3pCIAdtr71Dznf1MTnXVWcg4yOogApY6lC/IiOB5Zc0/SCAAAIIIIAAAj0CxpizwUAAAQQQiKmAXVC5e38cqME7J2kvPPydQMVEMKEROMCvSElg+SVNPwgggAACCCCAgAhsz0wabZQ5AgwEEEAAgfgKdK78oZxfyq4+gJ1T+eWfUfba26sfCxGEUkCurbmvX4GTwPJLmn4QQAABBBBAAAERsKzUmUrpJBgIIIAAAjEWyLerzmVXVxegc7vK//Wjymx5srpx0HuoBbRSe/s1ABJYfknTDwIIIIAAAgggIALamA8AgQACCCCAQP6R31cPoX2Lyi35iDLZV6oXAz1HRcC3vJJvHUVlzzAOBBBAAAEEEECgXIH1X5hUJ3XnllufeggggAAC0REw2c0q/8wS/wfUsU3l7pTJwJ1N/vdNjwhUIEACqwI8qiKAAAIIIIAAAqUIjByRPErKy2x7FgQQQAABBJTKP3iDvwxO8uqO04Jx/i1/R05vERAggRWBncgQEEAAAQQQQCAcAgmtTw5HpESJAAIIIOCHQOGlvyuVa/OjK+mnRZJXp0vySk67zYJACAVIYIVwpxEyAggggAACCIRPQD4uaFubD4cvciJGAAEEEPBMoCBXAXxhhWfNv9lwvlUOG1zAzKs3QbgTRgESWGHca8SMAAIIIIAAAqETaLl42lhl1J6hC5yAEUAAAQQ8FSg8t9zT9pUpqPzST8rxij7N9PJ2NLQeYwESWDHe+QwdAQQQQAABBPwTsOpyk/zrjZ4QQAABBMIiYK97wNNQ8/d+RZmWDZ72QeMI+CFAAssPZfpAAAEEEEAAgdgLGKNPjD0CAAgggAACuwjYW9Yp09G8y3o3VhQe+5EyGx92oynaQKDqAiSwqr4LCAABBBBAAAEEYiLA+a9isqMZJgIIIFCagFFm6/rSqhRR2n55mbKfv6mIkhRBIBwCJLDCsZ+IEgEEEEAAAQRCLGAyKinhHxjiIRA6AggggICHAqbpVVdbN62vqcKDC6VNrjjoKiyNVVWABFZV+ekcAQQQQAABBOIhMG1IPMbJKBFAAAEEyhEwza+XU63/OnZOFZZ9uv9trEXAZQGtlG8nWCOB5fLOozkEEEAAAQQQQGBngc259mE7r+NvBBBAAAEEegVM02u9dyv+XXjsWjmn1taK26EBBIoRMNo8XUw5N8qQwHJDkTYQQAABBBBAAIHdCNSmU8fuZjObEEAAAQRiLmA6mlwRMFueUPaa21xpi0YQKErAVk8VVc6FQiSwXECkCQQQQAABBBBAYLcCxhy32+1sRAABBBCItYDJt7swfqPyKz7nQjs0gUAJAlr9q4TSFRUlgVURH5URQAABBBBAAIEiBLSaVUQpiiCAAAIIxFXAcq71UdmSv/crcs72QmWNUBuBUgUs64FSq5RbngRWuXLUQwABBBBAAAEEiheYUnxRSiKAAAIIxE1Apyq71ofZ+rQybzwUNzbGGwCBVK7jGb/CIIHllzT9IIAAAggggAACCCCAAAIIINCPgB42vp+1xa8q3H+JFDbFV6AkAq4JNPk27Y8Elms7jYYQQAABBBBAAAEEEEAAAQQQKF1AD9uj9Eo9NQrP3KhM28ay61MRgYoExo2zK6pfQmUSWCVgURQBBBBAMabisQAAQABJREFUAAEEEEAAAQQQQAABtwXKTmDlW5X9zG/dDof2ECheYO5yZmAVr0VJBBBAAAEEEEAAAQQQQAABBMIrYI2YWFbwhSf+R6l8W1l1qYRAxQJardfav2NXmYFV8R6jAQQQQAABBBBAYGABk5k0euCtbEEAAQQQiLuATg9VeviepTPIYYP2mttKr0cNBNwSMGalW00V0w4JrGKUKIMAAggggAACCJQp0GpZXIGwTDuqIYAAAnEQsCYdqpQu/aN54ekb5bztvh29FYddwRhLFdDqr6VWqaR86c+SSnqjLgIIIIAAAgggEDMB2+jhMRsyw0UAAQQQKEEgMXVWCaV7irZvUfba20uvRw0EXBRIJRL3u9jcoE2RwBqUiAIIIIAAAggggED5ApaxhpVfm5oIIIAAAlEXSOx7bMlDtJ/7ncy+8u3ibyXHR4V4CGSz1jY/R0oCy09t+kIAAQQQQACB2AkYrUlgxW6vM2AEEECgOAFrdKOyxk4trnBvqUKHKjy3uPcvfiNQNYH6kWkSWFXTp2MEEEAAAQQQQMBlAaPsoS43SXMIIIAAAhERSOw7r+SR2K+sKrkOFRBwXUCrJ/XJd3a43u5uGmQG1m5w2IQAAggggAACCFQsoFVNxW3QAAIIIIBAJAWShywoeVz2k9eVXIcKCLgtYIzy/SRsJLDc3ou0hwACCCCAAAII9BHQyqT7/MldBBBAAAEEugR03Uhl7XFAyRom+0rJdaiAgNsClrGXut3mYO2RwBpMiO0IIIAAAggggEAFAlopElgV+FEVAQQQiKqAlvNfsSAQVoGC0mv8jp0Elt/i9IcAAggggAACsRKwjdUcqwEzWAQQQACBogSS7zijqHJ9C9lv/KPvn9xHoFoCHTVjrBf97pwElt/i9IcAAggggAACsRKwjFoXqwEzWAQQQACBwQW0pVLlnP/q2d8N3jYlEPBYwCizXM9bnve4m12aJ4G1CwkrEEAAAQQQQAAB9wRMyrzkXmu0hAACCCAQBQFdIxeoTZZ+jQ+z6dEoDJ8xhFzAMnpJNYZAAqsa6vSJAAIIIIAAArERqB/b+WxsBstAEUAAAQSKErAmvbOocrsUMoVdVrECAd8FLLXa9z6lQxJY1VCnTwQQQAABBBCIjYD+1CutsRksA0UAAQQQKEogPe+LRZXrW8i0vKyUsfuu4j4C1RBoT+bHP1iNjklgVUOdPhFAAAEEEEAAAQQQQAABBGIrYO15cMljt1+8veQ6VEDAbQGt9d/0WX+oylRAElhu703aQwABBBBAAAEEEEAAAQQQQGAggVTdQFt2u968dt9ut7MRAZ8E7vapn126IYG1CwkrEEAAAQQQQAABdwWMUk+52yKtIYAAAgiEVSA944LSQy90KNP2Run1qIGA2wIFe6XbTRbbHgmsYqUohwACCCCAAAIIlCmglbqhzKpUQwABBBCImEDyqHNLHpF54x9K5dtLrkcFBNwWyKXUerfbLLY9EljFSlEOAQQQQAABBBAoUyBh1O/LrEo1BBBAAIGICeh0fckj0nscoVQiXXI9KiDgssDqIe9bWbUEVtLlwdAcAggggAACCCCAwE4C8p35ttRO6/gTAQQQQCB+AjqR7lDaumyQkY/cZbuVVqnjf5nO/fXc81Who2aX7axAwGMBY9Ti9L/mfVCpFR73NHDzMqOdBQEEEEAAAQQQQMBrgZaFU+Skp2a+1/3QPgIIIIBAYAVMwahjRmTW3h/YCAkMgQALcAhhgHcOoSGAAAIIIIBAdARe3ZR4t9Jqqdyqcunp6EgyEgQQQCB0AkZmjrxoLHMcyavQ7TsCDpAAM7ACtDMIBQEEEEAAAQSiL2AyjSNbkvrtyYKdiP5oGSECCCAQb4FOY2XzKvH0mMzzTfGWYPQIIIAAAggggAACCCCAAAIIIIAAAggggAACCCCAAAIIIIAAAggggAACCCCAAAIIIIAAAggggAACCCCAAAIIIIAAAggggAACCCCAAAIIIIAAAggggAACCCCAAAIIIIAAAggggAACCCCAAAIIIIAAAggggAACCCCAAAIIIIAAAggggAACCCCAAAIIIIAAAggggAACCCCAAAIIIIAAAggggAACCCCAAAIIIIAAAggggAACCCCAAAIIIIAAAggggAACCCCAAAIIIIAAAggggAACCCCAAAIIIIAAAggggAACCCCAAAIIIIAAAggggAACCCCAAAIIIIAAAggggAACCCCAAAIIIIAAAggggAACCCCAAAIIIIAAAggggAACCCCAAAIIIIAAAggggAACCCCAAAIIIIAAAggggAACCCCAAAIIIIAAAggggAACCCCAAAIIIIAAAggggAACCCCAAAIIIIAAAggggAACCCCAAAIIIIAAAggggAACCCCAAAIIIIAAAggggAACCCCAAAIIIIAAAggggAACCCCAAAIIIIAAAggggAACCCCAAAIIIIAAAggggAACCCCAAAIIIIAAAggggAACCCCAAAIIIIAAAggggAACCCCAAAIIIIAAAggggAACCCCAAAIIIIAAAggggAACCCCAAAIIIIAAAggggAACCCCAAAIIIIAAAggggAACCCCAAAIIIIAAAggggAACCCCAAAIIIIAAAggggAACCCCAAAIIIIAAAggggAACCCCAAAIIIIAAAggggAACCCCAAAIIIIAAAggggAACCCCAAAIIIIAAAggggAACCCCAAAIIIIAAAggggAACCCCAAAIIIIAAAggggAACCCCAAAIIIIAAAggggAACCCCAAAIIIIAAAggggAACCCCAAAIIIIAAAggggAACCCCAAAIIIIAAAggggAACCCCAAAIIIIAAAggggAACCCCAAAIIIIAAAggggAACCCCAAAIIIIAAAggggAACCCCAAAIIIIAAAggggAACCCCAAAIIIIAAAggggAACCCCAAAIIIIAAAggggAACCCCAAAIIIIAAAggggAACCCCAAAIIIIAAAggggAACCCCAAAIIIIAAAggggAACCCCAAAIIIIAAAggggAACCCCAAAIIIIAAAggggAACCCCAAAIIIIAAAggggAACCCCAAAIIIIAAAggggAACCCCAAAIIIIAAAgggEHMBHfPxM3wEEChR4LDDDksNGTJy30SiMNmyrD1t295DKatWmpGbnZffbVprY9uqVn5ZxugO+d1qjLUlkVAbpPxLUub55cuXO2VZEEAAAQQQQAABBBBAAAEEEBhUIJQJrAULFiS2bNkyVj4kj5YPw6NyuVx770gtK10v9/PG5Fpqa2u3LVmyZH3vNn4jgEBpAjNmzBiWTNZ8QGv1HqVMo9Te0xg1Sv62Smtpl9IFWbNF2nlVEl3PW5a6rb29/Q+rV69u26UkKxBAAAEEEEAAgQgIHHfccSM6Ojqm+jGUVatWPexHP/SBAAII+CkQ6ATW7NmzD5YZHmfLB+b3ygfdkUrpIYLjzPRIy63o2KV+p9R3Phi3yu0NqfoXmRFy47Jly56Qv1kQQKCPwLx58+YbYzLyPJkuq+V5V/xzrU8zJd+V56ktz9Ot0t2D8vy8WJ6fj5bcCBUQQAABBBBAAIGACsyde+x/yxeCn/AjvOXLlxX9WcmPeOgDAQQQcEMgUC9skrDaO5FI/EQ+yJ4sg/Mltu4PzfqWZNL60t133+0c2hS7Ze7cec0y6KEeD7xD/pE6yUeWAArIN4KTCwX7r5K42lfC8+W5VwSDkTIrksnE++S5ub2I8pEqIonEo+T16X4/BhWkN7nyerRKxjzT+3Gb4+Uw1ru976e8HubOnXuhPBWvLa+2Z7Wc5+RbFudwYVkhs57N4xLvvXIY8V/GjRu39A9/+EPnWwryx6ACcnj2kGHDhmcHLUgBEdB/XL586elBopgzZ+4b8nwY53VMtq3/beXKpUu87of23ReQ1/Wh8n+9SR4nPr3P0lfL8+TL7o8kOi3Ke45XZTQTIjCivv+ft0iS9A8ypv+S9zlPR2BsZQ1B3kefIc+3m8qqHMNK8qp0nEweuMevoR977LFH2rb5vfTXsGuf+v/y+c5z7r33XpnYsOuS3HWVf2vkhdxJaEyT23XyZuQIp2d5oPm6yM6SQ6HMmfl84Ux5EXP6Xyrvxy9sbm5+4aGHHsr5Gkz1OvPpH2n1BkjPuwo4b6Tk3FUXyOP/Snn8V/W1YNfoutY4j8u5Ets2J8kqz9Vz5bDg2++8886OAcpHarUkBGT8PDUjtVNLGowlO9/nf4iDx7fLA7L7cdo1K/owiVdu+qKNGzcp5/9pz7JJ1v2iUMj9Sr6gekXeTDvJ6MANrDdYfodGYJfHYrUj9y0nUe2B0n/ZAvIYOVsq+/jYNedLfySwdr/HfNwfuw+kwq19xzFGHmby/l5d0PO/uCCPvV/J++jLx4wZs54vmCqUpnolAnr+/PnvkkkTyyR5VTNwQ+aUZDK1Zc6ceU9KXmaOvHeU95I7lkrPY7OjpRLuObM9JKDL5cnVJDfnW9uu5FUJTXhWVJ7cx0o8Tw0dOrxdMrdflQ/5UcjKe+ZFw+ETmDVr1jh5bH+v+/lnvisjCGLyamfYYc63KK2t7U2Ssb/g6KOPrtu5AH8jgEAgBcZKvupriUTyCXnN2SpvprfI68/V8jx+p/x/db7EYkEAAQQiLyCvd0l5H3OZzwMdJq+3gZqp6PP46a5bICFfNp0rCYPn5QumDjmM9fszZ85/GzgI+Cyg5fXo25K8uk/67UpeyWvis3L7obxPPE1yMHNlYsUC+X29bF/nxCb3D5SfG6XeDOfv3sXXD67y4n2IdPxNmVHhBBnoReKTq6epb2ttXSlx/0rOxXXZ0qVLXwh00ASHwG4ETjrppBo5UfrX5XH9DbkF/BnY/0DkeZmWf8A/Sadrr54z59gLVqxYemP/JVmLAAIBFRgprz9flDfTX5Q3JQVJaP1O3rj8j8R6r3zDxpVJA7rTCAsBBCoWOFxa8PwQ052jlMncTtLslp3X83ecBcznk0nzeUlk/V0eH19fseIe53QKzIyO80PCh7HL+z3nNFGf6unqeWPsc1asWLG6n667DvuU/MuZ8j7x57J9lNRbNWfO/H+Tx+pfnfK+zMCSc1vtK0+SP0sQj8jttH4CDewqeZMtRvpjhYJ5ViBvPOGEE8YHNlgCQ2AAAXnsfrStrX2zvABcIkVCmbzqOzRJZA2RKaW/khfDpyQrf1TfbdxHAIHQCCQk0g/JS9Iyub0m7xOu5H9saPYdgSKAQGkC15RW3K3SZv/Zs487wK3WaCdKAuYIre0l8r/3UZkVfUKURsZYgiUgkw4+IhH1JK/MX8eNGzt9gOTVm4HLl5qSyDL7yIr1ctOWZW6Vww/3cAp4OgPLmfEhH5p/Jh+aJWgnERTexZmRJXYf7uzMLZAn+rVyUsSvyGjIVod3l8YicklcySGw2slkv2XqZYQGv7+8vvxNkli/kGTzhczgiNCeZShxE5Bzdpj/6OjIOYfuL0kmkxfKxRvWxA2B8SKAQPQEZs6cOUrei1XrdCnywc9eJKoLoifLiNwRMAfbtrpLLkSxyrbrzli16s6N7rRLKwh0CVgy6eBnPRbPy4V+Ttq4cWNqN19YZpcsWZJ1ysvnOjkP8lznMMIm+Zw3JJ83v5XV8z1LKkln75fk1WvSyUe7kz9OGJFY5JhN8yWZ+bFBxuhMB2ZBIJACs2fPO0+e8M4HwKgmr3rd5dh+db6Mde3s2cc7V1FkQQCBkAr0fFl0opxq4AU5V+YD8q3wxJAOhbARQACBLoFUKnVVdSnMqUcdddTw6sZA70EXkBO9z0ok2jc45ykKeqzEFx4BmfhzhURbJ48vu6Oj/Si5iEBB/j5DJgW93t8tl8s1SZ2HJc8y0hmlJLFa5L3hPOe+LHPl8bmf6wksZ9aVdHqffJj8X+mkq+Ou7qL3Y08Z44OC6Fz+kQWBwAgsWLAgIc/BOyxL/UKCitPJzidaVv5JeU6eE5idQSAIIFC2gLxhOVIO339JntN3HXbYYamyG6IiAgggUEWB7i/ZqhiAnDC5tnbIhVWNgM7DIpCSx6vMhJ63VhIIXGglLHst0HGa9zvhyQyqJ1evXr1lsFDl8Sf5KXOolPtTb9lly5atcu47X3LKeds+7WoCy7m6oMy6apdOj3b66O00wr+1IJ8lT/I35JhMOfyBBYHqCsh0zPo33tgkLw7mpOpGUrXenav83CAJPCeBHofXoKpB0zECfgh0v1lRJwwbNrxT3kzL+bJ4XvvhTh8IIOCOQM/rljuNVdCKvJbKhTN4/ayAMG5VG+Th0jJ37nHvitvAGa97AvL6l5SZV5OdFhMJy3kPt8vS3NxUv3z5Mu3c5POr82Xliu5CepbUlytZdy22fL673rknhyPOci2BJR18Sqb8r+vuI3Y/x8klITeKwYmxGzkDDozAzJnHTZapmM40S6aJK/MBSSw/58wIDcwOIhAEEKhQQP9aktNP9HlDU2F7VEcAAQS8FZDZAtd520PRrY+VEynzOaVoLgqKgFxopbBa/udeJPf5UpiHRMkCkrx6R/cF8ZS65557HhusATlcMC/Xz1vYXzlJXHXNyJJE1tSKE1jyoE7KTU4SrX/aX2cxWidPbH2nWHxNxsyTPEY7PghDlRmAs1Ip+8UgxBKgGKa2t3c8KTNDRwQoJkJBAIGKBMwB8i92o7zmHV9RM1RGAAEEPBaYNWv+gfKlYtrjbopuXj4AfksK8xmlaDEKdgvoH8iXR9+V+xXnDRCNl4Akr+QCFsUvct7TBrnoxAd7atwvCa1NvbVt236j5/7Qih6IzuFK0tBKeS08o7dxfuur5HwdcU/m8TDwUUC+UTtVZgAu7c1w+9h14LsSk31yucLD3VcACny4BIgAAkUKyGuec+nv70txPowVaUYxBBDwVyCZtG/0t8dBeztKvtSbMmgpCiCwi4D5kny+/fIuq1mBwG4EZAZW8242d20aPnz4oTIB6HDnJp/bPi4zrD4pG7ZZlv5A37qJRGJCz99tZSewnFkNcrjS/fLe0TnfFUsfAYE/Xy5F+uc+q7iLgCcC8s/kPfKN2s3SeNKTDiLQqHz7uU8ikbpXDifk0MoI7E+GgMAOAfN5OVR4ydFHHx2ni1XsGD73EEAgsALyujRaPg8cHLQA5Us950gRFgRKFpDH87fnzJk/q+SKVIitgCSknpDBGwfAOVd6fxDyuLpX8kl/d25y/xIpky0U9PylS5eu61vettV7nb+lzEtlJbBmzJgxTM53JckrdVDfhrm/Q0Ayjqc4V07asYZ7CLgrIP9EjpYn8WJplatzDUIrSawDW1vb7uZKZoNAsRmB8AkcV1NT+6DzviR8oRMxAghEVaCmpubbMrbAvT+T90OfPPXUU4dE1Z1xeSugtb1MrnYemMNivR0trVcqIIcAtshn1VeddiR39PP+2ksmEyPlRO7ymDJHONulvE6l1Os7lbXktavr0ELLUg+UnMCaPn16OpVKPyKN7r9Tw/y5k4DsgBNkOpycH4wFAXcF5HHVaFnmbmmVk5QXSStJ5SOGDRvmzFZjQQCBaAkcJO9LnpTXxaHRGhajQQCBkArIoc36zIDGrpubs2cFNDbCCr5AYtOmTY8HP0wiDIqAJJycz6vOcpykp3Y57cPWrVtzDz30UE6SXQ/J6+YvJVE1RM535VxN/s1FJgU5M/+6vhCQWV3XlZrA0uPGjX9YGpj6ZovcGURAnzFnzryrBynEZgSKFui+sp5+TJ7AfINWtFpvQX2qnDPs071/8RsBBCIjMEne+KxllmVk9icDQSC0AvK+3zmHy8igDkDeP/4iqLERV/AFZILG2+QLo48HP1IiDIJAU1PTJySOvNwSc+fOf2A3MZmOjrbPyPYOeT83S07o/pEdZfVS574kt56URNe9JSWwJPv1G6k7fUdj3CtGQLC/OHv2vHOKKUsZBAYTaGtrl2OFFYfLDAY1wHY5Z9iPnatcDLCZ1QggEF6BMcOHj3hewt/lG77wDonIEUAgbALyvv9zQY5Z4rN4HxTkPRSG2PTVksRKhiFSYqyugDO7St6WXdsdhTlC8kk/lqNinpZ1MsHHuSnZ3r2sXr26zbYLciihvlrOefUOZ2a9fCHwuiTd5RBCbUuprtmjRSewZNbCRyTj2nXsYW8n/C5eQKbP3TB79uyDi69BSQR2FZCrbjlZ7MN33cKaUgRs26x1DocupQ5lEUAg+ALyJmeynNidi6gEf1cRIQKRFHDOTyoDC/yX/fI+aFUkdwCD8ktghHR0pV+d0U+4BZYvX/oFGcG/nFFIPunTcrsqnU5+R9Z/uTvBtWN8K1eufFzWf0Up+9eSyHpJEu7ju7eay5ctW+acFF4VlcCSxMu+Mmvhuh1Nc68cActKrDzhhBPqy6lLHQTk27KJ8rT/byTcERg7dlzvMdnuNEgrCCAQFIF3c6hwUHYFcSAQLwGZJPClkIx40lFHHcXVmUOys4IZpr6Az7XB3DNBjGr58mXvkM+xvYnz4zo7c6/LxIwb5bDCE2VW1n4y26pRbofI7UPyRaRzVULnnOujuseir5Lk1Td7xzVoAsuZpSCJl2VSgWmCvWrl/x7Z2dnpnJSMwxvKN4xtzULBPBjbwXswcJmKOlNeJE/xoGmaRACBKgvIl27/xaznKu8EukcgZgIzZhy/lwz59JAMW9fVDen3qmAhiZ8wqy8wVD7XXlD9MIggJAK2fO6aK2mQSyTensMGzYdlptWdMiPLOaTwxe6klZaZV+qwnjG9JjOwTpQZWRf3/N31a9AE1vjx438qJWXmB4s7AvrU2bOPPd6dtmglLgKSob5MnsDOG6MgLisktm9JVv1U+X24XA61oVDIS6zmAGPsY4zRzvnffiS3tQEL3rlK0C856XPA9grhIOCOQEq+fLtNLvedcKc5WkEAAQR2L5BO5z8qJcL0JfW7Qxbv7ncAW30XkPf4zvnewvSY992IDncIZDIZW5JRlyUS1t6StHJmVL22Y+uOe7LtYflM+dG6utpGmXl1144t3fd2O6tKpnPNkRNofVQaYHFRwLLMHdLcbu1d7I6mQi4wc+ZMmT5pgjYl/TZJTn1bZjHJccrLWwYgfrVn/Wr5faPcPiuHQe4ll0adqbX1PTlXTRAScnLS5+H/KbFd1BMrvxBAIDoCUzZu3Og8v51zL7AggAACngnIxILang9knvXhQcNDJe6L5H3cDzxomyZjICA5gsly3rfDV6y4Rw75iu2yVj6nnRb20cshfS/4NYZ77rnndenrUud2zDEnjE+nO0fbdjKlVGd7Op1+4+67796+u1gGTKJIhsxavnzFjfLAHHSW1u468H6blmMp7UflyoxyYrBCXj5QT5ak2+ES9yzpO6hXapPLSM67W44FPc57H3oIu0AymbxBxlAbgHEYeYFeJPF8f7AXlgFiNUuXLt0g234vt8UzZszYM5VK3yP39x+gvC+r5Q3np+UN3JXyBq7fbwF8CYJOEKiCgPyfvEL+Z95fTNdSLieHCrxUU1PTXigURskFYabI64FzQYmT5XeAL1CiPztz5vyf3HvvPc8WM864lJF9/yHZp81hHa/Ezut1WHdeROOWL+WOkMdlbfiGpy+UmElghW/HBSZirQvOYbNxTmB1yGeIfwZmh4QskPvuW/KGhOzcil4GTGCtWLHiAmll76Jb8qegfIBW98jlFc+XM9S/WGSXWj6cflGmOMobdRWkq44dK3FNkgf8y0WOg2IxFJBZkNMlwXJqtYcub8ruWLZsqTPV3K3F/O1vf3tFGjtAngcjZfaxM1urWm/8UjIj7Arp/zy3Bkc7CIRBQD5w/V2mZv+5zFgfkno3ye0/euo7/2vl8Bl9jfwdpC+PEqmU7Vz8Yk5PnPwSAcuy7pJvQDeDgQAC7gjI+4jb3GnJ91amyWv3XPk8stz3nmPVoRFfq+e8P+UM3DjHQ42U9+Pj5X937+fzgBwjpZ2cwVvOUVTOCKmDQLEC/SawjjvuuBG5XP5aeZIU247X5V62LH2+zN64s4yOjLwmXy31rpYZH8NSqZpfybfFJ8nfNWW05WYVwdXOeA52s1HaipaAJK+cw1+quWyT58sR8iH3ea+CkOen9KHq5DxfV0lfX5b7vp+zRt4MnCvv374psZBQ9mpH027UBZz/tb+UQf5SnktD5f/b7XJ/ptx8fz5Ln29Z5HV0tsT0Lonv/rds4A8EEEDABQHnc1M+XxjlQlNVakJ/TTpeXqXOY9GtHL3wvjKPXtitj/xvO0T+314phZz/t/K/tyrLyFmzZu25atUq58toFgQ8F/j/7Z0JnBxFvcene3Y3m2MTkN0EAkiIgMgCKgElJNkzB4sGRY0HIKig6FNURDk8APV5AD4BH5fkCQgeyKKgec/IkuwxuQwSRCEcEkSIHGETjmySvWam37c2124ysztH97+7Z/71+exne6qr/sevuqur/vWvf6XcHhiPJ7+K8SoI1qt1SFHHVruDczReDQEQj48uAoedRkCwCdC9m5vGo8vPdDQdT52fAijv4CLQ2Nh4FNKd7JeEvCMru7o2H8ikzzPj1WDdeDcvgec88nzZ1kKXd8FgefRaEVAEckOAPmML3+26srJS862N5UbF7Vr2rVBMOeZxm5PSUwQUgeJCIB6P3xtyjecxHTko5DoUpfh8bx/he9vEH57P1tcA4Q0/gIhGo4f4wVd5FicCew3m5s6dOxa7zjd9hqOXQe9ldXW1b8Xzo8NtWRYvXtwL3Y/g1XU4tImd5Weyr/KTu/IOLgKJhOObOy4eC7fxjsxcs2bNNkmE4LmUUwyPhudGSb6GFzp/yayiSvNVfopAoSLQ0tKylXe6li38p/L3qr96Om+rqZn9Vn9lUO6KgCJQaAiYmMEYDupDrpdxWjCxsDSFGAEWgn/EaHZ//tqk1WARuEaap/IrXgT2MmD19cX99kL4N0crHseg97vmqEUvmwavrmeqqirfwcT1Gi/5DE/bOYFVjxOHL6N3iw0BnolKPkBn+KT3DR0dbZ+Cty8eirhYP19aWvJ2jNjSq0jR/v7kKT5hrmwVgYJFoKOjdVFJiWU8Sh/yU0kCzd7uJ3/lrQgoAoWHAB4w3ykMrazztzsxFIY2xaoFz2MPfw3Mbe+WxAB+YTfiSsKlvPJEYC8DFnNW3zpiHv4H2d5XTWDRx/PUK+Pqzc3NCSbrX2GybIwFvkzY4XtRxgJrwaJAAG8Fc6KHWRETTs4i3JC/IMx0L3YPPPDAi8SlOnKvG55nJE28PB9w91wxZaAI+IqAOTKZ7zsxOpxcg8bnLT/f+XdVV1eX5U1ICSgCioAisAsB64u7LsN9Mba/v9+3sBXhhi540jO3/RhSPSMlGXP446R4KR9FYIgBq6GhYS6Q+DJ5M8Yry3JmsL1vsx/NgsfXr9hSOBs5PPX6SqUbxor3zZkzZ3Kqe5pXlAjYTLRwA5ZOzvqqqqrTpLmm48cK0stMdt+Z7r4X+bhAHzBv3rx9vaCtNBWBYkfAbN/Hu/T94PB/fmFRVTXpK37xVr6KgCJQWAjU1jbMRyNiDxVGYg50HZr4Mg8sDAQDpUWSea2JKyuSmLdMhNEQu4IIY2VSlAgMedCSSee3PqGwHkuxOSEo7hP/AbZsKWy17Ygx4okmXnqbAJBmUK9JEYgQvN0YUMQHRBivDjMeiUFqAvqERxhLXSkpU09P37mS/JSXIlBMCJjQAHh5zmei9E8/9Maz83t+8FWeioAiUHgIsPD+gwLT6sCamrlTCkynolXHhMoxDiJSAEybNs33U4eldFU+/iKwy4C1YMEC89ARwF08bSFY+xS4+rV9b4jCJog0olwwJFPgBx2M34HzBbRUFpkgkEjIP3888/UYr/oykU+6TFfXG9/CM0rMMxOD8veldVR+ikCRIeCwaPUWdO6X1tssGO0Y70izVn6KgCJQQAjgTToFdaolVKLfuhg+Iov8tt1/i4ROykMKAUtsR0dPz1T13pNq1iLns8uA1dm5yaxKSj94dMbO4V4Ha8+2jfH6uJY6GLJE0wE1NTWHinJUZgFFwDEDFcm0nme+Q5JhNrw4CZFJriMZXF1XkLJpIC2rCOSIAAe2HExV8cUrxjvmqHFNioAioAjkgYD1wzwqZ1O1h8X1q1jollpcm93U1DQqGwG1bHAR4ACVp+SkEwthLaeScgokArsMWJFI8nRpCZPJyDlMnIlzE7zEFofZSNUrKZlt25KTdEnVlFd2CJRkVzy/0uyRr4eC+CQyG6kZvK2g/Jps6uRTlm2cs/Kpr3UVAUVgZARMYHe6nm+PXNLdEngznO8uRaWmCCgCxYTAjBkzTJiHUyV0xnAVM3zYrngb/0TGat3dvborRKJxBXgkEolXBdgMsDjqqKMSUryUT3EjMGDAmj59+mi6xgMkoaBDfjgWa/uFJM9seTlOUnQSa1m2BpfNtpEKrDwu6TMlVTLvIXvkfYlFk72eziXZ18mtRiKRvCy3mlpLEVAEskGgoqLiaspvyqZOvmWJg6UHNeQLotZXBIoYgZKSss+iPnMn71N5eZk5TS7Cgv+/+LfUXHufHDVgeQ+yFAd2O3mfCPXRF7Q4ut5rrRz8QmDA06OsbPRHMeqLen04TuJclE76pXgmfDs6Oh7CoPAoxr1jMimfbxkG1VPnzp07tqWlZWu+tLR+OBHgRMpL8Q4QS9GoZeK9iazo5asU72IrOx3XQ+fgfGllUF/UeJ2BPFpEEShIBBYtWrSNk7wuwLvgDkEFR9OfHMSE8N+CPJWVIqAIFAACJoZeZ+fGLwmp8sb9998/yIPGuY45yWwJ3vTLTR0drYsleCkP7xCIx6PjS0q8n25zENxj3mkReMoT6+vrfxJ4KYcK+DK7W6S2JQ/l7MKvAaMVA8cPukArYxJM0FtisdhfM67gX0EHi/ICvFSelBKhp6fnTfBSA5YU4AHjw7vRKCjSlg0bNvxZkF9erEysvLq6Bia5zjfyIpRZ5YG+MbOiWkoRUATyQWDMmFF3d3f3/BgalfnQyaYu3/YPU97w1KQIKAKKQMYIdHZ2EnbBOjDjCnkVdIacUI7h/Y8s5BnD+0F5kc2gMnPDhRJ8MhBFi+SBQDQa58CUgQ1XeVAZuaptR1aPXKpgS+yLrSBUoQmQ1wQsC60Ba+cTfZTkI4Wn0eWS/PLhhXXyH3yonsiHRjZ1iYN1djbltWzBISAYQNz62dq1awN58mC6VsVj7Ffp7rmcH62uri5zmaaSUwQUgRQILF68uBfjvejJV8TgnJdCFM1SBBQBRWAEBCyxOUxVVdWywcJsP/TK+cXgPA+vJzc0NBziIX0lLYCAVHiaZNJSbz2B9lQW2xEowZpfghXuEMFtS+tw2w+N1wcwOe3trcbAJ7Wxy9GHszgR2OGWLub5w+pa6D42BH1+vL6+4UWM4JO9fkoYODbA409e81H6ioAiEIn090d/VlKS+LoUFnhgSWxFllInaz7E+dtYV4cjSTjSMxysc1g4RFUpCxkB5kxT0E8oVql1baqYQqNHj74Cj9WvIofX40WLbWG3wyc0HQWyahqEwJw5cyb398dnD8ry7NKykk97RlwJKwJ7IGAziHs3xqudnlh73Pbip3OfF1QFaBrDksSfgCrKIogIbNq06d2Ccjnbtm1bJcjPNVYYr6SCzp/omtBKSBFQBIZFYPnyJea9FjzuWwO5D9sgelMRUAT2QoA5k9hhS4lE/1V7CUCG8VhlTf0vqe55kDe9qalplAd0laT3CFgYr1Z6z2aAg9Pb2/ucEC9lowhEbNzopwni4PT19ZkThzQpAorAHgjwLp60R5aXP59ZvXr1Zi8ZeEUbg7tI/DwGqu/0SgelqwgoAnsjwLv94N65nuVM8IyyElYEFIGCQ8Cc2C4V54aFur8uW7bspXQgEm/oC9yT2LExatu2nsvSyaH5wUUAb8Fbke4QGQmdP61atapbhpdyUQSI6kYneKQUEHT8r61cufIVKX7KRxEIEwIMWI4TlPcZQV6usgKnFa4STEvM0i0rabHRG4qA+wgIx9AYPX/+/DHua6EUFQFFoBARKC8vny+nl3PxcLxaW1sfxn71+nBlXLz3CRPiwkV6SspDBDBcER6o/i689D7hIZs9SEeNsUyTIiCGgNk6KGSdHdDpZTHNlJEiEDIE8D6YKiUyxuQwu/qKyI6hTIO4Sz2QykcRAAHHiS+XBGLr1q0HSPJTXoqAIhBmBKzbhKR/fcyYMbGReDmO9d2Ryrhxn7Hp5I0bNw45DdENukrDfQQwXp1I0HazFf8j7lNPS7E/EkksSXtXbygCHiBgM5Gd5AHddCTDFLw9nQ6arwh4ggDv4r6eEE5NVGrlLjX3PHJxG12fR/VsqpZmU1jLKgKKQH4IxGKx9Wzd7cuPSua143HR8U/mgmlJRUARCBQCM2fOnsqilpDHpnXd9jhXw0PQ0dF27fAl3LuL7he6R00puY1AfX19LX9L8bpaSVuJLYYbPTBw3sPhbKGdU7jdFkpPBgFzAmEVD59I4tSzVhFGykQRCCECvIeSLtpvhBCiAZGj0aiTTMY9F5/2EOoZPVdFGSgCoUGAU6+28O69SUJgjGVjJfgoD0VAEQg3AtFo4gEpDQjtsjBDXiYGFkaLSGOG5fMoZk3HQFLd1ta2Ng8iWtUdBKI1NTVHMBaewxz+NEi+TdgZZYgWGMyuGpKhPxQBAQRKGChWCPAZYIHnhB6xKQW28gkjAmZLr0hi4ibGy22Furu7y0tKvHeOYkCgBiy3G0/pKQIjIMCYhO0IMglbeLkMJ+WiCCgCYUXAxBRC9kMl5Gfc0UJ8qxcy5TV6dPkHurt7pBYkv4hc52Uqm5ZzF4Ha2sZZlpU0jiBmsdviWfE9IcPKjo72R3wXRAUoOgRMpyzkEjuA7YaiQ1gVVgQyR0DQYJIM7QlcGMJFvCaYSAdgeJD5w6MlFYECQUDsvWPlOLSG/AJpa1VDEQg8Aqz33UFfITI+w/vqx9kAwlbDzQTs3kKdcdnUy6UsxorPYMy7WLeL5YJeJBKPJ16nrXKrPFArmUddb6qys0oNmt5Aq1RHQIDBm1ygYrw+TCerSRFQBFIggMFE8Otk75NChFBkWVapiOwM1gTbIxTQq5CKgAQCZmFNKvVIMVI+ioAiEEoEjJH7PTKSO+vZond/9rycj2VfJ+ca78+5plYsNASWYsx8rNCUUn3CgQAds+V9MJkdWCQSiapwwKJSKgLyCMgaTBwRd3gvULTtpFSw+4QX8itNRUARGBYBEQ9LIwGLat3DSqI3FQFFoKgRqK1tOA/vq/ESIODk9Ysc+bRTT2S8gow3LFiwQDJea46QaDWPEehl+6qQYddjTZR8KBGwGcCJxZuAl+SJh6FsEBW6qBHoFdT+LYK8XGXFAOoIVwmmIYZBUbI90kih2YpA8SDA9hTjXTlaSuN4PN4pxUv5KAKKQBgRcL4sJHUv27G+kwsvvGDMwRc35lI32zrwGfPyy69WZ1tPyxcaAs7ZmZyUWWhaqz7BQcBmZaFLShwmnidI8VI+ikDYEOBdfFFQ5kOYLFYK8nORlfMOF4mlJYXBPeNAqmmJ6A1FQBHIGAHeuZMyLuxCQeLpveQCGSWhCCgCBYgAp+7NwGAjsmAGfA9hiMp5SzPjRxEDlmlmTmS8pwCbW1XKHIHf86z+JvPiWlIRcB8Bs7f7NffJpqPoCBz1mo635isCwUaAgZLk8cTMFWUniy6iP8VFWmlJMSDUvf1p0dEbioD7CCSTkXnuU01LsZ9BuNTpXWmF0BuKgCIQTAQYA1wiJ5nziXx40Zc9Sf2H8qGReV3r8GnTpnl/FHTmAmlJOQTW19XVfkCOnXJSBFIjYAxYG1Pf8iT3SE+oKlFFoDAQWC2pBpPFsAbjFNn+iDv/Ssn22JMX3iEaRH5PUNz9LRb/0V2xC5caJ3CdKKidMV6JnXgoqJeyUgQUgTwRaGhoOJAoeU15ksm0ei8GqHWZFk5XjjHd1enuuZ1fUVGhHjhugxpweoTV2BaP97/9iiuu0LFpwNuqGMTDgOX8W0pRPD4mSvFSPopA2BDAYLFKUmY8vs5iG2G5JM98ec2dO9f0IfvnSyeT+hw6sSKTch6WKVYDi5TePR62nZLOEoGmpiYCJVvHZ1ktn+Kv51NZ6yoCikDhIpBIOJ9BO6Fg5dZn3UAyFqv8LUaGzW7QGpmGderIZbREoSDAc9XHou5bli9fLrhrq1DQUz28QAADlv2cF4RT0cQdd0xNTYNojItUcmieIhBEBFpbW5/DqCS5shHlnZwVRCzSydTbG/9Iuntu5vOxTi5btszX+DgY/KUMOW5C5wItS2SABL56Ap0LreUWiZ6enjPpj4xXuFByNIC7ENLKRhEIEwLV1dVljMUulpK5vb31dnd4NScwMtzhDq0RqUQ5ofH8EUtpgUJA4I2SEvvNeAm+XAjKqA6FgQBB3BNrJFVhi8ClkvyUlyIQJgQwnIgchbwTE8uyf8q14KRxJ+fc/ltW8rTcamZXy7b9Nx7hAbYtO6kLozRGDBEDFnw2FQZiBaGFhRafF9YkJsxP2SkCikAIEKisnGRi8Y2SEdW5z2U+V5oFOJdppiSHsUzncymRKajMp8rKSg9cunTphoLSSpUJPQIl0Wj0wWRSMgyEM9ME/1uzZk1/6NFTBRQBlxFgUr0Rz5ADXCY7HLlDOWnnnW1tbaKG7OEESndv+6mJVk26+27mO07S9xMI6Zu7EgmRcaib0LlBa7QbREai0dXVpQOykUASus+7Xcuk6yghdgNs6GfvleSnvBQBRSAUCNgslP0X25lFhGXM9xP6v6PdZIb32D+gJxFz+IBZs+pnLFvW5ne4BTfhU1o7EOCbfHdHR5vIrocCAL0XHZ4Okx70E8+ESd49ZS0x25bq6upNLIh99rzp0e99CP53HrSv94i+klUEQosAnj/X89H4nqQC8FsMPxNXKujWknOQUSQmBZPbH0q2QSpeeGARZFpmEH3SSSdNXLly5Sup5JDOY1W3UkBvRxdRpFs2Nb8FCxZEOzs3Xpv6rme5/RjtV3tGXQkrAopAKBEgePuhLOofLiU8XvCtUry84BONWj+ArsjCohfyK82UCGzlQICzYrG236W8q5mpEPhXe3vbMaluaJ43CJRsJ2thNXRO8IbF3lQdx/oauTfyF+gJs/EUq6gY37e3Bt7kJJPRY2OxJY96Q12phgGB8vLy67u7e0QNWOBShRfWF5jQ/SSoGLFCWY5R46tS8lVWVt4uxSsdH+IN9LC40MX9inRl3MovKyv/FLR8N9oZffg+TGJlyOsU6G+P18oHiX5n56tNyPN2SZkw2pv3SpMioAgoAkMQMB5RQzL0xwgIONPNiY04Q7wwQkG9HQoEnJtxMrlw0aJFRRnCIhRNpEIOIDBgwGLFexUDOjEDFpOTNzMh/TQTNBN/J7CpomICR9LKbK/E4yNp2/FQuR8GtuFCLNjixYs3Y7QQ14D3/zpO+LurpaUlEF44KQA4kzw8c2RSc3OzmOF6BI3MNjfPDVj0cxfCJxAGLL4PU0fAxI3basByA8U8adDnjO3r62/Ok0zW1W07cn/WlQqsAt6+0+LxuEi8ORegK9IDLVxATklkjIBZtGYsdErGFbSgQaAEb51L+H++whFeBBh3/YGwFRcsWbLkn+HVQiUvJgQGDFhsVbnZtqNflFXcuhYj1m8wYpntiwFMDj4ADV+SEoyP5t3G40KKn/IJNAIPId3x0hIykXwMnhOl+Y7Ej35iHF45Nwh45QyIAp8/jiST4H2zqnmYAL99BXiMyKK2tnY6hcaNWDD/AmrAyh/DvCnQ55htfHhXyqbS0tJvyHIMHjcWzZ6LxWKbgieZSqQI+IMAnicX+cM57FydT3Jy44Vr164NysJf2AGVlN9hzHtCGOLgSoKivIKPwMDpYwxinkBUaUMSg1b7zqBCVFfX8LikbEzQb5Xkp7yCiwAfk3N9kq6qtrbu7z7xHoat/WswKRumgKu32EIgfRraMPJbzw5z081b5kjsj7lJMBdatm1/Lpd6OdTZkkMdreIiArW19ddBrtpFkhmTwtNU6r3KWCYtqAgoAn4jYP2n3xKElP/Yqqr9fR8/hBQ7v8W2cKD4ud9CKH9FIFsEBgxYOyoZ7wvh5LyX2DunCjMdkR0ynU6hI0cs6F6B7i1bXm93j5xSCjMCmzdv9m0rKavyx+Dx9Ef+Brwz/caxsbGRrc3Oe6XkMFt5R48e/ZIUv5H5JJ8auYw7JdhKboKx+pbmz58/hoHUAgkBMFKagws0+YQAC0TnYpQW9vrepWzHriu9UAQUAUUABGpqGmoUiHwQSBivVnauaAohAtXMey8LodwqchEjsMuA5Tj2V/zAgQnL75ksSxqLhlUTWQ5jP/dtwxZy/+ateiKW+6CGlSLPwjZk/61/8ltNeAT+3/Tp00f7J0Mkwrt4UCKRfFBSBgwbNxGHrFeS5wi8/jzCfTdvH8IgZoabBLOhtXnzFhOHC89c7xPGk196z0U5pEKAZ+w/MEovTHVPIi8atfVYcAmglYciECIEWLu6K0TiBlBU63DGbNMCKJiKlAECzMW/zbfZF4/oDMTTIorAXgjsMmB1dCz9C3f79yohkmE9MXPmzKkirIZhMmvWrANYQFguuV0JcYgS71w/jFh6qwgR4ETKb/upNu/A3FGjyh+eM2fOZD/kYCA0heOlxbyPduvoXLv7OhBXDxmvMClJGMT87Iorrtj1XZDia4yVPHNiK4Acd3y/lG7KZzsCtHEJnlfX8ozd4BcmvEvbli5d2ukXf+WrCCgCwUOgrq7pILavTwqeZGGTyL48bBKrvLsRYOH63qamplG7c/RKEQguAntOVO7wS9SSktK1WH9Fj9IerCuD6/2j0ZIV5Il+xBjMryJ4+5ODZdFrRWDSpH1NDLbnfEbiyP7++DpiI31cUo5ZsxqPxZD8CN5QYyT5wutvvIvPCPMclh3ybAGH9cMWcvfmWzs6Or7pLsnhqRnDBoaF31BKcNuqxcKBJikEzPcVXjEWa8QORkmtm2NOyhIzCKeWQXMVAUUgWAj03sR3ds/5ULBEDIU0zntxBKgKhag+CMnJr1Pi8f43ZfrH/PBhWTGdw3t6esxWUE2KQOARGDJhGD26/PPd3T3n+CQ1W0eslRixPs5pCL+TlKGmpuZQvD2W8wET9zaJRq1vSeqqvMKBQHNzc4J34et8wPze6jSa2Eh31NXVn8PH9+zW1lZPjWpMdM9lfvkTWsmH7YuOOQo6cIYNPJOe4jk4ROrJhddlPHsr6IeXCvH8b3ieJMQrQj//mhQv5ROxeKe/wsrud3iOpQ3SQ+A3noyOk7x7SKb+UAQUgaJGgP6JuYfTWNQguKh8SUnJZyH3XRdJFgwpvPxeX758+RuZKjR37twaTuoVPXCGsdi3mBPfxuFuz2Yqp5ZTBPxAYMiKg4n9wiBT2OK7W20mFmOIP9XMB+UackWCATJRe59tRx/3w3iFik9jEGjdjYBeKQK7ESgvLzdxsDbuzvH1qjaZdJ7h3VzM30FuSzJjxowKjGRtvBMmNo4PxqvIM1VVVQ+4rZcb9Oibmt2gkwWNKO3wB9r5HVnUyakoW8ro6y0z4BVLfON828ImpmQAGNXW1n6Md/p52vdHfhuvDBzGMGs8GgMAjYqgCCgCAUEA4/qliOLHmCMgCLgrBv3s5QsWLGAMoSlfBDgtdytfrvn50sm2PnNi3+wA2cqq5YsXgSEGLAMDq5Sn+gkHA11ksr7MwHeDFxPlwbrB4890tveRxwqMHyl5lh9clWc4ENhhUL48QNIaw8bJeCs+V1tb9yLv53n5D1SusHkP7ystLduEnnX+6WpfYrze/OOfnnNX1xE/566obGYxgbZ+sKHBu5OZTLszOPtyes29uZNIJG70hrJSZcV4LEbJhbTtZvqJX4GI68buHFGO9/f3Gs9OTYqAIqAI7EKAOcendv3QCzcQiG7YsGmGG4SURiTCosv/Mh77qzAW+9TW1vu9+0NYZWUXNgSGbCE0wuMQ9AID0EeZWBzjszLso7bWG1m6ut6Y5tYpfWbCvXHjRrY0RK5EPxEvrzQ4vkDH9Oc09zRbERhAgG1cNzIZNDGJOGAgGImPqY2h28hzc2fnxpuRz3g3PMiE9RbsLB14Mj3/z3/+05k6dWoSo5BDOfMXITi4xTNv42I+Nh6Pf4HXj+2zHb4HjET2xznE4h4jYxDTmjW39GMsfBG8DhaWrxSvuw5430ObftQtAx8HduwbjZaauH8ThfUZYDdu3LhX/eAbUJ4l1dXVZZnIhkeoU1FRMfAum/KdnZ32lClTxm7duvVUvBi+yETwOLY7ZEJKvAzv+EUrVqzoEmesDBUBRSCwCNTU1JsF+6AY2QOLU7aC2bazlDql2dbT8qkRSCTijcSJNou8YnNWvuens5Xwm7qVMHWbaK7/COxlwNouUvLDvCdP+C+ekcA5pqJifB9b/f7BxPmMsrKyJ7a7VWYlnYUnwWS2J57PhPsiaop1AumldI5Of68w75jV+TBpNmrUKGfRokXb/JaZyeGXiEMV6NgtfOzeRewq/iwmthsjvLMD/41xa2dqb+/g0orE48aZKACvoJFiIC5OgrhbQU/2rfSFPnnjWR+iTXvr6hovxED5c4yQr+eCFoYwE8j7alA/M5f67tRx7jKeje7QKgQqVnNV1cScFDH1tm413aPFe5QTCZFKvOPPt7e3XivCTJkoAiIIOOVhG09NmDChx61FELcgjkYjF2Lc1uQ+AiWNjY37ceKrMbpoyhMB4ma9hrH1o7Yd+U2epLKqzlbCB6dNmzbZLQeSrJiHrDBjICtsfXI6iKPRaDwM4+SUBiwmKE/i+YRHgvOhdApK5/OROYKB8l9Y4XVwbXwAb4/bmEw92ds76vlVq+43E6pdJwvxwo1hpXiibdtvxuh1MnU/jSdBpbTM6fjxoN/d1pbbJDAdzRDkj5IORpgvJsjbDQ1fAw8bHTo6Wpt55h/muTkuX520/lAECOq8lFP3Vg3NDd4vvFC/N378hG8Z7zefpGP7aBIjgHUtRkkskc5NyWTJ35PJnpfN4CqVTOY4Zrxz3szH8Fj6YBMg//hU5STz+CZgQNNULAjQZ5rA7eegr05Ti6XRi0BPJrK/D6q3Yzr4N23aVMu9WLr70vksqBzJd6lGmm+x8Esmk39AV91K6FKDx2Jtd/PMfo4xWJ1LJDMhU8lcmrl2xMdFx0zE9L+MsVGEbY6bDjXL6jfhH85Idz8o+SkNWNuFS17AizKfa9+3+OwBFguqkblMpvizIqNG9UWYUJnB6YvcMK4d+zDJG2/qYLQy/wKVeMi3VVVVnh4ooVSYwCNQUmKfkkgk1yOoumW711rdvb2973OPnHeUzAoY/Zxp/0O845Ix5Vr63lrbTkRsu9T0v8aj6TX65c30b8boa9JETrTdnxU8i7ygpDf222+/x4IijMrhPQJ4Xd/V0dG+xHtOykERUARChsDnQyZvyMS1jjeLWGHw5AgLsCzAncm81oRfGCcns3U6O6BuEzyVWk415RRqBNKu5uOF9W8WLb8REu3MBoYDMVwZj6sB41VQ5bas6LyguVEHFSuVazcCuGJvwGhw2e4cvcoXAQwuZ65atWqnwSVfcgL1nfcKMMmFhVnk2N+sQPH/7Tv+TIy0gG0sc35A39uHXJqKAAGex1cmTqz8ZBGoqioqAopAFgjMnj17Ap8n0dNvsxCvIIoyFyvr7u79XkEoExAlTIxqQop8RVgcswh5pzkpXJivslMEhkUgrQHL1MJd8Roe3L8PS0FvZoPADe3tS1ZkU0HLKgI7ESCOyw+5Xrfzt/7PHQH6tRZWlH6XOwX5miwqPIaXqQk6pCl7BDh8MEEcMU3FgADvCVsHS09Ug2UxtLbqqAhkhwDfAuN5PcwOlOzoaenUCGDE+njqO5qbKwKEFFnI+HVlrvVzrHcA8advyLGuVlMEPEFgWIQhSE0AAA6pSURBVAMWp4axjTl+Mpw16G3+8K8bPbqcIMgaiyN/KIuXQkXFOOPhoik/BHoJiv+e/Ej4UzuRiMzxh3O4uTLg+9myZcs6w62FSp85As78WKzl2czLa0lFQBEoBgTMSeR8D3QyLtDYeLlPxBHiIwKsiopFT8+2JhQW3T3AO/PxWoLxFhXQqmygERjWgGUkZ9D/EjYX3SueXzPGOQa1RveC5wei1o5EzKmI0ahdrVjkg4BzGN5M8Xwo+FU3Fms1Aec3+sU/pHxZcO83QeQ1FQECDLSvxrvyj0WgqqqoCCgCWSLQ2dl1MFUEYwhlKWDBFbe+WnAq+azQ6tWrNxPfUXwLLIen3V8oJ+353ITK3gUEMnKhZbL3s/r6hg/jDkrgdE3ZIMAKBFsZnKbthsBsampZRSA1AsTDepxVLT5e1s2pS2huGgQc3scmTgAlvl9oEyHRHVbBrEdDq4G84DenOylRXhTl6C0C1r1ssbjIWx5KXRFQBMKLQF+LnOzWlYR+CNTiCWPHmYwflslhEDm+pmb2MbHYEh2zuAg6pxLegUPUdxnTvtlFsiORKuWkvXsoZDzANCkCviIwogfWTuna2lrncf3Czt/6PyMEsF1ZF2MA1FOQMoJLC2WKAM/UTxmEXJ9peS2H2ceJfBXPjPvDjgVtb2Jh3Rl2PYTk72xvbztfiJey8RUB6wEmix/yVQRlrggoAoFFgO2DZYwEDhcSkMWmZOAWGRk/LAcD0e3VnFhswqdochmBjo62KYxrky6THYncyZxKOGOkQnpfEfAagYwNWNsFcabwX+OIZNgqdCzXMKD+UYbFtZgikBUCPFtmYv7brCoVaWFWqa7hY//jQlG/r6/XbOvmZEpNwyBgFhDO5j4TCU2FjYB1H/2hidcpPZgvbFhVO0WggBDYuHHj/wiq04Kx6F+C/DJm5Tj21RkXdqfgGdOnz3uTO6SUyiAEGONEPjbot8glPJfjyVcuwkyZKAJpEMjKgEVnbGI5mSDSr6ehp9m7ELCuZ8Ksqw678NALLxDAu2QBX7BFXtAuIJo34HklffSwp/CtWLGiC7uM8TYJZSwvT8HZQZxBVjPbyRZL8FIe/iGAcXohxqsPIIEar/xrBuWsCAQeAcnJvuMkrwwqIHwXbxI+0bikrKz/jKDiEWa52Ep4D8+19KmEEZ6fpWHGTWUPPwJZGbCMujuCup/AJRMoTakQYEB99Q7vmFS3NU8RcBMBp6OjnSOhLbMvXdNeCDg/wsj3hb2yCyCDBQWzFeDSAlDFCxU6WUD4qBeElWZgEMCzzvkyxunPIJF62QWmWVQQRSB4CNTWNnwaqTKK+5u/9NbTHQzM8qfjHQUMbM3eUd+bMic/Xz5t2rTSve9oTp4IJEtKbLOA058nnayqYzSbXlfXaDzcNSkCviCQtQHLSMnEaV0ymZjG5Ru+SB1gphivLmZAfXGARVTRCg8BB4PpAo2JNbRheRfPo6/62tDcwvqFfmaL8s8LS6v8tMEj0Rg2joCKGjXygzLQtXm/T+D5vy7QQqpwioAiEAgEjAFFShB4mfikQf/+SJ9it9+4ceOOl2qDYuLDwU4bOJXwXGGdLZyeb2Ar4T7CfJWdIjCAQE4GLFMzFos9HY3ab+FSY2INQMnXyrFOx3hl9pYH/cO1Q2L9V0gIbPf6c8T3wwcRQya3M3kXbwmibG7LhIfZJ6HZ7jbdsNIrKYkeiWFDt7mHtQFHkBvz5OPd3dsm8H6vGaGo3lYEFAFFIELQ6XcDw2QhKLpYQ7lRiFfObPhG9tCX/iNnAjlUtG17YQ7VtEoGCLCV8BdMPdsyKOpmkbHMe3/vJkGlpQhkikDOBizDAKvvJiZPk7gs9tMJiUPjHMO+8l+DhRqvzMOhyRcEGJTcFYmUvg3mxfoc9paVlU5icrvClwbwhykeeG31eOD9xR/2weGK4fJ4vkuig/LgaF/4ktC+Z7M1tHr16tWbC19b1VARUARcQuAq6OAx4n3CKLSIcVgoYlOy9ewk7xHZzQFsqjWY+248XL5KxuPxD0JT9Nnjm1yDgdhs49ekCIgikJcBa4ekZvJ0ENehP54+N+Sdp3t7e8bzwXost/paSxFwF4H29pYnMeJUYMN61F3KgaaGwc5ZXFVVObalpeWVQEvqkXB44L2LAeItHpEPOtneZNKaoV45QW+m7OUjWCzB2a1V9GnjaN87sqegNRQBRaBYEWhsbNwP3WcK6Z9g++DnhXjlzYbFnlcZM2zLm1AWBMrL+67JorgWzQKB5cuXv8Y4+IIsqrhSlGfoxlmzZh3gCjEloghkiIAbBqwBVhixTsYSa07F6smQd+iLoe9NGK6OWLVqVXfolVEFCgoBjDhbeTaP5Rk18dh6C0q5PZRhgos3hn0W+p7S3Nyc2ON2Uf3EO+U82vxslC7oNt+jUTvZzn5sLNa6co98/Rl+BJ5iQF6DcfYk06eFXx3VQBFQBCQRiMeTX2eC7dpcZwTZH2McEqbt645tRz4+gk6u3qYtznKVoBIbggDP3/Vg/OCQTO9/RG275J4FCxZEvWelHBSB7Qi42qmzOvpbBpuHsv+70LeyrGPCVI2+/6EPkiIQZAR4Rq8qLS2ZioztQZYzV9noa+5Fv8nt7UvZ/6/JIGC8VDBimUM21hU+ItayiopxU3TbYMG19GM8w+9nYexInudi2g5ccA2pCikCfiFAgOly+hETI1IkJRLWp0QYuciktLT0fsiJnmBHu5zjogpKag8E8AKcR5boIibv2UmdnZ1i79oeKuvPIkTAVQOWwQ/r78ucHnsihqzz+VloK6b9WLa/gW5vY8L0eBE+L6pyCBF44IEHXtweI8k5DfGfC6EKqUR+hA/mifQ1H1DPjL3hYdK/trPzlWq2Xl3J3YL0SqP9L8Qzp2bRokWiWyD2Rltz3EKANm1hK2gj/dWxPMMaHNYtYJWOIlCcCJhdIfsKqd69bFnrw0K8XGNjxk/0u+Y0Y8FkXS/IrOhYGS9Ax0l+Tl5x6xaMk5XyfJVjMSLgugFrB4hJ48ZoTimkY7yzQID9JZ4eU9ii8310ixeITqpGESHAc3sfxtfDODXEuHBvDKnq/0L+U5jgTmOCuzqkOoiIvXbt2j4MPJfQ5kdjeI+JMBVgYnRJJkun0v4/FmCnLDxGwGwBZpzwjWQyYdp0HltBW2FZrIdQeIy2klcEigkB++ty2tqhDWRNH/xTOZwGOJXX1c05XphnUbHr6Oi4jR0KTwgrbQ5KkN6+KKyisgsKAl4ZsAb0w0tpAwPSs8zA1ARhDYrS2cnhLGEsfSgT5jONJ0t2dbW0IhAsBIzxldMy7yTY+YG2bZ3CB+6lYEmYVpqnmOSeiNyHIf9iShHYWVMmCNDmT2J4rwW/d1D+sUzqBLTMS45j16BLfSzW8mxAZVSxMkOALSvOD3kmj2SleD/GCd+PxWLapplhp6UUAUVgBATwBOF755gTmUVSmMMYtLa24pnvmHGVYOq/VZBZUbLi+/ouecWtQ+vqGr4pz1c5FhsCJRIK7xiYnjR37tyJfX39v4FnnQTffHiwyt9cWhr99JIlS97Ih47WVQSCiADBzvuQywxYDuS9rOrt7V/Ix+7UoMnKyuBCJrgXYYQJU2DUoME4IA9Ggr9xcSwD+wMJen8HA9b6QAq6h1D0xa/aduSUysrKh4o9SP8e0ITt5wqM5lfath3ju9qF8GqEDlsLqryKQGgQsMQm0XyjbgoNLOkFvYpbTelvu3sHT/rq2bNnT9A5lru4DqbGuHkL473TcCC5d3C+99fOd2jb/9a29R7pYuYgYsDaCTB7rV/h2kyaLCy032cC9WWuy3fe9/k/ziiRLoLffYmX/nafZVH2ioAUAs6O9/J9hiFHTh/FqT0LmWgezwtRSpZxCZZKZtuQMay1JxLxTy5btiws3mFS+LjBx6F/+zeEGgyxmpr6T2EcuhZD4Vja23aDgUs08NCJrMTjrgmjVbdLNJWMdwiYdzfJc5TgOSLmmrWOb+ldXN+x43nzjrNSVgQUAUVgEAKMY/ZLJJIfHJTl6SV9neBWRW9UoZ9uZ172NPOyw73hMJQqC6Z2PB43sbBET0EcKkXh/6JZ76urq1+DpuZgH6lkxeOJtTA7mD8zNtCkCLiOgKgBa5D0TKJaL+X3pViHp2CJv47rE+nQJg4qI3FpJkkvYrj6FR+g7xMQeosE0wDyuJ0Jx6gAyuWrSDwT5vkoqrTjcIIZRummpqbx27b1nMd7eQY/J/G3L39uPic90H6VSS7voLVw4sTKO9VYAcKCKRZrM2785s+qrW34LM+8OVn1IP724U8ymUHOq4jxd+wflxO/YZkk8yDyikattYlE5H+CIhvPxjbeU/rEZBf/zWLPC44TfRGb1bNqpHKnlXp6euIVFRNE2jwajfa4I7VS2YkA37Nf8G5U7Pyt/3cjgHH75d2/vL3q63PeQv8p8h4xfnmVuUNBeIgzF7qQdhLzxIffZm+fhMyoI8cv0Xt8ZqVzL7V161azQCueiEf9nkTC+U9pxg0NDfVsT22V5juYH+36LO0r0hcM5hvma3a9hCK+sKR3xYjtyarJJLw/zmIQ8B4KEwDemszHwU2vAHMq4r8wCHNEt9XMlprf8Vutw4CgSRHIBAEMzgdxSti7bHsgtoRZqZvIuzQqmYxwXLUzuD/BOM6bHHE4udPq56qbj8grlHmG8o/09/f/dfny5c9nwlPLyCPAwOPAZDK5gDacTdsdSvsexH83B3jGq8q0/7M8I3/q6+v79cqVK42HriZFQBFQBBQBRUARUAQUAUVAEVAEUiIweMKZsoCfmTNmzKgoKys7DiPWMUx6j0KWSUyCjSfIBP7G8jeGvz7uDRihkkknbibKTIiIr2Ft4noD95/jby00/sYq8TquNSkCioAioAhkicCsWbOqbLvsaDxwjOHyMP4m0ccar9l96V/H27Zt+uQI133002alcQv3TawjTrx0OjFkYqyynras5KP0xaZf1sUDQNCkCCgCioAioAgoAoqAIqAIKAKZIfD/bORZacws+ygAAAAASUVORK5CYII=;" parent="1" vertex="1">
          <mxGeometry x="474.66" y="126.05000000000001" width="90.67" height="30" as="geometry" />
        </mxCell>
        <mxCell id="M0A9UQwUjTfV-8Phl40K-70" value="" style="shape=flexArrow;endArrow=classic;startArrow=classic;html=1;rounded=0;exitX=1;exitY=0.5;exitDx=0;exitDy=0;fillColor=#090909;startSize=4;endSize=4;" parent="1" source="M0A9UQwUjTfV-8Phl40K-55" edge="1">
          <mxGeometry width="100" height="100" relative="1" as="geometry">
            <mxPoint x="340" y="311" as="sourcePoint" />
            <mxPoint x="400" y="316" as="targetPoint" />
          </mxGeometry>
        </mxCell>
        <mxCell id="M0A9UQwUjTfV-8Phl40K-71" value="&lt;div&gt;&lt;br&gt;&lt;/div&gt;&lt;div&gt;&lt;br&gt;&lt;/div&gt;&lt;div&gt;&lt;br&gt;&lt;/div&gt;DNS for domain.name&lt;div&gt;&lt;br&gt;&lt;/div&gt;&lt;div&gt;type: CNAME&lt;/div&gt;&lt;div&gt;name: my-app&lt;/div&gt;&lt;div&gt;target: proxy.second-domain.name&lt;/div&gt;&lt;div&gt;proxied: false&lt;/div&gt;" style="rounded=0;whiteSpace=wrap;html=1;" parent="1" vertex="1">
          <mxGeometry x="680" y="121" width="240" height="159" as="geometry" />
        </mxCell>
        <mxCell id="M0A9UQwUjTfV-8Phl40K-72" value="" style="shape=image;verticalLabelPosition=bottom;labelBackgroundColor=default;verticalAlign=top;aspect=fixed;imageAspect=0;image=data:image/png,iVBORw0KGgoAAAANSUhEUgAABLAAAAGNCAYAAAAB/YgbAAAAAXNSR0IArs4c6QAAAERlWElmTU0AKgAAAAgAAYdpAAQAAAABAAAAGgAAAAAAA6ABAAMAAAABAAEAAKACAAQAAAABAAAEsKADAAQAAAABAAABjQAAAABJGG/iAABAAElEQVR4AezdCZgcVbnw8XOql5nJZN8IJGQmJMgSUJBNyE6ACwgqS1BRUVAR5SruXj5FO2FVL+pFXO8VRNSrERCUCxIhKxJAAQHZISSEsGWfmZ6tu+t8b81ChmQm00tVdS3/ep6e6ak6y3t+1d3T/fapKq1YEEAAAQQQQAABBBBAAAEEIi+wOTN6uGUNm5rWZqJtW3sroydpy0xQRo2TwQ9VxgxTWg/Rct8oVS/rhsjN6gPj3E/Jrb3vTcq2S502pfQWo8wWKbTFVmaT0uo1S1sv2abwwmsb08/v+8PnO/q0xV0EEECgJAF5nWFBAAEEEEAAAQQQQAABBBCIikDrosajbKXmGVsfZmmzl630eK3NOElUjajyGLdpJ7Gl9CZJeq2ztLrP2ObeIZl1j8gHU1nFggACCAwsQAJrYBu2IIAAAggggAACCCCAAAKBFXgiMz09RbecWtD6w5L+OVg+3I3UWo00RiUCG3R/gWlVkPi3SwZLElzqAa2s3zy1YdSSw3/+UK6/4qxDAIF4CpDAiud+Z9QIIIAAAggggAACCCAQMoHmzNTxli58XmZXfVo+yDmH9zmH80X1M52RgeWcwxON0j/sNInvjMk83xSyXUa4CCDgokBUX+xcJKIpBBBAAAEEEEAAAQQQQMBfgec+O61mwhgzQiv7HKXNV6V35zxVLHJ+LUlqXaON+tk6Vb9leuaJTlAQQCAeAiSw4rGfGSUCCCCAAAIIIIAAAggEXGB7ZtLolGUdYBt9sUysenfAww1KeMuMZS7TBf3k0Mza14ISFHEggID7AiSw3DelRQQQQAABBBBAAAEEEECgKIHWzMRJxkqeKCdc/6QcDHhkUZUoNJDAM3Lc4Q+StvpLXWbt2oEKsR4BBMIpQAIrnPuNqBFAAAEEEEAAAQQQQCCkAtuunDwq0Wl9QML/sHwgOyakwwh62I9KgNfXm/RvdOZZufIhCwIIhF2ABFbY9yDxI4AAAggggAACCCCAQOAF5LxNum1hw/sKSn9ePoTNlICtwAcdhQC1kosyqhUJo35a9821i+UqjfInCwIIhFGABFYY9xoxI4AAAggggAACCCCAQCgEmjJ7jU1Y6asli3KSBMyJ2Ku517TaKumrJVYi/6Uh33h5QzVDoW8EEChdgARW6WbUQAABBBBAAAEEEEAAAQR2K9C6aNrRtp2/Sc5rNUEKMttqt1r+bpQPwbZMw3pVev340G+tvcvf3ukNAQTKFSCBVa4c9RBAAAEEEEAAAQQQQACBPgLOYYLNCxvOs7T+mcz0SfTZxN3gChiZHbdIElkLObwwuDuJyBBwBEhg8ThAAAEEEEAAAQQQQAABBCoQMHJS9pYO6ypJgJxfQTNUrbKAlvNkFdK5bwz/fxs2VzkUukcAgX4ESGD1g8IqBBBAAAEEEEAAAQQQQGAwgdbLpu5dyBe+QeJqMKlwbZcZWYuNsi4ZnlnzbLgiJ1oEoi1AAiva+5fRIYAAAggggAACCCCAgMsCTZl93mbpwjflgJYPudw0zQVIQI4tvMlWhYtHZF5+PkBhEQoCsRUggRXbXc/AEUAAAQQQQAABBBBAoBQBk3nb2KzV+V2p8xHOcVWKXKjL2sqY32plf60+s/6VUI+E4BEIuQAJrJDvQMJHAAEEEEAAAQQQQAABbwXMNdNqWrbmvquV/rj0NMTb3mg9oALtRutfD7U7LtKZV1oDGiNhIRBpARJYkd69DA4BBBBAAAEEEEAAAQQqEWhZNOXLcijZ1+WD08hK2qFuNASMMi3a6EuGZtb+IBojYhQIhEeABFZ49hWRIoAAAggggAACCCCAgE8CW78+pSGZNv8kceUTeMi6MUq3GKMP40TvIdtxhBtqARJYod59BI8AAggggAACCCCAAAJuCqz/wqS60SOTdxuljnGzXdqKrMBjW7fl37X3919ui+wIGRgCAREggRWQHUEYCCCAAAIIIIAAAgggUD0Bk1HJrNX4YTk5+3USBZ+TqrcrwtiznB5LX/DUy6OvP/znD+XCOABiRiAMArwwh2EvESMCCCCAAAIIIIAAAgh4JtCembxPXls3SQeHetYJDcdB4Dll9JlDMy8+FofBMkYE/Baw/O6Q/hBAAAEEEEAAAQQQQACBoAhkFzV8Q5JXL0g8JK+CslPCG8e+SptHs5kpl4d3CESOQHAFmIEV3H1DZAgggAACCCCAAAIIIOCRwPZL99nXss0dWplpHnVBs/EWeC5prFNqM2uejTcDo0fAPQFmYLlnSUsIIIAAAggggAACCCAQAoHWRVO+nDD24ySvQrCzwhvivnldeKJ5YWMmvEMgcgSCJcAMrGDtD6JBAAEEEEAAAQQQQAABjwQ2fnu/YXXtncuUMod51AXNItCfwJM5o2aMyqzd1t9G1iGAQHECJLCKc6IUAggggAACCCCAAAIIhFig5fLGQ3RB/cMYlQjxMAg9rAJaFSxbHzMk8+KDYR0CcSNQbQEOIaz2HqB/BBBAAAEEEEAAAQQQ8EzAKKWzi6Z8Q+XVIySvPGOm4cEEJHFqa/NAc6bhUpNRfA4fzIvtCPQjwAysflBYhQACCCCAAAIIIIAAAuEXMFftMyLbYa+WkRwQ/tEwgqgIyIfwNbk2+/CRV720NSpjYhwI+CFAAssPZfpAAAEEEEAAAQQQQAABXwWyiyYfZtuJ5Vqbob52TGcIFCEgH8RblTYz67+57pEiilMEAQREgKmLPAwQQAABBBBAAAEEEEAgUgLbF075iDHWfSSvIrVbIzUYObR1iDH6gZaFjedGamAMBgEPBUhgeYhL0wgggAACCCCAAAIIIOCfgHO+q5aFDd9JKHOD9Jr2r2d6QqAsgZTS6hfZhY0/lvOzcXRUWYRUipMAT5I47W3GigACCCCAAAIIIIBARAWeyExPN+jsX2V4syM6RIYVbYEV9RPGHK8/9VAu2sNkdAiUL0ACq3w7aiKAAAIIIIAAAggggEAABJyrumV14wYJZUIAwiEEBMoSkENeN7yyMTV13x8+31FWA1RCIOICHEIY8R3M8BBAAAEEEEAAAQQQiLLAsoxKSvKqIGMkeRXlHR2Dsck5sSbuOTbfbhaoRAyGyxARKFmAGVglk1EBAQQQQAABBBBAAAEEgiDQdtU+kwsd9nMSC+e7CsIOIQa3BOxEWk2tu3jtWrcapB0EoiDADKwo7EXGgAACCCCAAAIIIIBAzARaFzUcTfIqZjs9PsO1Cp3qme2ZKUfGZ8iMFIHBBUhgDW5ECQQQQAABBBBAAAEEEAiQQMvCyfNto5dLSMy8CtB+IRRXBdIJbVa1XDrlBFdbpTEEQixAAivEO4/QEUAAAQQQQAABBBCIm0BLpvFEpa07Zdwkr+K28+M33rQy5vbWhQ2nxW/ojBiBXQU4B9auJqxBAAEEEEAAAQQQQACBAApkFzacZJT+s4TGSa4DuH8IySMBrQra1qfXZ178k0c90CwCoRAggRWK3USQCCCAAAIIIIAAAgjEW6Bt0ZRZBWOWiwJHkcT7oRDL0WtJYhVUYd7wb65fFUsABo2ACJDA4mGAAAIIIIAAAggggAACgRZou3S/KQW74wUJks8vgd5TBOexgEla1n61l6xxrrzJgkDsBPgHELtdzoARQAABBBBAAAEEEAiPQFumsbGg1RqJmM8u4dltROqhQN7YU0dmXnKeEywIxEqA6bex2t0MFgEEEEAAAQQQQACB8Ai0XzptasFST0vEJK/Cs9uI1GOBpNbPbJPnhsfd0DwCgRMggRW4XUJACCCAAAIIIIAAAggg0HrZXnvn7fw/lFE1aCCAQF8BnUzY+YdbL5s0se9a7iMQdQESWFHfw4wPAQQQQAABBBBAAIGQCZgrJ4+yC2nnZNUjQxY64SLgi4BMSRxuCsn7mi6eOMaXDukEgQAIkMAKwE4gBAQQQAABBBBAAAEEEOgWMNdMq8l2JJbIXw2YIIDAwAJGqcm6NnXP+i9Mqhu4FFsQiI4ACazo7EtGggACCCCAAAIIIIBAqAWMUTq7LX+L0ubwUA+E4BHwSUBmYr1j1MjkH53njk9d0g0CVRMggVU1ejpGAAEEEEAAAQQQQACBvgLZhVP+U855dXLfddxHAIFBBf6tZWFjZtBSFEAg5AJkaUO+AwkfAQQQQAABBBBAAIEoCLRmphxpa/NAFMbCGBCohkBCF2bXfXO9c+44FgQiKUACK5K7lUEhgAACCCCAAAIIIBAeAZOZNDqrk5vDEzGRIhBMATuVGzv8/23guRTM3UNUFQpwCGGFgFRHAAEEEEAAAQQQQACB8gXM9ybVtejEuvJboCYCCPQKWLnka+vlOdX7N78RiJIACawo7U3GggACCCCAAAIIIIBAyASyzckVWumhIQubcBEIqIBOjmpKrQxocISFQEUCJLAq4qMyAggggAACCCCAAAIIlCvQnGm4VOoeUW596iGAQD8CchXPbPdzq5+NrEIgvAKcAyu8+47IEUAAAQQQQAABBBAIrUDTZZNnWgW9TCmdDO0gCByB4AoUlGWfOPSSl+4ObohEhkBpAiSwSvOiNAIIIIAAAggggAACCFQosDXTODKl1QvSzOgKm6I6AggMLLCt3uSn6szLWwYuwhYEwiPAIYTh2VdEigACCCCAAAIIIIBAJAQkeXWrDITkVST2JoMIsMDIFp1aHOD4CA2BkgRIYJXERWEEEEAAAQQQQAABBBCoRKB14ZQFUn9OJW1QFwEEihPQysxvWdRwdnGlKYVAsAU4hDDY+4foEEAAAQQQQAABBBCIjIC5YuKYbC61KTIDYiAIhERAm8LE+sz6V0ISLmEi0K8AM7D6ZWElAggggAACCCCAAAIIuC3Qkks94HabtIcAAoML2DqxyhjFBJbBqSgRYAESWAHeOYSGAAIIIIAAAggggEBUBFoWNX5ePj1Pjcp4GAcCYRKQ594+2UUNXwxTzMSKwM4CZGB3FuFvBBBAAAEEEEAAAQQQcFWgKbPXWEunX5dG+QLdVVkaQ6A0gfpRyRH6c883lVaL0ggEQ4B/IMHYD0SBAAIIIIAAAggggEBkBSR5dY8Mjs8ekd3DDCwsAtlt+fvDEitxIrCzAP9EdhbhbwQQQAABBBBAAAEEEHBNQA4d/Jiceedg1xqkIQQQKF/AqAOaM1POL78BaiJQPQEOIayePT0jgAACCCCAAAIIIBBpAZOZm2zRa7fIh45hkR4og0MgXAKt9RPGjNSfeigXrrCJNu4CzMCK+yOA8SOAAAIIIIAAAggg4JFAVr94Hckrj3BpFoHyBYa0vr7lt+VXpyYC1RFgBlZ13OkVAQQQQAABBBBAAIFIC8gVzw41Rj8c6UEyOATCLGDUoUMza/8Z5iEQe7wEmIEVr/3NaBFAAAEEEEAAAQQQ8FzAZJQlyaufet4RHSCAQNkCWqufO8/VshugIgI+C/Bg9Rmc7hBAAAEEEEAAAQQQiLpAk2o4UcZ4ZNTHyfgQCLOAUeqIFjXlzDCPgdjjJcAhhPHa34wWAQQQQAABBBBAAAFPBV7MNNaO02a9Unqspx3ROAIIVC6g1dZ6u3OSzrzSWnljtICAtwLMwPLWl9YRQAABBBBAAAEEEIiVwFhLf4LkVax2OYMNs4BRo1p16twwD4HY4yPADKz47GtGigACCCCAAAIIIICApwJyPp1kq9XYboxKeNoRjSOAgJsChfph+WH6iy+3udkobSHgtgAzsNwWpT0EEEAAAQQQQAABBGIq0KIbMiSvYrrzGXaYBRKtzclLwjwAYo+HADOw4rGfGSUCCCCAAAIIIIAAAp4KLF6gEicf1Jj3tBMaRwABzwTqD1ib1Gepgmcd0DACFQowA6tCQKojgAACCCCAAAIIIICAUidNb/wxDgggEF6B7FNTbghv9EQeBwFmYMVhLzNGBBBAAAEEEEAAAQQ8FFj/vUl1o1uSW+XwwRoPu6FpBBDwUkCrQv0eY+r0px7KedkNbSNQrgAzsMqVox4CCCCAAAIIIIAAAgh0CYxsSn6P5BUPBgRCLiAXX2h9bfMPQz4Kwo+wAAmsCO9choYAAggggAACCCCAgNcCZrFccVCrs73uh/YRQMAHAa0+7FxN1Iee6AKBkgVIYJVMRgUEEEAAAQQQQAABBBDoFWh9quE/5Lwkw3v/5jcCCIRXQGZS1metxsvDOwIij7IAmdUo713GhgACCCCAAAIIIBBYgZZLJh1sUsl5yqhj5XaA1mqUBJtwAjZKWT0nq7W7/1S2/L3BVvo5pe3HlK3uGzo69Tf9uec7nPLVXIzWn3UCZkEAgYgIGPVxGcnXIjIahhEhAU7iHqGdyVAQQAABBBBAAAEEgiUgeR2tPjstnR3X/jZlkl+S6JxD7VJuRynJrzbbNr/RlnXtRts806jWduqMpLk8XloWTTlHGXODx93QPAII+C9w3tBvrb3e/27pEYGBBUhgDWzDFgQQQAABBBBAAAEEShYwn51Ws318x6SknbhQ5lJ9TnJYXbOqSm6okgpa0kq2+mPS0j/I2R1PDc+8sqmS5vqr6yTnsgsb/ynb3t7fdtYhgECoBR6r/9baQyRhwPzKUO/GaAVPAita+5PRIIAAAggggAACCFRBwCyQq3dNb3iHraxPW5b6qDHG9VlWFQ7rcfkc+m2dVEvrv77u1Qrb6qqezTS8Uw4ffMiNtmgDAQSCJ2Al1NFDvrH2/uBFRkRxFeAcWHHd84wbAQQQQAABBBBAoGKBrZnGkSltPt6i9Fflm+HxMvFJpj5V3KwXDRwsE6Z+bfJKtSxsXGaU/snQA168RZ+lCuV2Jm1cVG5d6iGAQPAFTEF/WaI8M/iREmFcBJiBFZc9zTgRQAABBBBAAAEEXBNou2xKQ6FgrpQGPyC3kL6nNpuV0b/It9tXjbzqpa2l4JjMpNFZndwodbiqeSlwlEUgXAKSkVd7Dc2sfS1cYRNtVAX4hxPVPcu4EEAAAQQQQAABBFwXaL9y8j4yg2lpwTYvSOMflFtIk1cOjR4j0X81NcTaIIcD/mHblZOdqyAWtbTq1GlSkM8SRWlRCIHQCmij1XtDGz2BR04gxP9wI7cvGBACCCCAAAIIIIBAQAXMd/eob22t/YscNne0hOj/Sdn9cNEqp41aOsSsPXl3VzA0GWW16MZt8kFimB9h0QcCCFRRQJvN/2mvG5/x4aqmVRwlXYdEgG9NQrKjCBMBBBBAAAEEEECgOgLNCxt/mm2ta5Lk1UyJIJrJK4fWqJScvuvfsrox17yw4dqBtJvVXqNJXg2kw3oEIiZg9JivqcbJERsVwwmpACdxD+mOI2wEEEAAAQQQQAAB7wQkkaNbL9vnMFOw75NegnZFQe8G3t2ypZW+MLuo8XylzfuGFNb9pe+MLK1TV3gdAO0jgEBwBAraLJJozglOREQSVwEOIYzrnmfcCCCAAAIIIIAAAv0KbM5MG16r87+SJBbnfhEhcbjfqi2cUf+19a84YHIOMFnFggACcRKoP2BtspKrlsbJirF6J0ACyztbWkYAAQQQQAABBBAImUDzosY5krG5Vd4kjwxZ6F6H61yN7DxbWfdZ2n7G685oHwEEgiWQNNZ+tZk1zwYrKqKJmwCHEMZtjzNeBBBAAAEEEEAAgV0Euk9M3rBITmL+9V02ssIRkKMK1fVa2dvhQACB+Anktf1rGfWR8Rs5Iw6SAAmsIO0NYkEAAQQQQAABBBDwXcBJXrXqxntl1pVzhUGW3QiI0YjdbGYTAghEV+CI6A6NkYVFgKsQhmVPEScCCCCAAAIIIICA6wJvZBonyFX3XpWTOpG8cl2XBhFAIEoCrZnGd0VpPIwlfAIksMK3z4gYAQQQQAABBBBAwAWB7KKGQ4dotVaaGu9CczSBAAIIRFrA1ua/Iz1ABhd4ARJYgd9FBIgAAggggAACCCDgtsD2TMPJxuiHpd0at9umPQQQQCCaAnpKNMfFqMIiQAIrLHuKOBFAAAEEEEAAAQRcEWjONJye0Pr/XGmMRhBAAIH4CNRvv3SffeMzXEYaNAESWEHbI8SDAAIIIIAAAggg4JlA08KG07TWN3vWAQ0jgAACERZImMJ/RHh4DC3gAlyFMOA7iPAQQAABBBBAAAEE3BHILmw4ySh9izut0QoCCCAQPwFt9Nz4jZoRB0VAroTLggACCCCAAAIIIIBAtAVaFk06WJnkY9EeJaNDAAEEPBbQqlBvq7E6s3abxz3RPAK7CHAI4S4krEAAAQQQQAABBBCIkkDzFRPGKZNyTtjOggACCCBQiYBRiVZLn1lJE9RFoFwBEljlylEPAQQQQAABBBBAIPACRo4Z1Lnap5RMvwp8sASIAAIIhEHAmJPDECYxRk+ABFb09ikjQgABBBBAAAEEEOgRyC5s/IfcHQMIAggggIA7Akapd7rTEq0gUJoACazSvCiNAAIIIIAAAgggEBKBlkzDd5Xmg1ZIdhdhIoBAeAQaspc37BmecIk0KgIksKKyJxkHAggggAACCCCAwJsCTYumzJKDB7/85gruIIAAAgi4JmAVrPmuNUZDCBQpQAKrSCiKIYAAAggggAACCIRDwGSmDbeMfUs4oiVKBBBAIHwC9tDxFxrTcbAxRocveiIOqwAJrLDuOeJGAAEEEEAAAQQQ6Fcga+V/opQe2+9GViKAAAIIVCxgml9/l2nZ/pg09Kgksc6VW6riRmkAgUEESGANAsRmBBBAAAEEEEAAgfAItC6aOkMZdXZ4IiZSBBBAIHwCOlWndN1IJ/CD5Xad3JoliXWD3KY7K1kQ8EKABJYXqrSJAAIIIIAAAggg4LuAyUxP26Zwu+8d0yECCCAQM4HEPjOVSrxl0lWNEJwjt8clifWE3C6QWyJmLAzXY4Gkx+3TPAIIIIAAAggggAACvghkdTYjHXVNCfClQzpBAAEEYiqQmDZ3oJE758Q6UG5yKLf6riSxVsrvD+T/OPcuY9TBsrHfc2bJNiNbnBNqFYzcpE5efufl707Z1mlp9ZL8/peyzL+UrR5J2Xs8ps/6g1OOJUYC/T54YjR+hooAAggggAACCCAQEYGWhY3yeYcFAQQQQMBTASul6i9+YucZWP13aedU7k8nKWXn+99e2Vpbqju3glb6EWPs36VSqd/p997zemXNUjuoAiSwgrpniAsBBBBAAAEEEECgaIHswsYHJHt1ZNEVKIgAAgggUJZAcr/jVc37f15U3dyfT1Eq11JUWQ8KrTe2+Xm6Nnm9arO3qwXLs1pmeXnQD036JEACyydoukEAAQQQQAABBBDwRmB7ZtLohE5uktZ5b+sNMa0igAACbwrUnnezSkx655t/D3THbH1G5Zd9aqDN1Vi/VWn9W21Zv012pp7WZ921pRpB0Gf5ApwDq3w7aiKAAAIIIIAAAggEQCCpU3+S06eQvArAviAEBBCItoAePqGo5JWjYK+5NWgYo5QxF5pC4cJcoqA6b5nzuG2r6y1bL0stWP4os7OCtrt2jYd/9LuasAYBBBBAAAEEEEAgJALZyxv2NHnrJaUMX8yGZJ8RJgIIhFcgdcz5Kn3cxUUNIH/Xh5TJbiiqbNULGbVRafN7rRK/S56+7D6SWVXfI/0GQAKrXxZWIoAAAggggAACCIRBILtoyh/kKldnhiFWYkQAAQRCLWAl1ZCvPaZ0qm7wYbRvVrk75aVZLh0YtkUifk0b9Wdj6WtqTl/+r7DFH+V4SWBFee8yNgQQQAABBBBAIMICJrPXkKxOb5Yh1kZ4mAwNAQQQCISANXJvVfe5lUXFYj9/kyo8dm1RZQNbyDnhu1EvSjLrhuQYfYWet9yTSykGdvwBDMwKYEyEhAACCCCAAAIIIIDAoAKSvLpICpG8GlSKAggggEDlAjWn/6DoRuxX7yu6bGALmq4Lg+wjZ1hcmNtiZztvnn1/6//O3juw8cYgMBJYMdjJDBEBBBBAAAEEEIiowPkRHRfDQgABBAInYBVx5cGuoO28MpseDVz8lQWk03Kh26OSaf1S581zCrnFM2fK0ZEc0VYZasm1SWCVTEYFBBBAAAEEEEAAgWoLtGamHCkxNFY7DvpHAAEE4iCQPOSMoodpNj4i574qFF0+hAUtk0isyt0yp0OSWZ8xi+cODeEYQhkyCaxQ7jaCRgABBBBAAAEE4i0gh3ScE28BRo8AAgj4J1Bz8mVFd2a/9reiy4a8YEri/1EuYbZ13DznEnP7zFEhH0/gwyeBFfhdRIAIIIAAAggggAACfQXMzw5LyZl1SWD1ReE+Aggg4JGArh+rVLKmuNaNreyXlxdXNjqlEnIs4aJcR+J1SWRdbO44qUis6AD4NRISWH5J0w8CCCCAAAIIIICAKwKtr286SBoa5kpjNIIAAgggsFuBmndfLtuLO92TyW5QqmPbbtuL8MaUKF2Ra2vdmnMSWRlFvsXlnQ2oy6A0hwACCCCAAAIIIOCxgK3f53EPNI8AAggg0CNgTTmmaAuzMWonby966H0L1hlJZOUPnrOh45Y5C/pu4H5lAiSwKvOjNgIIIIAAAggggIDfAlpx9UG/zekPAQRiKZCcforSNcWfo9x+4ZZYOvU3aEliTdBGLZYTvT9ubj6mob8yrCtNgARWaV6URgABBBBAAAEEEKiiQNMVE8c4HwqqGAJdI4AAArERSB39ieLHmmtRpmlN8eXjU/KgnEq9mFv5hU2m0PmZ+Azb/ZGSwHLflBYRQAABBBBAAAEEPBKw8novj5qmWQQQQACBPgK6bpSy9np7nzW7v2uyr+6+QLy3arPx4TG5W4//Ucvi2QfHm6L80ZPAKt+OmggggAACCCCAAAK+CyQ/7HuXdIgAAgjEUCB19Cdl1MWdvN3hsZ+5MYZKpQ85ndCP5W6Ze7e5Zf6Y0mvHuwYJrHjvf0aPAAIIIIAAAgiES8Coj4UrYKJFAAEEQiigLZV8+2nFB25sZW9YWXz5mJc0xszPm/z6/E3zzoo5RUnDJ4FVEheFEUAAAQQQQAABBKolYBaohPQ9vlr90y8CCCAQF4FEw1FKDy/hdIOFjrjQuDZOOZ9jna3t3+dunvOHjbfNGOZawxFuiARWhHcuQ0MAAQQQQAABBCIlMH26k8BiQQABBBDwWCB5+IdK6qHw3OKSylN4h4Akss4cnk8+27l41pE71nKvPwESWP2psA4BBBBAAAEEEEAgcALNauvwwAVFQAgggEDEBHTdSJXc/8SSRmU/+5uSylP4rQJyprEJKmHd33nznGveuoW/+gqQwOqrwX0EEEAAAQQQQACBwApoq+bYwAZHYAgggEBEBBJTZytllTjhtdAZkdFXdRjOGfM/K0msf1U1igB3TgIrwDuH0BBAAAEEEEAAAQT6CtjH9/2L+wgggAAC7gukT/h/JTVqv/q3kspTeFCB6Z03zWnJ/u+MvQYtGbMCJLBitsMZLgIIIIAAAgggEFYBbfTRYY2duBFAAIEwCOgRE5UeukdJodpP/HdJ5SlchIBW9al0ckP+ptlnyTmynJlZLCJAAouHAQIIIIAAAggggEA4BLTZPxyBEiUCCCAQToH0jE+XHLjJvlZyHSoUJ2Br/fvOm2ZfahYvKPGYzuLaD1spElhh22PEiwACCCCAAAIIxFXAaN7Ax3XfM24EEPBeQFuq1KsPmuZ1ShXavY8txj1orb+eS77xa7NsbjLGDF1DJ4EV90cA40cAAQQQQAABBBBAAAEEEIi9gLXnQSUb2M/+b8l1qFCGgFEfyG02f497EosEVhmPHaoggAACCCCAAAIIIIAAAgggECWB2vf/rOThmE2PllyHCmUKaHVIbot5ecvi40aU2ULoq5HACv0uZAAIIIAAAggggAACCCCAAAIIVCKglR42obQGcs3KtL5eWh1KVyqwx7BE5xqzeNa4ShsKY30SWGHca8SMAAIIIIAAAggggAACCCCAgEsCNe/9Tskt2S/cqpSxS65HhcoEjNKjcwlrjbl19t6VtRS+2iSwwrfPiBgBBBBAAAEEEEAAAQQQQAABlwS0Sh54Sslt2RuWlVyHCq4JDM0V9Brzx2OnutZiCBoigRWCnUSICCCAAAIIIIAAAggggAACCHghkJpxgVKp2tKazrUos/3F0upQ2m2BZM4uPNtx09z93W44qO2RwArqniEuBBBAAAEEEEAAAQQQQAABBLwU0JZKvevjJfdgv7Za6piS61HBdQFLa/OY+ePcRtdbDmCDJLACuFMICQEEEEAAAQQQQAABBBBAAAGvBVJHfkzp+jEld8PVB0sm87JCKmebp5pjcGJ3ElhePoxoGwEEEEAAAQQQQAABBBBAAIEgCiTSKjXzM2VFZjY/UVY9KnkmUFvjnNj9thnDPOshAA2TwArATiAEBBBAAAEEEEAAgaIEuNxVUUwUQgABBAYXSB39ibJmXylTUKb5pcE7oITfAkM788lnzbK5Sb879qs/Elh+SdMPAggggAACCCCAQKUCT1faAPURQAABBJTSQ0ap9OyLyqIwbZvk9FeFsupSyVsBrdSE3Fbzd297qV7rJLCqZ0/PCCCAAAIIIIAAAiUIyBvzVSUUpygCCCCAwAACqXlfViqZHmDrIKs7tg1SgM1VFTDqkI6b59xW1Rg86pwElkewNIsAAggggAACCCDgroBJGBJY7pLSGgIIxFDAGrevSh12dvkj72wqvy41fRGQL3ze03HT3Mt86czHTkhg+YhNVwgggAACCCCAAALlC5hsakn5tamJAAIIIKC0pWo/dENlEHZnZfWp7YuA1ubr+ZtmneFLZz51QgLLJ2i6QQABBBBAAAEEEKhMYGhNzfbKWqA2AgggEG+B1OEfUXr4nhUhGDtfUX0q+ydga2ux+eOxU/3r0dueSGB560vrCCCAAAIIIIAAAm4JHPgEZw12y5J2EEAgdgK6drhKn5SpeNxaZnGxhEbAytn5+8z1c2tDE/FuAuWRtxscNiGAAAIIIIAAAggER0CfpZwE1hvBiYhIEEAAgfAI1F1wlzvBWkl32qEVnwT0+Nxw81efOvO0GxJYnvLSOAIIIIAAAggggICbAsao37nZHm0hgAACcRCoefdlcujgBHeGmhrqTju04qfAzI6bZl/pZ4de9CUnp2dBAAEEEEAAAQQQQCAYApKg0i2XTj5QG32I0uoQZawDJDL51GXGyO+E3IbJbaTcWBBAAAEEihBINB6taj/ya+WcwN2NxTStVfm7P+ZGU7Thr4BJFQqN+qx7X/K3W/d6Y+6fe5a0hAACCCCAAAIIIFCkwIuZxtrxlnW2MeZsrew5krfqel+aXSSfsXrbMM6drh+9a/iNAAIIIFCCgE7VqtoPXuda8srpWteNLSECigZIQOcSiYclntDuwDffHwQIlVAQQAABBBBAAAEEIiJgMkq+8m8c3mbZ0wvG+pK8+TwtIkNjGAgggECwBeRcVXXn366s8fu5Hmf+9vco09nkers06L2A/B++NXXGilD+LyaB5f3jgx4QQAABBBBAAIFYCZjMXkPakum3F/LqXEurD8kcqvpYATBYBBBAoNoCcrhgzfuuVsmD3+dJJIW/fU3Zrz/gSds06r2AUfaCmjNW3eR9T+72QALLXU9aQwABBBBAAAEEYimw8av7Dautbz/BUvr9krA6UxB4nxnLRwKDRgCBIAikZ/27Ss37kmeh2E//ShWelEMTWUIpoLXamkwXpupT7t0apgFwDqww7S1iRQABBBBAAAEEAiTgHB6YTUw5TtnmPKU65Gt+XcMZqwK0gwgFAQRiKZA86D2eJq8cVD3+CKVIYIX28SUXTBnV2ZH8iQzgA2EaBN+MhWlvESsCCCCAAAIIIBAAAZOZnm7VLd+UE69L4krtGYCQCAEBBBBAQAS6rjh4zm+9tzC2yt3+XqVyzd73RQ+eCWhl5qTOWLnSsw5cbpgElsugNIcAAggggAACCERVoOkbU/bTSXOdZakj5NvbVFTHybgQQACBMApYex6k6j75Jwndn4/5hfu/qexXQpP7COMu9T5mo7an7M499Vmr27zvrPIeOISwckNaQAABBBBAAAEEIi3Qnpk6raALfzHK7CMD1ZK8YkEAAQQQCJCANeFAVfeJWyUif5JXztCtqe8jgRWgx0BZoWg1oiNZc6XU/XxZ9X2u5N+j2+eB0R0CCCCAAAIIIIBAZQJNmcb95SqCq6WVkZW1RG0EEEAAAa8ErImHqLrzbpbcleVVFwO2m7/jTGXaNw24nQ3hEEgVOoeEYRaW/4/wcOw/okQAAQQQQAABBGIr0HZpw5TmhVOek+TVU4JA8iq2jwQGjgACQRdI7Husqvv4LVVJXjk2uvGkoBMRXxECnYnUo0UUq3oRZmBVfRcQAAIIIIAAAgggEAyB1sy0SbbO/1yi4RNJMHYJUSCAAAIDCGiVOuxslX73ZQNs92917rZ/U6rQ4V+H9OSJQMqyDtenLXvIk8ZdapQZWC5B0gwCCCCAAAIIIBBWgec+O62mOTPlG5K8WiNjIHkV1h1J3AggEA8BOVQwPf+rgUheOeCJqWfEwz3io8zb9pKgD5EZWEHfQ8SHAAIIIIAAAgh4KNC8sGGeVvo66aLRw25oGgEEEEDAFQGtaj90vSSN5rjSmluN5P44Tymu8OEWZ/Xa0eqi9OkrrqleALvvmRlYu/dhKwIIIIAAAgggEEkB+ZyhWxY2/k6SV0tlgI2RHCSDQgABBCIkoOvHqiGfvy9wySuHODnrvyIkHd+haKMukQsNB3aiEwms+D42GTkCCCCAAAIIxFSgJdN4SMuixo0y/PfHlIBhI4AAAqESSB70nq7klR4+IZBx67FvV3r0gYGMjaCKF5Dk1dj8zXMuLr6GvyUDm1nzl4HeEEAAAQQQQACBeAhkFzb+VN6gfioeo2WUCCCAQPgFat//3yqx33HBH4idV/m/nKVM+5bgx0qEAwpIkmh78vEVo3VG2QMWqtIGElhVgqdbBBBAAAEEEEDATwFz1T4jsh3236XPff3sl74QQAABBMoTsMZNU3Wf+JNSqbryGqhGrXyryt11tlId26rRO326JCCJoq+nzlhxhUvNudYMCSzXKGkIAQQQQAABBBAIpoBcYXC2ZZm75bxXqWBGSFQIIIAAAr0COlWrUsd/XaUO/3DvqnD97mxS+Xs+qUzb6+GKm2h3CGjTlNpu7aHPXd6+Y2X173EOrOrvAyJAAAEEEEAAAQQ8Eeg5UftFWpsVJK88IaZRBBBAwFWBxL7HqiFfezy8yStHIz1cJY+/XukRU121oTEfBYwenhthn+Vjj0V1xQysopgohAACCCCAAAIIhE+gZeGUX8t1zT8UvsiJGAEEEIiXgDXhQFVz8mXKmnRodAZubFV44FvKfmVVdMYUo5ForV55dGNL4+GfeigXlGGTwArKniAOBBBAAAEEEEDAJQGzWCWyTzU657uK0Cchl3BoBgEEEAiQgK4fo9Lvvlwl9zteKR3NA6TsF/+kCo98L0DqhFKsgNZ6Vur05fcWW97rciSwvBamfQQQQAABBBBAwEcB8+39hrW2d/xLrjQ42cdu6QoBBBBAoBSBZI2qOeMalZw2T6lE9E9PaLKvqMKKz8oVCjeXokTZ6gu8kDp9xb4yG0veVlR/IYFV/X1ABAgggAACCCCAgCsCrZdNmmgXkk9IYyNcaZBGEEAAAQRcFdA1Q1XtR36trAkHKWUlXG078I2ZgrLXyGysR/8r8KES4A6BlE6O1affE4jMIwmsHfuFewgggAACCCCAQGgFWi9720RT6FwjX5GmQzsIAkcAAQQiKaCVNW6qqj3nt0rXj4vkCEsblFGF+y5W9msPSLVATOwpLfz4lb4xfcaKc4IwbBJYQdgLxIAAAggggAACCFQg0HZpwxTb1k+TvKoAkaoIIICAywJ66DiVfOcHVXrORZE9v1VFZDIjq/DgQklkPahUob2ipqjsrYAksAKROwpEEN5S0zoCCCCAAAIIIBBdASd5VbCtZ+Vb7GR0R8nIEEAAgTAIaKVH7a0SU2er9NwvKj1kVBiCDkSM9to7lP3Czco0rZV/Z4VAxEQQOwRsW51cu2DFnTvWVOceCazquNMrAggggAACCCBQscD2zKTRCZ3cIA3VVtwYDSCAAAIIlC6QrFWJSYdK0mqWSr7jDKWHji+9DWrsEMhnlb1+qczKul+pbc8o07ZpxzbuVVNgm8zCqnpGlgRWNR8C9I0AAggggAACCJQpYL43qS7bnHxVqnPC9jINqYYAAgiUKuAcFugkrKyGd6nE3ocpa085Gbu2Sm2G8sUKtG/pmpVlWl5SJiv/8to2KpVrUSaX7frdfb9FDkHsKLZFypUnYFLZmmH6nCUCX72FqebVs6dnBBBAAAEEEECgLAE515WW5NXTUpnkVVmCVEIAAQT6CFhJpRM9179IyYRWJyGVqlHW+P2VtccBKjFhutIjJyo9Qm5DRvepyF3PBWpHK+3cxr9zkK7kP6OTxMq3K2N3yu82+TsnN/kt97vWdTZL0iurTMc2pTq3K+P83S4X13MSYvK3ctYbe5B+YrtZdw5pz8jov1JNARJY1dSnbwQQQAABBBBAoAyBloVTVmllJpdRlSoIIBA1AUm26NSQ7lElUl2JF+cPnaxRypK/nSVd152Uke06IeudRRI0vdt1Wur3zCLS6aHd2y1p11nvLJLgUXKoXNfylu3SrrNIP139Ofedfp04ZNHpeudn131lJbp/Oz9773f1udN2+VPrnrLa+aNndpNzX/Xcl9i62n3LdlnXVcbZ1LO9624//Tox9bbbG4uUZQmzgOzThDxG5eY8UnZe+lu3c5muv53zbxUkAeb8tnPyS5JgJt91X9nyW04235UAk2SXcWaDOUkw+W2cRJiTFGt7o7t+v42He6Wl9QdlBFVNYBW9H8NNTfQIIIAAAggggEA0BJoXNf5MG3V+NEbDKGItIIkDnXISHLIkZfaLM/NFFp2SpEhP4kXXyHYnWSGzY3RvAsXZ3psgqZFkS08iQtcM76rvlNfOemdxyjn1nMRG73ZJjuiansTLzu0mexIvvWWdNnqTIn0/Fnet6/ko9eZ2KbpLGacBZ9m17I52B9jeW6drc+/Htt7fTpN97jtlWBBAICACMhvMmcllnN955ZygvvDYtd3rAhJhWWHIN2edieSeQ997z+tl1XehEq96LiDSBAIIIIAAAggg4IdAdmHjp+Tt8E/96Is+QiwgiaHUUeep1NwvdCeDQjwUQkcAAQSiIuDM2Mr/5f1hT2T9WE7mfmG19gmHEFZLnn4RQAABBBBAAIESBJozUw8yqkDyqgSzWBaV2UlDvrBazhnD6dFiuf8ZNAIIBFZA142Tq1TuXTDN6/oc1xrYcAcK7ISBNvix3jk4mAUBBBBAAAEEEEAgwAIbv73fMK0LSwMcIqEFRKDuI78heRWQfUEYCCCAwC4CxoT9KLip5pZjxu8yLp9WkMDyCZpuEEAAAQQQQACBcgRMRll1HR2Lpe64cupTJz4CiWlzlDXp0PgMmJEigAACIRIwW/6lTHZD2HMwOmenPlAt9rDjVcuNfhFAAAEEEEAAAV8EslbjOcqoE33pjE5CK6Brh6uaM38U2vgJHAEEEIi2gJwE4IGMnP9Krm4Y9kWrU6o1BBJY1ZKnXwQQQAABBBBAYBABk2msleTVdYMUYzMCytrr7Uqne67ohwcCCCCAQKAECo9eo0zbpkDFVEEws80dJ9VUUL/sqiSwyqajIgIIIIAAAggg4K1AVqt10kPYz5fhLRKtdwnYGx5VqpBDAwEEEEAgYAJO8sp+4daARVVRODX5ttZjKmqhzMpchbBMOKohgAACCCCAAAJeCjRnGhZJ+1U7UaqXY6Nt9wVMR7Nq/e47VfKY81V69r9LB+Q93VemRQQQQKBHwM7LjKrXlZJZVaZto/x+Q35vltsbSrXLuuxrSuWa5ZBBu/sWMTjbqFkypGV+D4v/bH6L0x8CCCCAAAIIIDCIwObMtOE1Oi/viFV6kKJsRqBfgeS+85XVcET3Ni1v+dNDu+7rREqpZF33/fQQpazuAzJ0zTBZJ+WcsrXdZVWiRulk34dgz/bu2t1le+87v526vYmzrvtdG2VVn4M+etfLOqd019Jvvb5tOaV6SvfbVp+y3S3yEwEE4ipgTM95piRxZDvnm5K/u347iST5WxJKpmO7JJkk2SQ31fq6Mp1N3Qmnzm09CagtXeXiSljMuOVV977UGStmFFPWzTI9/wncbJK2EEAAAQQQQAABBCoRyC6ccq9Rxvc3hpXETF0EAiGQlKSb1XOQiZOgcxJlTtIu0ZOIS9VK0i7RFapOOdt7kl+95w9zyqe7E3xK1unexFlNz/nFtNRN9SQAE9KPJPm6Fqdf529pWyelD2fpShb29tsdi7Na9/Tv3Fe9sTrt9ib3+tveVbYnbieJ15vI6y3r1HXacJau+z1Jw53a7frw17d+1/2ej4S9sXS3wk8Eqi+Qa5Hkksxikt+q0K5UvlWSTluVchJOzqynXFYSURu7E1IdW7t/253VjzsOEWhlUvnOen3W6jY/h8shhH5q0xcCCCCAAAIIIDCIQPPCxveTvBoEic0IDCSQ75D5Fh3dWzvlw60sMv+CpVgBSfS9mWBzkn29iTIn2ecskhzTqZ6knTNDrzeB5szq686O9UnwSeKwNynWlRTsSZT1JgCduj0JQC0JwN7ZgL0Jwq6+nRicbp12nISgszj3e+PqXeekGnvvO+32s723vnZmHfYm+3oTm9KsTva0L2PV9WOln56EYFen/PBawLRsUKblJWW2PKXM5seV2fqUJKwkacUSTAGjdC5Z+zYJTk7A6N9CAss/a3pCAAEEEEAAAQR2K2CumVaT3Zq/ereF2IgAAgh4JVDo7DrKqqv5XN+JFXKoVc8Sj4SgJMRGT1aJ8fsra9I7lTX5CJWY+I4dibFeDH6XLWBa1ivz2gPKvPGQMpseVUZmV7GETMCYwyViElgh222EiwACCCCAAAIIuCKQ3Vr4nDQ00ZXGaAQBBBBAoEwBmQe7ZZ3Ky009fVdXG7pmqLImHqqSbz9NJQ96DzO0SpYV09cfUva6O7sTVnKic5ZwC8gePUVG8As/R9Ezj9PPLukLAQQQQAABBBBAYGeB5ismjNO52pdkfc8JdHYuwd8IIIAAAoEQkMMgE5MOVTXvvVrp4RMCEVJQgzDbnlWFf/1Mme3PK+WcPJ0lSgLN6TNWDPdzQCSw/NSmLwQQQAABBBBAYAABOffVD+SN2UUDbGY1AggggEDgBLSyRu2tas7+pbLGTAlcdFULSK725ySt7LV3dJ+AvWqB0LHXAqm69hH65AeavO6nt30SWL0S/EYAAQQQQAABBKok0HTFxDFWLsXxFFXyp1sEEECgUgFr3L6q7tybZQ7tsEqbCm/9XLPKr/qCMttkthVLLAQKKtFYd8bSdX4Ntuf6qn51Rz8IIIAAAggggAACOwvozvSindfxNwIIIIBAeATsjc+p7HfernIrr1HKLoQn8IojlTMhNa1V+f87TeX+fCrJq4o9w9VA0spN8zNiZmD5qU1fCCCAAAIIIIDATgLms3LlwbFcK3wnFv5EAAEEQiug68eouvP+qLQcXhjdRRJXm59QhX9crkz21egOk5HtXsCYH6XPXPnvuy/k3lZmYLlnSUsIIIAAAggggEDJAtkx+e+UXIkKCCCAAAKBFTDZzar12jkq//htgY2xksDM9hdUfsXn5PbvJK8qgYxAXaP1fD+HkfSzM/pCAAEEEEAAAQQQ2ElAq8/ttIY/EUAAAQTCLmCM6vjjF5S94RGVPjET9tF0x59vU4VHv6/sdUuiMR5GUbGAHNK3vzzUtdbKVNxYEQ0wA6sIJIoggAACCCCAAAJeCDRnppzvRbu0iQACCCAQBAGjcg/eoDoWX6CUfMoP82KvvV3l5DxXJK/CvBc9in3h3IRHLe/SLAmsXUhYgQACCCCAAAII+COgtbnSn57oBQEEEECgWgL5p+9S7b85R7oPYRIrn1X5u89VhYf/U6lCe7UI6TfIAgdu9C2v5FtHQfYmNgQQQAABBBBAwG+B5kXTpkufo/3ul/4QQAABBPwXKKy5V7X/9jz/O66gR3vNrXJlwffIVQZfrKAVqkZeYNw43/JKvnUU+Z3GABFAAAEEEEAAgRIEtMpfW0JxiiKAAAIIhFyg8Pxy1fnXy4M/ikKnyq/8vCr88wcyaawQ/HiJsKoCua35/fwKgASWX9L0gwACCCCAAAII9Ag8kZmeliNJjgQEAQQQQCBeArnV/6PMpjWBHbRpWqtyt58iMf4zsDESWMAECol3+hURCSy/pOkHAQQQQAABBBDoEZhitTonbx8CCAIIIIBA/ARaf3pCIAdtr71Dznf1MTnXVWcg4yOogApY6lC/IiOB5Zc0/SCAAAIIIIAAAj0CxpizwUAAAQQQiKmAXVC5e38cqME7J2kvPPydQMVEMKEROMCvSElg+SVNPwgggAACCCCAgAhsz0wabZQ5AgwEEEAAgfgKdK78oZxfyq4+gJ1T+eWfUfba26sfCxGEUkCurbmvX4GTwPJLmn4QQAABBBBAAAERsKzUmUrpJBgIIIAAAjEWyLerzmVXVxegc7vK//Wjymx5srpx0HuoBbRSe/s1ABJYfknTDwIIIIAAAgggIALamA8AgQACCCCAQP6R31cPoX2Lyi35iDLZV6oXAz1HRcC3vJJvHUVlzzAOBBBAAAEEEECgXIH1X5hUJ3XnllufeggggAAC0REw2c0q/8wS/wfUsU3l7pTJwJ1N/vdNjwhUIEACqwI8qiKAAAIIIIAAAqUIjByRPErKy2x7FgQQQAABBJTKP3iDvwxO8uqO04Jx/i1/R05vERAggRWBncgQEEAAAQQQQCAcAgmtTw5HpESJAAIIIOCHQOGlvyuVa/OjK+mnRZJXp0vySk67zYJACAVIYIVwpxEyAggggAACCIRPQD4uaFubD4cvciJGAAEEEPBMoCBXAXxhhWfNv9lwvlUOG1zAzKs3QbgTRgESWGHca8SMAAIIIIAAAqETaLl42lhl1J6hC5yAEUAAAQQ8FSg8t9zT9pUpqPzST8rxij7N9PJ2NLQeYwESWDHe+QwdAQQQQAABBPwTsOpyk/zrjZ4QQAABBMIiYK97wNNQ8/d+RZmWDZ72QeMI+CFAAssPZfpAAAEEEEAAgdgLGKNPjD0CAAgggAACuwjYW9Yp09G8y3o3VhQe+5EyGx92oynaQKDqAiSwqr4LCAABBBBAAAEEYiLA+a9isqMZJgIIIFCagFFm6/rSqhRR2n55mbKfv6mIkhRBIBwCJLDCsZ+IEgEEEEAAAQRCLGAyKinhHxjiIRA6AggggICHAqbpVVdbN62vqcKDC6VNrjjoKiyNVVWABFZV+ekcAQQQQAABBOIhMG1IPMbJKBFAAAEEyhEwza+XU63/OnZOFZZ9uv9trEXAZQGtlG8nWCOB5fLOozkEEEAAAQQQQGBngc259mE7r+NvBBBAAAEEegVM02u9dyv+XXjsWjmn1taK26EBBIoRMNo8XUw5N8qQwHJDkTYQQAABBBBAAIHdCNSmU8fuZjObEEAAAQRiLmA6mlwRMFueUPaa21xpi0YQKErAVk8VVc6FQiSwXECkCQQQQAABBBBAYLcCxhy32+1sRAABBBCItYDJt7swfqPyKz7nQjs0gUAJAlr9q4TSFRUlgVURH5URQAABBBBAAIEiBLSaVUQpiiCAAAIIxFXAcq71UdmSv/crcs72QmWNUBuBUgUs64FSq5RbngRWuXLUQwABBBBAAAEEiheYUnxRSiKAAAIIxE1Apyq71ofZ+rQybzwUNzbGGwCBVK7jGb/CIIHllzT9IIAAAggggAACCCCAAAIIINCPgB42vp+1xa8q3H+JFDbFV6AkAq4JNPk27Y8Elms7jYYQQAABBBBAAAEEEEAAAQQQKF1AD9uj9Eo9NQrP3KhM28ay61MRgYoExo2zK6pfQmUSWCVgURQBBBBAMabisQAAQABJREFUAAEEEEAAAQQQQAABtwXKTmDlW5X9zG/dDof2ECheYO5yZmAVr0VJBBBAAAEEEEAAAQQQQAABBMIrYI2YWFbwhSf+R6l8W1l1qYRAxQJardfav2NXmYFV8R6jAQQQQAABBBBAYGABk5k0euCtbEEAAQQQiLuATg9VeviepTPIYYP2mttKr0cNBNwSMGalW00V0w4JrGKUKIMAAggggAACCJQp0GpZXIGwTDuqIYAAAnEQsCYdqpQu/aN54ekb5bztvh29FYddwRhLFdDqr6VWqaR86c+SSnqjLgIIIIAAAgggEDMB2+jhMRsyw0UAAQQQKEEgMXVWCaV7irZvUfba20uvRw0EXBRIJRL3u9jcoE2RwBqUiAIIIIAAAggggED5ApaxhpVfm5oIIIAAAlEXSOx7bMlDtJ/7ncy+8u3ibyXHR4V4CGSz1jY/R0oCy09t+kIAAQQQQACB2AkYrUlgxW6vM2AEEECgOAFrdKOyxk4trnBvqUKHKjy3uPcvfiNQNYH6kWkSWFXTp2MEEEAAAQQQQMBlAaPsoS43SXMIIIAAAhERSOw7r+SR2K+sKrkOFRBwXUCrJ/XJd3a43u5uGmQG1m5w2IQAAggggAACCFQsoFVNxW3QAAIIIIBAJAWShywoeVz2k9eVXIcKCLgtYIzy/SRsJLDc3ou0hwACCCCAAAII9BHQyqT7/MldBBBAAAEEugR03Uhl7XFAyRom+0rJdaiAgNsClrGXut3mYO2RwBpMiO0IIIAAAggggEAFAlopElgV+FEVAQQQiKqAlvNfsSAQVoGC0mv8jp0Elt/i9IcAAggggAACsRKwjdUcqwEzWAQQQACBogSS7zijqHJ9C9lv/KPvn9xHoFoCHTVjrBf97pwElt/i9IcAAggggAACsRKwjFoXqwEzWAQQQACBwQW0pVLlnP/q2d8N3jYlEPBYwCizXM9bnve4m12aJ4G1CwkrEEAAAQQQQAAB9wRMyrzkXmu0hAACCCAQBQFdIxeoTZZ+jQ+z6dEoDJ8xhFzAMnpJNYZAAqsa6vSJAAIIIIAAArERqB/b+WxsBstAEUAAAQSKErAmvbOocrsUMoVdVrECAd8FLLXa9z6lQxJY1VCnTwQQQAABBBCIjYD+1CutsRksA0UAAQQQKEogPe+LRZXrW8i0vKyUsfuu4j4C1RBoT+bHP1iNjklgVUOdPhFAAAEEEEAAAQQQQAABBGIrYO15cMljt1+8veQ6VEDAbQGt9d/0WX+oylRAElhu703aQwABBBBAAAEEEEAAAQQQQGAggVTdQFt2u968dt9ut7MRAZ8E7vapn126IYG1CwkrEEAAAQQQQAABdwWMUk+52yKtIYAAAgiEVSA944LSQy90KNP2Run1qIGA2wIFe6XbTRbbHgmsYqUohwACCCCAAAIIlCmglbqhzKpUQwABBBCImEDyqHNLHpF54x9K5dtLrkcFBNwWyKXUerfbLLY9EljFSlEOAQQQQAABBBAoUyBh1O/LrEo1BBBAAIGICeh0fckj0nscoVQiXXI9KiDgssDqIe9bWbUEVtLlwdAcAggggAACCCCAwE4C8p35ttRO6/gTAQQQQCB+AjqR7lDaumyQkY/cZbuVVqnjf5nO/fXc81Who2aX7axAwGMBY9Ti9L/mfVCpFR73NHDzMqOdBQEEEEAAAQQQQMBrgZaFU+Skp2a+1/3QPgIIIIBAYAVMwahjRmTW3h/YCAkMgQALcAhhgHcOoSGAAAIIIIBAdARe3ZR4t9Jqqdyqcunp6EgyEgQQQCB0AkZmjrxoLHMcyavQ7TsCDpAAM7ACtDMIBQEEEEAAAQSiL2AyjSNbkvrtyYKdiP5oGSECCCAQb4FOY2XzKvH0mMzzTfGWYPQIIIAAAggggAACCCCAAAIIIIAAAggggAACCCCAAAIIIIAAAggggAACCCCAAAIIIIAAAggggAACCCCAAAIIIIAAAggggAACCCCAAAIIIIAAAggggAACCCCAAAIIIIAAAggggAACCCCAAAIIIIAAAggggAACCCCAAAIIIIAAAggggAACCCCAAAIIIIAAAggggAACCCCAAAIIIIAAAggggAACCCCAAAIIIIAAAggggAACCCCAAAIIIIAAAggggAACCCCAAAIIIIAAAggggAACCCCAAAIIIIAAAggggAACCCCAAAIIIIAAAggggAACCCCAAAIIIIAAAggggAACCCCAAAIIIIAAAggggAACCCCAAAIIIIAAAggggAACCCCAAAIIIIAAAggggAACCCCAAAIIIIAAAggggAACCCCAAAIIIIAAAggggAACCCCAAAIIIIAAAggggAACCCCAAAIIIIAAAggggAACCCCAAAIIIIAAAggggAACCCCAAAIIIIAAAggggAACCCCAAAIIIIAAAggggAACCCCAAAIIIIAAAggggAACCCCAAAIIIIAAAggggAACCCCAAAIIIIAAAggggAACCCCAAAIIIIAAAggggAACCCCAAAIIIIAAAggggAACCCCAAAIIIIAAAggggAACCCCAAAIIIIAAAggggAACCCCAAAIIIIAAAggggAACCCCAAAIIIIAAAggggAACCCCAAAIIIIAAAggggAACCCCAAAIIIIAAAggggAACCCCAAAIIIIAAAggggAACCCCAAAIIIIAAAggggAACCCCAAAIIIIAAAggggAACCCCAAAIIIIAAAggggAACCCCAAAIIIIAAAggggAACCCCAAAIIIIAAAggggAACCCCAAAIIIIAAAggggAACCCCAAAIIIIAAAggggAACCCCAAAIIIIAAAggggAACCCCAAAIIIIAAAggggAACCCCAAAIIIIAAAggggAACCCCAAAIIIIAAAggggAACCCCAAAIIIIAAAggggAACCCCAAAIIIIAAAggggAACCCCAAAIIIIAAAggggAACCCCAAAIIIIAAAggggAACCCCAAAIIIIAAAggggAACCCCAAAIIIIAAAggggAACCCCAAAIIIIAAAggggAACCCCAAAIIIIAAAggggAACCCCAAAIIIIAAAggggAACCCCAAAIIIIAAAggggAACCCCAAAIIIIAAAgggEHMBHfPxM3wEEChR4LDDDksNGTJy30SiMNmyrD1t295DKatWmpGbnZffbVprY9uqVn5ZxugO+d1qjLUlkVAbpPxLUub55cuXO2VZEEAAAQQQQAABBBBAAAEEEBhUIJQJrAULFiS2bNkyVj4kj5YPw6NyuVx770gtK10v9/PG5Fpqa2u3LVmyZH3vNn4jgEBpAjNmzBiWTNZ8QGv1HqVMo9Te0xg1Sv62Smtpl9IFWbNF2nlVEl3PW5a6rb29/Q+rV69u26UkKxBAAAEEEEAAgQgIHHfccSM6Ojqm+jGUVatWPexHP/SBAAII+CkQ6ATW7NmzD5YZHmfLB+b3ygfdkUrpIYLjzPRIy63o2KV+p9R3Phi3yu0NqfoXmRFy47Jly56Qv1kQQKCPwLx58+YbYzLyPJkuq+V5V/xzrU8zJd+V56ktz9Ot0t2D8vy8WJ6fj5bcCBUQQAABBBBAAIGACsyde+x/yxeCn/AjvOXLlxX9WcmPeOgDAQQQcEMgUC9skrDaO5FI/EQ+yJ4sg/Mltu4PzfqWZNL60t133+0c2hS7Ze7cec0y6KEeD7xD/pE6yUeWAArIN4KTCwX7r5K42lfC8+W5VwSDkTIrksnE++S5ub2I8pEqIonEo+T16X4/BhWkN7nyerRKxjzT+3Gb4+Uw1ru976e8HubOnXuhPBWvLa+2Z7Wc5+RbFudwYVkhs57N4xLvvXIY8V/GjRu39A9/+EPnWwryx6ACcnj2kGHDhmcHLUgBEdB/XL586elBopgzZ+4b8nwY53VMtq3/beXKpUu87of23ReQ1/Wh8n+9SR4nPr3P0lfL8+TL7o8kOi3Ke45XZTQTIjCivv+ft0iS9A8ypv+S9zlPR2BsZQ1B3kefIc+3m8qqHMNK8qp0nEweuMevoR977LFH2rb5vfTXsGuf+v/y+c5z7r33XpnYsOuS3HWVf2vkhdxJaEyT23XyZuQIp2d5oPm6yM6SQ6HMmfl84Ux5EXP6Xyrvxy9sbm5+4aGHHsr5Gkz1OvPpH2n1BkjPuwo4b6Tk3FUXyOP/Snn8V/W1YNfoutY4j8u5Ets2J8kqz9Vz5bDg2++8886OAcpHarUkBGT8PDUjtVNLGowlO9/nf4iDx7fLA7L7cdo1K/owiVdu+qKNGzcp5/9pz7JJ1v2iUMj9Sr6gekXeTDvJ6MANrDdYfodGYJfHYrUj9y0nUe2B0n/ZAvIYOVsq+/jYNedLfySwdr/HfNwfuw+kwq19xzFGHmby/l5d0PO/uCCPvV/J++jLx4wZs54vmCqUpnolAnr+/PnvkkkTyyR5VTNwQ+aUZDK1Zc6ceU9KXmaOvHeU95I7lkrPY7OjpRLuObM9JKDL5cnVJDfnW9uu5FUJTXhWVJ7cx0o8Tw0dOrxdMrdflQ/5UcjKe+ZFw+ETmDVr1jh5bH+v+/lnvisjCGLyamfYYc63KK2t7U2Ssb/g6KOPrtu5AH8jgEAgBcZKvupriUTyCXnN2SpvprfI68/V8jx+p/x/db7EYkEAAQQiLyCvd0l5H3OZzwMdJq+3gZqp6PP46a5bICFfNp0rCYPn5QumDjmM9fszZ85/GzgI+Cyg5fXo25K8uk/67UpeyWvis3L7obxPPE1yMHNlYsUC+X29bF/nxCb3D5SfG6XeDOfv3sXXD67y4n2IdPxNmVHhBBnoReKTq6epb2ttXSlx/0rOxXXZ0qVLXwh00ASHwG4ETjrppBo5UfrX5XH9DbkF/BnY/0DkeZmWf8A/Sadrr54z59gLVqxYemP/JVmLAAIBFRgprz9flDfTX5Q3JQVJaP1O3rj8j8R6r3zDxpVJA7rTCAsBBCoWOFxa8PwQ052jlMncTtLslp3X83ecBcznk0nzeUlk/V0eH19fseIe53QKzIyO80PCh7HL+z3nNFGf6unqeWPsc1asWLG6n667DvuU/MuZ8j7x57J9lNRbNWfO/H+Tx+pfnfK+zMCSc1vtK0+SP0sQj8jttH4CDewqeZMtRvpjhYJ5ViBvPOGEE8YHNlgCQ2AAAXnsfrStrX2zvABcIkVCmbzqOzRJZA2RKaW/khfDpyQrf1TfbdxHAIHQCCQk0g/JS9Iyub0m7xOu5H9saPYdgSKAQGkC15RW3K3SZv/Zs487wK3WaCdKAuYIre0l8r/3UZkVfUKURsZYgiUgkw4+IhH1JK/MX8eNGzt9gOTVm4HLl5qSyDL7yIr1ctOWZW6Vww/3cAp4OgPLmfEhH5p/Jh+aJWgnERTexZmRJXYf7uzMLZAn+rVyUsSvyGjIVod3l8YicklcySGw2slkv2XqZYQGv7+8vvxNkli/kGTzhczgiNCeZShxE5Bzdpj/6OjIOYfuL0kmkxfKxRvWxA2B8SKAQPQEZs6cOUrei1XrdCnywc9eJKoLoifLiNwRMAfbtrpLLkSxyrbrzli16s6N7rRLKwh0CVgy6eBnPRbPy4V+Ttq4cWNqN19YZpcsWZJ1ysvnOjkP8lznMMIm+Zw3JJ83v5XV8z1LKkln75fk1WvSyUe7kz9OGJFY5JhN8yWZ+bFBxuhMB2ZBIJACs2fPO0+e8M4HwKgmr3rd5dh+db6Mde3s2cc7V1FkQQCBkAr0fFl0opxq4AU5V+YD8q3wxJAOhbARQACBLoFUKnVVdSnMqUcdddTw6sZA70EXkBO9z0ok2jc45ykKeqzEFx4BmfhzhURbJ48vu6Oj/Si5iEBB/j5DJgW93t8tl8s1SZ2HJc8y0hmlJLFa5L3hPOe+LHPl8bmf6wksZ9aVdHqffJj8X+mkq+Ou7qL3Y08Z44OC6Fz+kQWBwAgsWLAgIc/BOyxL/UKCitPJzidaVv5JeU6eE5idQSAIIFC2gLxhOVIO339JntN3HXbYYamyG6IiAgggUEWB7i/ZqhiAnDC5tnbIhVWNgM7DIpCSx6vMhJ63VhIIXGglLHst0HGa9zvhyQyqJ1evXr1lsFDl8Sf5KXOolPtTb9lly5atcu47X3LKeds+7WoCy7m6oMy6apdOj3b66O00wr+1IJ8lT/I35JhMOfyBBYHqCsh0zPo33tgkLw7mpOpGUrXenav83CAJPCeBHofXoKpB0zECfgh0v1lRJwwbNrxT3kzL+bJ4XvvhTh8IIOCOQM/rljuNVdCKvJbKhTN4/ayAMG5VG+Th0jJ37nHvitvAGa97AvL6l5SZV5OdFhMJy3kPt8vS3NxUv3z5Mu3c5POr82Xliu5CepbUlytZdy22fL673rknhyPOci2BJR18Sqb8r+vuI3Y/x8klITeKwYmxGzkDDozAzJnHTZapmM40S6aJK/MBSSw/58wIDcwOIhAEEKhQQP9aktNP9HlDU2F7VEcAAQS8FZDZAtd520PRrY+VEynzOaVoLgqKgFxopbBa/udeJPf5UpiHRMkCkrx6R/cF8ZS65557HhusATlcMC/Xz1vYXzlJXHXNyJJE1tSKE1jyoE7KTU4SrX/aX2cxWidPbH2nWHxNxsyTPEY7PghDlRmAs1Ip+8UgxBKgGKa2t3c8KTNDRwQoJkJBAIGKBMwB8i92o7zmHV9RM1RGAAEEPBaYNWv+gfKlYtrjbopuXj4AfksK8xmlaDEKdgvoH8iXR9+V+xXnDRCNl4Akr+QCFsUvct7TBrnoxAd7atwvCa1NvbVt236j5/7Qih6IzuFK0tBKeS08o7dxfuur5HwdcU/m8TDwUUC+UTtVZgAu7c1w+9h14LsSk31yucLD3VcACny4BIgAAkUKyGuec+nv70txPowVaUYxBBDwVyCZtG/0t8dBeztKvtSbMmgpCiCwi4D5kny+/fIuq1mBwG4EZAZW8242d20aPnz4oTIB6HDnJp/bPi4zrD4pG7ZZlv5A37qJRGJCz99tZSewnFkNcrjS/fLe0TnfFUsfAYE/Xy5F+uc+q7iLgCcC8s/kPfKN2s3SeNKTDiLQqHz7uU8ikbpXDifk0MoI7E+GgMAOAfN5OVR4ydFHHx2ni1XsGD73EEAgsALyujRaPg8cHLQA5Us950gRFgRKFpDH87fnzJk/q+SKVIitgCSknpDBGwfAOVd6fxDyuLpX8kl/d25y/xIpky0U9PylS5eu61vettV7nb+lzEtlJbBmzJgxTM53JckrdVDfhrm/Q0Ayjqc4V07asYZ7CLgrIP9EjpYn8WJplatzDUIrSawDW1vb7uZKZoNAsRmB8AkcV1NT+6DzviR8oRMxAghEVaCmpubbMrbAvT+T90OfPPXUU4dE1Z1xeSugtb1MrnYemMNivR0trVcqIIcAtshn1VeddiR39PP+2ksmEyPlRO7ymDJHONulvE6l1Os7lbXktavr0ELLUg+UnMCaPn16OpVKPyKN7r9Tw/y5k4DsgBNkOpycH4wFAXcF5HHVaFnmbmmVk5QXSStJ5SOGDRvmzFZjQQCBaAkcJO9LnpTXxaHRGhajQQCBkArIoc36zIDGrpubs2cFNDbCCr5AYtOmTY8HP0wiDIqAJJycz6vOcpykp3Y57cPWrVtzDz30UE6SXQ/J6+YvJVE1RM535VxN/s1FJgU5M/+6vhCQWV3XlZrA0uPGjX9YGpj6ZovcGURAnzFnzryrBynEZgSKFui+sp5+TJ7AfINWtFpvQX2qnDPs071/8RsBBCIjMEne+KxllmVk9icDQSC0AvK+3zmHy8igDkDeP/4iqLERV/AFZILG2+QLo48HP1IiDIJAU1PTJySOvNwSc+fOf2A3MZmOjrbPyPYOeT83S07o/pEdZfVS574kt56URNe9JSWwJPv1G6k7fUdj3CtGQLC/OHv2vHOKKUsZBAYTaGtrl2OFFYfLDAY1wHY5Z9iPnatcDLCZ1QggEF6BMcOHj3hewt/lG77wDonIEUAgbALyvv9zQY5Z4rN4HxTkPRSG2PTVksRKhiFSYqyugDO7St6WXdsdhTlC8kk/lqNinpZ1MsHHuSnZ3r2sXr26zbYLciihvlrOefUOZ2a9fCHwuiTd5RBCbUuprtmjRSewZNbCRyTj2nXsYW8n/C5eQKbP3TB79uyDi69BSQR2FZCrbjlZ7MN33cKaUgRs26x1DocupQ5lEUAg+ALyJmeynNidi6gEf1cRIQKRFHDOTyoDC/yX/fI+aFUkdwCD8ktghHR0pV+d0U+4BZYvX/oFGcG/nFFIPunTcrsqnU5+R9Z/uTvBtWN8K1eufFzWf0Up+9eSyHpJEu7ju7eay5ctW+acFF4VlcCSxMu+Mmvhuh1Nc68cActKrDzhhBPqy6lLHQTk27KJ8rT/byTcERg7dlzvMdnuNEgrCCAQFIF3c6hwUHYFcSAQLwGZJPClkIx40lFHHcXVmUOys4IZpr6Az7XB3DNBjGr58mXvkM+xvYnz4zo7c6/LxIwb5bDCE2VW1n4y26pRbofI7UPyRaRzVULnnOujuseir5Lk1Td7xzVoAsuZpSCJl2VSgWmCvWrl/x7Z2dnpnJSMwxvKN4xtzULBPBjbwXswcJmKOlNeJE/xoGmaRACBKgvIl27/xaznKu8EukcgZgIzZhy/lwz59JAMW9fVDen3qmAhiZ8wqy8wVD7XXlD9MIggJAK2fO6aK2mQSyTensMGzYdlptWdMiPLOaTwxe6klZaZV+qwnjG9JjOwTpQZWRf3/N31a9AE1vjx438qJWXmB4s7AvrU2bOPPd6dtmglLgKSob5MnsDOG6MgLisktm9JVv1U+X24XA61oVDIS6zmAGPsY4zRzvnffiS3tQEL3rlK0C856XPA9grhIOCOQEq+fLtNLvedcKc5WkEAAQR2L5BO5z8qJcL0JfW7Qxbv7ncAW30XkPf4zvnewvSY992IDncIZDIZW5JRlyUS1t6StHJmVL22Y+uOe7LtYflM+dG6utpGmXl1144t3fd2O6tKpnPNkRNofVQaYHFRwLLMHdLcbu1d7I6mQi4wc+ZMmT5pgjYl/TZJTn1bZjHJccrLWwYgfrVn/Wr5faPcPiuHQe4ll0adqbX1PTlXTRAScnLS5+H/KbFd1BMrvxBAIDoCUzZu3Og8v51zL7AggAACngnIxILang9knvXhQcNDJe6L5H3cDzxomyZjICA5gsly3rfDV6y4Rw75iu2yVj6nnRb20cshfS/4NYZ77rnndenrUud2zDEnjE+nO0fbdjKlVGd7Op1+4+67796+u1gGTKJIhsxavnzFjfLAHHSW1u468H6blmMp7UflyoxyYrBCXj5QT5ak2+ES9yzpO6hXapPLSM67W44FPc57H3oIu0AymbxBxlAbgHEYeYFeJPF8f7AXlgFiNUuXLt0g234vt8UzZszYM5VK3yP39x+gvC+r5Q3np+UN3JXyBq7fbwF8CYJOEKiCgPyfvEL+Z95fTNdSLieHCrxUU1PTXigURskFYabI64FzQYmT5XeAL1CiPztz5vyf3HvvPc8WM864lJF9/yHZp81hHa/Ezut1WHdeROOWL+WOkMdlbfiGpy+UmElghW/HBSZirQvOYbNxTmB1yGeIfwZmh4QskPvuW/KGhOzcil4GTGCtWLHiAmll76Jb8qegfIBW98jlFc+XM9S/WGSXWj6cflGmOMobdRWkq44dK3FNkgf8y0WOg2IxFJBZkNMlwXJqtYcub8ruWLZsqTPV3K3F/O1vf3tFGjtAngcjZfaxM1urWm/8UjIj7Arp/zy3Bkc7CIRBQD5w/V2mZv+5zFgfkno3ye0/euo7/2vl8Bl9jfwdpC+PEqmU7Vz8Yk5PnPwSAcuy7pJvQDeDgQAC7gjI+4jb3GnJ91amyWv3XPk8stz3nmPVoRFfq+e8P+UM3DjHQ42U9+Pj5X937+fzgBwjpZ2cwVvOUVTOCKmDQLEC/SawjjvuuBG5XP5aeZIU247X5V62LH2+zN64s4yOjLwmXy31rpYZH8NSqZpfybfFJ8nfNWW05WYVwdXOeA52s1HaipaAJK+cw1+quWyT58sR8iH3ea+CkOen9KHq5DxfV0lfX5b7vp+zRt4MnCvv374psZBQ9mpH027UBZz/tb+UQf5SnktD5f/b7XJ/ptx8fz5Ln29Z5HV0tsT0Lonv/rds4A8EEEDABQHnc1M+XxjlQlNVakJ/TTpeXqXOY9GtHL3wvjKPXtitj/xvO0T+314phZz/t/K/tyrLyFmzZu25atUq58toFgQ8F/j/7Z0JnBxFvcene3Y3m2MTkN0EAkiIgMgCKgElJNkzB4sGRY0HIKig6FNURDk8APV5AD4BH5fkCQgeyKKgec/IkuwxuQwSRCEcEkSIHGETjmySvWam37c2124ysztH97+7Z/71+exne6qr/sevuqur/vWvf6XcHhiPJ7+K8SoI1qt1SFHHVruDczReDQEQj48uAoedRkCwCdC9m5vGo8vPdDQdT52fAijv4CLQ2Nh4FNKd7JeEvCMru7o2H8ikzzPj1WDdeDcvgec88nzZ1kKXd8FgefRaEVAEckOAPmML3+26srJS862N5UbF7Vr2rVBMOeZxm5PSUwQUgeJCIB6P3xtyjecxHTko5DoUpfh8bx/he9vEH57P1tcA4Q0/gIhGo4f4wVd5FicCew3m5s6dOxa7zjd9hqOXQe9ldXW1b8Xzo8NtWRYvXtwL3Y/g1XU4tImd5Weyr/KTu/IOLgKJhOObOy4eC7fxjsxcs2bNNkmE4LmUUwyPhudGSb6GFzp/yayiSvNVfopAoSLQ0tKylXe6li38p/L3qr96Om+rqZn9Vn9lUO6KgCJQaAiYmMEYDupDrpdxWjCxsDSFGAEWgn/EaHZ//tqk1WARuEaap/IrXgT2MmD19cX99kL4N0crHseg97vmqEUvmwavrmeqqirfwcT1Gi/5DE/bOYFVjxOHL6N3iw0BnolKPkBn+KT3DR0dbZ+Cty8eirhYP19aWvJ2jNjSq0jR/v7kKT5hrmwVgYJFoKOjdVFJiWU8Sh/yU0kCzd7uJ3/lrQgoAoWHAB4w3ykMrazztzsxFIY2xaoFz2MPfw3Mbe+WxAB+YTfiSsKlvPJEYC8DFnNW3zpiHv4H2d5XTWDRx/PUK+Pqzc3NCSbrX2GybIwFvkzY4XtRxgJrwaJAAG8Fc6KHWRETTs4i3JC/IMx0L3YPPPDAi8SlOnKvG55nJE28PB9w91wxZaAI+IqAOTKZ7zsxOpxcg8bnLT/f+XdVV1eX5U1ICSgCioAisAsB64u7LsN9Mba/v9+3sBXhhi540jO3/RhSPSMlGXP446R4KR9FYIgBq6GhYS6Q+DJ5M8Yry3JmsL1vsx/NgsfXr9hSOBs5PPX6SqUbxor3zZkzZ3Kqe5pXlAjYTLRwA5ZOzvqqqqrTpLmm48cK0stMdt+Z7r4X+bhAHzBv3rx9vaCtNBWBYkfAbN/Hu/T94PB/fmFRVTXpK37xVr6KgCJQWAjU1jbMRyNiDxVGYg50HZr4Mg8sDAQDpUWSea2JKyuSmLdMhNEQu4IIY2VSlAgMedCSSee3PqGwHkuxOSEo7hP/AbZsKWy17Ygx4okmXnqbAJBmUK9JEYgQvN0YUMQHRBivDjMeiUFqAvqERxhLXSkpU09P37mS/JSXIlBMCJjQAHh5zmei9E8/9Maz83t+8FWeioAiUHgIsPD+gwLT6sCamrlTCkynolXHhMoxDiJSAEybNs33U4eldFU+/iKwy4C1YMEC89ARwF08bSFY+xS4+rV9b4jCJog0olwwJFPgBx2M34HzBbRUFpkgkEjIP3888/UYr/oykU+6TFfXG9/CM0rMMxOD8veldVR+ikCRIeCwaPUWdO6X1tssGO0Y70izVn6KgCJQQAjgTToFdaolVKLfuhg+Iov8tt1/i4ROykMKAUtsR0dPz1T13pNq1iLns8uA1dm5yaxKSj94dMbO4V4Ha8+2jfH6uJY6GLJE0wE1NTWHinJUZgFFwDEDFcm0nme+Q5JhNrw4CZFJriMZXF1XkLJpIC2rCOSIAAe2HExV8cUrxjvmqHFNioAioAjkgYD1wzwqZ1O1h8X1q1jollpcm93U1DQqGwG1bHAR4ACVp+SkEwthLaeScgokArsMWJFI8nRpCZPJyDlMnIlzE7zEFofZSNUrKZlt25KTdEnVlFd2CJRkVzy/0uyRr4eC+CQyG6kZvK2g/Jps6uRTlm2cs/Kpr3UVAUVgZARMYHe6nm+PXNLdEngznO8uRaWmCCgCxYTAjBkzTJiHUyV0xnAVM3zYrngb/0TGat3dvborRKJxBXgkEolXBdgMsDjqqKMSUryUT3EjMGDAmj59+mi6xgMkoaBDfjgWa/uFJM9seTlOUnQSa1m2BpfNtpEKrDwu6TMlVTLvIXvkfYlFk72eziXZ18mtRiKRvCy3mlpLEVAEskGgoqLiaspvyqZOvmWJg6UHNeQLotZXBIoYgZKSss+iPnMn71N5eZk5TS7Cgv+/+LfUXHufHDVgeQ+yFAd2O3mfCPXRF7Q4ut5rrRz8QmDA06OsbPRHMeqLen04TuJclE76pXgmfDs6Oh7CoPAoxr1jMimfbxkG1VPnzp07tqWlZWu+tLR+OBHgRMpL8Q4QS9GoZeK9iazo5asU72IrOx3XQ+fgfGllUF/UeJ2BPFpEEShIBBYtWrSNk7wuwLvgDkEFR9OfHMSE8N+CPJWVIqAIFAACJoZeZ+fGLwmp8sb9998/yIPGuY45yWwJ3vTLTR0drYsleCkP7xCIx6PjS0q8n25zENxj3mkReMoT6+vrfxJ4KYcK+DK7W6S2JQ/l7MKvAaMVA8cPukArYxJM0FtisdhfM67gX0EHi/ICvFSelBKhp6fnTfBSA5YU4AHjw7vRKCjSlg0bNvxZkF9erEysvLq6Bia5zjfyIpRZ5YG+MbOiWkoRUATyQWDMmFF3d3f3/BgalfnQyaYu3/YPU97w1KQIKAKKQMYIdHZ2EnbBOjDjCnkVdIacUI7h/Y8s5BnD+0F5kc2gMnPDhRJ8MhBFi+SBQDQa58CUgQ1XeVAZuaptR1aPXKpgS+yLrSBUoQmQ1wQsC60Ba+cTfZTkI4Wn0eWS/PLhhXXyH3yonsiHRjZ1iYN1djbltWzBISAYQNz62dq1awN58mC6VsVj7Ffp7rmcH62uri5zmaaSUwQUgRQILF68uBfjvejJV8TgnJdCFM1SBBQBRWAEBCyxOUxVVdWywcJsP/TK+cXgPA+vJzc0NBziIX0lLYCAVHiaZNJSbz2B9lQW2xEowZpfghXuEMFtS+tw2w+N1wcwOe3trcbAJ7Wxy9GHszgR2OGWLub5w+pa6D42BH1+vL6+4UWM4JO9fkoYODbA409e81H6ioAiEIn090d/VlKS+LoUFnhgSWxFllInaz7E+dtYV4cjSTjSMxysc1g4RFUpCxkB5kxT0E8oVql1baqYQqNHj74Cj9WvIofX40WLbWG3wyc0HQWyahqEwJw5cyb398dnD8ry7NKykk97RlwJKwJ7IGAziHs3xqudnlh73Pbip3OfF1QFaBrDksSfgCrKIogIbNq06d2Ccjnbtm1bJcjPNVYYr6SCzp/omtBKSBFQBIZFYPnyJea9FjzuWwO5D9sgelMRUAT2QoA5k9hhS4lE/1V7CUCG8VhlTf0vqe55kDe9qalplAd0laT3CFgYr1Z6z2aAg9Pb2/ucEC9lowhEbNzopwni4PT19ZkThzQpAorAHgjwLp60R5aXP59ZvXr1Zi8ZeEUbg7tI/DwGqu/0SgelqwgoAnsjwLv94N65nuVM8IyyElYEFIGCQ8Cc2C4V54aFur8uW7bspXQgEm/oC9yT2LExatu2nsvSyaH5wUUAb8Fbke4QGQmdP61atapbhpdyUQSI6kYneKQUEHT8r61cufIVKX7KRxEIEwIMWI4TlPcZQV6usgKnFa4STEvM0i0rabHRG4qA+wgIx9AYPX/+/DHua6EUFQFFoBARKC8vny+nl3PxcLxaW1sfxn71+nBlXLz3CRPiwkV6SspDBDBcER6o/i689D7hIZs9SEeNsUyTIiCGgNk6KGSdHdDpZTHNlJEiEDIE8D6YKiUyxuQwu/qKyI6hTIO4Sz2QykcRAAHHiS+XBGLr1q0HSPJTXoqAIhBmBKzbhKR/fcyYMbGReDmO9d2Ryrhxn7Hp5I0bNw45DdENukrDfQQwXp1I0HazFf8j7lNPS7E/EkksSXtXbygCHiBgM5Gd5AHddCTDFLw9nQ6arwh4ggDv4r6eEE5NVGrlLjX3PHJxG12fR/VsqpZmU1jLKgKKQH4IxGKx9Wzd7cuPSua143HR8U/mgmlJRUARCBQCM2fOnsqilpDHpnXd9jhXw0PQ0dF27fAl3LuL7he6R00puY1AfX19LX9L8bpaSVuJLYYbPTBw3sPhbKGdU7jdFkpPBgFzAmEVD59I4tSzVhFGykQRCCECvIeSLtpvhBCiAZGj0aiTTMY9F5/2EOoZPVdFGSgCoUGAU6+28O69SUJgjGVjJfgoD0VAEQg3AtFo4gEpDQjtsjBDXiYGFkaLSGOG5fMoZk3HQFLd1ta2Ng8iWtUdBKI1NTVHMBaewxz+NEi+TdgZZYgWGMyuGpKhPxQBAQRKGChWCPAZYIHnhB6xKQW28gkjAmZLr0hi4ibGy22Furu7y0tKvHeOYkCgBiy3G0/pKQIjIMCYhO0IMglbeLkMJ+WiCCgCYUXAxBRC9kMl5Gfc0UJ8qxcy5TV6dPkHurt7pBYkv4hc52Uqm5ZzF4Ha2sZZlpU0jiBmsdviWfE9IcPKjo72R3wXRAUoOgRMpyzkEjuA7YaiQ1gVVgQyR0DQYJIM7QlcGMJFvCaYSAdgeJD5w6MlFYECQUDsvWPlOLSG/AJpa1VDEQg8Aqz33UFfITI+w/vqx9kAwlbDzQTs3kKdcdnUy6UsxorPYMy7WLeL5YJeJBKPJ16nrXKrPFArmUddb6qys0oNmt5Aq1RHQIDBm1ygYrw+TCerSRFQBFIggMFE8Otk75NChFBkWVapiOwM1gTbIxTQq5CKgAQCZmFNKvVIMVI+ioAiEEoEjJH7PTKSO+vZond/9rycj2VfJ+ca78+5plYsNASWYsx8rNCUUn3CgQAds+V9MJkdWCQSiapwwKJSKgLyCMgaTBwRd3gvULTtpFSw+4QX8itNRUARGBYBEQ9LIwGLat3DSqI3FQFFoKgRqK1tOA/vq/ESIODk9Ysc+bRTT2S8gow3LFiwQDJea46QaDWPEehl+6qQYddjTZR8KBGwGcCJxZuAl+SJh6FsEBW6qBHoFdT+LYK8XGXFAOoIVwmmIYZBUbI90kih2YpA8SDA9hTjXTlaSuN4PN4pxUv5KAKKQBgRcL4sJHUv27G+kwsvvGDMwRc35lI32zrwGfPyy69WZ1tPyxcaAs7ZmZyUWWhaqz7BQcBmZaFLShwmnidI8VI+ikDYEOBdfFFQ5kOYLFYK8nORlfMOF4mlJYXBPeNAqmmJ6A1FQBHIGAHeuZMyLuxCQeLpveQCGSWhCCgCBYgAp+7NwGAjsmAGfA9hiMp5SzPjRxEDlmlmTmS8pwCbW1XKHIHf86z+JvPiWlIRcB8Bs7f7NffJpqPoCBz1mo635isCwUaAgZLk8cTMFWUniy6iP8VFWmlJMSDUvf1p0dEbioD7CCSTkXnuU01LsZ9BuNTpXWmF0BuKgCIQTAQYA1wiJ5nziXx40Zc9Sf2H8qGReV3r8GnTpnl/FHTmAmlJOQTW19XVfkCOnXJSBFIjYAxYG1Pf8iT3SE+oKlFFoDAQWC2pBpPFsAbjFNn+iDv/Ssn22JMX3iEaRH5PUNz9LRb/0V2xC5caJ3CdKKidMV6JnXgoqJeyUgQUgTwRaGhoOJAoeU15ksm0ei8GqHWZFk5XjjHd1enuuZ1fUVGhHjhugxpweoTV2BaP97/9iiuu0LFpwNuqGMTDgOX8W0pRPD4mSvFSPopA2BDAYLFKUmY8vs5iG2G5JM98ec2dO9f0IfvnSyeT+hw6sSKTch6WKVYDi5TePR62nZLOEoGmpiYCJVvHZ1ktn+Kv51NZ6yoCikDhIpBIOJ9BO6Fg5dZn3UAyFqv8LUaGzW7QGpmGderIZbREoSDAc9XHou5bli9fLrhrq1DQUz28QAADlv2cF4RT0cQdd0xNTYNojItUcmieIhBEBFpbW5/DqCS5shHlnZwVRCzSydTbG/9Iuntu5vOxTi5btszX+DgY/KUMOW5C5wItS2SABL56Ap0LreUWiZ6enjPpj4xXuFByNIC7ENLKRhEIEwLV1dVljMUulpK5vb31dnd4NScwMtzhDq0RqUQ5ofH8EUtpgUJA4I2SEvvNeAm+XAjKqA6FgQBB3BNrJFVhi8ClkvyUlyIQJgQwnIgchbwTE8uyf8q14KRxJ+fc/ltW8rTcamZXy7b9Nx7hAbYtO6kLozRGDBEDFnw2FQZiBaGFhRafF9YkJsxP2SkCikAIEKisnGRi8Y2SEdW5z2U+V5oFOJdppiSHsUzncymRKajMp8rKSg9cunTphoLSSpUJPQIl0Wj0wWRSMgyEM9ME/1uzZk1/6NFTBRQBlxFgUr0Rz5ADXCY7HLlDOWnnnW1tbaKG7OEESndv+6mJVk26+27mO07S9xMI6Zu7EgmRcaib0LlBa7QbREai0dXVpQOykUASus+7Xcuk6yghdgNs6GfvleSnvBQBRSAUCNgslP0X25lFhGXM9xP6v6PdZIb32D+gJxFz+IBZs+pnLFvW5ne4BTfhU1o7EOCbfHdHR5vIrocCAL0XHZ4Okx70E8+ESd49ZS0x25bq6upNLIh99rzp0e99CP53HrSv94i+klUEQosAnj/X89H4nqQC8FsMPxNXKujWknOQUSQmBZPbH0q2QSpeeGARZFpmEH3SSSdNXLly5Sup5JDOY1W3UkBvRxdRpFs2Nb8FCxZEOzs3Xpv6rme5/RjtV3tGXQkrAopAKBEgePuhLOofLiU8XvCtUry84BONWj+ArsjCohfyK82UCGzlQICzYrG236W8q5mpEPhXe3vbMaluaJ43CJRsJ2thNXRO8IbF3lQdx/oauTfyF+gJs/EUq6gY37e3Bt7kJJPRY2OxJY96Q12phgGB8vLy67u7e0QNWOBShRfWF5jQ/SSoGLFCWY5R46tS8lVWVt4uxSsdH+IN9LC40MX9inRl3MovKyv/FLR8N9oZffg+TGJlyOsU6G+P18oHiX5n56tNyPN2SZkw2pv3SpMioAgoAkMQMB5RQzL0xwgIONPNiY04Q7wwQkG9HQoEnJtxMrlw0aJFRRnCIhRNpEIOIDBgwGLFexUDOjEDFpOTNzMh/TQTNBN/J7CpomICR9LKbK/E4yNp2/FQuR8GtuFCLNjixYs3Y7QQ14D3/zpO+LurpaUlEF44KQA4kzw8c2RSc3OzmOF6BI3MNjfPDVj0cxfCJxAGLL4PU0fAxI3basByA8U8adDnjO3r62/Ok0zW1W07cn/WlQqsAt6+0+LxuEi8ORegK9IDLVxATklkjIBZtGYsdErGFbSgQaAEb51L+H++whFeBBh3/YGwFRcsWbLkn+HVQiUvJgQGDFhsVbnZtqNflFXcuhYj1m8wYpntiwFMDj4ADV+SEoyP5t3G40KKn/IJNAIPId3x0hIykXwMnhOl+Y7Ej35iHF45Nwh45QyIAp8/jiST4H2zqnmYAL99BXiMyKK2tnY6hcaNWDD/AmrAyh/DvCnQ55htfHhXyqbS0tJvyHIMHjcWzZ6LxWKbgieZSqQI+IMAnicX+cM57FydT3Jy44Vr164NysJf2AGVlN9hzHtCGOLgSoKivIKPwMDpYwxinkBUaUMSg1b7zqBCVFfX8LikbEzQb5Xkp7yCiwAfk3N9kq6qtrbu7z7xHoat/WswKRumgKu32EIgfRraMPJbzw5z081b5kjsj7lJMBdatm1/Lpd6OdTZkkMdreIiArW19ddBrtpFkhmTwtNU6r3KWCYtqAgoAn4jYP2n3xKElP/Yqqr9fR8/hBQ7v8W2cKD4ud9CKH9FIFsEBgxYOyoZ7wvh5LyX2DunCjMdkR0ynU6hI0cs6F6B7i1bXm93j5xSCjMCmzdv9m0rKavyx+Dx9Ef+Brwz/caxsbGRrc3Oe6XkMFt5R48e/ZIUv5H5JJ8auYw7JdhKboKx+pbmz58/hoHUAgkBMFKagws0+YQAC0TnYpQW9vrepWzHriu9UAQUAUUABGpqGmoUiHwQSBivVnauaAohAtXMey8LodwqchEjsMuA5Tj2V/zAgQnL75ksSxqLhlUTWQ5jP/dtwxZy/+ateiKW+6CGlSLPwjZk/61/8ltNeAT+3/Tp00f7J0Mkwrt4UCKRfFBSBgwbNxGHrFeS5wi8/jzCfTdvH8IgZoabBLOhtXnzFhOHC89c7xPGk196z0U5pEKAZ+w/MEovTHVPIi8atfVYcAmglYciECIEWLu6K0TiBlBU63DGbNMCKJiKlAECzMW/zbfZF4/oDMTTIorAXgjsMmB1dCz9C3f79yohkmE9MXPmzKkirIZhMmvWrANYQFguuV0JcYgS71w/jFh6qwgR4ETKb/upNu/A3FGjyh+eM2fOZD/kYCA0heOlxbyPduvoXLv7OhBXDxmvMClJGMT87Iorrtj1XZDia4yVPHNiK4Acd3y/lG7KZzsCtHEJnlfX8ozd4BcmvEvbli5d2ukXf+WrCCgCwUOgrq7pILavTwqeZGGTyL48bBKrvLsRYOH63qamplG7c/RKEQguAntOVO7wS9SSktK1WH9Fj9IerCuD6/2j0ZIV5Il+xBjMryJ4+5ODZdFrRWDSpH1NDLbnfEbiyP7++DpiI31cUo5ZsxqPxZD8CN5QYyT5wutvvIvPCPMclh3ybAGH9cMWcvfmWzs6Or7pLsnhqRnDBoaF31BKcNuqxcKBJikEzPcVXjEWa8QORkmtm2NOyhIzCKeWQXMVAUUgWAj03sR3ds/5ULBEDIU0zntxBKgKhag+CMnJr1Pi8f43ZfrH/PBhWTGdw3t6esxWUE2KQOARGDJhGD26/PPd3T3n+CQ1W0eslRixPs5pCL+TlKGmpuZQvD2W8wET9zaJRq1vSeqqvMKBQHNzc4J34et8wPze6jSa2Eh31NXVn8PH9+zW1lZPjWpMdM9lfvkTWsmH7YuOOQo6cIYNPJOe4jk4ROrJhddlPHsr6IeXCvH8b3ieJMQrQj//mhQv5ROxeKe/wsrud3iOpQ3SQ+A3noyOk7x7SKb+UAQUgaJGgP6JuYfTWNQguKh8SUnJZyH3XRdJFgwpvPxeX758+RuZKjR37twaTuoVPXCGsdi3mBPfxuFuz2Yqp5ZTBPxAYMiKg4n9wiBT2OK7W20mFmOIP9XMB+UackWCATJRe59tRx/3w3iFik9jEGjdjYBeKQK7ESgvLzdxsDbuzvH1qjaZdJ7h3VzM30FuSzJjxowKjGRtvBMmNo4PxqvIM1VVVQ+4rZcb9Oibmt2gkwWNKO3wB9r5HVnUyakoW8ro6y0z4BVLfON828ImpmQAGNXW1n6Md/p52vdHfhuvDBzGMGs8GgMAjYqgCCgCAUEA4/qliOLHmCMgCLgrBv3s5QsWLGAMoSlfBDgtdytfrvn50sm2PnNi3+wA2cqq5YsXgSEGLAMDq5Sn+gkHA11ksr7MwHeDFxPlwbrB4890tveRxwqMHyl5lh9clWc4ENhhUL48QNIaw8bJeCs+V1tb9yLv53n5D1SusHkP7ystLduEnnX+6WpfYrze/OOfnnNX1xE/566obGYxgbZ+sKHBu5OZTLszOPtyes29uZNIJG70hrJSZcV4LEbJhbTtZvqJX4GI68buHFGO9/f3Gs9OTYqAIqAI7EKAOcendv3QCzcQiG7YsGmGG4SURiTCosv/Mh77qzAW+9TW1vu9+0NYZWUXNgSGbCE0wuMQ9AID0EeZWBzjszLso7bWG1m6ut6Y5tYpfWbCvXHjRrY0RK5EPxEvrzQ4vkDH9Oc09zRbERhAgG1cNzIZNDGJOGAgGImPqY2h28hzc2fnxpuRz3g3PMiE9RbsLB14Mj3/z3/+05k6dWoSo5BDOfMXITi4xTNv42I+Nh6Pf4HXj+2zHb4HjET2xznE4h4jYxDTmjW39GMsfBG8DhaWrxSvuw5430ObftQtAx8HduwbjZaauH8ThfUZYDdu3LhX/eAbUJ4l1dXVZZnIhkeoU1FRMfAum/KdnZ32lClTxm7duvVUvBi+yETwOLY7ZEJKvAzv+EUrVqzoEmesDBUBRSCwCNTU1JsF+6AY2QOLU7aC2bazlDql2dbT8qkRSCTijcSJNou8YnNWvuens5Xwm7qVMHWbaK7/COxlwNouUvLDvCdP+C+ekcA5pqJifB9b/f7BxPmMsrKyJ7a7VWYlnYUnwWS2J57PhPsiaop1AumldI5Of68w75jV+TBpNmrUKGfRokXb/JaZyeGXiEMV6NgtfOzeRewq/iwmthsjvLMD/41xa2dqb+/g0orE48aZKACvoJFiIC5OgrhbQU/2rfSFPnnjWR+iTXvr6hovxED5c4yQr+eCFoYwE8j7alA/M5f67tRx7jKeje7QKgQqVnNV1cScFDH1tm413aPFe5QTCZFKvOPPt7e3XivCTJkoAiIIOOVhG09NmDChx61FELcgjkYjF2Lc1uQ+AiWNjY37ceKrMbpoyhMB4ma9hrH1o7Yd+U2epLKqzlbCB6dNmzbZLQeSrJiHrDBjICtsfXI6iKPRaDwM4+SUBiwmKE/i+YRHgvOhdApK5/OROYKB8l9Y4XVwbXwAb4/bmEw92ds76vlVq+43E6pdJwvxwo1hpXiibdtvxuh1MnU/jSdBpbTM6fjxoN/d1pbbJDAdzRDkj5IORpgvJsjbDQ1fAw8bHTo6Wpt55h/muTkuX520/lAECOq8lFP3Vg3NDd4vvFC/N378hG8Z7zefpGP7aBIjgHUtRkkskc5NyWTJ35PJnpfN4CqVTOY4Zrxz3szH8Fj6YBMg//hU5STz+CZgQNNULAjQZ5rA7eegr05Ti6XRi0BPJrK/D6q3Yzr4N23aVMu9WLr70vksqBzJd6lGmm+x8Esmk39AV91K6FKDx2Jtd/PMfo4xWJ1LJDMhU8lcmrl2xMdFx0zE9L+MsVGEbY6bDjXL6jfhH85Idz8o+SkNWNuFS17AizKfa9+3+OwBFguqkblMpvizIqNG9UWYUJnB6YvcMK4d+zDJG2/qYLQy/wKVeMi3VVVVnh4ooVSYwCNQUmKfkkgk1yOoumW711rdvb2973OPnHeUzAoY/Zxp/0O845Ix5Vr63lrbTkRsu9T0v8aj6TX65c30b8boa9JETrTdnxU8i7ygpDf222+/x4IijMrhPQJ4Xd/V0dG+xHtOykERUARChsDnQyZvyMS1jjeLWGHw5AgLsCzAncm81oRfGCcns3U6O6BuEzyVWk415RRqBNKu5uOF9W8WLb8REu3MBoYDMVwZj6sB41VQ5bas6LyguVEHFSuVazcCuGJvwGhw2e4cvcoXAQwuZ65atWqnwSVfcgL1nfcKMMmFhVnk2N+sQPH/7Tv+TIy0gG0sc35A39uHXJqKAAGex1cmTqz8ZBGoqioqAopAFgjMnj17Ap8n0dNvsxCvIIoyFyvr7u79XkEoExAlTIxqQop8RVgcswh5pzkpXJivslMEhkUgrQHL1MJd8Roe3L8PS0FvZoPADe3tS1ZkU0HLKgI7ESCOyw+5Xrfzt/7PHQH6tRZWlH6XOwX5miwqPIaXqQk6pCl7BDh8MEEcMU3FgADvCVsHS09Ug2UxtLbqqAhkhwDfAuN5PcwOlOzoaenUCGDE+njqO5qbKwKEFFnI+HVlrvVzrHcA8advyLGuVlMEPEFgWIQhSE0AAA6pSURBVAMWp4axjTl+Mpw16G3+8K8bPbqcIMgaiyN/KIuXQkXFOOPhoik/BHoJiv+e/Ej4UzuRiMzxh3O4uTLg+9myZcs6w62FSp85As78WKzl2czLa0lFQBEoBgTMSeR8D3QyLtDYeLlPxBHiIwKsiopFT8+2JhQW3T3AO/PxWoLxFhXQqmygERjWgGUkZ9D/EjYX3SueXzPGOQa1RveC5wei1o5EzKmI0ahdrVjkg4BzGN5M8Xwo+FU3Fms1Aec3+sU/pHxZcO83QeQ1FQECDLSvxrvyj0WgqqqoCCgCWSLQ2dl1MFUEYwhlKWDBFbe+WnAq+azQ6tWrNxPfUXwLLIen3V8oJ+353ITK3gUEMnKhZbL3s/r6hg/jDkrgdE3ZIMAKBFsZnKbthsBsampZRSA1AsTDepxVLT5e1s2pS2huGgQc3scmTgAlvl9oEyHRHVbBrEdDq4G84DenOylRXhTl6C0C1r1ssbjIWx5KXRFQBMKLQF+LnOzWlYR+CNTiCWPHmYwflslhEDm+pmb2MbHYEh2zuAg6pxLegUPUdxnTvtlFsiORKuWkvXsoZDzANCkCviIwogfWTuna2lrncf3Czt/6PyMEsF1ZF2MA1FOQMoJLC2WKAM/UTxmEXJ9peS2H2ceJfBXPjPvDjgVtb2Jh3Rl2PYTk72xvbztfiJey8RUB6wEmix/yVQRlrggoAoFFgO2DZYwEDhcSkMWmZOAWGRk/LAcD0e3VnFhswqdochmBjo62KYxrky6THYncyZxKOGOkQnpfEfAagYwNWNsFcabwX+OIZNgqdCzXMKD+UYbFtZgikBUCPFtmYv7brCoVaWFWqa7hY//jQlG/r6/XbOvmZEpNwyBgFhDO5j4TCU2FjYB1H/2hidcpPZgvbFhVO0WggBDYuHHj/wiq04Kx6F+C/DJm5Tj21RkXdqfgGdOnz3uTO6SUyiAEGONEPjbot8glPJfjyVcuwkyZKAJpEMjKgEVnbGI5mSDSr6ehp9m7ELCuZ8Ksqw678NALLxDAu2QBX7BFXtAuIJo34HklffSwp/CtWLGiC7uM8TYJZSwvT8HZQZxBVjPbyRZL8FIe/iGAcXohxqsPIIEar/xrBuWsCAQeAcnJvuMkrwwqIHwXbxI+0bikrKz/jKDiEWa52Ep4D8+19KmEEZ6fpWHGTWUPPwJZGbCMujuCup/AJRMoTakQYEB99Q7vmFS3NU8RcBMBp6OjnSOhLbMvXdNeCDg/wsj3hb2yCyCDBQWzFeDSAlDFCxU6WUD4qBeElWZgEMCzzvkyxunPIJF62QWmWVQQRSB4CNTWNnwaqTKK+5u/9NbTHQzM8qfjHQUMbM3eUd+bMic/Xz5t2rTSve9oTp4IJEtKbLOA058nnayqYzSbXlfXaDzcNSkCviCQtQHLSMnEaV0ymZjG5Ru+SB1gphivLmZAfXGARVTRCg8BB4PpAo2JNbRheRfPo6/62tDcwvqFfmaL8s8LS6v8tMEj0Rg2joCKGjXygzLQtXm/T+D5vy7QQqpwioAiEAgEjAFFShB4mfikQf/+SJ9it9+4ceOOl2qDYuLDwU4bOJXwXGGdLZyeb2Ar4T7CfJWdIjCAQE4GLFMzFos9HY3ab+FSY2INQMnXyrFOx3hl9pYH/cO1Q2L9V0gIbPf6c8T3wwcRQya3M3kXbwmibG7LhIfZJ6HZ7jbdsNIrKYkeiWFDt7mHtQFHkBvz5OPd3dsm8H6vGaGo3lYEFAFFIELQ6XcDw2QhKLpYQ7lRiFfObPhG9tCX/iNnAjlUtG17YQ7VtEoGCLCV8BdMPdsyKOpmkbHMe3/vJkGlpQhkikDOBizDAKvvJiZPk7gs9tMJiUPjHMO+8l+DhRqvzMOhyRcEGJTcFYmUvg3mxfoc9paVlU5icrvClwbwhykeeG31eOD9xR/2weGK4fJ4vkuig/LgaF/4ktC+Z7M1tHr16tWbC19b1VARUARcQuAq6OAx4n3CKLSIcVgoYlOy9ewk7xHZzQFsqjWY+248XL5KxuPxD0JT9Nnjm1yDgdhs49ekCIgikJcBa4ekZvJ0ENehP54+N+Sdp3t7e8bzwXost/paSxFwF4H29pYnMeJUYMN61F3KgaaGwc5ZXFVVObalpeWVQEvqkXB44L2LAeItHpEPOtneZNKaoV45QW+m7OUjWCzB2a1V9GnjaN87sqegNRQBRaBYEWhsbNwP3WcK6Z9g++DnhXjlzYbFnlcZM2zLm1AWBMrL+67JorgWzQKB5cuXv8Y4+IIsqrhSlGfoxlmzZh3gCjEloghkiIAbBqwBVhixTsYSa07F6smQd+iLoe9NGK6OWLVqVXfolVEFCgoBjDhbeTaP5Rk18dh6C0q5PZRhgos3hn0W+p7S3Nyc2ON2Uf3EO+U82vxslC7oNt+jUTvZzn5sLNa6co98/Rl+BJ5iQF6DcfYk06eFXx3VQBFQBCQRiMeTX2eC7dpcZwTZH2McEqbt645tRz4+gk6u3qYtznKVoBIbggDP3/Vg/OCQTO9/RG275J4FCxZEvWelHBSB7Qi42qmzOvpbBpuHsv+70LeyrGPCVI2+/6EPkiIQZAR4Rq8qLS2ZioztQZYzV9noa+5Fv8nt7UvZ/6/JIGC8VDBimUM21hU+ItayiopxU3TbYMG19GM8w+9nYexInudi2g5ccA2pCikCfiFAgOly+hETI1IkJRLWp0QYuciktLT0fsiJnmBHu5zjogpKag8E8AKcR5boIibv2UmdnZ1i79oeKuvPIkTAVQOWwQ/r78ucHnsihqzz+VloK6b9WLa/gW5vY8L0eBE+L6pyCBF44IEHXtweI8k5DfGfC6EKqUR+hA/mifQ1H1DPjL3hYdK/trPzlWq2Xl3J3YL0SqP9L8Qzp2bRokWiWyD2Rltz3EKANm1hK2gj/dWxPMMaHNYtYJWOIlCcCJhdIfsKqd69bFnrw0K8XGNjxk/0u+Y0Y8FkXS/IrOhYGS9Ax0l+Tl5x6xaMk5XyfJVjMSLgugFrB4hJ48ZoTimkY7yzQID9JZ4eU9ii8310ixeITqpGESHAc3sfxtfDODXEuHBvDKnq/0L+U5jgTmOCuzqkOoiIvXbt2j4MPJfQ5kdjeI+JMBVgYnRJJkun0v4/FmCnLDxGwGwBZpzwjWQyYdp0HltBW2FZrIdQeIy2klcEigkB++ty2tqhDWRNH/xTOZwGOJXX1c05XphnUbHr6Oi4jR0KTwgrbQ5KkN6+KKyisgsKAl4ZsAb0w0tpAwPSs8zA1ARhDYrS2cnhLGEsfSgT5jONJ0t2dbW0IhAsBIzxldMy7yTY+YG2bZ3CB+6lYEmYVpqnmOSeiNyHIf9iShHYWVMmCNDmT2J4rwW/d1D+sUzqBLTMS45j16BLfSzW8mxAZVSxMkOALSvOD3kmj2SleD/GCd+PxWLapplhp6UUAUVgBATwBOF755gTmUVSmMMYtLa24pnvmHGVYOq/VZBZUbLi+/ouecWtQ+vqGr4pz1c5FhsCJRIK7xiYnjR37tyJfX39v4FnnQTffHiwyt9cWhr99JIlS97Ih47WVQSCiADBzvuQywxYDuS9rOrt7V/Ix+7UoMnKyuBCJrgXYYQJU2DUoME4IA9Ggr9xcSwD+wMJen8HA9b6QAq6h1D0xa/aduSUysrKh4o9SP8e0ITt5wqM5lfath3ju9qF8GqEDlsLqryKQGgQsMQm0XyjbgoNLOkFvYpbTelvu3sHT/rq2bNnT9A5lru4DqbGuHkL473TcCC5d3C+99fOd2jb/9a29R7pYuYgYsDaCTB7rV/h2kyaLCy032cC9WWuy3fe9/k/ziiRLoLffYmX/nafZVH2ioAUAs6O9/J9hiFHTh/FqT0LmWgezwtRSpZxCZZKZtuQMay1JxLxTy5btiws3mFS+LjBx6F/+zeEGgyxmpr6T2EcuhZD4Vja23aDgUs08NCJrMTjrgmjVbdLNJWMdwiYdzfJc5TgOSLmmrWOb+ldXN+x43nzjrNSVgQUAUVgEAKMY/ZLJJIfHJTl6SV9neBWRW9UoZ9uZ172NPOyw73hMJQqC6Z2PB43sbBET0EcKkXh/6JZ76urq1+DpuZgH6lkxeOJtTA7mD8zNtCkCLiOgKgBa5D0TKJaL+X3pViHp2CJv47rE+nQJg4qI3FpJkkvYrj6FR+g7xMQeosE0wDyuJ0Jx6gAyuWrSDwT5vkoqrTjcIIZRummpqbx27b1nMd7eQY/J/G3L39uPic90H6VSS7voLVw4sTKO9VYAcKCKRZrM2785s+qrW34LM+8OVn1IP724U8ymUHOq4jxd+wflxO/YZkk8yDyikattYlE5H+CIhvPxjbeU/rEZBf/zWLPC44TfRGb1bNqpHKnlXp6euIVFRNE2jwajfa4I7VS2YkA37Nf8G5U7Pyt/3cjgHH75d2/vL3q63PeQv8p8h4xfnmVuUNBeIgzF7qQdhLzxIffZm+fhMyoI8cv0Xt8ZqVzL7V161azQCueiEf9nkTC+U9pxg0NDfVsT22V5juYH+36LO0r0hcM5hvma3a9hCK+sKR3xYjtyarJJLw/zmIQ8B4KEwDemszHwU2vAHMq4r8wCHNEt9XMlprf8Vutw4CgSRHIBAEMzgdxSti7bHsgtoRZqZvIuzQqmYxwXLUzuD/BOM6bHHE4udPq56qbj8grlHmG8o/09/f/dfny5c9nwlPLyCPAwOPAZDK5gDacTdsdSvsexH83B3jGq8q0/7M8I3/q6+v79cqVK42HriZFQBFQBBQBRUARUAQUAUVAEVAEUiIweMKZsoCfmTNmzKgoKys7DiPWMUx6j0KWSUyCjSfIBP7G8jeGvz7uDRihkkknbibKTIiIr2Ft4noD95/jby00/sYq8TquNSkCioAioAhkicCsWbOqbLvsaDxwjOHyMP4m0ccar9l96V/H27Zt+uQI133002alcQv3TawjTrx0OjFkYqyynras5KP0xaZf1sUDQNCkCCgCioAioAgoAoqAIqAIKAKZIfD/bORZacws+ygAAAAASUVORK5CYII=;" parent="1" vertex="1">
          <mxGeometry x="754.66" y="126.05000000000001" width="90.67" height="30" as="geometry" />
        </mxCell>
        <mxCell id="M0A9UQwUjTfV-8Phl40K-75" style="rounded=0;orthogonalLoop=1;jettySize=auto;html=1;exitX=0;exitY=0.5;exitDx=0;exitDy=0;startArrow=classic;startFill=1;entryX=0.999;entryY=0.284;entryDx=0;entryDy=0;entryPerimeter=0;" parent="1" source="M0A9UQwUjTfV-8Phl40K-71" target="M0A9UQwUjTfV-8Phl40K-68" edge="1">
          <mxGeometry relative="1" as="geometry">
            <mxPoint x="640" y="200" as="targetPoint" />
          </mxGeometry>
        </mxCell>
        <mxCell id="M0A9UQwUjTfV-8Phl40K-78" value="&lt;div&gt;https://my-app.domain.name&lt;br&gt;&lt;/div&gt;&lt;div&gt;&lt;br&gt;&lt;/div&gt;&lt;div&gt;&lt;br&gt;&lt;/div&gt;&lt;div&gt;&lt;br&gt;&lt;/div&gt;" style="rounded=0;whiteSpace=wrap;html=1;" parent="1" vertex="1">
          <mxGeometry x="680" y="320" width="240" height="80" as="geometry" />
        </mxCell>
        <mxCell id="M0A9UQwUjTfV-8Phl40K-77" value="" style="points=[[0.35,0,0],[0.98,0.51,0],[1,0.71,0],[0.67,1,0],[0,0.795,0],[0,0.65,0]];verticalLabelPosition=bottom;sketch=0;html=1;verticalAlign=top;aspect=fixed;align=center;pointerEvents=1;shape=mxgraph.cisco19.user;fillColor=#005073;strokeColor=none;" parent="1" vertex="1">
          <mxGeometry x="770" y="351" width="50" height="50" as="geometry" />
        </mxCell>
      </root>
    </mxGraphModel>
  </diagram>
</mxfile>
